<?xml version="1.0" encoding="UTF-8" standalone="no"?>
<!DOCTYPE svg PUBLIC "-//W3C//DTD SVG 1.1//EN"
 "http://www.w3.org/Graphics/SVG/1.1/DTD/svg11.dtd">
<!-- Generated by graphviz version 2.43.0 (0)
 -->
<!-- Title: application_state_diagram Pages: 1 -->
<svg width="442pt" height="159pt"
 viewBox="0.00 0.00 442.00 159.00" xmlns="http://www.w3.org/2000/svg" xmlns:xlink="http://www.w3.org/1999/xlink">
<g id="graph0" class="graph" transform="scale(1 1) rotate(0) translate(4 155)">
<title>application_state_diagram</title>
<g id="a_graph0"><a xlink:href="index.html" xlink:title="Service Metadata &#45; Client Preferences for Service Responses" target="_parent">
<polygon fill="white" stroke="transparent" points="-4,4 -4,-155 438,-155 438,4 -4,4"/>
<text text-anchor="middle" x="217" y="-135.8" font-family="Helvetica,sans-Serif" font-size="14.00">Service Metadata &#45; Client Preferences for Service Responses</text>
</a>
</g>
<!-- serviceMeta -->
<g id="node1" class="node">
<title>serviceMeta</title>
<g id="a_node1"><a xlink:href="docs/semantic.serviceMeta.html" xlink:title="&lt;TABLE&gt;" target="_parent">
<polygon fill="lightgray" stroke="black" stroke-width="2" points="242.5,-128 46.5,-128 46.5,-86 242.5,-86 242.5,-128"/>
<text text-anchor="start" x="100.5" y="-110.8" font-family="Times,serif" font-size="14.00">serviceMeta</text>
<text text-anchor="start" x="52.5" y="-95.8" font-family="Times,serif" font-size="14.00">(serviceMetaPreferences)</text>
</a>
</g>
</g>
<!-- home -->
<g id="node2" class="node">
<title>home</title>
<g id="a_node2"><a xlink:href="docs/semantic.home.html" xlink:title="home" target="_parent">
<polygon fill="lightgray" stroke="black" stroke-width="2" points="172.5,-36 116.5,-36 116.5,0 172.5,0 172.5,-36"/>
<text text-anchor="middle" x="144.5" y="-14.3" font-family="Times,serif" font-size="14.00">home</text>
</a>
</g>
</g>
<!-- serviceMeta&#45;&gt;home -->
<g id="edge2" class="edge">
<title>serviceMeta&#45;&gt;home</title>
<g id="a_edge2"><a xlink:href="docs/safe.goHome.html" xlink:title="goHome, self (safe)" target="_parent">
<path fill="none" stroke="black" d="M81.23,-85.82C66.86,-77.71 58.01,-67.12 66.5,-54 75.5,-40.1 91.47,-31.67 106.62,-26.58"/>
<polygon fill="black" stroke="black" points="107.79,-29.88 116.38,-23.69 105.8,-23.17 107.79,-29.88"/>
</a>
</g>
<g id="a_edge2&#45;label"><a xlink:href="docs/safe.goHome.html" xlink:title="goHome, self (safe)" target="_parent">
<text text-anchor="start" x="66.5" y="-57.6" font-family="Times,serif" font-size="13.00">goHome, self (safe)</text>
</a>
</g>
</g>
<!-- home&#45;&gt;serviceMeta -->
<g id="edge1" class="edge">
<title>home&#45;&gt;serviceMeta</title>
<g id="a_edge1"><a xlink:href="docs/safe.goServiceMeta.html" xlink:title="goServiceMeta, about (safe)" target="_parent">
<path fill="none" stroke="black" d="M172.57,-30.25C182.61,-35.81 192.84,-43.6 198.5,-54 203.44,-63.09 200.11,-71.55 193.16,-78.89"/>
<polygon fill="black" stroke="black" points="190.42,-76.64 185.18,-85.85 195.02,-81.92 190.42,-76.64"/>
</a>
</g>
<g id="a_edge1&#45;label"><a xlink:href="docs/safe.goServiceMeta.html" xlink:title="goServiceMeta, about (safe)" target="_parent">
<text text-anchor="start" x="200.5" y="-57.6" font-family="Times,serif" font-size="13.00">goServiceMeta, about (safe)</text>
</a>
</g>
</g>
</g>
</svg>
