<?xml version="1.0" encoding="UTF-8" standalone="no"?>
<!DOCTYPE svg PUBLIC "-//W3C//DTD SVG 1.1//EN"
 "http://www.w3.org/Graphics/SVG/1.1/DTD/svg11.dtd">
<!-- Generated by graphviz version 2.43.0 (0)
 -->
<!-- Title: application_state_diagram Pages: 1 -->
<svg width="432pt" height="309pt"
 viewBox="0.00 0.00 431.58 309.00" xmlns="http://www.w3.org/2000/svg" xmlns:xlink="http://www.w3.org/1999/xlink">
<g id="graph0" class="graph" transform="scale(1 1) rotate(0) translate(4 305)">
<title>application_state_diagram</title>
<g id="a_graph0"><a xlink:href="index.html" xlink:title="Data&#45;Centric Query Metadata" target="_parent">
<polygon fill="white" stroke="transparent" points="-4,4 -4,-305 427.58,-305 427.58,4 -4,4"/>
<text text-anchor="middle" x="211.79" y="-285.8" font-family="Helvetica,sans-Serif" font-size="14.00">Data&#45;Centric Query Metadata</text>
</a>
</g>
<!-- queryMetadata -->
<g id="node1" class="node">
<title>queryMetadata</title>
<g id="a_node1"><a xlink:href="docs/semantic.queryMetadata.html" xlink:title="&lt;TABLE&gt;" target="_parent">
<polygon fill="lightgray" stroke="black" stroke-width="2" points="152.58,-278 30.58,-278 30.58,-86 152.58,-86 152.58,-278"/>
<text text-anchor="start" x="36.58" y="-260.8" font-family="Times,serif" font-size="14.00">queryMetadata</text>
<text text-anchor="start" x="57.08" y="-245.8" font-family="Times,serif" font-size="14.00">(q&#45;status)</text>
<text text-anchor="start" x="64.08" y="-230.8" font-family="Times,serif" font-size="14.00">(q&#45;sent)</text>
<text text-anchor="start" x="47.08" y="-215.8" font-family="Times,serif" font-size="14.00">(q&#45;executed)</text>
<text text-anchor="start" x="47.58" y="-200.8" font-family="Times,serif" font-size="14.00">(q&#45;returned)</text>
<text text-anchor="start" x="59.58" y="-185.8" font-family="Times,serif" font-size="14.00">(q&#45;count)</text>
<text text-anchor="start" x="50.58" y="-170.8" font-family="Times,serif" font-size="14.00">(q&#45;seconds)</text>
<text text-anchor="start" x="47.58" y="-155.8" font-family="Times,serif" font-size="14.00">(q&#45;datetime)</text>
<text text-anchor="start" x="60.08" y="-140.8" font-family="Times,serif" font-size="14.00">(q&#45;score)</text>
<text text-anchor="start" x="55.58" y="-125.8" font-family="Times,serif" font-size="14.00">(q&#45;source)</text>
<text text-anchor="start" x="51.08" y="-110.8" font-family="Times,serif" font-size="14.00">(q&#45;suggest)</text>
<text text-anchor="start" x="51.08" y="-95.8" font-family="Times,serif" font-size="14.00">(q&#45;location)</text>
</a>
</g>
</g>
<!-- home -->
<g id="node2" class="node">
<title>home</title>
<g id="a_node2"><a xlink:href="docs/semantic.home.html" xlink:title="home" target="_parent">
<polygon fill="lightgray" stroke="black" stroke-width="2" points="119.58,-36 63.58,-36 63.58,0 119.58,0 119.58,-36"/>
<text text-anchor="middle" x="91.58" y="-14.3" font-family="Times,serif" font-size="14.00">home</text>
</a>
</g>
</g>
<!-- queryMetadata&#45;&gt;home -->
<g id="edge2" class="edge">
<title>queryMetadata&#45;&gt;home</title>
<g id="a_edge2"><a xlink:href="docs/safe.goHome.html" xlink:title="goHome, home (safe)" target="_parent">
<path fill="none" stroke="black" d="M30.46,-133.6C7.2,-109.7 -9.94,-80.28 7.58,-54 17.91,-38.51 36.54,-29.86 53.63,-25.04"/>
<polygon fill="black" stroke="black" points="54.57,-28.41 63.44,-22.62 52.89,-21.62 54.57,-28.41"/>
</a>
</g>
<g id="a_edge2&#45;label"><a xlink:href="docs/safe.goHome.html" xlink:title="goHome, home (safe)" target="_parent">
<text text-anchor="start" x="7.58" y="-57.6" font-family="Times,serif" font-size="13.00">goHome, home (safe)</text>
</a>
</g>
</g>
<!-- home&#45;&gt;queryMetadata -->
<g id="edge1" class="edge">
<title>home&#45;&gt;queryMetadata</title>
<g id="a_edge1"><a xlink:href="docs/safe.goQueryMetadata.html" xlink:title="goQueryMetadata, query&#45;metadata (safe)" target="_parent">
<path fill="none" stroke="black" d="M119.85,-28.21C131.87,-33.69 144.68,-41.97 151.58,-54 154.68,-59.4 153.09,-61.96 151.58,-68 150.91,-70.69 150.17,-73.38 149.35,-76.07"/>
<polygon fill="black" stroke="black" points="145.95,-75.21 146.13,-85.8 152.6,-77.41 145.95,-75.21"/>
</a>
</g>
<g id="a_edge1&#45;label"><a xlink:href="docs/safe.goQueryMetadata.html" xlink:title="goQueryMetadata, query&#45;metadata (safe)" target="_parent">
<text text-anchor="start" x="152.58" y="-57.6" font-family="Times,serif" font-size="13.00">goQueryMetadata, query&#45;metadata (safe)</text>
</a>
</g>
</g>
</g>
</svg>
