<?xml version="1.0" encoding="UTF-8" standalone="no"?>
<!DOCTYPE svg PUBLIC "-//W3C//DTD SVG 1.1//EN"
 "http://www.w3.org/Graphics/SVG/1.1/DTD/svg11.dtd">
<!-- Generated by graphviz version 2.43.0 (0)
 -->
<!-- Title: application_state_diagram Pages: 1 -->
<svg width="431pt" height="294pt"
 viewBox="0.00 0.00 431.08 294.00" xmlns="http://www.w3.org/2000/svg" xmlns:xlink="http://www.w3.org/1999/xlink">
<g id="graph0" class="graph" transform="scale(1 1) rotate(0) translate(4 290)">
<title>application_state_diagram</title>
<g id="a_graph0"><a xlink:href="index.html" xlink:title="Data&#45;Centric Query Metadata" target="_parent">
<polygon fill="white" stroke="transparent" points="-4,4 -4,-290 427.08,-290 427.08,4 -4,4"/>
<text text-anchor="middle" x="211.54" y="-270.8" font-family="Helvetica,sans-Serif" font-size="14.00">Data&#45;Centric Query Metadata</text>
</a>
</g>
<!-- queryMetadata -->
<g id="node1" class="node">
<title>queryMetadata</title>
<g id="a_node1"><a xlink:href="docs/semantic.queryMetadata.html" xlink:title="&lt;TABLE&gt;" target="_parent">
<polygon fill="lightgray" stroke="black" stroke-width="2" points="152.08,-263 30.08,-263 30.08,-86 152.08,-86 152.08,-263"/>
<text text-anchor="start" x="36.08" y="-245.3" font-family="Times,serif" font-size="14.00">queryMetadata</text>
<text text-anchor="start" x="56.58" y="-230.3" font-family="Times,serif" font-size="14.00">(q&#45;status)</text>
<text text-anchor="start" x="63.58" y="-215.3" font-family="Times,serif" font-size="14.00">(q&#45;sent)</text>
<text text-anchor="start" x="46.58" y="-200.3" font-family="Times,serif" font-size="14.00">(q&#45;executed)</text>
<text text-anchor="start" x="59.08" y="-185.3" font-family="Times,serif" font-size="14.00">(q&#45;count)</text>
<text text-anchor="start" x="50.08" y="-170.3" font-family="Times,serif" font-size="14.00">(q&#45;seconds)</text>
<text text-anchor="start" x="47.08" y="-155.3" font-family="Times,serif" font-size="14.00">(q&#45;datetime)</text>
<text text-anchor="start" x="59.58" y="-140.3" font-family="Times,serif" font-size="14.00">(q&#45;score)</text>
<text text-anchor="start" x="55.08" y="-125.3" font-family="Times,serif" font-size="14.00">(q&#45;source)</text>
<text text-anchor="start" x="50.58" y="-110.3" font-family="Times,serif" font-size="14.00">(q&#45;suggest)</text>
<text text-anchor="start" x="50.58" y="-95.3" font-family="Times,serif" font-size="14.00">(q&#45;location)</text>
</a>
</g>
</g>
<!-- home -->
<g id="node2" class="node">
<title>home</title>
<g id="a_node2"><a xlink:href="docs/semantic.home.html" xlink:title="home" target="_parent">
<polygon fill="lightgray" stroke="black" stroke-width="2" points="119.08,-36 63.08,-36 63.08,0 119.08,0 119.08,-36"/>
<text text-anchor="middle" x="91.08" y="-14.3" font-family="Times,serif" font-size="14.00">home</text>
</a>
</g>
</g>
<!-- queryMetadata&#45;&gt;home -->
<g id="edge2" class="edge">
<title>queryMetadata&#45;&gt;home</title>
<g id="a_edge2"><a xlink:href="docs/safe.goHome.html" xlink:title="goHome, home (safe)" target="_parent">
<path fill="none" stroke="black" d="M29.98,-128.75C7.17,-106.46 -9.59,-79 7.08,-54 17.41,-38.51 36.03,-29.86 53.12,-25.04"/>
<polygon fill="black" stroke="black" points="54.06,-28.41 62.93,-22.62 52.39,-21.62 54.06,-28.41"/>
</a>
</g>
<g id="a_edge2&#45;label"><a xlink:href="docs/safe.goHome.html" xlink:title="goHome, home (safe)" target="_parent">
<text text-anchor="start" x="7.08" y="-57.6" font-family="Times,serif" font-size="13.00">goHome, home (safe)</text>
</a>
</g>
</g>
<!-- home&#45;&gt;queryMetadata -->
<g id="edge1" class="edge">
<title>home&#45;&gt;queryMetadata</title>
<g id="a_edge1"><a xlink:href="docs/safe.goQueryMetadata.html" xlink:title="goQueryMetadata, query&#45;metadata (safe)" target="_parent">
<path fill="none" stroke="black" d="M119.35,-28.21C131.36,-33.69 144.17,-41.97 151.08,-54 154.18,-59.4 152.67,-61.98 151.08,-68 150.33,-70.82 149.49,-73.64 148.57,-76.45"/>
<polygon fill="black" stroke="black" points="145.23,-75.4 145.14,-85.99 151.82,-77.77 145.23,-75.4"/>
</a>
</g>
<g id="a_edge1&#45;label"><a xlink:href="docs/safe.goQueryMetadata.html" xlink:title="goQueryMetadata, query&#45;metadata (safe)" target="_parent">
<text text-anchor="start" x="152.08" y="-57.6" font-family="Times,serif" font-size="13.00">goQueryMetadata, query&#45;metadata (safe)</text>
</a>
</g>
</g>
</g>
</svg>
