<?xml version="1.0" encoding="UTF-8" standalone="no"?>
<!DOCTYPE svg PUBLIC "-//W3C//DTD SVG 1.1//EN"
 "http://www.w3.org/Graphics/SVG/1.1/DTD/svg11.dtd">
<!-- Generated by graphviz version 2.43.0 (0)
 -->
<!-- Title: application_state_diagram Pages: 1 -->
<svg width="442pt" height="159pt"
 viewBox="0.00 0.00 442.00 159.00" xmlns="http://www.w3.org/2000/svg" xmlns:xlink="http://www.w3.org/1999/xlink">
<g id="graph0" class="graph" transform="scale(1 1) rotate(0) translate(4 155)">
<title>application_state_diagram</title>
<g id="a_graph0"><a xlink:href="index.html" xlink:title="Meta&#45;Preferences &#45; Client Preferences for Service Responses" target="_parent">
<polygon fill="white" stroke="transparent" points="-4,4 -4,-155 438,-155 438,4 -4,4"/>
<text text-anchor="middle" x="217" y="-135.8" font-family="Helvetica,sans-Serif" font-size="14.00">Meta&#45;Preferences &#45; Client Preferences for Service Responses</text>
</a>
</g>
<!-- clientMetaPreferences -->
<g id="node1" class="node">
<title>clientMetaPreferences</title>
<g id="a_node1"><a xlink:href="docs/semantic.clientMetaPreferences.html" xlink:title="&lt;TABLE&gt;" target="_parent">
<polygon fill="lightgray" stroke="black" stroke-width="2" points="211.75,-128 36.75,-128 36.75,-86 211.75,-86 211.75,-128"/>
<text text-anchor="start" x="43.25" y="-110.8" font-family="Times,serif" font-size="14.00">clientMetaPreferences</text>
<text text-anchor="start" x="58.25" y="-95.8" font-family="Times,serif" font-size="14.00">(MetaPreferences)</text>
</a>
</g>
</g>
<!-- home -->
<g id="node2" class="node">
<title>home</title>
<g id="a_node2"><a xlink:href="docs/semantic.home.html" xlink:title="home" target="_parent">
<polygon fill="lightgray" stroke="black" stroke-width="2" points="152.25,-36 96.25,-36 96.25,0 152.25,0 152.25,-36"/>
<text text-anchor="middle" x="124.25" y="-14.3" font-family="Times,serif" font-size="14.00">home</text>
</a>
</g>
</g>
<!-- clientMetaPreferences&#45;&gt;home -->
<g id="edge1" class="edge">
<title>clientMetaPreferences&#45;&gt;home</title>
<g id="a_edge1"><a xlink:href="docs/safe.goHome.html" xlink:title="goHome, home (safe)" target="_parent">
<path fill="none" stroke="black" d="M58.9,-85.8C44.43,-77.73 35.64,-67.17 44.25,-54 53.73,-39.5 70.69,-30.97 86.56,-25.97"/>
<polygon fill="black" stroke="black" points="87.52,-29.34 96.23,-23.29 85.66,-22.59 87.52,-29.34"/>
</a>
</g>
<g id="a_edge1&#45;label"><a xlink:href="docs/safe.goHome.html" xlink:title="goHome, home (safe)" target="_parent">
<text text-anchor="start" x="44.25" y="-57.6" font-family="Times,serif" font-size="13.00">goHome, home (safe)</text>
</a>
</g>
</g>
<!-- home&#45;&gt;clientMetaPreferences -->
<g id="edge2" class="edge">
<title>home&#45;&gt;clientMetaPreferences</title>
<g id="a_edge2"><a xlink:href="docs/safe.goMetaPreferences.html" xlink:title="goMetaPreferences, meta (safe)" target="_parent">
<path fill="none" stroke="black" d="M152.52,-28.21C164.53,-33.69 177.34,-41.97 184.25,-54 189.72,-63.52 185.98,-72.15 178.23,-79.52"/>
<polygon fill="black" stroke="black" points="175.81,-76.97 170.14,-85.92 180.15,-82.46 175.81,-76.97"/>
</a>
</g>
<g id="a_edge2&#45;label"><a xlink:href="docs/safe.goMetaPreferences.html" xlink:title="goMetaPreferences, meta (safe)" target="_parent">
<text text-anchor="start" x="186.25" y="-57.6" font-family="Times,serif" font-size="13.00">goMetaPreferences, meta (safe)</text>
</a>
</g>
</g>
</g>
</svg>
