<?xml version="1.0" encoding="UTF-8" standalone="no"?>
<!DOCTYPE svg PUBLIC "-//W3C//DTD SVG 1.1//EN"
 "http://www.w3.org/Graphics/SVG/1.1/DTD/svg11.dtd">
<!-- Generated by graphviz version 2.43.0 (0)
 -->
<!-- Title: application_state_diagram Pages: 1 -->
<svg width="442pt" height="159pt"
 viewBox="0.00 0.00 442.00 159.00" xmlns="http://www.w3.org/2000/svg" xmlns:xlink="http://www.w3.org/1999/xlink">
<g id="graph0" class="graph" transform="scale(1 1) rotate(0) translate(4 155)">
<title>application_state_diagram</title>
<g id="a_graph0"><a xlink:href="index.html" xlink:title="Meta&#45;Preferences &#45; Client Preferences for Service Responses" target="_parent">
<polygon fill="white" stroke="transparent" points="-4,4 -4,-155 438,-155 438,4 -4,4"/>
<text text-anchor="middle" x="217" y="-135.8" font-family="Helvetica,sans-Serif" font-size="14.00">Meta&#45;Preferences &#45; Client Preferences for Service Responses</text>
</a>
</g>
<!-- clientMetaPreferences -->
<g id="node1" class="node">
<title>clientMetaPreferences</title>
<g id="a_node1"><a xlink:href="docs/semantic.clientMetaPreferences.html" xlink:title="&lt;TABLE&gt;" target="_parent">
<polygon fill="lightgray" stroke="black" stroke-width="2" points="212.75,-128 37.75,-128 37.75,-86 212.75,-86 212.75,-128"/>
<text text-anchor="start" x="44.25" y="-110.8" font-family="Times,serif" font-size="14.00">clientMetaPreferences</text>
<text text-anchor="start" x="59.25" y="-95.8" font-family="Times,serif" font-size="14.00">(MetaPreferences)</text>
</a>
</g>
</g>
<!-- home -->
<g id="node2" class="node">
<title>home</title>
<g id="a_node2"><a xlink:href="docs/semantic.home.html" xlink:title="home" target="_parent">
<polygon fill="lightgray" stroke="black" stroke-width="2" points="153.25,-36 97.25,-36 97.25,0 153.25,0 153.25,-36"/>
<text text-anchor="middle" x="125.25" y="-14.3" font-family="Times,serif" font-size="14.00">home</text>
</a>
</g>
</g>
<!-- clientMetaPreferences&#45;&gt;home -->
<g id="edge1" class="edge">
<title>clientMetaPreferences&#45;&gt;home</title>
<g id="a_edge1"><a xlink:href="docs/safe.goHome.html" xlink:title="goHome, self (safe)" target="_parent">
<path fill="none" stroke="black" d="M66.07,-85.88C51.93,-77.67 43.02,-67 51.25,-54 59.33,-41.25 73.44,-33.05 87.19,-27.83"/>
<polygon fill="black" stroke="black" points="88.68,-31.02 97.05,-24.52 86.45,-24.38 88.68,-31.02"/>
</a>
</g>
<g id="a_edge1&#45;label"><a xlink:href="docs/safe.goHome.html" xlink:title="goHome, self (safe)" target="_parent">
<text text-anchor="start" x="51.25" y="-57.6" font-family="Times,serif" font-size="13.00">goHome, self (safe)</text>
</a>
</g>
</g>
<!-- home&#45;&gt;clientMetaPreferences -->
<g id="edge2" class="edge">
<title>home&#45;&gt;clientMetaPreferences</title>
<g id="a_edge2"><a xlink:href="docs/safe.goMetaPreferences.html" xlink:title="goMetaPreferences, about (safe)" target="_parent">
<path fill="none" stroke="black" d="M153.32,-30.25C163.36,-35.81 173.59,-43.6 179.25,-54 184.19,-63.09 180.86,-71.55 173.91,-78.89"/>
<polygon fill="black" stroke="black" points="171.17,-76.64 165.93,-85.85 175.77,-81.92 171.17,-76.64"/>
</a>
</g>
<g id="a_edge2&#45;label"><a xlink:href="docs/safe.goMetaPreferences.html" xlink:title="goMetaPreferences, about (safe)" target="_parent">
<text text-anchor="start" x="181.25" y="-57.6" font-family="Times,serif" font-size="13.00">goMetaPreferences, about (safe)</text>
</a>
</g>
</g>
</g>
</svg>
