<?xml version="1.0" encoding="UTF-8" standalone="no"?>
<!DOCTYPE svg PUBLIC "-//W3C//DTD SVG 1.1//EN"
 "http://www.w3.org/Graphics/SVG/1.1/DTD/svg11.dtd">
<!-- Generated by graphviz version 2.43.0 (0)
 -->
<!-- Title: application_state_diagram Pages: 1 -->
<svg width="576pt" height="339pt"
 viewBox="0.00 0.00 576.32 339.00" xmlns="http://www.w3.org/2000/svg" xmlns:xlink="http://www.w3.org/1999/xlink">
<g id="graph0" class="graph" transform="scale(1 1) rotate(0) translate(4 335)">
<title>application_state_diagram</title>
<g id="a_graph0"><a xlink:href="index.html" xlink:title="Email Updater API" target="_parent">
<polygon fill="white" stroke="transparent" points="-4,4 -4,-335 572.32,-335 572.32,4 -4,4"/>
<text text-anchor="middle" x="284.16" y="-315.8" font-family="Helvetica,sans-Serif" font-size="14.00">Email Updater API</text>
</a>
</g>
<!-- collection -->
<g id="node1" class="node">
<title>collection</title>
<g id="a_node1"><a xlink:href="docs/semantic.collection.html" xlink:title="&lt;TABLE&gt;" target="_parent">
<polygon fill="lightgray" stroke="black" stroke-width="2" points="287.82,-308 206.82,-308 206.82,-236 287.82,-236 287.82,-308"/>
<text text-anchor="start" x="213.32" y="-290.8" font-family="Times,serif" font-size="14.00">collection</text>
<text text-anchor="start" x="235.32" y="-275.8" font-family="Times,serif" font-size="14.00">(id)</text>
<text text-anchor="start" x="222.82" y="-260.8" font-family="Times,serif" font-size="14.00">(name)</text>
<text text-anchor="start" x="222.82" y="-245.8" font-family="Times,serif" font-size="14.00">(email)</text>
</a>
</g>
</g>
<!-- collection&#45;&gt;collection -->
<g id="edge1" class="edge">
<title>collection&#45;&gt;collection</title>
<path fill="none" stroke="black" d="M288.06,-285.68C298.22,-284.73 305.82,-280.17 305.82,-272 305.82,-266.77 302.7,-263.02 297.79,-260.74"/>
<polygon fill="black" stroke="black" points="298.61,-257.34 288.06,-258.32 296.91,-264.13 298.61,-257.34"/>
<g id="a_edge1_0"><a xlink:href="docs/safe.goFilter.html" xlink:title="&lt;TABLE&gt;">
<text text-anchor="start" x="309.82" y="-278.6" font-family="Times,serif" font-size="13.00">goFilter (safe)</text>
</a>
</g>
<g id="a_edge1_1"><a xlink:href="docs/safe.goList.html" xlink:title="&lt;TABLE&gt;">
<text text-anchor="start" x="309.82" y="-258.6" font-family="Times,serif" font-size="13.00">goList (safe)</text>
</a>
</g>
</g>
<!-- item -->
<g id="node2" class="node">
<title>item</title>
<g id="a_node2"><a xlink:href="docs/semantic.item.html" xlink:title="&lt;TABLE&gt;" target="_parent">
<polygon fill="lightgray" stroke="black" stroke-width="2" points="90.32,-158 28.32,-158 28.32,-86 90.32,-86 90.32,-158"/>
<text text-anchor="start" x="42.82" y="-140.8" font-family="Times,serif" font-size="14.00">item</text>
<text text-anchor="start" x="46.82" y="-125.8" font-family="Times,serif" font-size="14.00">(id)</text>
<text text-anchor="start" x="34.32" y="-110.8" font-family="Times,serif" font-size="14.00">(name)</text>
<text text-anchor="start" x="34.32" y="-95.8" font-family="Times,serif" font-size="14.00">(email)</text>
</a>
</g>
</g>
<!-- collection&#45;&gt;item -->
<g id="edge3" class="edge">
<title>collection&#45;&gt;item</title>
<g id="a_edge3"><a xlink:href="docs/safe.goItem.html" xlink:title="goItem, item read (safe)" target="_parent">
<path fill="none" stroke="black" d="M206.63,-268.02C144.83,-262.56 31.87,-248.56 7.32,-218 -4.37,-203.45 0.26,-193.28 7.32,-176 10.55,-168.11 15.57,-160.76 21.26,-154.2"/>
<polygon fill="black" stroke="black" points="23.85,-156.55 28.16,-146.87 18.76,-151.75 23.85,-156.55"/>
</a>
</g>
<g id="a_edge3&#45;label"><a xlink:href="docs/safe.goItem.html" xlink:title="goItem, item read (safe)" target="_parent">
<text text-anchor="start" x="7.32" y="-193.6" font-family="Times,serif" font-size="13.00">goItem, item read (safe)</text>
</a>
</g>
</g>
<!-- home -->
<g id="node3" class="node">
<title>home</title>
<g id="a_node3"><a xlink:href="docs/semantic.home.html" xlink:title="home" target="_parent">
<polygon fill="lightgray" stroke="black" stroke-width="2" points="334.32,-36 278.32,-36 278.32,0 334.32,0 334.32,-36"/>
<text text-anchor="middle" x="306.32" y="-14.3" font-family="Times,serif" font-size="14.00">home</text>
</a>
</g>
</g>
<!-- collection&#45;&gt;home -->
<g id="edge2" class="edge">
<title>collection&#45;&gt;home</title>
<g id="a_edge2"><a xlink:href="docs/safe.goHome.html" xlink:title="goHome, self (safe)" target="_parent">
<path fill="none" stroke="black" d="M282.13,-235.96C286.18,-230.32 289.77,-224.26 292.32,-218 315.8,-160.4 313.23,-85.66 309.6,-46.19"/>
<polygon fill="black" stroke="black" points="313.06,-45.64 308.57,-36.04 306.09,-46.34 313.06,-45.64"/>
</a>
</g>
<g id="a_edge2&#45;label"><a xlink:href="docs/safe.goHome.html" xlink:title="goHome, self (safe)" target="_parent">
<text text-anchor="start" x="311.32" y="-118.6" font-family="Times,serif" font-size="13.00">goHome, self (safe)</text>
</a>
</g>
</g>
<!-- item&#45;&gt;collection -->
<g id="edge6" class="edge">
<title>item&#45;&gt;collection</title>
<path fill="none" stroke="black" d="M90.77,-132.62C114.13,-141.04 145.58,-155.21 167.32,-176 182.7,-190.71 177.25,-201.21 190.32,-218 193.23,-221.74 196.41,-225.44 199.73,-229.06"/>
<polygon fill="black" stroke="black" points="197.26,-231.53 206.71,-236.32 202.31,-226.69 197.26,-231.53"/>
<g id="a_edge6_2"><a xlink:href="docs/safe.goFilter.html" xlink:title="&lt;TABLE&gt;">
<text text-anchor="start" x="194.32" y="-203.6" font-family="Times,serif" font-size="13.00">goFilter (safe)</text>
</a>
</g>
<g id="a_edge6_3"><a xlink:href="docs/safe.goList.html" xlink:title="&lt;TABLE&gt;">
<text text-anchor="start" x="194.32" y="-183.6" font-family="Times,serif" font-size="13.00">goList (safe)</text>
</a>
</g>
</g>
<!-- item&#45;&gt;item -->
<g id="edge8" class="edge">
<title>item&#45;&gt;item</title>
<path fill="none" stroke="black" d="M90.42,-133.25C100.41,-133.13 108.32,-129.38 108.32,-122 108.32,-117.39 105.23,-114.19 100.47,-112.42"/>
<polygon fill="black" stroke="black" points="100.86,-108.93 90.42,-110.75 99.72,-115.84 100.86,-108.93"/>
<g id="a_edge8_4"><a xlink:href="docs/idempotent.doUpdate.html" xlink:title="&lt;TABLE&gt;">
<text text-anchor="start" x="112.32" y="-128.6" font-family="Times,serif" font-size="13.00">doUpdate (idempotent)</text>
</a>
</g>
<g id="a_edge8_5"><a xlink:href="docs/safe.goItem.html" xlink:title="&lt;TABLE&gt;">
<text text-anchor="start" x="112.32" y="-108.6" font-family="Times,serif" font-size="13.00">goItem (safe)</text>
</a>
</g>
</g>
<!-- item&#45;&gt;home -->
<g id="edge7" class="edge">
<title>item&#45;&gt;home</title>
<g id="a_edge7"><a xlink:href="docs/safe.goHome.html" xlink:title="goHome, self (safe)" target="_parent">
<path fill="none" stroke="black" d="M90.44,-97.31C110.58,-82.97 137.89,-65.33 164.32,-54 197.99,-39.57 238.82,-30.29 268.03,-24.94"/>
<polygon fill="black" stroke="black" points="269,-28.32 278.24,-23.14 267.78,-21.43 269,-28.32"/>
</a>
</g>
<g id="a_edge7&#45;label"><a xlink:href="docs/safe.goHome.html" xlink:title="goHome, self (safe)" target="_parent">
<text text-anchor="start" x="164.32" y="-57.6" font-family="Times,serif" font-size="13.00">goHome, self (safe)</text>
</a>
</g>
</g>
<!-- home&#45;&gt;collection -->
<g id="edge4" class="edge">
<title>home&#45;&gt;collection</title>
<g id="a_edge4"><a xlink:href="docs/safe.goList.html" xlink:title="goList, list (safe)" target="_parent">
<path fill="none" stroke="black" d="M334.54,-23.74C367.2,-30.9 419.56,-47.93 443.32,-86 460.26,-113.15 459.33,-130.29 443.32,-158 412.23,-211.82 344.68,-242.28 297.63,-257.7"/>
<polygon fill="black" stroke="black" points="296.41,-254.41 287.92,-260.76 298.51,-261.09 296.41,-254.41"/>
</a>
</g>
<g id="a_edge4&#45;label"><a xlink:href="docs/safe.goList.html" xlink:title="goList, list (safe)" target="_parent">
<text text-anchor="start" x="455.32" y="-118.6" font-family="Times,serif" font-size="13.00">goList, list (safe)</text>
</a>
</g>
</g>
<!-- home&#45;&gt;home -->
<g id="edge5" class="edge">
<title>home&#45;&gt;home</title>
<g id="a_edge5"><a xlink:href="docs/safe.goHome.html" xlink:title="goHome, self (safe)" target="_parent">
<path fill="none" stroke="black" d="M334.62,-25.87C344.41,-25.96 352.32,-23.33 352.32,-18 352.32,-14.75 349.38,-12.51 344.87,-11.27"/>
<polygon fill="black" stroke="black" points="344.95,-7.76 334.62,-10.13 344.17,-14.71 344.95,-7.76"/>
</a>
</g>
<g id="a_edge5&#45;label"><a xlink:href="docs/safe.goHome.html" xlink:title="goHome, self (safe)" target="_parent">
<text text-anchor="start" x="352.32" y="-14.6" font-family="Times,serif" font-size="13.00">goHome, self (safe)</text>
</a>
</g>
</g>
</g>
</svg>
