<?xml version="1.0" encoding="UTF-8" standalone="no"?>
<!DOCTYPE svg PUBLIC "-//W3C//DTD SVG 1.1//EN"
 "http://www.w3.org/Graphics/SVG/1.1/DTD/svg11.dtd">
<!-- Generated by graphviz version 2.43.0 (0)
 -->
<!-- Title: application_state_diagram Pages: 1 -->
<svg width="657pt" height="479pt"
 viewBox="0.00 0.00 656.96 479.00" xmlns="http://www.w3.org/2000/svg" xmlns:xlink="http://www.w3.org/1999/xlink">
<g id="graph0" class="graph" transform="scale(1 1) rotate(0) translate(4 475)">
<title>application_state_diagram</title>
<g id="a_graph0"><a xlink:href="index.html" xlink:title="Address Manager API" target="_parent">
<polygon fill="white" stroke="transparent" points="-4,4 -4,-475 652.96,-475 652.96,4 -4,4"/>
<text text-anchor="middle" x="324.48" y="-455.8" font-family="Helvetica,sans-Serif" font-size="14.00">Address Manager API</text>
</a>
</g>
<!-- collection -->
<g id="node1" class="node">
<title>collection</title>
<g id="a_node1"><a xlink:href="docs/semantic.collection.html" xlink:title="&lt;TABLE&gt;" target="_parent">
<polygon fill="lightgray" stroke="black" stroke-width="2" points="323.46,-448 242.46,-448 242.46,-316 323.46,-316 323.46,-448"/>
<text text-anchor="start" x="248.96" y="-430.8" font-family="Times,serif" font-size="14.00">collection</text>
<text text-anchor="start" x="270.96" y="-415.8" font-family="Times,serif" font-size="14.00">(id)</text>
<text text-anchor="start" x="258.46" y="-400.8" font-family="Times,serif" font-size="14.00">(name)</text>
<text text-anchor="start" x="256.46" y="-385.8" font-family="Times,serif" font-size="14.00">(street)</text>
<text text-anchor="start" x="264.96" y="-370.8" font-family="Times,serif" font-size="14.00">(city)</text>
<text text-anchor="start" x="259.96" y="-355.8" font-family="Times,serif" font-size="14.00">(state)</text>
<text text-anchor="start" x="250.96" y="-340.8" font-family="Times,serif" font-size="14.00">(zipcode)</text>
<text text-anchor="start" x="258.46" y="-325.8" font-family="Times,serif" font-size="14.00">(email)</text>
</a>
</g>
</g>
<!-- collection&#45;&gt;collection -->
<g id="edge1" class="edge">
<title>collection&#45;&gt;collection</title>
<path fill="none" stroke="black" d="M323.7,-403.08C333.86,-401.61 341.46,-394.58 341.46,-382 341.46,-373.94 338.34,-368.16 333.43,-364.66"/>
<polygon fill="black" stroke="black" points="334.29,-361.24 323.7,-360.92 331.78,-367.77 334.29,-361.24"/>
<g id="a_edge1_0"><a xlink:href="docs/unsafe.doCreate.html" xlink:title="&lt;TABLE&gt;">
<text text-anchor="start" x="345.46" y="-398.6" font-family="Times,serif" font-size="13.00">doCreate (unsafe)</text>
</a>
</g>
<g id="a_edge1_1"><a xlink:href="docs/safe.goFilter.html" xlink:title="&lt;TABLE&gt;">
<text text-anchor="start" x="345.46" y="-378.6" font-family="Times,serif" font-size="13.00">goFilter (safe)</text>
</a>
</g>
<g id="a_edge1_2"><a xlink:href="docs/safe.goList.html" xlink:title="&lt;TABLE&gt;">
<text text-anchor="start" x="345.46" y="-358.6" font-family="Times,serif" font-size="13.00">goList (safe)</text>
</a>
</g>
</g>
<!-- item -->
<g id="node2" class="node">
<title>item</title>
<g id="a_node2"><a xlink:href="docs/semantic.item.html" xlink:title="&lt;TABLE&gt;" target="_parent">
<polygon fill="lightgray" stroke="black" stroke-width="2" points="156.46,-218 79.46,-218 79.46,-86 156.46,-86 156.46,-218"/>
<text text-anchor="start" x="101.96" y="-200.8" font-family="Times,serif" font-size="14.00">item</text>
<text text-anchor="start" x="105.96" y="-185.8" font-family="Times,serif" font-size="14.00">(id)</text>
<text text-anchor="start" x="93.46" y="-170.8" font-family="Times,serif" font-size="14.00">(name)</text>
<text text-anchor="start" x="91.46" y="-155.8" font-family="Times,serif" font-size="14.00">(street)</text>
<text text-anchor="start" x="99.96" y="-140.8" font-family="Times,serif" font-size="14.00">(city)</text>
<text text-anchor="start" x="94.96" y="-125.8" font-family="Times,serif" font-size="14.00">(state)</text>
<text text-anchor="start" x="85.96" y="-110.8" font-family="Times,serif" font-size="14.00">(zipcode)</text>
<text text-anchor="start" x="93.46" y="-95.8" font-family="Times,serif" font-size="14.00">(email)</text>
</a>
</g>
</g>
<!-- collection&#45;&gt;item -->
<g id="edge3" class="edge">
<title>collection&#45;&gt;item</title>
<g id="a_edge3"><a xlink:href="docs/safe.goItem.html" xlink:title="goItem, item read (safe)" target="_parent">
<path fill="none" stroke="black" d="M242.25,-374.58C173.39,-362.8 38.69,-335.45 10.96,-298 -5.43,-275.85 -1.16,-260.75 10.96,-236 23.47,-210.47 48.04,-190.53 70.49,-176.61"/>
<polygon fill="black" stroke="black" points="72.47,-179.5 79.28,-171.38 68.9,-173.48 72.47,-179.5"/>
</a>
</g>
<g id="a_edge3&#45;label"><a xlink:href="docs/safe.goItem.html" xlink:title="goItem, item read (safe)" target="_parent">
<text text-anchor="start" x="10.96" y="-263.6" font-family="Times,serif" font-size="13.00">goItem, item read (safe)</text>
</a>
</g>
</g>
<!-- home -->
<g id="node3" class="node">
<title>home</title>
<g id="a_node3"><a xlink:href="docs/semantic.home.html" xlink:title="home" target="_parent">
<polygon fill="lightgray" stroke="black" stroke-width="2" points="400.96,-36 344.96,-36 344.96,0 400.96,0 400.96,-36"/>
<text text-anchor="middle" x="372.96" y="-14.3" font-family="Times,serif" font-size="14.00">home</text>
</a>
</g>
</g>
<!-- collection&#45;&gt;home -->
<g id="edge2" class="edge">
<title>collection&#45;&gt;home</title>
<g id="a_edge2"><a xlink:href="docs/safe.goHome.html" xlink:title="goHome, self (safe)" target="_parent">
<path fill="none" stroke="black" d="M323.64,-347.39C337.39,-333.63 351.2,-316.57 358.96,-298 394.92,-211.94 384.75,-97.72 377.47,-46.23"/>
<polygon fill="black" stroke="black" points="380.91,-45.6 375.98,-36.22 373.99,-46.63 380.91,-45.6"/>
</a>
</g>
<g id="a_edge2&#45;label"><a xlink:href="docs/safe.goHome.html" xlink:title="goHome, self (safe)" target="_parent">
<text text-anchor="start" x="384.96" y="-148.6" font-family="Times,serif" font-size="13.00">goHome, self (safe)</text>
</a>
</g>
</g>
<!-- item&#45;&gt;collection -->
<g id="edge6" class="edge">
<title>item&#45;&gt;collection</title>
<path fill="none" stroke="black" d="M156.65,-210.13C161.76,-218.64 166.7,-227.43 170.96,-236 184.06,-262.31 177.67,-273.54 193.96,-298 205.04,-314.62 220.07,-330.28 234.62,-343.43"/>
<polygon fill="black" stroke="black" points="232.34,-346.09 242.16,-350.06 236.97,-340.83 232.34,-346.09"/>
<g id="a_edge6_3"><a xlink:href="docs/idempotent.doRemove.html" xlink:title="&lt;TABLE&gt;">
<text text-anchor="start" x="198.46" y="-283.6" font-family="Times,serif" font-size="13.00">doRemove (idempotent)</text>
</a>
</g>
<g id="a_edge6_4"><a xlink:href="docs/safe.goFilter.html" xlink:title="&lt;TABLE&gt;">
<text text-anchor="start" x="198.46" y="-263.6" font-family="Times,serif" font-size="13.00">goFilter (safe)</text>
</a>
</g>
<g id="a_edge6_5"><a xlink:href="docs/safe.goList.html" xlink:title="&lt;TABLE&gt;">
<text text-anchor="start" x="198.46" y="-243.6" font-family="Times,serif" font-size="13.00">goList (safe)</text>
</a>
</g>
</g>
<!-- item&#45;&gt;item -->
<g id="edge8" class="edge">
<title>item&#45;&gt;item</title>
<path fill="none" stroke="black" d="M156.52,-168.73C166.73,-167.77 174.46,-162.2 174.46,-152 174.46,-145.47 171.29,-140.83 166.32,-138.09"/>
<polygon fill="black" stroke="black" points="167.09,-134.67 156.52,-135.27 165.16,-141.4 167.09,-134.67"/>
<g id="a_edge8_6"><a xlink:href="docs/idempotent.doUpdate.html" xlink:title="&lt;TABLE&gt;">
<text text-anchor="start" x="178.46" y="-158.6" font-family="Times,serif" font-size="13.00">doUpdate (idempotent)</text>
</a>
</g>
<g id="a_edge8_7"><a xlink:href="docs/safe.goItem.html" xlink:title="&lt;TABLE&gt;">
<text text-anchor="start" x="178.46" y="-138.6" font-family="Times,serif" font-size="13.00">goItem (safe)</text>
</a>
</g>
</g>
<!-- item&#45;&gt;home -->
<g id="edge7" class="edge">
<title>item&#45;&gt;home</title>
<g id="a_edge7"><a xlink:href="docs/safe.goHome.html" xlink:title="goHome, self (safe)" target="_parent">
<path fill="none" stroke="black" d="M156.65,-109.74C177.05,-90.22 203.49,-68.14 230.96,-54 263.88,-37.05 305.36,-28.06 334.98,-23.45"/>
<polygon fill="black" stroke="black" points="335.54,-26.91 344.93,-22 334.52,-19.98 335.54,-26.91"/>
</a>
</g>
<g id="a_edge7&#45;label"><a xlink:href="docs/safe.goHome.html" xlink:title="goHome, self (safe)" target="_parent">
<text text-anchor="start" x="230.96" y="-57.6" font-family="Times,serif" font-size="13.00">goHome, self (safe)</text>
</a>
</g>
</g>
<!-- home&#45;&gt;collection -->
<g id="edge4" class="edge">
<title>home&#45;&gt;collection</title>
<g id="a_edge4"><a xlink:href="docs/safe.goList.html" xlink:title="goList, list (safe)" target="_parent">
<path fill="none" stroke="black" d="M400.98,-23.17C434.71,-29.86 489.93,-46.52 514.96,-86 546.37,-135.55 542.01,-165.94 514.96,-218 476.88,-291.29 389.05,-338.53 333.05,-362.39"/>
<polygon fill="black" stroke="black" points="331.55,-359.22 323.66,-366.29 334.24,-365.68 331.55,-359.22"/>
</a>
</g>
<g id="a_edge4&#45;label"><a xlink:href="docs/safe.goList.html" xlink:title="goList, list (safe)" target="_parent">
<text text-anchor="start" x="535.96" y="-148.6" font-family="Times,serif" font-size="13.00">goList, list (safe)</text>
</a>
</g>
</g>
<!-- home&#45;&gt;home -->
<g id="edge5" class="edge">
<title>home&#45;&gt;home</title>
<g id="a_edge5"><a xlink:href="docs/safe.goHome.html" xlink:title="goHome, self (safe)" target="_parent">
<path fill="none" stroke="black" d="M401.26,-25.87C411.05,-25.96 418.96,-23.33 418.96,-18 418.96,-14.75 416.03,-12.51 411.52,-11.27"/>
<polygon fill="black" stroke="black" points="411.59,-7.76 401.26,-10.13 410.81,-14.71 411.59,-7.76"/>
</a>
</g>
<g id="a_edge5&#45;label"><a xlink:href="docs/safe.goHome.html" xlink:title="goHome, self (safe)" target="_parent">
<text text-anchor="start" x="418.96" y="-14.6" font-family="Times,serif" font-size="13.00">goHome, self (safe)</text>
</a>
</g>
</g>
</g>
</svg>
