<?xml version="1.0" encoding="UTF-8" standalone="no"?>
<!DOCTYPE svg PUBLIC "-//W3C//DTD SVG 1.1//EN"
 "http://www.w3.org/Graphics/SVG/1.1/DTD/svg11.dtd">
<!-- Generated by graphviz version 2.43.0 (0)
 -->
<!-- Title: application_state_diagram Pages: 1 -->
<svg width="277pt" height="169pt"
 viewBox="0.00 0.00 277.40 169.00" xmlns="http://www.w3.org/2000/svg" xmlns:xlink="http://www.w3.org/1999/xlink">
<g id="graph0" class="graph" transform="scale(1 1) rotate(0) translate(4 165)">
<title>application_state_diagram</title>
<g id="a_graph0"><a xlink:href="index.html" xlink:title="Most Recently Used (MRU) Profile" target="_parent">
<polygon fill="white" stroke="transparent" points="-4,4 -4,-165 273.4,-165 273.4,4 -4,4"/>
<text text-anchor="middle" x="134.7" y="-7.8" font-family="Helvetica,sans-Serif" font-size="14.00">Most Recently Used (MRU) Profile</text>
</a>
</g>
<!-- home -->
<g id="node1" class="node">
<title>home</title>
<g id="a_node1"><a xlink:href="docs/semantic.home.html" xlink:title="&lt;TABLE&gt;" target="_parent">
<polygon fill="none" stroke="black" points="119.9,-161 38.9,-161 38.9,-117 119.9,-117 119.9,-161"/>
<polygon fill="#dddddd" stroke="transparent" points="40.4,-118 40.4,-160 119.4,-160 119.4,-118 40.4,-118"/>
<polygon fill="none" stroke="black" points="40.4,-118 40.4,-160 119.4,-160 119.4,-118 40.4,-118"/>
<text text-anchor="start" x="59.9" y="-142.8" font-family="Times,serif" font-size="14.00">home</text>
<text text-anchor="start" x="46.4" y="-127.8" font-family="Times,serif" font-size="14.00">(mrulink)</text>
</a>
</g>
</g>
<!-- mru -->
<g id="node2" class="node">
<title>mru</title>
<g id="a_node2"><a xlink:href="docs/semantic.mru.html" xlink:title="&lt;TABLE&gt;" target="_parent">
<polygon fill="none" stroke="black" points="119.9,-67 38.9,-67 38.9,-23 119.9,-23 119.9,-67"/>
<polygon fill="#dddddd" stroke="transparent" points="40.4,-24 40.4,-66 119.4,-66 119.4,-24 40.4,-24"/>
<polygon fill="none" stroke="black" points="40.4,-24 40.4,-66 119.4,-66 119.4,-24 40.4,-24"/>
<text text-anchor="start" x="64.9" y="-48.8" font-family="Times,serif" font-size="14.00">mru</text>
<text text-anchor="start" x="46.4" y="-33.8" font-family="Times,serif" font-size="14.00">(mrulink)</text>
</a>
</g>
</g>
<!-- home&#45;&gt;mru -->
<g id="edge1" class="edge">
<title>home&#45;&gt;mru</title>
<g id="a_edge1"><a xlink:href="docs/safe.getMRU.html" xlink:title="getMRU, mru (safe)" target="_parent">
<path fill="none" stroke="black" d="M38.54,-126.65C24.95,-120.72 11.28,-111.91 3.4,-99 -6.67,-82.51 9.44,-69.83 29.37,-61.01"/>
<polygon fill="black" stroke="black" points="30.77,-64.22 38.72,-57.23 28.14,-57.73 30.77,-64.22"/>
</a>
</g>
<g id="a_edge1&#45;label"><a xlink:href="docs/safe.getMRU.html" xlink:title="getMRU, mru (safe)" target="_parent">
<text text-anchor="middle" x="68.9" y="-88.6" font-family="Times,serif" font-size="13.00">getMRU, mru (safe)</text>
</a>
</g>
</g>
<!-- mru&#45;&gt;home -->
<g id="edge2" class="edge">
<title>mru&#45;&gt;home</title>
<g id="a_edge2"><a xlink:href="docs/safe.getHome.html" xlink:title="getHome, self (safe)" target="_parent">
<path fill="none" stroke="black" d="M120.23,-66.15C132.37,-75.07 140.91,-86.4 134.4,-99 132.4,-102.86 129.83,-106.42 126.89,-109.69"/>
<polygon fill="black" stroke="black" points="124.27,-107.35 119.46,-116.78 129.11,-112.41 124.27,-107.35"/>
</a>
</g>
<g id="a_edge2&#45;label"><a xlink:href="docs/safe.getHome.html" xlink:title="getHome, self (safe)" target="_parent">
<text text-anchor="middle" x="202.9" y="-88.6" font-family="Times,serif" font-size="13.00">getHome, self (safe)</text>
</a>
</g>
</g>
</g>
</svg>
