<?xml version="1.0" encoding="UTF-8" standalone="no"?>
<!DOCTYPE svg PUBLIC "-//W3C//DTD SVG 1.1//EN"
 "http://www.w3.org/Graphics/SVG/1.1/DTD/svg11.dtd">
<!-- Generated by graphviz version 2.43.0 (0)
 -->
<!-- Title: application_state_diagram Pages: 1 -->
<svg width="375pt" height="354pt"
 viewBox="0.00 0.00 375.09 354.00" xmlns="http://www.w3.org/2000/svg" xmlns:xlink="http://www.w3.org/1999/xlink">
<g id="graph0" class="graph" transform="scale(1 1) rotate(0) translate(4 350)">
<title>application_state_diagram</title>
<g id="a_graph0"><a xlink:href="index.html" xlink:title="APIs.json Metadata Format" target="_parent">
<polygon fill="white" stroke="transparent" points="-4,4 -4,-350 371.09,-350 371.09,4 -4,4"/>
<text text-anchor="middle" x="183.55" y="-330.8" font-family="Helvetica,sans-Serif" font-size="14.00">APIs.json Metadata Format</text>
</a>
</g>
<!-- apisJSON -->
<g id="node1" class="node">
<title>apisJSON</title>
<g id="a_node1"><a xlink:href="docs/semantic.apisJSON.html" xlink:title="&lt;TABLE&gt;" target="_parent">
<polygon fill="lightgray" stroke="black" stroke-width="2" points="149.09,-323 29.09,-323 29.09,-86 149.09,-86 149.09,-323"/>
<text text-anchor="start" x="55.09" y="-305.3" font-family="Times,serif" font-size="14.00">apisJSON</text>
<text text-anchor="start" x="64.09" y="-290.3" font-family="Times,serif" font-size="14.00">(name)</text>
<text text-anchor="start" x="43.59" y="-275.3" font-family="Times,serif" font-size="14.00">(description)</text>
<text text-anchor="start" x="61.59" y="-260.3" font-family="Times,serif" font-size="14.00">(image)</text>
<text text-anchor="start" x="73.59" y="-245.3" font-family="Times,serif" font-size="14.00">(url)</text>
<text text-anchor="start" x="68.09" y="-230.3" font-family="Times,serif" font-size="14.00">(tags)</text>
<text text-anchor="start" x="56.59" y="-215.3" font-family="Times,serif" font-size="14.00">(created)</text>
<text text-anchor="start" x="52.59" y="-200.3" font-family="Times,serif" font-size="14.00">(modified)</text>
<text text-anchor="start" x="69.09" y="-185.3" font-family="Times,serif" font-size="14.00">(apis)</text>
<text text-anchor="start" x="66.09" y="-170.3" font-family="Times,serif" font-size="14.00">(tools)</text>
<text text-anchor="start" x="35.09" y="-155.3" font-family="Times,serif" font-size="14.00">(specifications)</text>
<text text-anchor="start" x="48.59" y="-140.3" font-family="Times,serif" font-size="14.00">(resources)</text>
<text text-anchor="start" x="53.59" y="-125.3" font-family="Times,serif" font-size="14.00">(common)</text>
<text text-anchor="start" x="57.59" y="-110.3" font-family="Times,serif" font-size="14.00">(include)</text>
<text text-anchor="start" x="40.59" y="-95.3" font-family="Times,serif" font-size="14.00">(maintainers)</text>
</a>
</g>
</g>
<!-- home -->
<g id="node2" class="node">
<title>home</title>
<g id="a_node2"><a xlink:href="docs/semantic.home.html" xlink:title="home" target="_parent">
<polygon fill="lightgray" stroke="black" stroke-width="2" points="117.09,-36 61.09,-36 61.09,0 117.09,0 117.09,-36"/>
<text text-anchor="middle" x="89.09" y="-14.3" font-family="Times,serif" font-size="14.00">home</text>
</a>
</g>
</g>
<!-- apisJSON&#45;&gt;home -->
<g id="edge1" class="edge">
<title>apisJSON&#45;&gt;home</title>
<g id="a_edge1"><a xlink:href="docs/safe.goHome.html" xlink:title="goHome, home (safe)" target="_parent">
<path fill="none" stroke="black" d="M28.97,-146.78C6.13,-118.26 -10.24,-83.56 9.09,-54 18.57,-39.5 35.53,-30.97 51.4,-25.97"/>
<polygon fill="black" stroke="black" points="52.37,-29.34 61.07,-23.29 50.5,-22.59 52.37,-29.34"/>
</a>
</g>
<g id="a_edge1&#45;label"><a xlink:href="docs/safe.goHome.html" xlink:title="goHome, home (safe)" target="_parent">
<text text-anchor="start" x="9.09" y="-57.6" font-family="Times,serif" font-size="13.00">goHome, home (safe)</text>
</a>
</g>
</g>
<!-- home&#45;&gt;apisJSON -->
<g id="edge2" class="edge">
<title>home&#45;&gt;apisJSON</title>
<g id="a_edge2"><a xlink:href="docs/safe.goAPIsJSON.html" xlink:title="goAPIsJSON, service&#45;meta (safe)" target="_parent">
<path fill="none" stroke="black" d="M117.36,-28.21C129.37,-33.69 142.18,-41.97 149.09,-54 152.19,-59.4 150.38,-61.91 149.09,-68 148.52,-70.68 147.9,-73.37 147.23,-76.07"/>
<polygon fill="black" stroke="black" points="143.81,-75.29 144.57,-85.85 150.57,-77.12 143.81,-75.29"/>
</a>
</g>
<g id="a_edge2&#45;label"><a xlink:href="docs/safe.goAPIsJSON.html" xlink:title="goAPIsJSON, service&#45;meta (safe)" target="_parent">
<text text-anchor="start" x="150.09" y="-57.6" font-family="Times,serif" font-size="13.00">goAPIsJSON, service&#45;meta (safe)</text>
</a>
</g>
</g>
</g>
</svg>
