<?xml version="1.0" encoding="UTF-8" standalone="no"?>
<!DOCTYPE svg PUBLIC "-//W3C//DTD SVG 1.1//EN"
 "http://www.w3.org/Graphics/SVG/1.1/DTD/svg11.dtd">
<!-- Generated by graphviz version 2.43.0 (0)
 -->
<!-- Title: application_state_diagram Pages: 1 -->
<svg width="781pt" height="279pt"
 viewBox="0.00 0.00 780.58 279.00" xmlns="http://www.w3.org/2000/svg" xmlns:xlink="http://www.w3.org/1999/xlink">
<g id="graph0" class="graph" transform="scale(1 1) rotate(0) translate(4 275)">
<title>application_state_diagram</title>
<g id="a_graph0"><a xlink:href="index.html" xlink:title="State Watch Profile" target="_parent">
<polygon fill="white" stroke="transparent" points="-4,4 -4,-275 776.58,-275 776.58,4 -4,4"/>
<text text-anchor="middle" x="386.29" y="-255.8" font-family="Helvetica,sans-Serif" font-size="14.00">State Watch Profile</text>
</a>
</g>
<!-- watchListResource -->
<g id="node1" class="node">
<title>watchListResource</title>
<g id="a_node1"><a xlink:href="docs/semantic.watchListResource.html" xlink:title="&lt;TABLE&gt;" target="_parent">
<polygon fill="lightgray" stroke="black" stroke-width="2" points="406.58,-248 258.58,-248 258.58,-206 406.58,-206 406.58,-248"/>
<text text-anchor="start" x="264.58" y="-230.8" font-family="Times,serif" font-size="14.00">watchListResource</text>
<text text-anchor="start" x="267.08" y="-215.8" font-family="Times,serif" font-size="14.00">(watchListRecord)</text>
</a>
</g>
</g>
<!-- watchResource -->
<g id="node2" class="node">
<title>watchResource</title>
<g id="a_node2"><a xlink:href="docs/semantic.watchResource.html" xlink:title="&lt;TABLE&gt;" target="_parent">
<polygon fill="lightgray" stroke="black" stroke-width="2" points="152.08,-128 31.08,-128 31.08,-86 152.08,-86 152.08,-128"/>
<text text-anchor="start" x="37.58" y="-110.8" font-family="Times,serif" font-size="14.00">watchResource</text>
<text text-anchor="start" x="40.08" y="-95.8" font-family="Times,serif" font-size="14.00">(watchRecord)</text>
</a>
</g>
</g>
<!-- watchListResource&#45;&gt;watchResource -->
<g id="edge4" class="edge">
<title>watchListResource&#45;&gt;watchResource</title>
<path fill="none" stroke="black" d="M258.41,-222.42C167.92,-217.28 24.91,-206.35 8.58,-188 -3.83,-174.05 -1.51,-161.71 8.58,-146 12.26,-140.27 17.05,-135.39 22.46,-131.23"/>
<polygon fill="black" stroke="black" points="24.43,-134.13 30.79,-125.66 20.54,-128.31 24.43,-134.13"/>
<g id="a_edge4_0"><a xlink:href="docs/idempotent.doWatchCreate.html" xlink:title="&lt;TABLE&gt;">
<text text-anchor="start" x="12.58" y="-173.6" font-family="Times,serif" font-size="13.00">doWatchCreate (idempotent)</text>
</a>
</g>
<g id="a_edge4_1"><a xlink:href="docs/safe.goWatchResource.html" xlink:title="&lt;TABLE&gt;">
<text text-anchor="start" x="12.58" y="-153.6" font-family="Times,serif" font-size="13.00">goWatchResource (safe)</text>
</a>
</g>
</g>
<!-- home -->
<g id="node3" class="node">
<title>home</title>
<g id="a_node3"><a xlink:href="docs/semantic.home.html" xlink:title="home" target="_parent">
<polygon fill="lightgray" stroke="black" stroke-width="2" points="352.58,-36 296.58,-36 296.58,0 352.58,0 352.58,-36"/>
<text text-anchor="middle" x="324.58" y="-14.3" font-family="Times,serif" font-size="14.00">home</text>
</a>
</g>
</g>
<!-- watchListResource&#45;&gt;home -->
<g id="edge3" class="edge">
<title>watchListResource&#45;&gt;home</title>
<g id="a_edge3"><a xlink:href="docs/safe.goHome.html" xlink:title="goHome, self (safe)" target="_parent">
<path fill="none" stroke="black" d="M404.09,-205.79C411.35,-201.05 417.8,-195.21 422.58,-188 439.04,-163.18 439.73,-78.34 422.58,-54 409.07,-34.84 384.08,-26.11 362.71,-22.16"/>
<polygon fill="black" stroke="black" points="363,-18.66 352.58,-20.58 361.93,-25.58 363,-18.66"/>
</a>
</g>
<g id="a_edge3&#45;label"><a xlink:href="docs/safe.goHome.html" xlink:title="goHome, self (safe)" target="_parent">
<text text-anchor="start" x="435.58" y="-103.6" font-family="Times,serif" font-size="13.00">goHome, self (safe)</text>
</a>
</g>
</g>
<!-- watchResource&#45;&gt;watchListResource -->
<g id="edge6" class="edge">
<title>watchResource&#45;&gt;watchListResource</title>
<g id="a_edge6"><a xlink:href="docs/safe.goWatchList.html" xlink:title="goWatchList, watchlist (safe)" target="_parent">
<path fill="none" stroke="black" d="M152.31,-118.93C171.23,-124.6 191.15,-133.15 206.58,-146 222.93,-159.62 213.46,-174.1 229.58,-188 235.52,-193.12 242.21,-197.58 249.25,-201.45"/>
<polygon fill="black" stroke="black" points="247.83,-204.65 258.33,-206.05 250.99,-198.41 247.83,-204.65"/>
</a>
</g>
<g id="a_edge6&#45;label"><a xlink:href="docs/safe.goWatchList.html" xlink:title="goWatchList, watchlist (safe)" target="_parent">
<text text-anchor="start" x="229.58" y="-163.6" font-family="Times,serif" font-size="13.00">goWatchList, watchlist (safe)</text>
</a>
</g>
</g>
<!-- watchResource&#45;&gt;watchResource -->
<g id="edge7" class="edge">
<title>watchResource&#45;&gt;watchResource</title>
<path fill="none" stroke="black" d="M152.14,-115.09C162.72,-114.01 170.08,-111.31 170.08,-107 170.08,-104.24 167.06,-102.14 162.11,-100.7"/>
<polygon fill="black" stroke="black" points="162.6,-97.24 152.14,-98.91 161.37,-104.13 162.6,-97.24"/>
<g id="a_edge7_2"><a xlink:href="docs/idempotent.doWatchClear.html" xlink:title="&lt;TABLE&gt;">
<text text-anchor="start" x="174.08" y="-113.6" font-family="Times,serif" font-size="13.00">doWatchClear (idempotent)</text>
</a>
</g>
<g id="a_edge7_3"><a xlink:href="docs/idempotent.doWatchUpdate.html" xlink:title="&lt;TABLE&gt;">
<text text-anchor="start" x="174.08" y="-93.6" font-family="Times,serif" font-size="13.00">doWatchUpdate (idempotent)</text>
</a>
</g>
</g>
<!-- watchResource&#45;&gt;home -->
<g id="edge5" class="edge">
<title>watchResource&#45;&gt;home</title>
<g id="a_edge5"><a xlink:href="docs/safe.goHome.html" xlink:title="goHome, self (safe)" target="_parent">
<path fill="none" stroke="black" d="M66.98,-85.66C57.7,-75.59 51.19,-63.57 59.58,-54 88.62,-20.88 220.32,-17.63 286.45,-18.17"/>
<polygon fill="black" stroke="black" points="286.44,-21.67 296.48,-18.28 286.52,-14.67 286.44,-21.67"/>
</a>
</g>
<g id="a_edge5&#45;label"><a xlink:href="docs/safe.goHome.html" xlink:title="goHome, self (safe)" target="_parent">
<text text-anchor="start" x="59.58" y="-57.6" font-family="Times,serif" font-size="13.00">goHome, self (safe)</text>
</a>
</g>
</g>
<!-- home&#45;&gt;watchListResource -->
<g id="edge1" class="edge">
<title>home&#45;&gt;watchListResource</title>
<g id="a_edge1"><a xlink:href="docs/safe.goWatchList.html" xlink:title="goWatchList, watchlist (safe)" target="_parent">
<path fill="none" stroke="black" d="M352.86,-22.49C411.33,-30.36 542.28,-51.5 568.58,-86 616.69,-149.11 502.27,-189.36 416.46,-209.79"/>
<polygon fill="black" stroke="black" points="415.62,-206.39 406.67,-212.06 417.21,-213.21 415.62,-206.39"/>
</a>
</g>
<g id="a_edge1&#45;label"><a xlink:href="docs/safe.goWatchList.html" xlink:title="goWatchList, watchlist (safe)" target="_parent">
<text text-anchor="start" x="579.58" y="-103.6" font-family="Times,serif" font-size="13.00">goWatchList, watchlist (safe)</text>
</a>
</g>
</g>
<!-- home&#45;&gt;watchResource -->
<g id="edge2" class="edge">
<title>home&#45;&gt;watchResource</title>
<g id="a_edge2"><a xlink:href="docs/safe.goWatchResource.html" xlink:title="goWatchResource, watch (safe)" target="_parent">
<path fill="none" stroke="black" d="M296.32,-25.99C273.68,-32.06 241.39,-41.79 214.58,-54 203.69,-58.96 202.33,-62.74 191.58,-68 181.32,-73.02 170.22,-77.82 159.28,-82.21"/>
<polygon fill="black" stroke="black" points="157.75,-79.05 149.72,-85.97 160.31,-85.57 157.75,-79.05"/>
</a>
</g>
<g id="a_edge2&#45;label"><a xlink:href="docs/safe.goWatchResource.html" xlink:title="goWatchResource, watch (safe)" target="_parent">
<text text-anchor="start" x="214.58" y="-57.6" font-family="Times,serif" font-size="13.00">goWatchResource, watch (safe)</text>
</a>
</g>
</g>
</g>
</svg>
