<?xml version="1.0" encoding="UTF-8" standalone="no"?>
<!DOCTYPE svg PUBLIC "-//W3C//DTD SVG 1.1//EN"
 "http://www.w3.org/Graphics/SVG/1.1/DTD/svg11.dtd">
<!-- Generated by graphviz version 2.43.0 (0)
 -->
<!-- Title: application_state_diagram Pages: 1 -->
<svg width="751pt" height="311pt"
 viewBox="0.00 0.00 751.24 311.00" xmlns="http://www.w3.org/2000/svg" xmlns:xlink="http://www.w3.org/1999/xlink">
<g id="graph0" class="graph" transform="scale(1 1) rotate(0) translate(4 307)">
<title>application_state_diagram</title>
<g id="a_graph0"><a xlink:href="index.html" xlink:title="Partial Submit Profile" target="_parent">
<polygon fill="white" stroke="transparent" points="-4,4 -4,-307 747.24,-307 747.24,4 -4,4"/>
<text text-anchor="middle" x="371.62" y="-287.8" font-family="Helvetica,sans-Serif" font-size="14.00">Partial Submit Profile</text>
</a>
</g>
<!-- inputForm -->
<g id="node1" class="node">
<title>inputForm</title>
<g id="a_node1"><a xlink:href="docs/semantic.inputForm.html" xlink:title="&lt;TABLE&gt;" target="_parent">
<polygon fill="lightgray" stroke="black" stroke-width="2" points="366.24,-280 278.24,-280 278.24,-178 366.24,-178 366.24,-280"/>
<text text-anchor="start" x="284.24" y="-262.8" font-family="Times,serif" font-size="14.00">inputForm</text>
<text text-anchor="start" x="302.24" y="-247.8" font-family="Times,serif" font-size="14.00">(href)</text>
<text text-anchor="start" x="306.74" y="-232.8" font-family="Times,serif" font-size="14.00">(rel)</text>
<text text-anchor="start" x="302.24" y="-217.8" font-family="Times,serif" font-size="14.00">(title)</text>
<text text-anchor="start" x="300.74" y="-202.8" font-family="Times,serif" font-size="14.00">(type)</text>
<text text-anchor="start" x="297.74" y="-187.8" font-family="Times,serif" font-size="14.00">(input)</text>
</a>
</g>
</g>
<!-- inputForm&#45;&gt;inputForm -->
<g id="edge7" class="edge">
<title>inputForm&#45;&gt;inputForm</title>
<path fill="none" stroke="black" d="M366.27,-242.97C376.61,-241.82 384.24,-237.16 384.24,-229 384.24,-223.77 381.11,-219.98 376.14,-217.63"/>
<polygon fill="black" stroke="black" points="376.83,-214.19 366.27,-215.03 375.05,-220.96 376.83,-214.19"/>
<g id="a_edge7_0"><a xlink:href="docs/idempotent.doPartialSubmit.html" xlink:title="&lt;TABLE&gt;">
<text text-anchor="start" x="388.24" y="-245.6" font-family="Times,serif" font-size="13.00">doPartialSubmit (idempotent)</text>
</a>
</g>
<g id="a_edge7_1"><a xlink:href="docs/idempotent.doResetSubmit.html" xlink:title="&lt;TABLE&gt;">
<text text-anchor="start" x="388.24" y="-225.6" font-family="Times,serif" font-size="13.00">doResetSubmit (idempotent)</text>
</a>
</g>
<g id="a_edge7_2"><a xlink:href="docs/safe.goForm.html" xlink:title="&lt;TABLE&gt;">
<text text-anchor="start" x="388.24" y="-205.6" font-family="Times,serif" font-size="13.00">goForm (safe)</text>
</a>
</g>
</g>
<!-- completed -->
<g id="node2" class="node">
<title>completed</title>
<g id="a_node2"><a xlink:href="docs/semantic.completed.html" xlink:title="completed" target="_parent">
<polygon fill="lightgray" stroke="black" stroke-width="2" points="295.74,-125 204.74,-125 204.74,-89 295.74,-89 295.74,-125"/>
<text text-anchor="middle" x="250.24" y="-103.3" font-family="Times,serif" font-size="14.00">completed</text>
</a>
</g>
</g>
<!-- inputForm&#45;&gt;completed -->
<g id="edge5" class="edge">
<title>inputForm&#45;&gt;completed</title>
<g id="a_edge5"><a xlink:href="docs/idempotent.doFinalSubmit.html" xlink:title="doFinalSubmit, submit (idempotent)" target="_parent">
<path fill="none" stroke="black" d="M278.19,-225.25C198.93,-219.29 37.35,-202.15 3.24,-160 -21.86,-128.99 113.69,-115.79 194.07,-110.75"/>
<polygon fill="black" stroke="black" points="194.77,-114.21 204.54,-110.12 194.35,-107.22 194.77,-114.21"/>
</a>
</g>
<g id="a_edge5&#45;label"><a xlink:href="docs/idempotent.doFinalSubmit.html" xlink:title="doFinalSubmit, submit (idempotent)" target="_parent">
<text text-anchor="middle" x="123.74" y="-149.6" font-family="Times,serif" font-size="13.00">doFinalSubmit, submit (idempotent)</text>
</a>
</g>
</g>
<!-- home -->
<g id="node3" class="node">
<title>home</title>
<g id="a_node3"><a xlink:href="docs/semantic.home.html" xlink:title="home" target="_parent">
<polygon fill="lightgray" stroke="black" stroke-width="2" points="423.24,-36 367.24,-36 367.24,0 423.24,0 423.24,-36"/>
<text text-anchor="middle" x="395.24" y="-14.3" font-family="Times,serif" font-size="14.00">home</text>
</a>
</g>
</g>
<!-- inputForm&#45;&gt;home -->
<g id="edge6" class="edge">
<title>inputForm&#45;&gt;home</title>
<path fill="none" stroke="black" d="M366.51,-184.6C372.32,-176.92 377.53,-168.61 381.24,-160 389.78,-140.19 393.19,-81.36 394.49,-46.26"/>
<polygon fill="black" stroke="black" points="397.99,-46.31 394.83,-36.2 390.99,-46.08 397.99,-46.31"/>
<g id="a_edge6_3"><a xlink:href="docs/idempotent.doCancelSubmit.html" xlink:title="&lt;TABLE&gt;">
<text text-anchor="start" x="397.24" y="-113.6" font-family="Times,serif" font-size="13.00">doCancelSubmit (idempotent)</text>
</a>
</g>
<g id="a_edge6_4"><a xlink:href="docs/safe.goHome.html" xlink:title="&lt;TABLE&gt;">
<text text-anchor="start" x="397.24" y="-93.6" font-family="Times,serif" font-size="13.00">goHome (safe)</text>
</a>
</g>
</g>
<!-- completed&#45;&gt;inputForm -->
<g id="edge2" class="edge">
<title>completed&#45;&gt;inputForm</title>
<g id="a_edge2"><a xlink:href="docs/safe.goForm.html" xlink:title="goForm, form (safe)" target="_parent">
<path fill="none" stroke="black" d="M247.35,-125.1C246.34,-135.6 246.46,-149.08 251.24,-160 255.85,-170.52 262.94,-180.21 270.9,-188.77"/>
<polygon fill="black" stroke="black" points="268.54,-191.36 278.06,-196 273.51,-186.44 268.54,-191.36"/>
</a>
</g>
<g id="a_edge2&#45;label"><a xlink:href="docs/safe.goForm.html" xlink:title="goForm, form (safe)" target="_parent">
<text text-anchor="middle" x="316.24" y="-149.6" font-family="Times,serif" font-size="13.00">goForm, form (safe)</text>
</a>
</g>
</g>
<!-- completed&#45;&gt;home -->
<g id="edge1" class="edge">
<title>completed&#45;&gt;home</title>
<g id="a_edge1"><a xlink:href="docs/safe.goHome.html" xlink:title="goHome, self (safe)" target="_parent">
<path fill="none" stroke="black" d="M246.42,-88.67C245.03,-77.54 245.38,-63.46 253.24,-54 266.37,-38.2 319.62,-28.39 357.04,-23.31"/>
<polygon fill="black" stroke="black" points="357.66,-26.76 367.12,-22 356.76,-19.82 357.66,-26.76"/>
</a>
</g>
<g id="a_edge1&#45;label"><a xlink:href="docs/safe.goHome.html" xlink:title="goHome, self (safe)" target="_parent">
<text text-anchor="middle" x="317.24" y="-57.6" font-family="Times,serif" font-size="13.00">goHome, self (safe)</text>
</a>
</g>
</g>
<!-- home&#45;&gt;inputForm -->
<g id="edge4" class="edge">
<title>home&#45;&gt;inputForm</title>
<g id="a_edge4"><a xlink:href="docs/safe.goForm.html" xlink:title="goForm, form (safe)" target="_parent">
<path fill="none" stroke="black" d="M423.7,-22.2C491.55,-30.99 653.63,-59.58 605.24,-128 553.4,-201.3 443.17,-221.23 376.61,-226.43"/>
<polygon fill="black" stroke="black" points="376.05,-222.96 366.32,-227.14 376.54,-229.94 376.05,-222.96"/>
</a>
</g>
<g id="a_edge4&#45;label"><a xlink:href="docs/safe.goForm.html" xlink:title="goForm, form (safe)" target="_parent">
<text text-anchor="middle" x="678.24" y="-103.6" font-family="Times,serif" font-size="13.00">goForm, form (safe)</text>
</a>
</g>
</g>
<!-- home&#45;&gt;home -->
<g id="edge3" class="edge">
<title>home&#45;&gt;home</title>
<g id="a_edge3"><a xlink:href="docs/safe.goHome.html" xlink:title="goHome, self (safe)" target="_parent">
<path fill="none" stroke="black" d="M423.54,-25.87C433.33,-25.96 441.24,-23.33 441.24,-18 441.24,-14.75 438.31,-12.51 433.8,-11.27"/>
<polygon fill="black" stroke="black" points="433.87,-7.76 423.54,-10.13 433.09,-14.71 433.87,-7.76"/>
</a>
</g>
<g id="a_edge3&#45;label"><a xlink:href="docs/safe.goHome.html" xlink:title="goHome, self (safe)" target="_parent">
<text text-anchor="middle" x="505.24" y="-14.6" font-family="Times,serif" font-size="13.00">goHome, self (safe)</text>
</a>
</g>
</g>
</g>
</svg>
