<?xml version="1.0" encoding="UTF-8" standalone="no"?>
<!DOCTYPE svg PUBLIC "-//W3C//DTD SVG 1.1//EN"
 "http://www.w3.org/Graphics/SVG/1.1/DTD/svg11.dtd">
<!-- Generated by graphviz version 2.43.0 (0)
 -->
<!-- Title: application_state_diagram Pages: 1 -->
<svg width="769pt" height="313pt"
 viewBox="0.00 0.00 769.47 313.00" xmlns="http://www.w3.org/2000/svg" xmlns:xlink="http://www.w3.org/1999/xlink">
<g id="graph0" class="graph" transform="scale(1 1) rotate(0) translate(4 309)">
<title>application_state_diagram</title>
<g id="a_graph0"><a xlink:href="index.html" xlink:title="Partial Submit Profile" target="_parent">
<polygon fill="white" stroke="transparent" points="-4,4 -4,-309 765.47,-309 765.47,4 -4,4"/>
<text text-anchor="middle" x="380.73" y="-7.8" font-family="Helvetica,sans-Serif" font-size="14.00">Partial Submit Profile</text>
</a>
</g>
<!-- inputForm -->
<g id="node1" class="node">
<title>inputForm</title>
<g id="a_node1"><a xlink:href="docs/semantic.inputForm.html" xlink:title="&lt;TABLE&gt;" target="_parent">
<polygon fill="none" stroke="black" points="383.47,-305 293.47,-305 293.47,-201 383.47,-201 383.47,-305"/>
<polygon fill="#dddddd" stroke="transparent" points="294.47,-202 294.47,-304 382.47,-304 382.47,-202 294.47,-202"/>
<polygon fill="none" stroke="black" points="294.47,-202 294.47,-304 382.47,-304 382.47,-202 294.47,-202"/>
<text text-anchor="start" x="300.47" y="-286.8" font-family="Times,serif" font-size="14.00">inputForm</text>
<text text-anchor="start" x="318.47" y="-271.8" font-family="Times,serif" font-size="14.00">(href)</text>
<text text-anchor="start" x="322.97" y="-256.8" font-family="Times,serif" font-size="14.00">(rel)</text>
<text text-anchor="start" x="318.47" y="-241.8" font-family="Times,serif" font-size="14.00">(title)</text>
<text text-anchor="start" x="316.97" y="-226.8" font-family="Times,serif" font-size="14.00">(type)</text>
<text text-anchor="start" x="313.97" y="-211.8" font-family="Times,serif" font-size="14.00">(input)</text>
</a>
</g>
</g>
<!-- inputForm&#45;&gt;inputForm -->
<g id="edge1" class="edge">
<title>inputForm&#45;&gt;inputForm</title>
<path fill="none" stroke="black" d="M383.49,-266.94C393.85,-265.74 401.47,-261.09 401.47,-253 401.47,-247.82 398.34,-244.05 393.37,-241.69"/>
<polygon fill="black" stroke="black" points="394.05,-238.25 383.49,-239.06 392.25,-245.02 394.05,-238.25"/>
<g id="a_edge1_0"><a xlink:href="docs/idempotent.doPartialSubmit.html" xlink:title="&lt;TABLE&gt;">
<text text-anchor="start" x="405.47" y="-269.6" font-family="Times,serif" font-size="13.00">doPartialSubmit (idempotent)</text>
</a>
</g>
<g id="a_edge1_1"><a xlink:href="docs/idempotent.doResetSubmit.html" xlink:title="&lt;TABLE&gt;">
<text text-anchor="start" x="405.47" y="-249.6" font-family="Times,serif" font-size="13.00">doResetSubmit (idempotent)</text>
</a>
</g>
<g id="a_edge1_2"><a xlink:href="docs/safe.goForm.html" xlink:title="&lt;TABLE&gt;">
<text text-anchor="start" x="405.47" y="-229.6" font-family="Times,serif" font-size="13.00">goForm (safe)</text>
</a>
</g>
</g>
<!-- completed -->
<g id="node2" class="node">
<title>completed</title>
<g id="a_node2"><a xlink:href="docs/semantic.completed.html" xlink:title="completed" target="_parent">
<polygon fill="lightgrey" stroke="black" stroke-width="2" points="311.97,-148 220.97,-148 220.97,-112 311.97,-112 311.97,-148"/>
<text text-anchor="middle" x="266.47" y="-126.3" font-family="Times,serif" font-size="14.00">completed</text>
</a>
</g>
</g>
<!-- inputForm&#45;&gt;completed -->
<g id="edge2" class="edge">
<title>inputForm&#45;&gt;completed</title>
<g id="a_edge2"><a xlink:href="docs/idempotent.doFinalSubmit.html" xlink:title="doFinalSubmit, submit (idempotent)" target="_parent">
<path fill="none" stroke="black" d="M293.2,-249.53C210.36,-243.95 39.53,-227.25 3.47,-183 -23.73,-149.63 125.7,-137.34 210.7,-133.08"/>
<polygon fill="black" stroke="black" points="210.9,-136.58 220.73,-132.6 210.57,-129.58 210.9,-136.58"/>
</a>
</g>
<g id="a_edge2&#45;label"><a xlink:href="docs/idempotent.doFinalSubmit.html" xlink:title="doFinalSubmit, submit (idempotent)" target="_parent">
<text text-anchor="middle" x="123.97" y="-172.6" font-family="Times,serif" font-size="13.00">doFinalSubmit, submit (idempotent)</text>
</a>
</g>
</g>
<!-- home -->
<g id="node3" class="node">
<title>home</title>
<g id="a_node3"><a xlink:href="docs/semantic.home.html" xlink:title="home" target="_parent">
<polygon fill="lightgrey" stroke="black" stroke-width="2" points="439.47,-59 383.47,-59 383.47,-23 439.47,-23 439.47,-59"/>
<text text-anchor="middle" x="411.47" y="-37.3" font-family="Times,serif" font-size="14.00">home</text>
</a>
</g>
</g>
<!-- inputForm&#45;&gt;home -->
<g id="edge3" class="edge">
<title>inputForm&#45;&gt;home</title>
<path fill="none" stroke="black" d="M383.6,-206.72C389.06,-199.27 393.94,-191.26 397.47,-183 413.21,-146.08 414.58,-98.95 413.49,-69.62"/>
<polygon fill="black" stroke="black" points="416.97,-69.12 412.98,-59.31 409.98,-69.47 416.97,-69.12"/>
<g id="a_edge3_3"><a xlink:href="docs/idempotent.doCancelSubmit.html" xlink:title="&lt;TABLE&gt;">
<text text-anchor="start" x="417.47" y="-136.6" font-family="Times,serif" font-size="13.00">doCancelSubmit (idempotent)</text>
</a>
</g>
<g id="a_edge3_4"><a xlink:href="docs/safe.goHome.html" xlink:title="&lt;TABLE&gt;">
<text text-anchor="start" x="417.47" y="-116.6" font-family="Times,serif" font-size="13.00">goHome (safe)</text>
</a>
</g>
</g>
<!-- completed&#45;&gt;inputForm -->
<g id="edge6" class="edge">
<title>completed&#45;&gt;inputForm</title>
<g id="a_edge6"><a xlink:href="docs/safe.goForm.html" xlink:title="goForm, form (safe)" target="_parent">
<path fill="none" stroke="black" d="M263.6,-148.09C262.6,-158.58 262.72,-172.07 267.47,-183 271.87,-193.14 278.54,-202.54 286.06,-210.93"/>
<polygon fill="black" stroke="black" points="283.72,-213.55 293.17,-218.35 288.78,-208.71 283.72,-213.55"/>
</a>
</g>
<g id="a_edge6&#45;label"><a xlink:href="docs/safe.goForm.html" xlink:title="goForm, form (safe)" target="_parent">
<text text-anchor="middle" x="332.47" y="-172.6" font-family="Times,serif" font-size="13.00">goForm, form (safe)</text>
</a>
</g>
</g>
<!-- completed&#45;&gt;home -->
<g id="edge7" class="edge">
<title>completed&#45;&gt;home</title>
<g id="a_edge7"><a xlink:href="docs/safe.goHome.html" xlink:title="goHome, self (safe)" target="_parent">
<path fill="none" stroke="black" d="M262.65,-111.67C261.25,-100.54 261.61,-86.46 269.47,-77 282.59,-61.2 335.85,-51.39 373.26,-46.31"/>
<polygon fill="black" stroke="black" points="373.88,-49.76 383.35,-45 372.98,-42.82 373.88,-49.76"/>
</a>
</g>
<g id="a_edge7&#45;label"><a xlink:href="docs/safe.goHome.html" xlink:title="goHome, self (safe)" target="_parent">
<text text-anchor="middle" x="333.47" y="-80.6" font-family="Times,serif" font-size="13.00">goHome, self (safe)</text>
</a>
</g>
</g>
<!-- home&#45;&gt;inputForm -->
<g id="edge4" class="edge">
<title>home&#45;&gt;inputForm</title>
<g id="a_edge4"><a xlink:href="docs/safe.goForm.html" xlink:title="goForm, form (safe)" target="_parent">
<path fill="none" stroke="black" d="M439.68,-45.07C507.83,-53.63 672.3,-81.88 623.47,-151 571.5,-224.56 461.17,-244.88 394.06,-250.29"/>
<polygon fill="black" stroke="black" points="393.4,-246.83 383.67,-251.04 393.9,-253.81 393.4,-246.83"/>
</a>
</g>
<g id="a_edge4&#45;label"><a xlink:href="docs/safe.goForm.html" xlink:title="goForm, form (safe)" target="_parent">
<text text-anchor="middle" x="696.47" y="-126.6" font-family="Times,serif" font-size="13.00">goForm, form (safe)</text>
</a>
</g>
</g>
<!-- home&#45;&gt;home -->
<g id="edge5" class="edge">
<title>home&#45;&gt;home</title>
<g id="a_edge5"><a xlink:href="docs/safe.goHome.html" xlink:title="goHome, self (safe)" target="_parent">
<path fill="none" stroke="black" d="M439.77,-48.87C449.56,-48.96 457.47,-46.33 457.47,-41 457.47,-37.75 454.53,-35.51 450.02,-34.27"/>
<polygon fill="black" stroke="black" points="450.09,-30.76 439.77,-33.13 449.32,-37.71 450.09,-30.76"/>
</a>
</g>
<g id="a_edge5&#45;label"><a xlink:href="docs/safe.goHome.html" xlink:title="goHome, self (safe)" target="_parent">
<text text-anchor="middle" x="521.47" y="-37.6" font-family="Times,serif" font-size="13.00">goHome, self (safe)</text>
</a>
</g>
</g>
</g>
</svg>
