<?xml version="1.0" encoding="UTF-8" standalone="no"?>
<!DOCTYPE svg PUBLIC "-//W3C//DTD SVG 1.1//EN"
 "http://www.w3.org/Graphics/SVG/1.1/DTD/svg11.dtd">
<!-- Generated by graphviz version 2.43.0 (0)
 -->
<!-- Title: application_state_diagram Pages: 1 -->
<svg width="2469pt" height="792pt"
 viewBox="0.00 0.00 2469.00 792.00" xmlns="http://www.w3.org/2000/svg" xmlns:xlink="http://www.w3.org/1999/xlink">
<g id="graph0" class="graph" transform="scale(1 1) rotate(0) translate(4 788)">
<title>application_state_diagram</title>
<g id="a_graph0"><a xlink:href="index.html" xlink:title="Work&#45;In&#45;Progress (WIP) Profile" target="_parent">
<polygon fill="white" stroke="transparent" points="-4,4 -4,-788 2465,-788 2465,4 -4,4"/>
<text text-anchor="middle" x="1230.5" y="-768.8" font-family="Helvetica,sans-Serif" font-size="14.00">Work&#45;In&#45;Progress (WIP) Profile</text>
</a>
</g>
<!-- inputForm -->
<g id="node1" class="node">
<title>inputForm</title>
<g id="a_node1"><a xlink:href="docs/semantic.inputForm.html" xlink:title="&lt;TABLE&gt;" target="_parent">
<polygon fill="lightgray" stroke="black" stroke-width="2" points="1673,-761 1585,-761 1585,-644 1673,-644 1673,-761"/>
<text text-anchor="start" x="1591" y="-743.3" font-family="Times,serif" font-size="14.00">inputForm</text>
<text text-anchor="start" x="1609" y="-728.3" font-family="Times,serif" font-size="14.00">(href)</text>
<text text-anchor="start" x="1613.5" y="-713.3" font-family="Times,serif" font-size="14.00">(rel)</text>
<text text-anchor="start" x="1609" y="-698.3" font-family="Times,serif" font-size="14.00">(title)</text>
<text text-anchor="start" x="1607.5" y="-683.3" font-family="Times,serif" font-size="14.00">(type)</text>
<text text-anchor="start" x="1604.5" y="-668.3" font-family="Times,serif" font-size="14.00">(input)</text>
<text text-anchor="start" x="1599.5" y="-653.3" font-family="Times,serif" font-size="14.00">(listwip)</text>
</a>
</g>
</g>
<!-- inputForm&#45;&gt;inputForm -->
<g id="edge1" class="edge">
<title>inputForm&#45;&gt;inputForm</title>
<path fill="none" stroke="black" d="M1673.02,-717.57C1683.37,-716.33 1691,-711.31 1691,-702.5 1691,-696.86 1687.87,-692.77 1682.9,-690.23"/>
<polygon fill="black" stroke="black" points="1683.6,-686.79 1673.02,-687.43 1681.69,-693.53 1683.6,-686.79"/>
<g id="a_edge1_0"><a xlink:href="docs/idempotent.doPartialSubmit.html" xlink:title="&lt;TABLE&gt;">
<text text-anchor="start" x="1695" y="-719.1" font-family="Times,serif" font-size="13.00">doPartialSubmit (idempotent)</text>
</a>
</g>
<g id="a_edge1_1"><a xlink:href="docs/idempotent.doResetSubmit.html" xlink:title="&lt;TABLE&gt;">
<text text-anchor="start" x="1695" y="-699.1" font-family="Times,serif" font-size="13.00">doResetSubmit (idempotent)</text>
</a>
</g>
<g id="a_edge1_2"><a xlink:href="docs/safe.goForm.html" xlink:title="&lt;TABLE&gt;">
<text text-anchor="start" x="1695" y="-679.1" font-family="Times,serif" font-size="13.00">goForm (safe)</text>
</a>
</g>
</g>
<!-- home -->
<g id="node2" class="node">
<title>home</title>
<g id="a_node2"><a xlink:href="docs/semantic.home.html" xlink:title="&lt;TABLE&gt;" target="_parent">
<polygon fill="lightgray" stroke="black" stroke-width="2" points="1650.5,-502 1575.5,-502 1575.5,-460 1650.5,-460 1650.5,-502"/>
<text text-anchor="start" x="1593.5" y="-484.8" font-family="Times,serif" font-size="14.00">home</text>
<text text-anchor="start" x="1582" y="-469.8" font-family="Times,serif" font-size="14.00">(wiplink)</text>
</a>
</g>
</g>
<!-- inputForm&#45;&gt;home -->
<g id="edge3" class="edge">
<title>inputForm&#45;&gt;home</title>
<path fill="none" stroke="black" d="M1584.96,-696.48C1527.58,-687.32 1429.38,-662.05 1385,-594 1339.46,-524.18 1485.46,-496.41 1564.98,-486.65"/>
<polygon fill="black" stroke="black" points="1565.75,-490.09 1575.27,-485.44 1564.93,-483.13 1565.75,-490.09"/>
<g id="a_edge3_3"><a xlink:href="docs/idempotent.doCancelSubmit.html" xlink:title="&lt;TABLE&gt;">
<text text-anchor="start" x="1389" y="-579.6" font-family="Times,serif" font-size="13.00">doCancelSubmit (idempotent)</text>
</a>
</g>
<g id="a_edge3_4"><a xlink:href="docs/safe.goHome.html" xlink:title="&lt;TABLE&gt;">
<text text-anchor="start" x="1389" y="-559.6" font-family="Times,serif" font-size="13.00">goHome (safe)</text>
</a>
</g>
</g>
<!-- completed -->
<g id="node12" class="node">
<title>completed</title>
<g id="a_node12"><a xlink:href="docs/semantic.completed.html" xlink:title="completed" target="_parent">
<polygon fill="lightgray" stroke="black" stroke-width="2" points="1852.5,-591 1761.5,-591 1761.5,-555 1852.5,-555 1852.5,-591"/>
<text text-anchor="middle" x="1807" y="-569.3" font-family="Times,serif" font-size="14.00">completed</text>
</a>
</g>
</g>
<!-- inputForm&#45;&gt;completed -->
<g id="edge2" class="edge">
<title>inputForm&#45;&gt;completed</title>
<g id="a_edge2"><a xlink:href="docs/idempotent.doFinalSubmit.html" xlink:title="doFinalSubmit, submit (idempotent)" target="_parent">
<path fill="none" stroke="black" d="M1630.31,-643.95C1633.18,-632.04 1638.28,-620.54 1647,-612 1679.26,-580.39 1703.24,-605.17 1747,-594 1748.46,-593.63 1749.94,-593.24 1751.43,-592.83"/>
<polygon fill="black" stroke="black" points="1752.7,-596.11 1761.34,-589.97 1750.76,-589.38 1752.7,-596.11"/>
</a>
</g>
<g id="a_edge2&#45;label"><a xlink:href="docs/idempotent.doFinalSubmit.html" xlink:title="doFinalSubmit, submit (idempotent)" target="_parent">
<text text-anchor="middle" x="1767.5" y="-615.6" font-family="Times,serif" font-size="13.00">doFinalSubmit, submit (idempotent)</text>
</a>
</g>
</g>
<!-- home&#45;&gt;inputForm -->
<g id="edge37" class="edge">
<title>home&#45;&gt;inputForm</title>
<g id="a_edge37"><a xlink:href="docs/safe.goForm.html" xlink:title="goForm, form (safe)" target="_parent">
<path fill="none" stroke="black" d="M1614.47,-502.11C1616.62,-531.7 1620.75,-588.36 1624.06,-633.74"/>
<polygon fill="black" stroke="black" points="1620.58,-634.11 1624.8,-643.83 1627.56,-633.6 1620.58,-634.11"/>
</a>
</g>
<g id="a_edge37&#45;label"><a xlink:href="docs/safe.goForm.html" xlink:title="goForm, form (safe)" target="_parent">
<text text-anchor="middle" x="1686" y="-569.6" font-family="Times,serif" font-size="13.00">goForm, form (safe)</text>
</a>
</g>
</g>
<!-- home&#45;&gt;home -->
<g id="edge5" class="edge">
<title>home&#45;&gt;home</title>
<g id="a_edge5"><a xlink:href="docs/safe.goHome.html" xlink:title="goHome, self (safe)" target="_parent">
<path fill="none" stroke="black" d="M1650.61,-489.56C1660.77,-489.11 1668.5,-486.26 1668.5,-481 1668.5,-477.72 1665.48,-475.37 1660.74,-473.96"/>
<polygon fill="black" stroke="black" points="1661.02,-470.46 1650.61,-472.44 1659.98,-477.39 1661.02,-470.46"/>
</a>
</g>
<g id="a_edge5&#45;label"><a xlink:href="docs/safe.goHome.html" xlink:title="goHome, self (safe)" target="_parent">
<text text-anchor="middle" x="1732.5" y="-477.6" font-family="Times,serif" font-size="13.00">goHome, self (safe)</text>
</a>
</g>
</g>
<!-- listwip -->
<g id="node3" class="node">
<title>listwip</title>
<g id="a_node3"><a xlink:href="docs/semantic.listwip.html" xlink:title="&lt;TABLE&gt;" target="_parent">
<polygon fill="lightgray" stroke="black" stroke-width="2" points="1139.5,-410 1064.5,-410 1064.5,-368 1139.5,-368 1139.5,-410"/>
<text text-anchor="start" x="1078" y="-392.8" font-family="Times,serif" font-size="14.00">listwip</text>
<text text-anchor="start" x="1071" y="-377.8" font-family="Times,serif" font-size="14.00">(wiplink)</text>
</a>
</g>
</g>
<!-- home&#45;&gt;listwip -->
<g id="edge4" class="edge">
<title>home&#45;&gt;listwip</title>
<g id="a_edge4"><a xlink:href="docs/safe.goListWIP.html" xlink:title="goListWIP, list&#45;wip (safe)" target="_parent">
<path fill="none" stroke="black" d="M1575.25,-479.32C1507.45,-477.41 1360.94,-470.07 1241,-442 1209.5,-434.63 1175.45,-421.97 1148.94,-411"/>
<polygon fill="black" stroke="black" points="1150.11,-407.69 1139.53,-407.04 1147.4,-414.14 1150.11,-407.69"/>
</a>
</g>
<g id="a_edge4&#45;label"><a xlink:href="docs/safe.goListWIP.html" xlink:title="goListWIP, list&#45;wip (safe)" target="_parent">
<text text-anchor="middle" x="1324" y="-431.6" font-family="Times,serif" font-size="13.00">goListWIP, list&#45;wip (safe)</text>
</a>
</g>
</g>
<!-- listwip&#45;&gt;home -->
<g id="edge9" class="edge">
<title>listwip&#45;&gt;home</title>
<g id="a_edge9"><a xlink:href="docs/safe.goHome.html" xlink:title="goHome, self (safe)" target="_parent">
<path fill="none" stroke="black" d="M1139.8,-393.2C1197.66,-398.43 1311.55,-410.08 1407,-428 1461.92,-438.31 1523.99,-454.63 1565.51,-466.24"/>
<polygon fill="black" stroke="black" points="1564.77,-469.66 1575.34,-469 1566.67,-462.93 1564.77,-469.66"/>
</a>
</g>
<g id="a_edge9&#45;label"><a xlink:href="docs/safe.goHome.html" xlink:title="goHome, self (safe)" target="_parent">
<text text-anchor="middle" x="1534" y="-431.6" font-family="Times,serif" font-size="13.00">goHome, self (safe)</text>
</a>
</g>
</g>
<!-- createwip -->
<g id="node4" class="node">
<title>createwip</title>
<g id="a_node4"><a xlink:href="docs/semantic.createwip.html" xlink:title="&lt;TABLE&gt;" target="_parent">
<polygon fill="lightgray" stroke="black" stroke-width="2" points="744.5,-318 661.5,-318 661.5,-276 744.5,-276 744.5,-318"/>
<text text-anchor="start" x="668" y="-300.8" font-family="Times,serif" font-size="14.00">createwip</text>
<text text-anchor="start" x="672" y="-285.8" font-family="Times,serif" font-size="14.00">(wiplink)</text>
</a>
</g>
</g>
<!-- listwip&#45;&gt;createwip -->
<g id="edge8" class="edge">
<title>listwip&#45;&gt;createwip</title>
<g id="a_edge8"><a xlink:href="docs/idempotent.doCreateWIP.html" xlink:title="doCreateWIP, create&#45;wip (idempotent)" target="_parent">
<path fill="none" stroke="black" d="M1064.13,-388.26C1005.76,-387.57 891.05,-381.8 800,-350 788.7,-346.05 787.44,-341.85 777,-336 769.22,-331.64 760.88,-327.17 752.72,-322.9"/>
<polygon fill="black" stroke="black" points="754.1,-319.68 743.61,-318.18 750.88,-325.89 754.1,-319.68"/>
</a>
</g>
<g id="a_edge8&#45;label"><a xlink:href="docs/idempotent.doCreateWIP.html" xlink:title="doCreateWIP, create&#45;wip (idempotent)" target="_parent">
<text text-anchor="middle" x="926.5" y="-339.6" font-family="Times,serif" font-size="13.00">doCreateWIP, create&#45;wip (idempotent)</text>
</a>
</g>
</g>
<!-- readwip -->
<g id="node5" class="node">
<title>readwip</title>
<g id="a_node5"><a xlink:href="docs/semantic.readwip.html" xlink:title="&lt;TABLE&gt;" target="_parent">
<polygon fill="lightgray" stroke="black" stroke-width="2" points="1357.5,-226 1282.5,-226 1282.5,-184 1357.5,-184 1357.5,-226"/>
<text text-anchor="start" x="1291.5" y="-208.8" font-family="Times,serif" font-size="14.00">readwip</text>
<text text-anchor="start" x="1289" y="-193.8" font-family="Times,serif" font-size="14.00">(wiplink)</text>
</a>
</g>
</g>
<!-- listwip&#45;&gt;readwip -->
<g id="edge7" class="edge">
<title>listwip&#45;&gt;readwip</title>
<g id="a_edge7"><a xlink:href="docs/safe.goReadWIP.html" xlink:title="goReadWIP, read&#45;wip (safe)" target="_parent">
<path fill="none" stroke="black" d="M1098,-367.6C1094.37,-342.53 1092.68,-300.33 1116,-276 1149.37,-241.19 1177.37,-273.6 1223,-258 1242.53,-251.33 1262.84,-241.03 1279.8,-231.35"/>
<polygon fill="black" stroke="black" points="1281.99,-234.13 1288.86,-226.07 1278.46,-228.09 1281.99,-234.13"/>
</a>
</g>
<g id="a_edge7&#45;label"><a xlink:href="docs/safe.goReadWIP.html" xlink:title="goReadWIP, read&#45;wip (safe)" target="_parent">
<text text-anchor="middle" x="1207" y="-293.6" font-family="Times,serif" font-size="13.00">goReadWIP, read&#45;wip (safe)</text>
</a>
</g>
</g>
<!-- filterwip -->
<g id="node9" class="node">
<title>filterwip</title>
<g id="a_node9"><a xlink:href="docs/semantic.filterwip.html" xlink:title="&lt;TABLE&gt;" target="_parent">
<polygon fill="lightgray" stroke="black" stroke-width="2" points="1579.5,-318 1504.5,-318 1504.5,-276 1579.5,-276 1579.5,-318"/>
<text text-anchor="start" x="1512" y="-300.8" font-family="Times,serif" font-size="14.00">filterwip</text>
<text text-anchor="start" x="1511" y="-285.8" font-family="Times,serif" font-size="14.00">(wiplink)</text>
</a>
</g>
</g>
<!-- listwip&#45;&gt;filterwip -->
<g id="edge6" class="edge">
<title>listwip&#45;&gt;filterwip</title>
<g id="a_edge6"><a xlink:href="docs/safe.goFilterWIP.html" xlink:title="goFilterWIP, filter&#45;wip (safe)" target="_parent">
<path fill="none" stroke="black" d="M1139.75,-380.97C1168.94,-374.81 1209.98,-364.55 1244,-350 1255,-345.29 1255.62,-339.69 1267,-336 1361.58,-305.32 1393.05,-340.07 1490,-318 1491.47,-317.66 1492.96,-317.3 1494.46,-316.9"/>
<polygon fill="black" stroke="black" points="1495.77,-320.16 1504.34,-313.92 1493.75,-313.45 1495.77,-320.16"/>
</a>
</g>
<g id="a_edge6&#45;label"><a xlink:href="docs/safe.goFilterWIP.html" xlink:title="goFilterWIP, filter&#45;wip (safe)" target="_parent">
<text text-anchor="middle" x="1361.5" y="-339.6" font-family="Times,serif" font-size="13.00">goFilterWIP, filter&#45;wip (safe)</text>
</a>
</g>
</g>
<!-- createwip&#45;&gt;home -->
<g id="edge12" class="edge">
<title>createwip&#45;&gt;home</title>
<g id="a_edge12"><a xlink:href="docs/safe.goHome.html" xlink:title="goHome, self (safe)" target="_parent">
<path fill="none" stroke="black" d="M661.33,-303.84C623.67,-310.85 577.09,-324.93 598,-350 768.84,-554.81 925.77,-413.99 1191,-442 1326.64,-456.32 1487.19,-469.83 1565.39,-476.19"/>
<polygon fill="black" stroke="black" points="1565.17,-479.69 1575.42,-477.01 1565.74,-472.71 1565.17,-479.69"/>
</a>
</g>
<g id="a_edge12&#45;label"><a xlink:href="docs/safe.goHome.html" xlink:title="goHome, self (safe)" target="_parent">
<text text-anchor="middle" x="719" y="-385.6" font-family="Times,serif" font-size="13.00">goHome, self (safe)</text>
</a>
</g>
</g>
<!-- createwip&#45;&gt;listwip -->
<g id="edge11" class="edge">
<title>createwip&#45;&gt;listwip</title>
<g id="a_edge11"><a xlink:href="docs/safe.goListWIP.html" xlink:title="goListWIP, list&#45;wip (safe)" target="_parent">
<path fill="none" stroke="black" d="M661.3,-305.67C626.95,-313.74 586.91,-328.31 607,-350 622.06,-366.26 932.67,-380.93 1054.02,-386.06"/>
<polygon fill="black" stroke="black" points="1054,-389.56 1064.13,-386.49 1054.29,-382.57 1054,-389.56"/>
</a>
</g>
<g id="a_edge11&#45;label"><a xlink:href="docs/safe.goListWIP.html" xlink:title="goListWIP, list&#45;wip (safe)" target="_parent">
<text text-anchor="middle" x="690" y="-339.6" font-family="Times,serif" font-size="13.00">goListWIP, list&#45;wip (safe)</text>
</a>
</g>
</g>
<!-- updatewip -->
<g id="node6" class="node">
<title>updatewip</title>
<g id="a_node6"><a xlink:href="docs/semantic.updatewip.html" xlink:title="&lt;TABLE&gt;" target="_parent">
<polygon fill="lightgray" stroke="black" stroke-width="2" points="572,-134 484,-134 484,-92 572,-92 572,-134"/>
<text text-anchor="start" x="490" y="-116.8" font-family="Times,serif" font-size="14.00">updatewip</text>
<text text-anchor="start" x="496.5" y="-101.8" font-family="Times,serif" font-size="14.00">(wiplink)</text>
</a>
</g>
</g>
<!-- createwip&#45;&gt;updatewip -->
<g id="edge10" class="edge">
<title>createwip&#45;&gt;updatewip</title>
<g id="a_edge10"><a xlink:href="docs/idempotent.doUpdateWIP.html" xlink:title="doUpdateWIP, update&#45;wip (idempotent)" target="_parent">
<path fill="none" stroke="black" d="M733.42,-275.98C743.96,-266.5 751.48,-254.9 744,-244 689.57,-164.63 606.37,-237.54 542,-166 536.5,-159.89 533.13,-151.85 531.07,-143.92"/>
<polygon fill="black" stroke="black" points="534.5,-143.21 529.11,-134.09 527.64,-144.58 534.5,-143.21"/>
</a>
</g>
<g id="a_edge10&#45;label"><a xlink:href="docs/idempotent.doUpdateWIP.html" xlink:title="doUpdateWIP, update&#45;wip (idempotent)" target="_parent">
<text text-anchor="middle" x="857.5" y="-201.6" font-family="Times,serif" font-size="13.00">doUpdateWIP, update&#45;wip (idempotent)</text>
</a>
</g>
</g>
<!-- readwip&#45;&gt;home -->
<g id="edge19" class="edge">
<title>readwip&#45;&gt;home</title>
<g id="a_edge19"><a xlink:href="docs/safe.goHome.html" xlink:title="goHome, self (safe)" target="_parent">
<path fill="none" stroke="black" d="M1357.73,-205.39C1460.37,-204.65 1740.66,-208.9 1796,-276 1833.96,-322.03 1823.56,-362.09 1788,-410 1758.15,-450.21 1701.46,-467.36 1660.68,-474.65"/>
<polygon fill="black" stroke="black" points="1659.97,-471.22 1650.68,-476.3 1661.11,-478.13 1659.97,-471.22"/>
</a>
</g>
<g id="a_edge19&#45;label"><a xlink:href="docs/safe.goHome.html" xlink:title="goHome, self (safe)" target="_parent">
<text text-anchor="middle" x="1883" y="-339.6" font-family="Times,serif" font-size="13.00">goHome, self (safe)</text>
</a>
</g>
</g>
<!-- readwip&#45;&gt;listwip -->
<g id="edge18" class="edge">
<title>readwip&#45;&gt;listwip</title>
<g id="a_edge18"><a xlink:href="docs/safe.goListWIP.html" xlink:title="goListWIP, list&#45;wip (safe)" target="_parent">
<path fill="none" stroke="black" d="M1321.66,-226.36C1322.53,-251 1320.16,-292.36 1298,-318 1282.28,-336.19 1269.65,-327.94 1247,-336 1214.32,-347.63 1177.53,-360.82 1149.19,-371.01"/>
<polygon fill="black" stroke="black" points="1147.76,-367.8 1139.54,-374.48 1150.13,-374.39 1147.76,-367.8"/>
</a>
</g>
<g id="a_edge18&#45;label"><a xlink:href="docs/safe.goListWIP.html" xlink:title="goListWIP, list&#45;wip (safe)" target="_parent">
<text text-anchor="middle" x="1401" y="-293.6" font-family="Times,serif" font-size="13.00">goListWIP, list&#45;wip (safe)</text>
</a>
</g>
</g>
<!-- readwip&#45;&gt;updatewip -->
<g id="edge14" class="edge">
<title>readwip&#45;&gt;updatewip</title>
<g id="a_edge14"><a xlink:href="docs/idempotent.doUpdateWIP.html" xlink:title="doUpdateWIP, update&#45;wip (idempotent)" target="_parent">
<path fill="none" stroke="black" d="M1282.29,-203.39C1204.05,-201.56 1018.61,-194.35 866,-166 844.15,-161.94 839.75,-156.57 818,-152 736.67,-134.92 640.79,-124.14 582.22,-118.6"/>
<polygon fill="black" stroke="black" points="582.36,-115.09 572.08,-117.65 581.71,-122.06 582.36,-115.09"/>
</a>
</g>
<g id="a_edge14&#45;label"><a xlink:href="docs/idempotent.doUpdateWIP.html" xlink:title="doUpdateWIP, update&#45;wip (idempotent)" target="_parent">
<text text-anchor="middle" x="996.5" y="-155.6" font-family="Times,serif" font-size="13.00">doUpdateWIP, update&#45;wip (idempotent)</text>
</a>
</g>
</g>
<!-- submitwip -->
<g id="node7" class="node">
<title>submitwip</title>
<g id="a_node7"><a xlink:href="docs/semantic.submitwip.html" xlink:title="&lt;TABLE&gt;" target="_parent">
<polygon fill="lightgray" stroke="black" stroke-width="2" points="1031,-42 943,-42 943,0 1031,0 1031,-42"/>
<text text-anchor="start" x="949" y="-24.8" font-family="Times,serif" font-size="14.00">submitwip</text>
<text text-anchor="start" x="955.5" y="-9.8" font-family="Times,serif" font-size="14.00">(wiplink)</text>
</a>
</g>
</g>
<!-- readwip&#45;&gt;submitwip -->
<g id="edge15" class="edge">
<title>readwip&#45;&gt;submitwip</title>
<g id="a_edge15"><a xlink:href="docs/idempotent.doSubmitWIP.html" xlink:title="doSubmitWIP, submit&#45;wip (idempotent)" target="_parent">
<path fill="none" stroke="black" d="M1282.5,-200.23C1249.66,-195.72 1201.47,-186.07 1164,-166 1102.73,-133.17 1104.45,-101.92 1049,-60 1043.45,-55.81 1037.42,-51.66 1031.37,-47.73"/>
<polygon fill="black" stroke="black" points="1032.87,-44.54 1022.55,-42.15 1029.13,-50.45 1032.87,-44.54"/>
</a>
</g>
<g id="a_edge15&#45;label"><a xlink:href="docs/idempotent.doSubmitWIP.html" xlink:title="doSubmitWIP, submit&#45;wip (idempotent)" target="_parent">
<text text-anchor="middle" x="1250" y="-109.6" font-family="Times,serif" font-size="13.00">doSubmitWIP, submit&#45;wip (idempotent)</text>
</a>
</g>
</g>
<!-- cancelwip -->
<g id="node8" class="node">
<title>cancelwip</title>
<g id="a_node8"><a xlink:href="docs/semantic.cancelwip.html" xlink:title="&lt;TABLE&gt;" target="_parent">
<polygon fill="lightgray" stroke="black" stroke-width="2" points="429.5,-134 346.5,-134 346.5,-92 429.5,-92 429.5,-134"/>
<text text-anchor="start" x="353" y="-116.8" font-family="Times,serif" font-size="14.00">cancelwip</text>
<text text-anchor="start" x="357" y="-101.8" font-family="Times,serif" font-size="14.00">(wiplink)</text>
</a>
</g>
</g>
<!-- readwip&#45;&gt;cancelwip -->
<g id="edge16" class="edge">
<title>readwip&#45;&gt;cancelwip</title>
<g id="a_edge16"><a xlink:href="docs/idempotent.doCancelWIP.html" xlink:title="doCancelWIP, cancel&#45;wip (idempotent)" target="_parent">
<path fill="none" stroke="black" d="M1282.28,-201.81C1216.19,-197.99 1075.15,-189.97 956,-184 779.15,-175.14 732.49,-196.14 558,-166 517.17,-158.95 472.41,-144.99 439.08,-133.31"/>
<polygon fill="black" stroke="black" points="440.15,-129.98 429.55,-129.93 437.8,-136.58 440.15,-129.98"/>
</a>
</g>
<g id="a_edge16&#45;label"><a xlink:href="docs/idempotent.doCancelWIP.html" xlink:title="doCancelWIP, cancel&#45;wip (idempotent)" target="_parent">
<text text-anchor="middle" x="686" y="-155.6" font-family="Times,serif" font-size="13.00">doCancelWIP, cancel&#45;wip (idempotent)</text>
</a>
</g>
</g>
<!-- sharewip -->
<g id="node10" class="node">
<title>sharewip</title>
<g id="a_node10"><a xlink:href="docs/semantic.sharewip.html" xlink:title="&lt;TABLE&gt;" target="_parent">
<polygon fill="lightgray" stroke="black" stroke-width="2" points="1497,-134 1419,-134 1419,-92 1497,-92 1497,-134"/>
<text text-anchor="start" x="1425" y="-116.8" font-family="Times,serif" font-size="14.00">sharewip</text>
<text text-anchor="start" x="1426.5" y="-101.8" font-family="Times,serif" font-size="14.00">(wiplink)</text>
</a>
</g>
</g>
<!-- readwip&#45;&gt;sharewip -->
<g id="edge13" class="edge">
<title>readwip&#45;&gt;sharewip</title>
<g id="a_edge13"><a xlink:href="docs/idempotent.doShareWIP.html" xlink:title="doShareWIP, share&#45;wip (idempotent)" target="_parent">
<path fill="none" stroke="black" d="M1282.37,-202.43C1229.18,-198.94 1141.95,-187.73 1175,-152 1192.4,-133.18 1379.98,-139.58 1405,-134 1406.27,-133.72 1407.55,-133.41 1408.83,-133.08"/>
<polygon fill="black" stroke="black" points="1410.1,-136.36 1418.72,-130.21 1408.15,-129.64 1410.1,-136.36"/>
</a>
</g>
<g id="a_edge13&#45;label"><a xlink:href="docs/idempotent.doShareWIP.html" xlink:title="doShareWIP, share&#45;wip (idempotent)" target="_parent">
<text text-anchor="middle" x="1296" y="-155.6" font-family="Times,serif" font-size="13.00">doShareWIP, share&#45;wip (idempotent)</text>
</a>
</g>
</g>
<!-- statuswip -->
<g id="node11" class="node">
<title>statuswip</title>
<g id="a_node11"><a xlink:href="docs/semantic.statuswip.html" xlink:title="&lt;TABLE&gt;" target="_parent">
<polygon fill="lightgray" stroke="black" stroke-width="2" points="2056,-134 1974,-134 1974,-92 2056,-92 2056,-134"/>
<text text-anchor="start" x="1980" y="-116.8" font-family="Times,serif" font-size="14.00">statuswip</text>
<text text-anchor="start" x="1983.5" y="-101.8" font-family="Times,serif" font-size="14.00">(wiplink)</text>
</a>
</g>
</g>
<!-- readwip&#45;&gt;statuswip -->
<g id="edge17" class="edge">
<title>readwip&#45;&gt;statuswip</title>
<g id="a_edge17"><a xlink:href="docs/idempotent.doStatusWIP.html" xlink:title="doStatusWIP, status&#45;wip (idempotent)" target="_parent">
<path fill="none" stroke="black" d="M1357.59,-203.4C1415,-201.56 1527.39,-194.29 1618,-166 1630.9,-161.97 1632.05,-155.87 1645,-152 1755.13,-119.09 1890.98,-113.58 1963.55,-113.27"/>
<polygon fill="black" stroke="black" points="1963.79,-116.77 1973.79,-113.26 1963.79,-109.77 1963.79,-116.77"/>
</a>
</g>
<g id="a_edge17&#45;label"><a xlink:href="docs/idempotent.doStatusWIP.html" xlink:title="doStatusWIP, status&#45;wip (idempotent)" target="_parent">
<text text-anchor="middle" x="1770" y="-155.6" font-family="Times,serif" font-size="13.00">doStatusWIP, status&#45;wip (idempotent)</text>
</a>
</g>
</g>
<!-- updatewip&#45;&gt;home -->
<g id="edge22" class="edge">
<title>updatewip&#45;&gt;home</title>
<g id="a_edge22"><a xlink:href="docs/safe.goHome.html" xlink:title="goHome, self (safe)" target="_parent">
<path fill="none" stroke="black" d="M484,-126.4C431.29,-144.26 350,-182.72 350,-250 350,-390 350,-390 350,-390 350,-452.11 1334.56,-474.7 1565.11,-479.14"/>
<polygon fill="black" stroke="black" points="1565.14,-482.64 1575.2,-479.33 1565.27,-475.64 1565.14,-482.64"/>
</a>
</g>
<g id="a_edge22&#45;label"><a xlink:href="docs/safe.goHome.html" xlink:title="goHome, self (safe)" target="_parent">
<text text-anchor="middle" x="414" y="-293.6" font-family="Times,serif" font-size="13.00">goHome, self (safe)</text>
</a>
</g>
</g>
<!-- updatewip&#45;&gt;listwip -->
<g id="edge21" class="edge">
<title>updatewip&#45;&gt;listwip</title>
<g id="a_edge21"><a xlink:href="docs/safe.goListWIP.html" xlink:title="goListWIP, list&#45;wip (safe)" target="_parent">
<path fill="none" stroke="black" d="M527.31,-134.42C527.35,-144.08 527.96,-155.72 530,-166 532.12,-176.69 589.3,-343.44 598,-350 607.05,-356.82 930.03,-377.4 1054.11,-385.07"/>
<polygon fill="black" stroke="black" points="1053.9,-388.57 1064.09,-385.69 1054.33,-381.58 1053.9,-388.57"/>
</a>
</g>
<g id="a_edge21&#45;label"><a xlink:href="docs/safe.goListWIP.html" xlink:title="goListWIP, list&#45;wip (safe)" target="_parent">
<text text-anchor="middle" x="644" y="-247.6" font-family="Times,serif" font-size="13.00">goListWIP, list&#45;wip (safe)</text>
</a>
</g>
</g>
<!-- updatewip&#45;&gt;submitwip -->
<g id="edge20" class="edge">
<title>updatewip&#45;&gt;submitwip</title>
<g id="a_edge20"><a xlink:href="docs/idempotent.doSubmitWIP.html" xlink:title="doSubmitWIP, submit&#45;wip (idempotent)" target="_parent">
<path fill="none" stroke="black" d="M572.01,-103.37C656.47,-86.81 841.02,-50.62 932.86,-32.62"/>
<polygon fill="black" stroke="black" points="933.65,-36.03 942.79,-30.67 932.3,-29.16 933.65,-36.03"/>
</a>
</g>
<g id="a_edge20&#45;label"><a xlink:href="docs/idempotent.doSubmitWIP.html" xlink:title="doSubmitWIP, submit&#45;wip (idempotent)" target="_parent">
<text text-anchor="middle" x="915" y="-63.6" font-family="Times,serif" font-size="13.00">doSubmitWIP, submit&#45;wip (idempotent)</text>
</a>
</g>
</g>
<!-- submitwip&#45;&gt;home -->
<g id="edge24" class="edge">
<title>submitwip&#45;&gt;home</title>
<g id="a_edge24"><a xlink:href="docs/safe.goHome.html" xlink:title="goHome, self (safe)" target="_parent">
<path fill="none" stroke="black" d="M1031.02,-22.59C1262.99,-25.97 2333,-45.18 2333,-112 2333,-390 2333,-390 2333,-390 2333,-457.95 1821.55,-475.29 1660.77,-479.06"/>
<polygon fill="black" stroke="black" points="1660.61,-475.57 1650.7,-479.29 1660.77,-482.57 1660.61,-475.57"/>
</a>
</g>
<g id="a_edge24&#45;label"><a xlink:href="docs/safe.goHome.html" xlink:title="goHome, self (safe)" target="_parent">
<text text-anchor="middle" x="2397" y="-247.6" font-family="Times,serif" font-size="13.00">goHome, self (safe)</text>
</a>
</g>
</g>
<!-- submitwip&#45;&gt;listwip -->
<g id="edge23" class="edge">
<title>submitwip&#45;&gt;listwip</title>
<g id="a_edge23"><a xlink:href="docs/safe.goListWIP.html" xlink:title="goListWIP, list&#45;wip (safe)" target="_parent">
<path fill="none" stroke="black" d="M942.91,-22.1C771.11,-23.06 156,-32.1 156,-112 156,-298 156,-298 156,-298 156,-387.64 466.81,-341.11 556,-350 652.04,-359.58 939.51,-377.88 1054.09,-385.04"/>
<polygon fill="black" stroke="black" points="1054.11,-388.54 1064.3,-385.67 1054.54,-381.56 1054.11,-388.54"/>
</a>
</g>
<g id="a_edge23&#45;label"><a xlink:href="docs/safe.goListWIP.html" xlink:title="goListWIP, list&#45;wip (safe)" target="_parent">
<text text-anchor="middle" x="239" y="-201.6" font-family="Times,serif" font-size="13.00">goListWIP, list&#45;wip (safe)</text>
</a>
</g>
</g>
<!-- cancelwip&#45;&gt;home -->
<g id="edge26" class="edge">
<title>cancelwip&#45;&gt;home</title>
<g id="a_edge26"><a xlink:href="docs/safe.goHome.html" xlink:title="goHome, self (safe)" target="_parent">
<path fill="none" stroke="black" d="M346.48,-114.9C246.38,-118.2 0,-133.47 0,-204 0,-390 0,-390 0,-390 0,-470.48 1297,-478.99 1564.93,-479.89"/>
<polygon fill="black" stroke="black" points="1565.1,-483.39 1575.11,-479.93 1565.12,-476.39 1565.1,-483.39"/>
</a>
</g>
<g id="a_edge26&#45;label"><a xlink:href="docs/safe.goHome.html" xlink:title="goHome, self (safe)" target="_parent">
<text text-anchor="middle" x="64" y="-293.6" font-family="Times,serif" font-size="13.00">goHome, self (safe)</text>
</a>
</g>
</g>
<!-- cancelwip&#45;&gt;listwip -->
<g id="edge25" class="edge">
<title>cancelwip&#45;&gt;listwip</title>
<g id="a_edge25"><a xlink:href="docs/safe.goListWIP.html" xlink:title="goListWIP, list&#45;wip (safe)" target="_parent">
<path fill="none" stroke="black" d="M380.6,-134.11C370.8,-164.64 357.9,-222.86 387,-258 414.41,-291.09 442.43,-259.24 482,-276 534.57,-298.26 533.25,-330.76 587,-350 597.93,-353.91 928.46,-376.38 1054.14,-384.81"/>
<polygon fill="black" stroke="black" points="1054.03,-388.31 1064.24,-385.48 1054.5,-381.32 1054.03,-388.31"/>
</a>
</g>
<g id="a_edge25&#45;label"><a xlink:href="docs/safe.goListWIP.html" xlink:title="goListWIP, list&#45;wip (safe)" target="_parent">
<text text-anchor="middle" x="470" y="-247.6" font-family="Times,serif" font-size="13.00">goListWIP, list&#45;wip (safe)</text>
</a>
</g>
</g>
<!-- filterwip&#45;&gt;home -->
<g id="edge27" class="edge">
<title>filterwip&#45;&gt;home</title>
<g id="a_edge27"><a xlink:href="docs/safe.goHome.html" xlink:title="goHome, self (safe)" target="_parent">
<path fill="none" stroke="black" d="M1579.68,-301.34C1602.65,-305.55 1630.34,-314.97 1645,-336 1669.02,-370.46 1649.12,-419.88 1631.72,-450.94"/>
<polygon fill="black" stroke="black" points="1628.48,-449.56 1626.46,-459.96 1634.52,-453.09 1628.48,-449.56"/>
</a>
</g>
<g id="a_edge27&#45;label"><a xlink:href="docs/safe.goHome.html" xlink:title="goHome, self (safe)" target="_parent">
<text text-anchor="middle" x="1720" y="-385.6" font-family="Times,serif" font-size="13.00">goHome, self (safe)</text>
</a>
</g>
</g>
<!-- filterwip&#45;&gt;listwip -->
<g id="edge28" class="edge">
<title>filterwip&#45;&gt;listwip</title>
<g id="a_edge28"><a xlink:href="docs/safe.goListWIP.html" xlink:title="goListWIP, list&#45;wip (safe)" target="_parent">
<path fill="none" stroke="black" d="M1508.64,-318.09C1499.06,-323.86 1488.61,-330.18 1479,-336 1468.77,-342.2 1467.33,-346.16 1456,-350 1400.49,-368.82 1232.96,-380.61 1149.84,-385.46"/>
<polygon fill="black" stroke="black" points="1149.44,-381.97 1139.65,-386.04 1149.84,-388.96 1149.44,-381.97"/>
</a>
</g>
<g id="a_edge28&#45;label"><a xlink:href="docs/safe.goListWIP.html" xlink:title="goListWIP, list&#45;wip (safe)" target="_parent">
<text text-anchor="middle" x="1562" y="-339.6" font-family="Times,serif" font-size="13.00">goListWIP, list&#45;wip (safe)</text>
</a>
</g>
</g>
<!-- filterwip&#45;&gt;readwip -->
<g id="edge30" class="edge">
<title>filterwip&#45;&gt;readwip</title>
<g id="a_edge30"><a xlink:href="docs/safe.goReadWIP.html" xlink:title="goReadWIP, read&#45;wip (safe)" target="_parent">
<path fill="none" stroke="black" d="M1504.34,-280.73C1466.55,-265.41 1408.22,-241.77 1367.32,-225.19"/>
<polygon fill="black" stroke="black" points="1368.43,-221.86 1357.84,-221.34 1365.8,-228.34 1368.43,-221.86"/>
</a>
</g>
<g id="a_edge30&#45;label"><a xlink:href="docs/safe.goReadWIP.html" xlink:title="goReadWIP, read&#45;wip (safe)" target="_parent">
<text text-anchor="middle" x="1536" y="-247.6" font-family="Times,serif" font-size="13.00">goReadWIP, read&#45;wip (safe)</text>
</a>
</g>
</g>
<!-- filterwip&#45;&gt;filterwip -->
<g id="edge29" class="edge">
<title>filterwip&#45;&gt;filterwip</title>
<g id="a_edge29"><a xlink:href="docs/safe.goFilterWIP.html" xlink:title="goFilterWIP, filter&#45;wip (safe)" target="_parent">
<path fill="none" stroke="black" d="M1579.61,-305.56C1589.77,-305.11 1597.5,-302.26 1597.5,-297 1597.5,-293.72 1594.48,-291.37 1589.74,-289.96"/>
<polygon fill="black" stroke="black" points="1590.02,-286.46 1579.61,-288.44 1588.98,-293.39 1590.02,-286.46"/>
</a>
</g>
<g id="a_edge29&#45;label"><a xlink:href="docs/safe.goFilterWIP.html" xlink:title="goFilterWIP, filter&#45;wip (safe)" target="_parent">
<text text-anchor="middle" x="1692" y="-293.6" font-family="Times,serif" font-size="13.00">goFilterWIP, filter&#45;wip (safe)</text>
</a>
</g>
</g>
<!-- sharewip&#45;&gt;home -->
<g id="edge33" class="edge">
<title>sharewip&#45;&gt;home</title>
<g id="a_edge33"><a xlink:href="docs/safe.goHome.html" xlink:title="goHome, self (safe)" target="_parent">
<path fill="none" stroke="black" d="M1497.26,-115.02C1633.78,-118.73 2080.77,-132.33 2104,-152 2163.72,-202.57 2136.04,-244.75 2125,-258 2096.66,-292.02 2065.44,-254.01 2027,-276 1989.26,-297.59 1997.42,-323.43 1963,-350 1889.68,-406.6 1863.23,-410.84 1776,-442 1738.06,-455.55 1693.4,-465.57 1660.43,-471.91"/>
<polygon fill="black" stroke="black" points="1659.78,-468.47 1650.59,-473.76 1661.07,-475.35 1659.78,-468.47"/>
</a>
</g>
<g id="a_edge33&#45;label"><a xlink:href="docs/safe.goHome.html" xlink:title="goHome, self (safe)" target="_parent">
<text text-anchor="middle" x="2091" y="-293.6" font-family="Times,serif" font-size="13.00">goHome, self (safe)</text>
</a>
</g>
</g>
<!-- sharewip&#45;&gt;listwip -->
<g id="edge32" class="edge">
<title>sharewip&#45;&gt;listwip</title>
<g id="a_edge32"><a xlink:href="docs/safe.goListWIP.html" xlink:title="goListWIP, list&#45;wip (safe)" target="_parent">
<path fill="none" stroke="black" d="M1418.74,-126.04C1407.61,-129.06 1395.41,-132.01 1384,-134 1287.36,-150.87 1254.85,-114.99 1164,-152 1104.66,-176.17 1080.26,-186.01 1053,-244 1034.8,-282.72 1059.26,-330.1 1079.67,-359.68"/>
<polygon fill="black" stroke="black" points="1076.89,-361.8 1085.56,-367.89 1082.58,-357.72 1076.89,-361.8"/>
</a>
</g>
<g id="a_edge32&#45;label"><a xlink:href="docs/safe.goListWIP.html" xlink:title="goListWIP, list&#45;wip (safe)" target="_parent">
<text text-anchor="middle" x="1136" y="-247.6" font-family="Times,serif" font-size="13.00">goListWIP, list&#45;wip (safe)</text>
</a>
</g>
</g>
<!-- sharewip&#45;&gt;readwip -->
<g id="edge31" class="edge">
<title>sharewip&#45;&gt;readwip</title>
<g id="a_edge31"><a xlink:href="docs/safe.goReadWIP.html" xlink:title="goReadWIP, read&#45;wip (safe)" target="_parent">
<path fill="none" stroke="black" d="M1445.85,-134.19C1438.59,-144.84 1428.54,-157.44 1417,-166 1402.31,-176.9 1384.08,-185.12 1367.41,-191.07"/>
<polygon fill="black" stroke="black" points="1366.16,-187.8 1357.81,-194.32 1368.41,-194.43 1366.16,-187.8"/>
</a>
</g>
<g id="a_edge31&#45;label"><a xlink:href="docs/safe.goReadWIP.html" xlink:title="goReadWIP, read&#45;wip (safe)" target="_parent">
<text text-anchor="middle" x="1523" y="-155.6" font-family="Times,serif" font-size="13.00">goReadWIP, read&#45;wip (safe)</text>
</a>
</g>
</g>
<!-- statuswip&#45;&gt;home -->
<g id="edge36" class="edge">
<title>statuswip&#45;&gt;home</title>
<g id="a_edge36"><a xlink:href="docs/safe.goHome.html" xlink:title="goHome, self (safe)" target="_parent">
<path fill="none" stroke="black" d="M2056.3,-118.91C2104.3,-127.18 2177,-148.82 2177,-204 2177,-390 2177,-390 2177,-390 2177,-442.06 1797.37,-469.28 1661.03,-477.37"/>
<polygon fill="black" stroke="black" points="1660.66,-473.89 1650.88,-477.97 1661.07,-480.88 1660.66,-473.89"/>
</a>
</g>
<g id="a_edge36&#45;label"><a xlink:href="docs/safe.goHome.html" xlink:title="goHome, self (safe)" target="_parent">
<text text-anchor="middle" x="2241" y="-293.6" font-family="Times,serif" font-size="13.00">goHome, self (safe)</text>
</a>
</g>
</g>
<!-- statuswip&#45;&gt;listwip -->
<g id="edge35" class="edge">
<title>statuswip&#45;&gt;listwip</title>
<g id="a_edge35"><a xlink:href="docs/safe.goListWIP.html" xlink:title="goListWIP, list&#45;wip (safe)" target="_parent">
<path fill="none" stroke="black" d="M2056.27,-122.66C2083.78,-130.58 2112.74,-144.39 2100,-166 2063.63,-227.69 1999.62,-185.02 1959,-244 1932.01,-283.19 1979.21,-318 1944,-350 1936.6,-356.73 1326.96,-379.71 1149.78,-386.25"/>
<polygon fill="black" stroke="black" points="1149.58,-382.75 1139.72,-386.62 1149.84,-389.75 1149.58,-382.75"/>
</a>
</g>
<g id="a_edge35&#45;label"><a xlink:href="docs/safe.goListWIP.html" xlink:title="goListWIP, list&#45;wip (safe)" target="_parent">
<text text-anchor="middle" x="2042" y="-247.6" font-family="Times,serif" font-size="13.00">goListWIP, list&#45;wip (safe)</text>
</a>
</g>
</g>
<!-- statuswip&#45;&gt;readwip -->
<g id="edge34" class="edge">
<title>statuswip&#45;&gt;readwip</title>
<g id="a_edge34"><a xlink:href="docs/safe.goReadWIP.html" xlink:title="goReadWIP, read&#45;wip (safe)" target="_parent">
<path fill="none" stroke="black" d="M1973.73,-128.36C1956.24,-134.91 1935.83,-143.17 1918,-152 1907.28,-157.31 1906.41,-162.39 1895,-166 1797.32,-196.9 1487.87,-202.68 1368.05,-203.76"/>
<polygon fill="black" stroke="black" points="1367.7,-200.26 1357.73,-203.84 1367.75,-207.26 1367.7,-200.26"/>
</a>
</g>
<g id="a_edge34&#45;label"><a xlink:href="docs/safe.goReadWIP.html" xlink:title="goReadWIP, read&#45;wip (safe)" target="_parent">
<text text-anchor="middle" x="2009" y="-155.6" font-family="Times,serif" font-size="13.00">goReadWIP, read&#45;wip (safe)</text>
</a>
</g>
</g>
<!-- completed&#45;&gt;inputForm -->
<g id="edge38" class="edge">
<title>completed&#45;&gt;inputForm</title>
<g id="a_edge38"><a xlink:href="docs/safe.goForm.html" xlink:title="goForm, form (safe)" target="_parent">
<path fill="none" stroke="black" d="M1852.7,-585.58C1877.92,-594.28 1901.64,-607.82 1888,-626 1863.44,-658.74 1751.69,-681.97 1683.25,-693.41"/>
<polygon fill="black" stroke="black" points="1682.38,-690.01 1673.07,-695.08 1683.51,-696.92 1682.38,-690.01"/>
</a>
</g>
<g id="a_edge38&#45;label"><a xlink:href="docs/safe.goForm.html" xlink:title="goForm, form (safe)" target="_parent">
<text text-anchor="middle" x="1956" y="-615.6" font-family="Times,serif" font-size="13.00">goForm, form (safe)</text>
</a>
</g>
</g>
<!-- completed&#45;&gt;home -->
<g id="edge39" class="edge">
<title>completed&#45;&gt;home</title>
<g id="a_edge39"><a xlink:href="docs/safe.goHome.html" xlink:title="goHome, self (safe)" target="_parent">
<path fill="none" stroke="black" d="M1770.05,-554.86C1738.8,-540.36 1693.84,-519.5 1660.02,-503.81"/>
<polygon fill="black" stroke="black" points="1661.35,-500.57 1650.8,-499.54 1658.4,-506.92 1661.35,-500.57"/>
</a>
</g>
<g id="a_edge39&#45;label"><a xlink:href="docs/safe.goHome.html" xlink:title="goHome, self (safe)" target="_parent">
<text text-anchor="middle" x="1785" y="-523.6" font-family="Times,serif" font-size="13.00">goHome, self (safe)</text>
</a>
</g>
</g>
</g>
</svg>
