<?xml version="1.0" encoding="UTF-8" standalone="no"?>
<!DOCTYPE svg PUBLIC "-//W3C//DTD SVG 1.1//EN"
 "http://www.w3.org/Graphics/SVG/1.1/DTD/svg11.dtd">
<!-- Generated by graphviz version 2.43.0 (0)
 -->
<!-- Title: application_state_diagram Pages: 1 -->
<svg width="769pt" height="311pt"
 viewBox="0.00 0.00 769.48 311.00" xmlns="http://www.w3.org/2000/svg" xmlns:xlink="http://www.w3.org/1999/xlink">
<g id="graph0" class="graph" transform="scale(1 1) rotate(0) translate(4 307)">
<title>application_state_diagram</title>
<g id="a_graph0"><a xlink:href="index.html" xlink:title="Partial Submit Profile" target="_parent">
<polygon fill="white" stroke="transparent" points="-4,4 -4,-307 765.48,-307 765.48,4 -4,4"/>
<text text-anchor="middle" x="380.74" y="-287.8" font-family="Helvetica,sans-Serif" font-size="14.00">Partial Submit Profile</text>
</a>
</g>
<!-- inputForm -->
<g id="node1" class="node">
<title>inputForm</title>
<g id="a_node1"><a xlink:href="docs/semantic.inputForm.html" xlink:title="&lt;TABLE&gt;" target="_parent">
<polygon fill="lightgray" stroke="black" stroke-width="2" points="382.48,-280 294.48,-280 294.48,-178 382.48,-178 382.48,-280"/>
<text text-anchor="start" x="300.48" y="-262.8" font-family="Times,serif" font-size="14.00">inputForm</text>
<text text-anchor="start" x="318.48" y="-247.8" font-family="Times,serif" font-size="14.00">(href)</text>
<text text-anchor="start" x="322.98" y="-232.8" font-family="Times,serif" font-size="14.00">(rel)</text>
<text text-anchor="start" x="318.48" y="-217.8" font-family="Times,serif" font-size="14.00">(title)</text>
<text text-anchor="start" x="316.98" y="-202.8" font-family="Times,serif" font-size="14.00">(type)</text>
<text text-anchor="start" x="313.98" y="-187.8" font-family="Times,serif" font-size="14.00">(input)</text>
</a>
</g>
</g>
<!-- inputForm&#45;&gt;inputForm -->
<g id="edge1" class="edge">
<title>inputForm&#45;&gt;inputForm</title>
<path fill="none" stroke="black" d="M382.5,-242.97C392.85,-241.82 400.48,-237.16 400.48,-229 400.48,-223.77 397.35,-219.98 392.38,-217.63"/>
<polygon fill="black" stroke="black" points="393.06,-214.19 382.5,-215.03 391.28,-220.96 393.06,-214.19"/>
<g id="a_edge1_0"><a xlink:href="docs/idempotent.doPartialSubmit.html" xlink:title="&lt;TABLE&gt;">
<text text-anchor="start" x="404.48" y="-245.6" font-family="Times,serif" font-size="13.00">doPartialSubmit (idempotent)</text>
</a>
</g>
<g id="a_edge1_1"><a xlink:href="docs/idempotent.doResetSubmit.html" xlink:title="&lt;TABLE&gt;">
<text text-anchor="start" x="404.48" y="-225.6" font-family="Times,serif" font-size="13.00">doResetSubmit (idempotent)</text>
</a>
</g>
<g id="a_edge1_2"><a xlink:href="docs/safe.goForm.html" xlink:title="&lt;TABLE&gt;">
<text text-anchor="start" x="404.48" y="-205.6" font-family="Times,serif" font-size="13.00">goForm (safe)</text>
</a>
</g>
</g>
<!-- completed -->
<g id="node2" class="node">
<title>completed</title>
<g id="a_node2"><a xlink:href="docs/semantic.completed.html" xlink:title="completed" target="_parent">
<polygon fill="lightgray" stroke="black" stroke-width="2" points="311.98,-125 220.98,-125 220.98,-89 311.98,-89 311.98,-125"/>
<text text-anchor="middle" x="266.48" y="-103.3" font-family="Times,serif" font-size="14.00">completed</text>
</a>
</g>
</g>
<!-- inputForm&#45;&gt;completed -->
<g id="edge2" class="edge">
<title>inputForm&#45;&gt;completed</title>
<g id="a_edge2"><a xlink:href="docs/idempotent.doFinalSubmit.html" xlink:title="doFinalSubmit, submit (idempotent)" target="_parent">
<path fill="none" stroke="black" d="M294.18,-225.73C211.72,-220.47 39.72,-204.34 3.48,-160 -23.77,-126.67 125.68,-114.36 210.7,-110.09"/>
<polygon fill="black" stroke="black" points="210.91,-113.58 220.73,-109.61 210.57,-106.59 210.91,-113.58"/>
</a>
</g>
<g id="a_edge2&#45;label"><a xlink:href="docs/idempotent.doFinalSubmit.html" xlink:title="doFinalSubmit, submit (idempotent)" target="_parent">
<text text-anchor="middle" x="123.98" y="-149.6" font-family="Times,serif" font-size="13.00">doFinalSubmit, submit (idempotent)</text>
</a>
</g>
</g>
<!-- home -->
<g id="node3" class="node">
<title>home</title>
<g id="a_node3"><a xlink:href="docs/semantic.home.html" xlink:title="home" target="_parent">
<polygon fill="lightgray" stroke="black" stroke-width="2" points="439.48,-36 383.48,-36 383.48,0 439.48,0 439.48,-36"/>
<text text-anchor="middle" x="411.48" y="-14.3" font-family="Times,serif" font-size="14.00">home</text>
</a>
</g>
</g>
<!-- inputForm&#45;&gt;home -->
<g id="edge3" class="edge">
<title>inputForm&#45;&gt;home</title>
<path fill="none" stroke="black" d="M382.75,-184.6C388.55,-176.92 393.77,-168.61 397.48,-160 413.36,-123.14 414.68,-75.99 413.56,-46.64"/>
<polygon fill="black" stroke="black" points="417.03,-46.13 413.03,-36.32 410.04,-46.49 417.03,-46.13"/>
<g id="a_edge3_3"><a xlink:href="docs/idempotent.doCancelSubmit.html" xlink:title="&lt;TABLE&gt;">
<text text-anchor="start" x="417.48" y="-113.6" font-family="Times,serif" font-size="13.00">doCancelSubmit (idempotent)</text>
</a>
</g>
<g id="a_edge3_4"><a xlink:href="docs/safe.goHome.html" xlink:title="&lt;TABLE&gt;">
<text text-anchor="start" x="417.48" y="-93.6" font-family="Times,serif" font-size="13.00">goHome (safe)</text>
</a>
</g>
</g>
<!-- completed&#45;&gt;inputForm -->
<g id="edge6" class="edge">
<title>completed&#45;&gt;inputForm</title>
<g id="a_edge6"><a xlink:href="docs/safe.goForm.html" xlink:title="goForm, form (safe)" target="_parent">
<path fill="none" stroke="black" d="M263.59,-125.1C262.58,-135.6 262.69,-149.08 267.48,-160 272.09,-170.52 279.18,-180.21 287.13,-188.77"/>
<polygon fill="black" stroke="black" points="284.77,-191.36 294.3,-196 289.75,-186.44 284.77,-191.36"/>
</a>
</g>
<g id="a_edge6&#45;label"><a xlink:href="docs/safe.goForm.html" xlink:title="goForm, form (safe)" target="_parent">
<text text-anchor="middle" x="332.48" y="-149.6" font-family="Times,serif" font-size="13.00">goForm, form (safe)</text>
</a>
</g>
</g>
<!-- completed&#45;&gt;home -->
<g id="edge7" class="edge">
<title>completed&#45;&gt;home</title>
<g id="a_edge7"><a xlink:href="docs/safe.goHome.html" xlink:title="goHome, self (safe)" target="_parent">
<path fill="none" stroke="black" d="M262.66,-88.67C261.26,-77.54 261.62,-63.46 269.48,-54 282.61,-38.2 335.86,-28.39 373.27,-23.31"/>
<polygon fill="black" stroke="black" points="373.89,-26.76 383.36,-22 372.99,-19.82 373.89,-26.76"/>
</a>
</g>
<g id="a_edge7&#45;label"><a xlink:href="docs/safe.goHome.html" xlink:title="goHome, self (safe)" target="_parent">
<text text-anchor="middle" x="333.48" y="-57.6" font-family="Times,serif" font-size="13.00">goHome, self (safe)</text>
</a>
</g>
</g>
<!-- home&#45;&gt;inputForm -->
<g id="edge4" class="edge">
<title>home&#45;&gt;inputForm</title>
<g id="a_edge4"><a xlink:href="docs/safe.goForm.html" xlink:title="goForm, form (safe)" target="_parent">
<path fill="none" stroke="black" d="M439.71,-22.08C507.89,-30.66 672.42,-58.96 623.48,-128 571.16,-201.8 459.92,-221.55 392.94,-226.58"/>
<polygon fill="black" stroke="black" points="392.33,-223.11 382.59,-227.26 392.8,-230.09 392.33,-223.11"/>
</a>
</g>
<g id="a_edge4&#45;label"><a xlink:href="docs/safe.goForm.html" xlink:title="goForm, form (safe)" target="_parent">
<text text-anchor="middle" x="696.48" y="-103.6" font-family="Times,serif" font-size="13.00">goForm, form (safe)</text>
</a>
</g>
</g>
<!-- home&#45;&gt;home -->
<g id="edge5" class="edge">
<title>home&#45;&gt;home</title>
<g id="a_edge5"><a xlink:href="docs/safe.goHome.html" xlink:title="goHome, self (safe)" target="_parent">
<path fill="none" stroke="black" d="M439.78,-25.87C449.57,-25.96 457.48,-23.33 457.48,-18 457.48,-14.75 454.54,-12.51 450.03,-11.27"/>
<polygon fill="black" stroke="black" points="450.1,-7.76 439.78,-10.13 449.33,-14.71 450.1,-7.76"/>
</a>
</g>
<g id="a_edge5&#45;label"><a xlink:href="docs/safe.goHome.html" xlink:title="goHome, self (safe)" target="_parent">
<text text-anchor="middle" x="521.48" y="-14.6" font-family="Times,serif" font-size="13.00">goHome, self (safe)</text>
</a>
</g>
</g>
</g>
</svg>
