<?xml version="1.0" encoding="UTF-8" standalone="no"?>
<!DOCTYPE svg PUBLIC "-//W3C//DTD SVG 1.1//EN"
 "http://www.w3.org/Graphics/SVG/1.1/DTD/svg11.dtd">
<!-- Generated by graphviz version 2.43.0 (0)
 -->
<!-- Title: application_state_diagram Pages: 1 -->
<svg width="339pt" height="279pt"
 viewBox="0.00 0.00 339.00 279.00" xmlns="http://www.w3.org/2000/svg" xmlns:xlink="http://www.w3.org/1999/xlink">
<g id="graph0" class="graph" transform="scale(1 1) rotate(0) translate(4 275)">
<title>application_state_diagram</title>
<g id="a_graph0"><a xlink:href="index.html" xlink:title="Health Check Response Format for HTTP APIs" target="_parent">
<polygon fill="white" stroke="transparent" points="-4,4 -4,-275 335,-275 335,4 -4,4"/>
<text text-anchor="middle" x="165.5" y="-255.8" font-family="Helvetica,sans-Serif" font-size="14.00">Health Check Response Format for HTTP APIs</text>
</a>
</g>
<!-- health -->
<g id="node1" class="node">
<title>health</title>
<g id="a_node1"><a xlink:href="docs/semantic.health.html" xlink:title="&lt;TABLE&gt;" target="_parent">
<polygon fill="lightgray" stroke="black" stroke-width="2" points="153.62,-248 50.62,-248 50.62,-86 153.62,-86 153.62,-248"/>
<text text-anchor="start" x="79.62" y="-230.8" font-family="Times,serif" font-size="14.00">health</text>
<text text-anchor="start" x="75.12" y="-215.8" font-family="Times,serif" font-size="14.00">(status)</text>
<text text-anchor="start" x="70.62" y="-200.8" font-family="Times,serif" font-size="14.00">(version)</text>
<text text-anchor="start" x="64.12" y="-185.8" font-family="Times,serif" font-size="14.00">(releaseId)</text>
<text text-anchor="start" x="77.62" y="-170.8" font-family="Times,serif" font-size="14.00">(notes)</text>
<text text-anchor="start" x="73.62" y="-155.8" font-family="Times,serif" font-size="14.00">(output)</text>
<text text-anchor="start" x="73.12" y="-140.8" font-family="Times,serif" font-size="14.00">(checks)</text>
<text text-anchor="start" x="80.12" y="-125.8" font-family="Times,serif" font-size="14.00">(links)</text>
<text text-anchor="start" x="64.62" y="-110.8" font-family="Times,serif" font-size="14.00">(serviceId)</text>
<text text-anchor="start" x="57.12" y="-95.8" font-family="Times,serif" font-size="14.00">(description)</text>
</a>
</g>
</g>
<!-- home -->
<g id="node2" class="node">
<title>home</title>
<g id="a_node2"><a xlink:href="docs/semantic.home.html" xlink:title="home" target="_parent">
<polygon fill="lightgray" stroke="black" stroke-width="2" points="130.12,-36 74.12,-36 74.12,0 130.12,0 130.12,-36"/>
<text text-anchor="middle" x="102.12" y="-14.3" font-family="Times,serif" font-size="14.00">home</text>
</a>
</g>
</g>
<!-- health&#45;&gt;home -->
<g id="edge1" class="edge">
<title>health&#45;&gt;home</title>
<g id="a_edge1"><a xlink:href="docs/safe.goHome.html" xlink:title="goHome, home (safe)" target="_parent">
<path fill="none" stroke="black" d="M50.42,-129.95C25.85,-108.25 5.18,-79.9 22.12,-54 31.6,-39.5 48.56,-30.97 64.43,-25.97"/>
<polygon fill="black" stroke="black" points="65.39,-29.34 74.1,-23.29 63.52,-22.59 65.39,-29.34"/>
</a>
</g>
<g id="a_edge1&#45;label"><a xlink:href="docs/safe.goHome.html" xlink:title="goHome, home (safe)" target="_parent">
<text text-anchor="start" x="22.12" y="-57.6" font-family="Times,serif" font-size="13.00">goHome, home (safe)</text>
</a>
</g>
</g>
<!-- home&#45;&gt;health -->
<g id="edge2" class="edge">
<title>home&#45;&gt;health</title>
<g id="a_edge2"><a xlink:href="docs/safe.goHealth.html" xlink:title="goHealth, health (safe)" target="_parent">
<path fill="none" stroke="black" d="M130.39,-28.21C142.4,-33.69 155.21,-41.97 162.12,-54 165.22,-59.4 163.81,-62.01 162.12,-68 160.88,-72.38 159.39,-76.77 157.7,-81.11"/>
<polygon fill="black" stroke="black" points="154.38,-79.98 153.69,-90.55 160.82,-82.72 154.38,-79.98"/>
</a>
</g>
<g id="a_edge2&#45;label"><a xlink:href="docs/safe.goHealth.html" xlink:title="goHealth, health (safe)" target="_parent">
<text text-anchor="start" x="163.12" y="-57.6" font-family="Times,serif" font-size="13.00">goHealth, health (safe)</text>
</a>
</g>
</g>
</g>
</svg>
