<?xml version="1.0" encoding="UTF-8" standalone="no"?>
<!DOCTYPE svg PUBLIC "-//W3C//DTD SVG 1.1//EN"
 "http://www.w3.org/Graphics/SVG/1.1/DTD/svg11.dtd">
<!-- Generated by graphviz version 2.43.0 (0)
 -->
<!-- Title: application_state_diagram Pages: 1 -->
<svg width="749pt" height="305pt"
 viewBox="0.00 0.00 748.50 305.00" xmlns="http://www.w3.org/2000/svg" xmlns:xlink="http://www.w3.org/1999/xlink">
<g id="graph0" class="graph" transform="scale(1 1) rotate(0) translate(4 301)">
<title>application_state_diagram</title>
<g id="a_graph0"><a xlink:href="index.html" xlink:title="List Navigation Profile" target="_parent">
<polygon fill="white" stroke="transparent" points="-4,4 -4,-301 744.5,-301 744.5,4 -4,4"/>
<text text-anchor="middle" x="370.25" y="-281.8" font-family="Helvetica,sans-Serif" font-size="14.00">List Navigation Profile</text>
</a>
</g>
<!-- list -->
<g id="node1" class="node">
<title>list</title>
<g id="a_node1"><a xlink:href="docs/semantic.list.html" xlink:title="&lt;TABLE&gt;" target="_parent">
<polygon fill="lightgray" stroke="black" stroke-width="2" points="297,-244 222,-244 222,-202 297,-202 297,-244"/>
<text text-anchor="start" x="248.5" y="-226.8" font-family="Times,serif" font-size="14.00">list</text>
<text text-anchor="start" x="228.5" y="-211.8" font-family="Times,serif" font-size="14.00">(navlink)</text>
</a>
</g>
</g>
<!-- list&#45;&gt;list -->
<g id="edge5" class="edge">
<title>list&#45;&gt;list</title>
<path fill="none" stroke="black" d="M297.11,-237.14C307.27,-236.4 315,-231.68 315,-223 315,-217.44 311.83,-213.5 306.88,-211.2"/>
<polygon fill="black" stroke="black" points="307.65,-207.78 297.11,-208.86 306.02,-214.59 307.65,-207.78"/>
<g id="a_edge5_0"><a xlink:href="docs/safe.goFirst.html" xlink:title="&lt;TABLE&gt;">
<text text-anchor="start" x="319.5" y="-259.6" font-family="Times,serif" font-size="13.00">goFirst (safe)</text>
</a>
</g>
<g id="a_edge5_1"><a xlink:href="docs/safe.goLast.html" xlink:title="&lt;TABLE&gt;">
<text text-anchor="start" x="319.5" y="-239.6" font-family="Times,serif" font-size="13.00">goLast (safe)</text>
</a>
</g>
<g id="a_edge5_2"><a xlink:href="docs/safe.goList.html" xlink:title="&lt;TABLE&gt;">
<text text-anchor="start" x="319.5" y="-219.6" font-family="Times,serif" font-size="13.00">goList (safe)</text>
</a>
</g>
<g id="a_edge5_3"><a xlink:href="docs/safe.goNext.html" xlink:title="&lt;TABLE&gt;">
<text text-anchor="start" x="319.5" y="-199.6" font-family="Times,serif" font-size="13.00">goNext (safe)</text>
</a>
</g>
<g id="a_edge5_4"><a xlink:href="docs/safe.goPrevious.html" xlink:title="&lt;TABLE&gt;">
<text text-anchor="start" x="319.5" y="-179.6" font-family="Times,serif" font-size="13.00">goPrevious (safe)</text>
</a>
</g>
</g>
<!-- exitList -->
<g id="node2" class="node">
<title>exitList</title>
<g id="a_node2"><a xlink:href="docs/semantic.exitList.html" xlink:title="exitList" target="_parent">
<polygon fill="lightgray" stroke="black" stroke-width="2" points="71,-122 0,-122 0,-86 71,-86 71,-122"/>
<text text-anchor="middle" x="35.5" y="-100.3" font-family="Times,serif" font-size="14.00">exitList</text>
</a>
</g>
</g>
<!-- list&#45;&gt;exitList -->
<g id="edge3" class="edge">
<title>list&#45;&gt;exitList</title>
<g id="a_edge3"><a xlink:href="docs/safe.goExit.html" xlink:title="goExit, collection nav exit (safe)" target="_parent">
<path fill="none" stroke="black" d="M221.64,-217.08C159.33,-208.11 39.55,-186.94 14.5,-154 9.35,-147.22 10.61,-138.99 14.34,-131.22"/>
<polygon fill="black" stroke="black" points="17.47,-132.8 19.62,-122.43 11.47,-129.2 17.47,-132.8"/>
</a>
</g>
<g id="a_edge3&#45;label"><a xlink:href="docs/safe.goExit.html" xlink:title="goExit, collection nav exit (safe)" target="_parent">
<text text-anchor="middle" x="122" y="-143.6" font-family="Times,serif" font-size="13.00">goExit, collection nav exit (safe)</text>
</a>
</g>
</g>
<!-- home -->
<g id="node3" class="node">
<title>home</title>
<g id="a_node3"><a xlink:href="docs/semantic.home.html" xlink:title="home" target="_parent">
<polygon fill="lightgray" stroke="black" stroke-width="2" points="316.5,-36 260.5,-36 260.5,0 316.5,0 316.5,-36"/>
<text text-anchor="middle" x="288.5" y="-14.3" font-family="Times,serif" font-size="14.00">home</text>
</a>
</g>
</g>
<!-- list&#45;&gt;home -->
<g id="edge4" class="edge">
<title>list&#45;&gt;home</title>
<g id="a_edge4"><a xlink:href="docs/safe.goHome.html" xlink:title="goHome, self (safe)" target="_parent">
<path fill="none" stroke="black" d="M255.12,-201.83C250.06,-174.97 243.64,-126.17 253.5,-86 257.04,-71.58 264.29,-56.82 271.28,-44.83"/>
<polygon fill="black" stroke="black" points="274.28,-46.62 276.5,-36.26 268.31,-42.98 274.28,-46.62"/>
</a>
</g>
<g id="a_edge4&#45;label"><a xlink:href="docs/safe.goHome.html" xlink:title="goHome, self (safe)" target="_parent">
<text text-anchor="middle" x="317.5" y="-100.6" font-family="Times,serif" font-size="13.00">goHome, self (safe)</text>
</a>
</g>
</g>
<!-- selectRecord -->
<g id="node4" class="node">
<title>selectRecord</title>
<g id="a_node4"><a xlink:href="docs/semantic.selectRecord.html" xlink:title="selectRecord" target="_parent">
<polygon fill="lightgray" stroke="black" stroke-width="2" points="499,-122 390,-122 390,-86 499,-86 499,-122"/>
<text text-anchor="middle" x="444.5" y="-100.3" font-family="Times,serif" font-size="14.00">selectRecord</text>
</a>
</g>
</g>
<!-- list&#45;&gt;selectRecord -->
<g id="edge6" class="edge">
<title>list&#45;&gt;selectRecord</title>
<g id="a_edge6"><a xlink:href="docs/safe.goSelect.html" xlink:title="goSelect, collection nav select (safe)" target="_parent">
<path fill="none" stroke="black" d="M258.11,-201.83C258,-183.14 261.04,-155.9 277.5,-140 309.35,-109.23 332.2,-131.3 375.5,-122 376.97,-121.68 378.46,-121.36 379.95,-121.03"/>
<polygon fill="black" stroke="black" points="380.98,-124.39 389.96,-118.76 379.43,-117.56 380.98,-124.39"/>
</a>
</g>
<g id="a_edge6&#45;label"><a xlink:href="docs/safe.goSelect.html" xlink:title="goSelect, collection nav select (safe)" target="_parent">
<text text-anchor="middle" x="399.5" y="-143.6" font-family="Times,serif" font-size="13.00">goSelect, collection nav select (safe)</text>
</a>
</g>
</g>
<!-- exitList&#45;&gt;home -->
<g id="edge1" class="edge">
<title>exitList&#45;&gt;home</title>
<g id="a_edge1"><a xlink:href="docs/safe.goHome.html" xlink:title="goHome, self (safe)" target="_parent">
<path fill="none" stroke="black" d="M53.69,-85.92C66.2,-75.11 83.71,-61.77 101.5,-54 150.05,-32.79 211.19,-24.42 250.07,-21.12"/>
<polygon fill="black" stroke="black" points="250.71,-24.58 260.41,-20.32 250.17,-17.61 250.71,-24.58"/>
</a>
</g>
<g id="a_edge1&#45;label"><a xlink:href="docs/safe.goHome.html" xlink:title="goHome, self (safe)" target="_parent">
<text text-anchor="middle" x="165.5" y="-57.6" font-family="Times,serif" font-size="13.00">goHome, self (safe)</text>
</a>
</g>
</g>
<!-- home&#45;&gt;list -->
<g id="edge2" class="edge">
<title>home&#45;&gt;list</title>
<g id="a_edge2"><a xlink:href="docs/safe.goList.html" xlink:title="goList, collection nav (safe)" target="_parent">
<path fill="none" stroke="black" d="M316.57,-19.54C369.5,-21.16 481.12,-27.7 507.5,-54 599.63,-145.87 539.46,-130.78 521.5,-154 495.48,-187.63 375.33,-207.69 307.13,-216.57"/>
<polygon fill="black" stroke="black" points="306.54,-213.11 297.06,-217.84 307.42,-220.06 306.54,-213.11"/>
</a>
</g>
<g id="a_edge2&#45;label"><a xlink:href="docs/safe.goList.html" xlink:title="goList, collection nav (safe)" target="_parent">
<text text-anchor="middle" x="648.5" y="-100.6" font-family="Times,serif" font-size="13.00">goList, collection nav (safe)</text>
</a>
</g>
</g>
<!-- selectRecord&#45;&gt;home -->
<g id="edge7" class="edge">
<title>selectRecord&#45;&gt;home</title>
<g id="a_edge7"><a xlink:href="docs/safe.goHome.html" xlink:title="goHome, self (safe)" target="_parent">
<path fill="none" stroke="black" d="M412.55,-85.8C387.36,-72.23 352.17,-53.28 325.7,-39.03"/>
<polygon fill="black" stroke="black" points="327.2,-35.86 316.74,-34.2 323.88,-42.03 327.2,-35.86"/>
</a>
</g>
<g id="a_edge7&#45;label"><a xlink:href="docs/safe.goHome.html" xlink:title="goHome, self (safe)" target="_parent">
<text text-anchor="middle" x="439.5" y="-57.6" font-family="Times,serif" font-size="13.00">goHome, self (safe)</text>
</a>
</g>
</g>
</g>
</svg>
