<?xml version="1.0" encoding="UTF-8" standalone="no"?>
<!DOCTYPE svg PUBLIC "-//W3C//DTD SVG 1.1//EN"
 "http://www.w3.org/Graphics/SVG/1.1/DTD/svg11.dtd">
<!-- Generated by graphviz version 2.43.0 (0)
 -->
<!-- Title: application_state_diagram Pages: 1 -->
<svg width="3907pt" height="740pt"
 viewBox="0.00 0.00 3907.00 740.00" xmlns="http://www.w3.org/2000/svg" xmlns:xlink="http://www.w3.org/1999/xlink">
<g id="graph0" class="graph" transform="scale(1 1) rotate(0) translate(4 736)">
<title>application_state_diagram</title>
<g id="a_graph0"><a xlink:href="index.html" xlink:title="Combined Semantic Profiles for RWMBook" target="_parent">
<polygon fill="white" stroke="transparent" points="-4,4 -4,-736 3903,-736 3903,4 -4,4"/>
<text text-anchor="middle" x="1949.5" y="-716.8" font-family="Helvetica,sans-Serif" font-size="14.00">Combined Semantic Profiles for RWMBook</text>
</a>
</g>
<!-- accepted -->
<g id="node1" class="node">
<title>accepted</title>
<g id="a_node1"><a xlink:href="docs/semantic.accepted.html" xlink:title="&lt;TABLE&gt;" target="_parent">
<polygon fill="lightgray" stroke="black" stroke-width="2" points="1640.5,-709 1503.5,-709 1503.5,-667 1640.5,-667 1640.5,-709"/>
<text text-anchor="start" x="1540.5" y="-691.8" font-family="Times,serif" font-size="14.00">accepted</text>
<text text-anchor="start" x="1510" y="-676.8" font-family="Times,serif" font-size="14.00">(acceptedRecord)</text>
</a>
</g>
</g>
<!-- cancel -->
<g id="node12" class="node">
<title>cancel</title>
<g id="a_node12"><a xlink:href="docs/semantic.cancel.html" xlink:title="cancel" target="_parent">
<polygon fill="lightgray" stroke="black" stroke-width="2" points="2015,-617 1953,-617 1953,-581 2015,-581 2015,-617"/>
<text text-anchor="middle" x="1984" y="-595.3" font-family="Times,serif" font-size="14.00">cancel</text>
</a>
</g>
</g>
<!-- accepted&#45;&gt;cancel -->
<g id="edge1" class="edge">
<title>accepted&#45;&gt;cancel</title>
<g id="a_edge1"><a xlink:href="docs/idempotent.doCancel.html" xlink:title="doCancel, cancel (idempotent)" target="_parent">
<path fill="none" stroke="black" d="M1640.8,-677.51C1715.17,-666.42 1836.77,-645.83 1939,-617 1940.41,-616.6 1941.83,-616.18 1943.26,-615.74"/>
<polygon fill="black" stroke="black" points="1944.37,-619.06 1952.76,-612.59 1942.17,-612.42 1944.37,-619.06"/>
</a>
</g>
<g id="a_edge1&#45;label"><a xlink:href="docs/idempotent.doCancel.html" xlink:title="doCancel, cancel (idempotent)" target="_parent">
<text text-anchor="start" x="1859" y="-638.6" font-family="Times,serif" font-size="13.00">doCancel, cancel (idempotent)</text>
</a>
</g>
</g>
<!-- completed -->
<g id="node13" class="node">
<title>completed</title>
<g id="a_node13"><a xlink:href="docs/semantic.completed.html" xlink:title="completed" target="_parent">
<polygon fill="lightgray" stroke="black" stroke-width="2" points="91.5,-69 0.5,-69 0.5,-33 91.5,-33 91.5,-69"/>
<text text-anchor="middle" x="46" y="-47.3" font-family="Times,serif" font-size="14.00">completed</text>
</a>
</g>
</g>
<!-- accepted&#45;&gt;completed -->
<g id="edge2" class="edge">
<title>accepted&#45;&gt;completed</title>
<g id="a_edge2"><a xlink:href="docs/safe.goCompleted.html" xlink:title="goCompleted, completed (safe)" target="_parent">
<path fill="none" stroke="black" d="M1503.44,-686.85C1200.88,-685.72 0,-676.45 0,-600 0,-600 0,-600 0,-297.5 0,-216.81 24.3,-123.71 37.58,-78.88"/>
<polygon fill="black" stroke="black" points="41.01,-79.64 40.54,-69.06 34.3,-77.62 41.01,-79.64"/>
</a>
</g>
<g id="a_edge2&#45;label"><a xlink:href="docs/safe.goCompleted.html" xlink:title="goCompleted, completed (safe)" target="_parent">
<text text-anchor="start" x="0" y="-509.6" font-family="Times,serif" font-size="13.00">goCompleted, completed (safe)</text>
</a>
</g>
</g>
<!-- failed -->
<g id="node14" class="node">
<title>failed</title>
<g id="a_node14"><a xlink:href="docs/semantic.failed.html" xlink:title="failed" target="_parent">
<polygon fill="lightgray" stroke="black" stroke-width="2" points="1442,-617 1386,-617 1386,-581 1442,-581 1442,-617"/>
<text text-anchor="middle" x="1414" y="-595.3" font-family="Times,serif" font-size="14.00">failed</text>
</a>
</g>
</g>
<!-- accepted&#45;&gt;failed -->
<g id="edge3" class="edge">
<title>accepted&#45;&gt;failed</title>
<g id="a_edge3"><a xlink:href="docs/safe.goFailed.html" xlink:title="goFailed, failed (safe)" target="_parent">
<path fill="none" stroke="black" d="M1503.1,-678.91C1465.92,-672.98 1425.35,-663.4 1414,-649 1409.22,-642.94 1407.83,-635.01 1408.03,-627.31"/>
<polygon fill="black" stroke="black" points="1411.53,-627.46 1409.11,-617.14 1404.57,-626.72 1411.53,-627.46"/>
</a>
</g>
<g id="a_edge3&#45;label"><a xlink:href="docs/safe.goFailed.html" xlink:title="goFailed, failed (safe)" target="_parent">
<text text-anchor="start" x="1414" y="-638.6" font-family="Times,serif" font-size="13.00">goFailed, failed (safe)</text>
</a>
</g>
</g>
<!-- home -->
<g id="node15" class="node">
<title>home</title>
<g id="a_node15"><a xlink:href="docs/semantic.home.html" xlink:title="home" target="_parent">
<polygon fill="lightgray" stroke="black" stroke-width="2" points="1776,-531 1720,-531 1720,-495 1776,-495 1776,-531"/>
<text text-anchor="middle" x="1748" y="-509.3" font-family="Times,serif" font-size="14.00">home</text>
</a>
</g>
</g>
<!-- accepted&#45;&gt;home -->
<g id="edge4" class="edge">
<title>accepted&#45;&gt;home</title>
<g id="a_edge4"><a xlink:href="docs/safe.goHome.html" xlink:title="goHome, home (safe)" target="_parent">
<path fill="none" stroke="black" d="M1569.09,-666.8C1566.91,-643.65 1567,-605.73 1586,-581 1615.83,-542.17 1672.14,-525.68 1709.87,-518.79"/>
<polygon fill="black" stroke="black" points="1710.7,-522.2 1719.99,-517.09 1709.54,-515.3 1710.7,-522.2"/>
</a>
</g>
<g id="a_edge4&#45;label"><a xlink:href="docs/safe.goHome.html" xlink:title="goHome, home (safe)" target="_parent">
<text text-anchor="start" x="1586" y="-595.6" font-family="Times,serif" font-size="13.00">goHome, home (safe)</text>
</a>
</g>
</g>
<!-- apisJSON -->
<g id="node2" class="node">
<title>apisJSON</title>
<g id="a_node2"><a xlink:href="docs/semantic.apisJSON.html" xlink:title="&lt;TABLE&gt;" target="_parent">
<polygon fill="lightgray" stroke="black" stroke-width="2" points="1637,-417 1517,-417 1517,-180 1637,-180 1637,-417"/>
<text text-anchor="start" x="1543" y="-399.3" font-family="Times,serif" font-size="14.00">apisJSON</text>
<text text-anchor="start" x="1552" y="-384.3" font-family="Times,serif" font-size="14.00">(name)</text>
<text text-anchor="start" x="1531.5" y="-369.3" font-family="Times,serif" font-size="14.00">(description)</text>
<text text-anchor="start" x="1549.5" y="-354.3" font-family="Times,serif" font-size="14.00">(image)</text>
<text text-anchor="start" x="1561.5" y="-339.3" font-family="Times,serif" font-size="14.00">(url)</text>
<text text-anchor="start" x="1556" y="-324.3" font-family="Times,serif" font-size="14.00">(tags)</text>
<text text-anchor="start" x="1544.5" y="-309.3" font-family="Times,serif" font-size="14.00">(created)</text>
<text text-anchor="start" x="1540.5" y="-294.3" font-family="Times,serif" font-size="14.00">(modified)</text>
<text text-anchor="start" x="1557" y="-279.3" font-family="Times,serif" font-size="14.00">(apis)</text>
<text text-anchor="start" x="1554" y="-264.3" font-family="Times,serif" font-size="14.00">(tools)</text>
<text text-anchor="start" x="1523" y="-249.3" font-family="Times,serif" font-size="14.00">(specifications)</text>
<text text-anchor="start" x="1536.5" y="-234.3" font-family="Times,serif" font-size="14.00">(resources)</text>
<text text-anchor="start" x="1541.5" y="-219.3" font-family="Times,serif" font-size="14.00">(common)</text>
<text text-anchor="start" x="1545.5" y="-204.3" font-family="Times,serif" font-size="14.00">(include)</text>
<text text-anchor="start" x="1528.5" y="-189.3" font-family="Times,serif" font-size="14.00">(maintainers)</text>
</a>
</g>
</g>
<!-- apisJSON&#45;&gt;home -->
<g id="edge5" class="edge">
<title>apisJSON&#45;&gt;home</title>
<g id="a_edge5"><a xlink:href="docs/safe.goHome.html" xlink:title="goHome, home (safe)" target="_parent">
<path fill="none" stroke="black" d="M1637.12,-341.34C1667.75,-365.49 1703.23,-398.31 1726,-435 1735.41,-450.16 1740.92,-469.48 1744.07,-484.98"/>
<polygon fill="black" stroke="black" points="1740.66,-485.78 1745.89,-494.99 1747.54,-484.53 1740.66,-485.78"/>
</a>
</g>
<g id="a_edge5&#45;label"><a xlink:href="docs/safe.goHome.html" xlink:title="goHome, home (safe)" target="_parent">
<text text-anchor="start" x="1742" y="-452.6" font-family="Times,serif" font-size="13.00">goHome, home (safe)</text>
</a>
</g>
</g>
<!-- clientMetaPreferences -->
<g id="node3" class="node">
<title>clientMetaPreferences</title>
<g id="a_node3"><a xlink:href="docs/semantic.clientMetaPreferences.html" xlink:title="&lt;TABLE&gt;" target="_parent">
<polygon fill="lightgray" stroke="black" stroke-width="2" points="389.5,-319.5 214.5,-319.5 214.5,-277.5 389.5,-277.5 389.5,-319.5"/>
<text text-anchor="start" x="221" y="-302.3" font-family="Times,serif" font-size="14.00">clientMetaPreferences</text>
<text text-anchor="start" x="236" y="-287.3" font-family="Times,serif" font-size="14.00">(MetaPreferences)</text>
</a>
</g>
</g>
<!-- clientMetaPreferences&#45;&gt;home -->
<g id="edge7" class="edge">
<title>clientMetaPreferences&#45;&gt;home</title>
<g id="a_edge7"><a xlink:href="docs/safe.goHome.html" xlink:title="goHome, home (safe)" target="_parent">
<path fill="none" stroke="black" d="M296.24,-319.6C286.95,-356.8 273.78,-436.29 317,-477 343.09,-501.57 1484.5,-510.28 1709.66,-511.76"/>
<polygon fill="black" stroke="black" points="1709.95,-515.26 1719.98,-511.83 1710,-508.26 1709.95,-515.26"/>
</a>
</g>
<g id="a_edge7&#45;label"><a xlink:href="docs/safe.goHome.html" xlink:title="goHome, home (safe)" target="_parent">
<text text-anchor="start" x="317" y="-452.6" font-family="Times,serif" font-size="13.00">goHome, home (safe)</text>
</a>
</g>
</g>
<!-- health -->
<g id="node4" class="node">
<title>health</title>
<g id="a_node4"><a xlink:href="docs/semantic.health.html" xlink:title="&lt;TABLE&gt;" target="_parent">
<polygon fill="lightgray" stroke="black" stroke-width="2" points="615.5,-379.5 512.5,-379.5 512.5,-217.5 615.5,-217.5 615.5,-379.5"/>
<text text-anchor="start" x="541.5" y="-362.3" font-family="Times,serif" font-size="14.00">health</text>
<text text-anchor="start" x="537" y="-347.3" font-family="Times,serif" font-size="14.00">(status)</text>
<text text-anchor="start" x="532.5" y="-332.3" font-family="Times,serif" font-size="14.00">(version)</text>
<text text-anchor="start" x="526" y="-317.3" font-family="Times,serif" font-size="14.00">(releaseId)</text>
<text text-anchor="start" x="539.5" y="-302.3" font-family="Times,serif" font-size="14.00">(notes)</text>
<text text-anchor="start" x="535.5" y="-287.3" font-family="Times,serif" font-size="14.00">(output)</text>
<text text-anchor="start" x="535" y="-272.3" font-family="Times,serif" font-size="14.00">(checks)</text>
<text text-anchor="start" x="542" y="-257.3" font-family="Times,serif" font-size="14.00">(links)</text>
<text text-anchor="start" x="526.5" y="-242.3" font-family="Times,serif" font-size="14.00">(serviceId)</text>
<text text-anchor="start" x="519" y="-227.3" font-family="Times,serif" font-size="14.00">(description)</text>
</a>
</g>
</g>
<!-- health&#45;&gt;home -->
<g id="edge11" class="edge">
<title>health&#45;&gt;home</title>
<g id="a_edge11"><a xlink:href="docs/safe.goHome.html" xlink:title="goHome, home (safe)" target="_parent">
<path fill="none" stroke="black" d="M602.57,-379.68C625.16,-426.53 649.39,-476.6 650,-477 695.31,-506.41 1520.7,-511.18 1709.68,-511.88"/>
<polygon fill="black" stroke="black" points="1709.94,-515.39 1719.95,-511.92 1709.97,-508.39 1709.94,-515.39"/>
</a>
</g>
<g id="a_edge11&#45;label"><a xlink:href="docs/safe.goHome.html" xlink:title="goHome, home (safe)" target="_parent">
<text text-anchor="start" x="650" y="-452.6" font-family="Times,serif" font-size="13.00">goHome, home (safe)</text>
</a>
</g>
</g>
<!-- inputForm -->
<g id="node5" class="node">
<title>inputForm</title>
<g id="a_node5"><a xlink:href="docs/semantic.inputForm.html" xlink:title="&lt;TABLE&gt;" target="_parent">
<polygon fill="lightgray" stroke="black" stroke-width="2" points="858,-349.5 770,-349.5 770,-247.5 858,-247.5 858,-349.5"/>
<text text-anchor="start" x="776" y="-332.3" font-family="Times,serif" font-size="14.00">inputForm</text>
<text text-anchor="start" x="794" y="-317.3" font-family="Times,serif" font-size="14.00">(href)</text>
<text text-anchor="start" x="798.5" y="-302.3" font-family="Times,serif" font-size="14.00">(rel)</text>
<text text-anchor="start" x="794" y="-287.3" font-family="Times,serif" font-size="14.00">(title)</text>
<text text-anchor="start" x="792.5" y="-272.3" font-family="Times,serif" font-size="14.00">(type)</text>
<text text-anchor="start" x="789.5" y="-257.3" font-family="Times,serif" font-size="14.00">(input)</text>
</a>
</g>
</g>
<!-- inputForm&#45;&gt;inputForm -->
<g id="edge24" class="edge">
<title>inputForm&#45;&gt;inputForm</title>
<path fill="none" stroke="black" d="M858.02,-327.17C868.37,-324.82 876,-315.26 876,-298.5 876,-287.24 872.56,-279.23 867.16,-274.47"/>
<polygon fill="black" stroke="black" points="868.52,-271.24 858.02,-269.83 865.35,-277.48 868.52,-271.24"/>
<g id="a_edge24_0"><a xlink:href="docs/idempotent.doPartialSubmit.html" xlink:title="&lt;TABLE&gt;">
<text text-anchor="start" x="880" y="-315.1" font-family="Times,serif" font-size="13.00">doPartialSubmit (idempotent)</text>
</a>
</g>
<g id="a_edge24_1"><a xlink:href="docs/idempotent.doResetSubmit.html" xlink:title="&lt;TABLE&gt;">
<text text-anchor="start" x="880" y="-295.1" font-family="Times,serif" font-size="13.00">doResetSubmit (idempotent)</text>
</a>
</g>
<g id="a_edge24_2"><a xlink:href="docs/safe.goForm.html" xlink:title="&lt;TABLE&gt;">
<text text-anchor="start" x="880" y="-275.1" font-family="Times,serif" font-size="13.00">goForm (safe)</text>
</a>
</g>
</g>
<!-- inputForm&#45;&gt;completed -->
<g id="edge22" class="edge">
<title>inputForm&#45;&gt;completed</title>
<g id="a_edge22"><a xlink:href="docs/idempotent.doFinalSubmit.html" xlink:title="doFinalSubmit, submit (idempotent)" target="_parent">
<path fill="none" stroke="black" d="M769.85,-264.21C732.75,-237.74 677.36,-201.68 624,-180 441.08,-105.69 207.21,-70.83 101.86,-58.05"/>
<polygon fill="black" stroke="black" points="102.12,-54.56 91.77,-56.85 101.29,-61.51 102.12,-54.56"/>
</a>
</g>
<g id="a_edge22&#45;label"><a xlink:href="docs/idempotent.doFinalSubmit.html" xlink:title="doFinalSubmit, submit (idempotent)" target="_parent">
<text text-anchor="start" x="564" y="-137.6" font-family="Times,serif" font-size="13.00">doFinalSubmit, submit (idempotent)</text>
</a>
</g>
</g>
<!-- inputForm&#45;&gt;home -->
<g id="edge23" class="edge">
<title>inputForm&#45;&gt;home</title>
<path fill="none" stroke="black" d="M858.26,-341.29C884.69,-367.19 918.21,-401.75 945,-435 959.08,-452.47 953.46,-465.97 973,-477 1037.43,-513.38 1562.31,-513.09 1709.66,-512.28"/>
<polygon fill="black" stroke="black" points="1710.02,-515.78 1720,-512.22 1709.98,-508.78 1710.02,-515.78"/>
<g id="a_edge23_3"><a xlink:href="docs/idempotent.doCancelSubmit.html" xlink:title="&lt;TABLE&gt;">
<text text-anchor="start" x="977" y="-462.6" font-family="Times,serif" font-size="13.00">doCancelSubmit (idempotent)</text>
</a>
</g>
<g id="a_edge23_4"><a xlink:href="docs/safe.goHome.html" xlink:title="&lt;TABLE&gt;">
<text text-anchor="start" x="977" y="-442.6" font-family="Times,serif" font-size="13.00">goHome (safe)</text>
</a>
</g>
</g>
<!-- list -->
<g id="node6" class="node">
<title>list</title>
<g id="a_node6"><a xlink:href="docs/semantic.list.html" xlink:title="&lt;TABLE&gt;" target="_parent">
<polygon fill="lightgray" stroke="black" stroke-width="2" points="3441.5,-319.5 3366.5,-319.5 3366.5,-277.5 3441.5,-277.5 3441.5,-319.5"/>
<text text-anchor="start" x="3393" y="-302.3" font-family="Times,serif" font-size="14.00">list</text>
<text text-anchor="start" x="3373" y="-287.3" font-family="Times,serif" font-size="14.00">(navlink)</text>
</a>
</g>
</g>
<!-- list&#45;&gt;list -->
<g id="edge27" class="edge">
<title>list&#45;&gt;list</title>
<path fill="none" stroke="black" d="M3419.62,-319.74C3438.03,-335.29 3459.5,-328.21 3459.5,-298.5 3459.5,-273.43 3444.22,-264.48 3428.38,-271.63"/>
<polygon fill="black" stroke="black" points="3426.14,-268.91 3419.62,-277.26 3429.93,-274.8 3426.14,-268.91"/>
<g id="a_edge27_5"><a xlink:href="docs/safe.goFirst.html" xlink:title="&lt;TABLE&gt;">
<text text-anchor="start" x="3464" y="-335.1" font-family="Times,serif" font-size="13.00">goFirst (safe)</text>
</a>
</g>
<g id="a_edge27_6"><a xlink:href="docs/safe.goLast.html" xlink:title="&lt;TABLE&gt;">
<text text-anchor="start" x="3464" y="-315.1" font-family="Times,serif" font-size="13.00">goLast (safe)</text>
</a>
</g>
<g id="a_edge27_7"><a xlink:href="docs/safe.goList.html" xlink:title="&lt;TABLE&gt;">
<text text-anchor="start" x="3464" y="-295.1" font-family="Times,serif" font-size="13.00">goList (safe)</text>
</a>
</g>
<g id="a_edge27_8"><a xlink:href="docs/safe.goNext.html" xlink:title="&lt;TABLE&gt;">
<text text-anchor="start" x="3464" y="-275.1" font-family="Times,serif" font-size="13.00">goNext (safe)</text>
</a>
</g>
<g id="a_edge27_9"><a xlink:href="docs/safe.goPrevious.html" xlink:title="&lt;TABLE&gt;">
<text text-anchor="start" x="3464" y="-255.1" font-family="Times,serif" font-size="13.00">goPrevious (safe)</text>
</a>
</g>
</g>
<!-- list&#45;&gt;home -->
<g id="edge26" class="edge">
<title>list&#45;&gt;home</title>
<g id="a_edge26"><a xlink:href="docs/safe.goHome.html" xlink:title="goHome, home (safe)" target="_parent">
<path fill="none" stroke="black" d="M3401.06,-319.74C3396.03,-346.51 3383.13,-393.07 3352,-417 3311.33,-448.26 3278.79,-403.9 3238,-435 3221.71,-447.42 3236.08,-465.69 3219,-477 3157.54,-517.7 2010.89,-513.46 1786.06,-512.23"/>
<polygon fill="black" stroke="black" points="1786.08,-508.73 1776.06,-512.18 1786.04,-515.73 1786.08,-508.73"/>
</a>
</g>
<g id="a_edge26&#45;label"><a xlink:href="docs/safe.goHome.html" xlink:title="goHome, home (safe)" target="_parent">
<text text-anchor="start" x="3238" y="-452.6" font-family="Times,serif" font-size="13.00">goHome, home (safe)</text>
</a>
</g>
</g>
<!-- exitList -->
<g id="node16" class="node">
<title>exitList</title>
<g id="a_node16"><a xlink:href="docs/semantic.exitList.html" xlink:title="exitList" target="_parent">
<polygon fill="lightgray" stroke="black" stroke-width="2" points="3259.5,-69 3188.5,-69 3188.5,-33 3259.5,-33 3259.5,-69"/>
<text text-anchor="middle" x="3224" y="-47.3" font-family="Times,serif" font-size="14.00">exitList</text>
</a>
</g>
</g>
<!-- list&#45;&gt;exitList -->
<g id="edge25" class="edge">
<title>list&#45;&gt;exitList</title>
<g id="a_edge25"><a xlink:href="docs/safe.goExit.html" xlink:title="goExit, collection nav exit (safe)" target="_parent">
<path fill="none" stroke="black" d="M3401.04,-277.28C3395.99,-250.55 3383.06,-204.02 3352,-180 3312.81,-149.7 3277.03,-197.03 3242,-162 3220.66,-140.66 3218.64,-104.51 3220.32,-79.51"/>
<polygon fill="black" stroke="black" points="3223.84,-79.5 3221.26,-69.22 3216.86,-78.86 3223.84,-79.5"/>
</a>
</g>
<g id="a_edge25&#45;label"><a xlink:href="docs/safe.goExit.html" xlink:title="goExit, collection nav exit (safe)" target="_parent">
<text text-anchor="start" x="3242" y="-137.6" font-family="Times,serif" font-size="13.00">goExit, collection nav exit (safe)</text>
</a>
</g>
</g>
<!-- selectRecord -->
<g id="node17" class="node">
<title>selectRecord</title>
<g id="a_node17"><a xlink:href="docs/semantic.selectRecord.html" xlink:title="selectRecord" target="_parent">
<polygon fill="lightgray" stroke="black" stroke-width="2" points="3662.5,-69 3553.5,-69 3553.5,-33 3662.5,-33 3662.5,-69"/>
<text text-anchor="middle" x="3608" y="-47.3" font-family="Times,serif" font-size="14.00">selectRecord</text>
</a>
</g>
</g>
<!-- list&#45;&gt;selectRecord -->
<g id="edge28" class="edge">
<title>list&#45;&gt;selectRecord</title>
<g id="a_edge28"><a xlink:href="docs/safe.goSelect.html" xlink:title="goSelect, collection nav select (safe)" target="_parent">
<path fill="none" stroke="black" d="M3411.82,-277.18C3428.85,-233.23 3468.68,-132.31 3480,-120 3498.8,-99.56 3525.17,-84.11 3549.1,-73.14"/>
<polygon fill="black" stroke="black" points="3550.74,-76.24 3558.48,-69.01 3547.91,-69.84 3550.74,-76.24"/>
</a>
</g>
<g id="a_edge28&#45;label"><a xlink:href="docs/safe.goSelect.html" xlink:title="goSelect, collection nav select (safe)" target="_parent">
<text text-anchor="start" x="3480" y="-137.6" font-family="Times,serif" font-size="13.00">goSelect, collection nav select (safe)</text>
</a>
</g>
</g>
<!-- mru -->
<g id="node7" class="node">
<title>mru</title>
<g id="a_node7"><a xlink:href="docs/semantic.mru.html" xlink:title="&lt;TABLE&gt;" target="_parent">
<polygon fill="lightgray" stroke="black" stroke-width="2" points="1329.5,-319.5 1250.5,-319.5 1250.5,-277.5 1329.5,-277.5 1329.5,-319.5"/>
<text text-anchor="start" x="1275.5" y="-302.3" font-family="Times,serif" font-size="14.00">mru</text>
<text text-anchor="start" x="1257" y="-287.3" font-family="Times,serif" font-size="14.00">(mrulink)</text>
</a>
</g>
</g>
<!-- mru&#45;&gt;mru -->
<g id="edge30" class="edge">
<title>mru&#45;&gt;mru</title>
<g id="a_edge30"><a xlink:href="docs/safe.goMRU.html" xlink:title="goMRU, mru (safe)" target="_parent">
<path fill="none" stroke="black" d="M1306.19,-319.74C1325.26,-335.29 1347.5,-328.21 1347.5,-298.5 1347.5,-273.2 1331.37,-264.31 1314.81,-271.84"/>
<polygon fill="black" stroke="black" points="1312.78,-268.97 1306.19,-277.26 1316.51,-274.9 1312.78,-268.97"/>
</a>
</g>
<g id="a_edge30&#45;label"><a xlink:href="docs/safe.goMRU.html" xlink:title="goMRU, mru (safe)" target="_parent">
<text text-anchor="start" x="1347.5" y="-295.1" font-family="Times,serif" font-size="13.00">goMRU, mru (safe)</text>
</a>
</g>
</g>
<!-- mru&#45;&gt;home -->
<g id="edge29" class="edge">
<title>mru&#45;&gt;home</title>
<g id="a_edge29"><a xlink:href="docs/safe.goHome.html" xlink:title="goHome, home (safe)" target="_parent">
<path fill="none" stroke="black" d="M1264.98,-319.76C1224.14,-355.16 1152,-429.06 1197,-477 1231.94,-514.23 1590.41,-513.73 1709.66,-512.52"/>
<polygon fill="black" stroke="black" points="1709.83,-516.02 1719.79,-512.41 1709.75,-509.02 1709.83,-516.02"/>
</a>
</g>
<g id="a_edge29&#45;label"><a xlink:href="docs/safe.goHome.html" xlink:title="goHome, home (safe)" target="_parent">
<text text-anchor="start" x="1197" y="-452.6" font-family="Times,serif" font-size="13.00">goHome, home (safe)</text>
</a>
</g>
</g>
<!-- queryMetadata -->
<g id="node8" class="node">
<title>queryMetadata</title>
<g id="a_node8"><a xlink:href="docs/semantic.queryMetadata.html" xlink:title="&lt;TABLE&gt;" target="_parent">
<polygon fill="lightgray" stroke="black" stroke-width="2" points="2054,-394.5 1932,-394.5 1932,-202.5 2054,-202.5 2054,-394.5"/>
<text text-anchor="start" x="1938" y="-377.3" font-family="Times,serif" font-size="14.00">queryMetadata</text>
<text text-anchor="start" x="1958.5" y="-362.3" font-family="Times,serif" font-size="14.00">(q&#45;status)</text>
<text text-anchor="start" x="1965.5" y="-347.3" font-family="Times,serif" font-size="14.00">(q&#45;sent)</text>
<text text-anchor="start" x="1948.5" y="-332.3" font-family="Times,serif" font-size="14.00">(q&#45;executed)</text>
<text text-anchor="start" x="1949" y="-317.3" font-family="Times,serif" font-size="14.00">(q&#45;returned)</text>
<text text-anchor="start" x="1961" y="-302.3" font-family="Times,serif" font-size="14.00">(q&#45;count)</text>
<text text-anchor="start" x="1952" y="-287.3" font-family="Times,serif" font-size="14.00">(q&#45;seconds)</text>
<text text-anchor="start" x="1949" y="-272.3" font-family="Times,serif" font-size="14.00">(q&#45;datetime)</text>
<text text-anchor="start" x="1961.5" y="-257.3" font-family="Times,serif" font-size="14.00">(q&#45;score)</text>
<text text-anchor="start" x="1957" y="-242.3" font-family="Times,serif" font-size="14.00">(q&#45;source)</text>
<text text-anchor="start" x="1952.5" y="-227.3" font-family="Times,serif" font-size="14.00">(q&#45;suggest)</text>
<text text-anchor="start" x="1952.5" y="-212.3" font-family="Times,serif" font-size="14.00">(q&#45;location)</text>
</a>
</g>
</g>
<!-- queryMetadata&#45;&gt;home -->
<g id="edge31" class="edge">
<title>queryMetadata&#45;&gt;home</title>
<g id="a_edge31"><a xlink:href="docs/safe.goHome.html" xlink:title="goHome, home (safe)" target="_parent">
<path fill="none" stroke="black" d="M1931.93,-394.8C1923.72,-408.2 1915.54,-421.88 1908,-435 1897.5,-453.27 1902.54,-463.94 1886,-477 1857.45,-499.54 1816.13,-507.73 1786.15,-510.62"/>
<polygon fill="black" stroke="black" points="1785.74,-507.14 1776.06,-511.44 1786.31,-514.12 1785.74,-507.14"/>
</a>
</g>
<g id="a_edge31&#45;label"><a xlink:href="docs/safe.goHome.html" xlink:title="goHome, home (safe)" target="_parent">
<text text-anchor="start" x="1908" y="-452.6" font-family="Times,serif" font-size="13.00">goHome, home (safe)</text>
</a>
</g>
</g>
<!-- related -->
<g id="node9" class="node">
<title>related</title>
<g id="a_node9"><a xlink:href="docs/semantic.related.html" xlink:title="&lt;TABLE&gt;" target="_parent">
<polygon fill="lightgray" stroke="black" stroke-width="2" points="2500,-319.5 2400,-319.5 2400,-277.5 2500,-277.5 2500,-319.5"/>
<text text-anchor="start" x="2424" y="-302.3" font-family="Times,serif" font-size="14.00">related</text>
<text text-anchor="start" x="2406" y="-287.3" font-family="Times,serif" font-size="14.00">(relatedlink)</text>
</a>
</g>
</g>
<!-- related&#45;&gt;home -->
<g id="edge32" class="edge">
<title>related&#45;&gt;home</title>
<g id="a_edge32"><a xlink:href="docs/safe.goHome.html" xlink:title="goHome, home (safe)" target="_parent">
<path fill="none" stroke="black" d="M2436.66,-319.93C2419.58,-346.25 2389.31,-393.56 2365,-435 2354.23,-453.36 2359.98,-465.62 2342,-477 2295.25,-506.59 1910.68,-511.17 1786.5,-511.87"/>
<polygon fill="black" stroke="black" points="1786.31,-508.37 1776.32,-511.92 1786.34,-515.37 1786.31,-508.37"/>
</a>
</g>
<g id="a_edge32&#45;label"><a xlink:href="docs/safe.goHome.html" xlink:title="goHome, home (safe)" target="_parent">
<text text-anchor="start" x="2365" y="-452.6" font-family="Times,serif" font-size="13.00">goHome, home (safe)</text>
</a>
</g>
</g>
<!-- wipitem -->
<g id="node10" class="node">
<title>wipitem</title>
<g id="a_node10"><a xlink:href="docs/semantic.wipitem.html" xlink:title="&lt;TABLE&gt;" target="_parent">
<polygon fill="lightgray" stroke="black" stroke-width="2" points="2869.5,-72 2794.5,-72 2794.5,-30 2869.5,-30 2869.5,-72"/>
<text text-anchor="start" x="2803.5" y="-54.8" font-family="Times,serif" font-size="14.00">wipitem</text>
<text text-anchor="start" x="2801" y="-39.8" font-family="Times,serif" font-size="14.00">(wiplink)</text>
</a>
</g>
</g>
<!-- wipitem&#45;&gt;wipitem -->
<g id="edge35" class="edge">
<title>wipitem&#45;&gt;wipitem</title>
<path fill="none" stroke="black" d="M2869.61,-67.75C2879.77,-66.87 2887.5,-61.28 2887.5,-51 2887.5,-44.41 2884.33,-39.75 2879.38,-37.02"/>
<polygon fill="black" stroke="black" points="2880.19,-33.62 2869.61,-34.25 2878.28,-40.35 2880.19,-33.62"/>
<g id="a_edge35_10"><a xlink:href="docs/idempotent.doShareWIP.html" xlink:title="&lt;TABLE&gt;">
<text text-anchor="start" x="2892" y="-87.6" font-family="Times,serif" font-size="13.00">doShareWIP (idempotent)</text>
</a>
</g>
<g id="a_edge35_11"><a xlink:href="docs/idempotent.doStatusWIP.html" xlink:title="&lt;TABLE&gt;">
<text text-anchor="start" x="2892" y="-67.6" font-family="Times,serif" font-size="13.00">doStatusWIP (idempotent)</text>
</a>
</g>
<g id="a_edge35_12"><a xlink:href="docs/idempotent.doSubmitWIP.html" xlink:title="&lt;TABLE&gt;">
<text text-anchor="start" x="2892" y="-47.6" font-family="Times,serif" font-size="13.00">doSubmitWIP (idempotent)</text>
</a>
</g>
<g id="a_edge35_13"><a xlink:href="docs/idempotent.doUpdateWIP.html" xlink:title="&lt;TABLE&gt;">
<text text-anchor="start" x="2892" y="-27.6" font-family="Times,serif" font-size="13.00">doUpdateWIP (idempotent)</text>
</a>
</g>
<g id="a_edge35_14"><a xlink:href="docs/safe.goReadWIP.html" xlink:title="&lt;TABLE&gt;">
<text text-anchor="start" x="2892" y="-7.6" font-family="Times,serif" font-size="13.00">goReadWIP (safe)</text>
</a>
</g>
</g>
<!-- wiplist -->
<g id="node11" class="node">
<title>wiplist</title>
<g id="a_node11"><a xlink:href="docs/semantic.wiplist.html" xlink:title="&lt;TABLE&gt;" target="_parent">
<polygon fill="lightgray" stroke="black" stroke-width="2" points="2790.5,-319.5 2715.5,-319.5 2715.5,-277.5 2790.5,-277.5 2790.5,-319.5"/>
<text text-anchor="start" x="2729" y="-302.3" font-family="Times,serif" font-size="14.00">wiplist</text>
<text text-anchor="start" x="2722" y="-287.3" font-family="Times,serif" font-size="14.00">(wiplink)</text>
</a>
</g>
</g>
<!-- wipitem&#45;&gt;wiplist -->
<g id="edge36" class="edge">
<title>wipitem&#45;&gt;wiplist</title>
<path fill="none" stroke="black" d="M2794.43,-51.95C2745.9,-54.16 2663.03,-66.18 2624,-120 2584.89,-173.93 2659.42,-237.01 2710.57,-271.57"/>
<polygon fill="black" stroke="black" points="2708.92,-274.68 2719.19,-277.28 2712.78,-268.84 2708.92,-274.68"/>
<g id="a_edge36_15"><a xlink:href="docs/idempotent.doCancelWIP.html" xlink:title="&lt;TABLE&gt;">
<text text-anchor="start" x="2628" y="-147.6" font-family="Times,serif" font-size="13.00">doCancelWIP (idempotent)</text>
</a>
</g>
<g id="a_edge36_16"><a xlink:href="docs/safe.goListWIP.html" xlink:title="&lt;TABLE&gt;">
<text text-anchor="start" x="2628" y="-127.6" font-family="Times,serif" font-size="13.00">goListWIP (safe)</text>
</a>
</g>
</g>
<!-- wipitem&#45;&gt;home -->
<g id="edge34" class="edge">
<title>wipitem&#45;&gt;home</title>
<g id="a_edge34"><a xlink:href="docs/safe.goHome.html" xlink:title="goHome, home (safe)" target="_parent">
<path fill="none" stroke="black" d="M2869.76,-55.35C2910.9,-61.15 2975.32,-76.96 3009,-120 3090.97,-224.76 2964.75,-311.68 3046,-417 3059.16,-434.05 3078.92,-417.16 3091,-435 3101.47,-450.46 3104.03,-463.63 3091,-477 3067.62,-501 2003.4,-510.12 1786.39,-511.73"/>
<polygon fill="black" stroke="black" points="1786.11,-508.23 1776.13,-511.81 1786.16,-515.23 1786.11,-508.23"/>
</a>
</g>
<g id="a_edge34&#45;label"><a xlink:href="docs/safe.goHome.html" xlink:title="goHome, home (safe)" target="_parent">
<text text-anchor="start" x="3046" y="-295.1" font-family="Times,serif" font-size="13.00">goHome, home (safe)</text>
</a>
</g>
</g>
<!-- wiplist&#45;&gt;wipitem -->
<g id="edge38" class="edge">
<title>wiplist&#45;&gt;wipitem</title>
<path fill="none" stroke="black" d="M2763,-277.32C2775.57,-251.25 2797.05,-204.21 2810,-162 2818.14,-135.48 2824.03,-104.42 2827.66,-82.08"/>
<polygon fill="black" stroke="black" points="2831.12,-82.59 2829.21,-72.17 2824.2,-81.51 2831.12,-82.59"/>
<g id="a_edge38_17"><a xlink:href="docs/idempotent.doCreateWIP.html" xlink:title="&lt;TABLE&gt;">
<text text-anchor="start" x="2824.5" y="-147.6" font-family="Times,serif" font-size="13.00">doCreateWIP (idempotent)</text>
</a>
</g>
<g id="a_edge38_18"><a xlink:href="docs/safe.goReadWIP.html" xlink:title="&lt;TABLE&gt;">
<text text-anchor="start" x="2824.5" y="-127.6" font-family="Times,serif" font-size="13.00">goReadWIP (safe)</text>
</a>
</g>
</g>
<!-- wiplist&#45;&gt;wiplist -->
<g id="edge39" class="edge">
<title>wiplist&#45;&gt;wiplist</title>
<path fill="none" stroke="black" d="M2768.62,-319.74C2787.03,-335.29 2808.5,-328.21 2808.5,-298.5 2808.5,-273.43 2793.22,-264.48 2777.38,-271.63"/>
<polygon fill="black" stroke="black" points="2775.14,-268.91 2768.62,-277.26 2778.93,-274.8 2775.14,-268.91"/>
<g id="a_edge39_19"><a xlink:href="docs/safe.goFilterWIP.html" xlink:title="&lt;TABLE&gt;">
<text text-anchor="start" x="2812.5" y="-305.1" font-family="Times,serif" font-size="13.00">goFilterWIP (safe)</text>
</a>
</g>
<g id="a_edge39_20"><a xlink:href="docs/safe.goListWIP.html" xlink:title="&lt;TABLE&gt;">
<text text-anchor="start" x="2812.5" y="-285.1" font-family="Times,serif" font-size="13.00">goListWIP (safe)</text>
</a>
</g>
</g>
<!-- wiplist&#45;&gt;home -->
<g id="edge37" class="edge">
<title>wiplist&#45;&gt;home</title>
<g id="a_edge37"><a xlink:href="docs/safe.goHome.html" xlink:title="goHome, home (safe)" target="_parent">
<path fill="none" stroke="black" d="M2790.53,-315.18C2859.05,-345.84 2992.16,-416.07 2933,-477 2912.55,-498.06 1987.22,-509.38 1786.25,-511.6"/>
<polygon fill="black" stroke="black" points="1786.13,-508.1 1776.17,-511.71 1786.21,-515.1 1786.13,-508.1"/>
</a>
</g>
<g id="a_edge37&#45;label"><a xlink:href="docs/safe.goHome.html" xlink:title="goHome, home (safe)" target="_parent">
<text text-anchor="start" x="2947" y="-452.6" font-family="Times,serif" font-size="13.00">goHome, home (safe)</text>
</a>
</g>
</g>
<!-- cancel&#45;&gt;home -->
<g id="edge6" class="edge">
<title>cancel&#45;&gt;home</title>
<g id="a_edge6"><a xlink:href="docs/safe.goHome.html" xlink:title="goHome, home (safe)" target="_parent">
<path fill="none" stroke="black" d="M1952.56,-586.02C1948.02,-584.31 1943.39,-582.6 1939,-581 1886.11,-561.74 1824.63,-540.35 1786.01,-527.04"/>
<polygon fill="black" stroke="black" points="1786.82,-523.61 1776.23,-523.67 1784.55,-530.23 1786.82,-523.61"/>
</a>
</g>
<g id="a_edge6&#45;label"><a xlink:href="docs/safe.goHome.html" xlink:title="goHome, home (safe)" target="_parent">
<text text-anchor="start" x="1886" y="-552.6" font-family="Times,serif" font-size="13.00">goHome, home (safe)</text>
</a>
</g>
</g>
<!-- completed&#45;&gt;home -->
<g id="edge8" class="edge">
<title>completed&#45;&gt;home</title>
<g id="a_edge8"><a xlink:href="docs/safe.goHome.html" xlink:title="goHome, home (safe)" target="_parent">
<path fill="none" stroke="black" d="M43.86,-69.47C35.36,-142.2 7.27,-419.79 66,-477 96.42,-506.64 1460.9,-511.31 1709.38,-511.92"/>
<polygon fill="black" stroke="black" points="1709.71,-515.42 1719.72,-511.94 1709.73,-508.42 1709.71,-515.42"/>
</a>
</g>
<g id="a_edge8&#45;label"><a xlink:href="docs/safe.goHome.html" xlink:title="goHome, home (safe)" target="_parent">
<text text-anchor="start" x="39" y="-295.1" font-family="Times,serif" font-size="13.00">goHome, home (safe)</text>
</a>
</g>
</g>
<!-- failed&#45;&gt;home -->
<g id="edge10" class="edge">
<title>failed&#45;&gt;home</title>
<g id="a_edge10"><a xlink:href="docs/safe.goHome.html" xlink:title="goHome, home (safe)" target="_parent">
<path fill="none" stroke="black" d="M1410.42,-580.8C1409.29,-570.23 1410.01,-557.18 1418,-549 1438.05,-528.46 1626.83,-518.69 1709.51,-515.37"/>
<polygon fill="black" stroke="black" points="1709.9,-518.86 1719.75,-514.97 1709.62,-511.86 1709.9,-518.86"/>
</a>
</g>
<g id="a_edge10&#45;label"><a xlink:href="docs/safe.goHome.html" xlink:title="goHome, home (safe)" target="_parent">
<text text-anchor="start" x="1418" y="-552.6" font-family="Times,serif" font-size="13.00">goHome, home (safe)</text>
</a>
</g>
</g>
<!-- home&#45;&gt;accepted -->
<g id="edge12" class="edge">
<title>home&#45;&gt;accepted</title>
<g id="a_edge12"><a xlink:href="docs/safe.goAccepted.html" xlink:title="goAccepted, accepted (safe)" target="_parent">
<path fill="none" stroke="black" d="M1748.81,-531.3C1748.94,-553.53 1745.94,-592.21 1726,-617 1706.9,-640.75 1677.98,-656.74 1650.35,-667.37"/>
<polygon fill="black" stroke="black" points="1648.84,-664.2 1640.64,-670.91 1651.23,-670.77 1648.84,-664.2"/>
</a>
</g>
<g id="a_edge12&#45;label"><a xlink:href="docs/safe.goAccepted.html" xlink:title="goAccepted, accepted (safe)" target="_parent">
<text text-anchor="start" x="1743" y="-595.6" font-family="Times,serif" font-size="13.00">goAccepted, accepted (safe)</text>
</a>
</g>
</g>
<!-- home&#45;&gt;apisJSON -->
<g id="edge13" class="edge">
<title>home&#45;&gt;apisJSON</title>
<g id="a_edge13"><a xlink:href="docs/safe.goAPIsJSON.html" xlink:title="goAPIsJSON, service&#45;meta (safe)" target="_parent">
<path fill="none" stroke="black" d="M1719.61,-512.34C1661.57,-512.35 1532.49,-508.73 1505,-477 1480.51,-448.74 1491.43,-411.05 1511.38,-377.68"/>
<polygon fill="black" stroke="black" points="1514.57,-379.18 1516.92,-368.85 1508.64,-375.46 1514.57,-379.18"/>
</a>
</g>
<g id="a_edge13&#45;label"><a xlink:href="docs/safe.goAPIsJSON.html" xlink:title="goAPIsJSON, service&#45;meta (safe)" target="_parent">
<text text-anchor="start" x="1505" y="-452.6" font-family="Times,serif" font-size="13.00">goAPIsJSON, service&#45;meta (safe)</text>
</a>
</g>
</g>
<!-- home&#45;&gt;clientMetaPreferences -->
<g id="edge14" class="edge">
<title>home&#45;&gt;clientMetaPreferences</title>
<g id="a_edge14"><a xlink:href="docs/safe.goMetaPreferences.html" xlink:title="goMetaPreferences, meta (safe)" target="_parent">
<path fill="none" stroke="black" d="M1719.92,-511.95C1503.56,-511.52 108.93,-507.56 79,-477 65.94,-463.66 66.9,-449.22 79,-435 111.39,-396.94 145.79,-440.3 190,-417 229.82,-396.01 263.55,-355.48 283.29,-327.96"/>
<polygon fill="black" stroke="black" points="286.32,-329.72 289.19,-319.52 280.59,-325.7 286.32,-329.72"/>
</a>
</g>
<g id="a_edge14&#45;label"><a xlink:href="docs/safe.goMetaPreferences.html" xlink:title="goMetaPreferences, meta (safe)" target="_parent">
<text text-anchor="start" x="79" y="-452.6" font-family="Times,serif" font-size="13.00">goMetaPreferences, meta (safe)</text>
</a>
</g>
</g>
<!-- home&#45;&gt;health -->
<g id="edge15" class="edge">
<title>home&#45;&gt;health</title>
<g id="a_edge15"><a xlink:href="docs/safe.goHealth.html" xlink:title="goHealth, health (safe)" target="_parent">
<path fill="none" stroke="black" d="M1719.86,-511.76C1534.68,-510.15 497.46,-500.09 475,-477 441.2,-442.25 471.39,-392.12 505.46,-353.99"/>
<polygon fill="black" stroke="black" points="508.13,-356.26 512.31,-346.53 502.97,-351.53 508.13,-356.26"/>
</a>
</g>
<g id="a_edge15&#45;label"><a xlink:href="docs/safe.goHealth.html" xlink:title="goHealth, health (safe)" target="_parent">
<text text-anchor="start" x="475" y="-452.6" font-family="Times,serif" font-size="13.00">goHealth, health (safe)</text>
</a>
</g>
</g>
<!-- home&#45;&gt;inputForm -->
<g id="edge16" class="edge">
<title>home&#45;&gt;inputForm</title>
<g id="a_edge16"><a xlink:href="docs/safe.goForm.html" xlink:title="goForm, form (safe)" target="_parent">
<path fill="none" stroke="black" d="M1719.88,-512.03C1567.6,-512.03 847.26,-510.31 815,-477 785.77,-446.83 787.39,-398.46 795.29,-359.83"/>
<polygon fill="black" stroke="black" points="798.78,-360.24 797.54,-349.72 791.95,-358.72 798.78,-360.24"/>
</a>
</g>
<g id="a_edge16&#45;label"><a xlink:href="docs/safe.goForm.html" xlink:title="goForm, form (safe)" target="_parent">
<text text-anchor="start" x="815" y="-452.6" font-family="Times,serif" font-size="13.00">goForm, form (safe)</text>
</a>
</g>
</g>
<!-- home&#45;&gt;list -->
<g id="edge17" class="edge">
<title>home&#45;&gt;list</title>
<g id="a_edge17"><a xlink:href="docs/safe.goList.html" xlink:title="goList, collection nav (safe)" target="_parent">
<path fill="none" stroke="black" d="M1776.13,-511.9C1989.93,-511.12 3350.95,-505.03 3382,-477 3422.62,-440.32 3417.74,-370.01 3410.75,-329.77"/>
<polygon fill="black" stroke="black" points="3414.15,-328.92 3408.86,-319.74 3407.27,-330.22 3414.15,-328.92"/>
</a>
</g>
<g id="a_edge17&#45;label"><a xlink:href="docs/safe.goList.html" xlink:title="goList, collection nav (safe)" target="_parent">
<text text-anchor="start" x="3406" y="-452.6" font-family="Times,serif" font-size="13.00">goList, collection nav (safe)</text>
</a>
</g>
</g>
<!-- home&#45;&gt;mru -->
<g id="edge18" class="edge">
<title>home&#45;&gt;mru</title>
<g id="a_edge18"><a xlink:href="docs/safe.goMRU.html" xlink:title="goMRU, mru (safe)" target="_parent">
<path fill="none" stroke="black" d="M1719.88,-511.14C1635.68,-508.32 1389.64,-498.33 1361,-477 1348.54,-467.72 1316.34,-377.11 1299.93,-329.07"/>
<polygon fill="black" stroke="black" points="1303.21,-327.85 1296.68,-319.51 1296.59,-330.1 1303.21,-327.85"/>
</a>
</g>
<g id="a_edge18&#45;label"><a xlink:href="docs/safe.goMRU.html" xlink:title="goMRU, mru (safe)" target="_parent">
<text text-anchor="start" x="1361" y="-452.6" font-family="Times,serif" font-size="13.00">goMRU, mru (safe)</text>
</a>
</g>
</g>
<!-- home&#45;&gt;queryMetadata -->
<g id="edge19" class="edge">
<title>home&#45;&gt;queryMetadata</title>
<g id="a_edge19"><a xlink:href="docs/safe.goQueryMetadata.html" xlink:title="goQueryMetadata, query&#45;metadata (safe)" target="_parent">
<path fill="none" stroke="black" d="M1776.18,-510.85C1848.04,-507.64 2033.79,-497.42 2052,-477 2072.47,-454.03 2069.71,-423.75 2058.11,-394.72"/>
<polygon fill="black" stroke="black" points="2061.23,-393.13 2054.05,-385.35 2054.81,-395.92 2061.23,-393.13"/>
</a>
</g>
<g id="a_edge19&#45;label"><a xlink:href="docs/safe.goQueryMetadata.html" xlink:title="goQueryMetadata, query&#45;metadata (safe)" target="_parent">
<text text-anchor="start" x="2067" y="-452.6" font-family="Times,serif" font-size="13.00">goQueryMetadata, query&#45;metadata (safe)</text>
</a>
</g>
</g>
<!-- home&#45;&gt;related -->
<g id="edge20" class="edge">
<title>home&#45;&gt;related</title>
<g id="a_edge20"><a xlink:href="docs/safe.goRelated.html" xlink:title="goRelated, mru (safe)" target="_parent">
<path fill="none" stroke="black" d="M1776.29,-511.78C1911.13,-510.6 2483.22,-503.99 2509,-477 2548.72,-435.41 2505.25,-366.41 2474.67,-327.83"/>
<polygon fill="black" stroke="black" points="2477.03,-325.18 2468,-319.63 2471.6,-329.59 2477.03,-325.18"/>
</a>
</g>
<g id="a_edge20&#45;label"><a xlink:href="docs/safe.goRelated.html" xlink:title="goRelated, mru (safe)" target="_parent">
<text text-anchor="start" x="2524" y="-452.6" font-family="Times,serif" font-size="13.00">goRelated, mru (safe)</text>
</a>
</g>
</g>
<!-- home&#45;&gt;wiplist -->
<g id="edge21" class="edge">
<title>home&#45;&gt;wiplist</title>
<g id="a_edge21"><a xlink:href="docs/safe.goListWIP.html" xlink:title="goListWIP, list collection wip (safe)" target="_parent">
<path fill="none" stroke="black" d="M1776.35,-511.75C1927.46,-510.34 2632.89,-502.41 2671,-477 2684.25,-468.17 2722.1,-376.98 2741.4,-328.87"/>
<polygon fill="black" stroke="black" points="2744.65,-330.16 2745.11,-319.58 2738.15,-327.57 2744.65,-330.16"/>
</a>
</g>
<g id="a_edge21&#45;label"><a xlink:href="docs/safe.goListWIP.html" xlink:title="goListWIP, list collection wip (safe)" target="_parent">
<text text-anchor="start" x="2694" y="-452.6" font-family="Times,serif" font-size="13.00">goListWIP, list collection wip (safe)</text>
</a>
</g>
</g>
<!-- exitList&#45;&gt;home -->
<g id="edge9" class="edge">
<title>exitList&#45;&gt;home</title>
<g id="a_edge9"><a xlink:href="docs/safe.goHome.html" xlink:title="goHome, home (safe)" target="_parent">
<path fill="none" stroke="black" d="M3222.99,-69.34C3218.92,-137.69 3203.03,-386.29 3186,-417 3164.96,-454.94 3149.85,-462.38 3109,-477 3045.13,-499.87 2000.85,-509.87 1786.33,-511.69"/>
<polygon fill="black" stroke="black" points="1786.16,-508.19 1776.19,-511.78 1786.22,-515.19 1786.16,-508.19"/>
</a>
</g>
<g id="a_edge9&#45;label"><a xlink:href="docs/safe.goHome.html" xlink:title="goHome, home (safe)" target="_parent">
<text text-anchor="start" x="3215" y="-295.1" font-family="Times,serif" font-size="13.00">goHome, home (safe)</text>
</a>
</g>
</g>
<!-- selectRecord&#45;&gt;home -->
<g id="edge33" class="edge">
<title>selectRecord&#45;&gt;home</title>
<g id="a_edge33"><a xlink:href="docs/safe.goHome.html" xlink:title="goHome, home (safe)" target="_parent">
<path fill="none" stroke="black" d="M3660.54,-69.01C3684.37,-79.65 3710.25,-96 3724,-120 3807.95,-266.51 3733.44,-381.77 3594,-477 3555.33,-503.41 2048.09,-510.77 1786.5,-511.85"/>
<polygon fill="black" stroke="black" points="1786.33,-508.35 1776.35,-511.89 1786.36,-515.35 1786.33,-508.35"/>
</a>
</g>
<g id="a_edge33&#45;label"><a xlink:href="docs/safe.goHome.html" xlink:title="goHome, home (safe)" target="_parent">
<text text-anchor="start" x="3759" y="-295.1" font-family="Times,serif" font-size="13.00">goHome, home (safe)</text>
</a>
</g>
</g>
</g>
</svg>
