<?xml version="1.0" encoding="UTF-8" standalone="no"?>
<!DOCTYPE svg PUBLIC "-//W3C//DTD SVG 1.1//EN"
 "http://www.w3.org/Graphics/SVG/1.1/DTD/svg11.dtd">
<!-- Generated by graphviz version 2.43.0 (0)
 -->
<!-- Title: application_state_diagram Pages: 1 -->
<svg width="1826pt" height="420pt"
 viewBox="0.00 0.00 1826.00 420.00" xmlns="http://www.w3.org/2000/svg" xmlns:xlink="http://www.w3.org/1999/xlink">
<g id="graph0" class="graph" transform="scale(1 1) rotate(0) translate(4 416)">
<title>application_state_diagram</title>
<g id="a_graph0"><a xlink:href="index.html" xlink:title="Combined Semantic Profiles for RWMBook" target="_parent">
<polygon fill="white" stroke="transparent" points="-4,4 -4,-416 1822,-416 1822,4 -4,4"/>
<text text-anchor="middle" x="909" y="-396.8" font-family="Helvetica,sans-Serif" font-size="14.00">Combined Semantic Profiles for RWMBook</text>
</a>
</g>
<!-- home -->
<g id="node1" class="node">
<title>home</title>
<g id="a_node1"><a xlink:href="docs/semantic.home.html" xlink:title="&lt;TABLE&gt;" target="_parent">
<polygon fill="lightgray" stroke="black" stroke-width="2" points="894.5,-117 783.5,-117 783.5,0 894.5,0 894.5,-117"/>
<text text-anchor="start" x="819.5" y="-99.3" font-family="Times,serif" font-size="14.00">home</text>
<text text-anchor="start" x="790" y="-84.3" font-family="Times,serif" font-size="14.00">(serviceMeta)</text>
<text text-anchor="start" x="819.5" y="-69.3" font-family="Times,serif" font-size="14.00">(mru)</text>
<text text-anchor="start" x="808.5" y="-54.3" font-family="Times,serif" font-size="14.00">(related)</text>
<text text-anchor="start" x="822.5" y="-39.3" font-family="Times,serif" font-size="14.00">(list)</text>
<text text-anchor="start" x="810" y="-24.3" font-family="Times,serif" font-size="14.00">(wiplist)</text>
<text text-anchor="start" x="796.5" y="-9.3" font-family="Times,serif" font-size="14.00">(inputForm)</text>
</a>
</g>
</g>
<!-- inputForm -->
<g id="node2" class="node">
<title>inputForm</title>
<g id="a_node2"><a xlink:href="docs/semantic.inputForm.html" xlink:title="&lt;TABLE&gt;" target="_parent">
<polygon fill="lightgray" stroke="black" stroke-width="2" points="88,-389 0,-389 0,-287 88,-287 88,-389"/>
<text text-anchor="start" x="6" y="-371.8" font-family="Times,serif" font-size="14.00">inputForm</text>
<text text-anchor="start" x="24" y="-356.8" font-family="Times,serif" font-size="14.00">(href)</text>
<text text-anchor="start" x="28.5" y="-341.8" font-family="Times,serif" font-size="14.00">(rel)</text>
<text text-anchor="start" x="24" y="-326.8" font-family="Times,serif" font-size="14.00">(title)</text>
<text text-anchor="start" x="22.5" y="-311.8" font-family="Times,serif" font-size="14.00">(type)</text>
<text text-anchor="start" x="19.5" y="-296.8" font-family="Times,serif" font-size="14.00">(input)</text>
</a>
</g>
</g>
<!-- inputForm&#45;&gt;home -->
<g id="edge5" class="edge">
<title>inputForm&#45;&gt;home</title>
<path fill="none" stroke="black" d="M27.07,-286.77C17.3,-247.27 12.84,-194.47 47,-167 158.48,-77.38 604.06,-62.39 773.32,-59.95"/>
<polygon fill="black" stroke="black" points="773.39,-63.45 783.34,-59.81 773.29,-56.45 773.39,-63.45"/>
<g id="a_edge5_0"><a xlink:href="docs/idempotent.doCancelSubmit.html" xlink:title="&lt;TABLE&gt;">
<text text-anchor="start" x="51" y="-194.6" font-family="Times,serif" font-size="13.00">doCancelSubmit (idempotent)</text>
</a>
</g>
<g id="a_edge5_1"><a xlink:href="docs/safe.goHome.html" xlink:title="&lt;TABLE&gt;">
<text text-anchor="start" x="51" y="-174.6" font-family="Times,serif" font-size="13.00">goHome (safe)</text>
</a>
</g>
</g>
<!-- inputForm&#45;&gt;inputForm -->
<g id="edge6" class="edge">
<title>inputForm&#45;&gt;inputForm</title>
<path fill="none" stroke="black" d="M88.02,-354.54C98.37,-353.18 106,-347.67 106,-338 106,-331.81 102.87,-327.32 97.9,-324.53"/>
<polygon fill="black" stroke="black" points="98.61,-321.09 88.02,-321.46 96.53,-327.77 98.61,-321.09"/>
<g id="a_edge6_2"><a xlink:href="docs/idempotent.doPartialSubmit.html" xlink:title="&lt;TABLE&gt;">
<text text-anchor="start" x="110" y="-354.6" font-family="Times,serif" font-size="13.00">doPartialSubmit (idempotent)</text>
</a>
</g>
<g id="a_edge6_3"><a xlink:href="docs/idempotent.doResetSubmit.html" xlink:title="&lt;TABLE&gt;">
<text text-anchor="start" x="110" y="-334.6" font-family="Times,serif" font-size="13.00">doResetSubmit (idempotent)</text>
</a>
</g>
<g id="a_edge6_4"><a xlink:href="docs/safe.goForm.html" xlink:title="&lt;TABLE&gt;">
<text text-anchor="start" x="110" y="-314.6" font-family="Times,serif" font-size="13.00">goForm (safe)</text>
</a>
</g>
</g>
<!-- completed -->
<g id="node9" class="node">
<title>completed</title>
<g id="a_node9"><a xlink:href="docs/semantic.completed.html" xlink:title="completed" target="_parent">
<polygon fill="lightgray" stroke="black" stroke-width="2" points="353.5,-206 262.5,-206 262.5,-170 353.5,-170 353.5,-206"/>
<text text-anchor="middle" x="308" y="-184.3" font-family="Times,serif" font-size="14.00">completed</text>
</a>
</g>
</g>
<!-- inputForm&#45;&gt;completed -->
<g id="edge4" class="edge">
<title>inputForm&#45;&gt;completed</title>
<g id="a_edge4"><a xlink:href="docs/idempotent.doFinalSubmit.html" xlink:title="doFinalSubmit, submit (idempotent)" target="_parent">
<path fill="none" stroke="black" d="M28.59,-286.8C25.42,-265.9 26.64,-242.86 41,-227 67.97,-197.19 181.33,-215.52 221,-209 231.2,-207.32 241.99,-205.17 252.37,-202.89"/>
<polygon fill="black" stroke="black" points="253.18,-206.29 262.16,-200.68 251.64,-199.46 253.18,-206.29"/>
</a>
</g>
<g id="a_edge4&#45;label"><a xlink:href="docs/idempotent.doFinalSubmit.html" xlink:title="doFinalSubmit, submit (idempotent)" target="_parent">
<text text-anchor="start" x="41" y="-244.6" font-family="Times,serif" font-size="13.00">doFinalSubmit, submit (idempotent)</text>
</a>
</g>
</g>
<!-- list -->
<g id="node3" class="node">
<title>list</title>
<g id="a_node3"><a xlink:href="docs/semantic.list.html" xlink:title="&lt;TABLE&gt;" target="_parent">
<polygon fill="lightgray" stroke="black" stroke-width="2" points="542.5,-359 467.5,-359 467.5,-317 542.5,-317 542.5,-359"/>
<text text-anchor="start" x="494" y="-341.8" font-family="Times,serif" font-size="14.00">list</text>
<text text-anchor="start" x="474" y="-326.8" font-family="Times,serif" font-size="14.00">(navlink)</text>
</a>
</g>
</g>
<!-- list&#45;&gt;home -->
<g id="edge8" class="edge">
<title>list&#45;&gt;home</title>
<g id="a_edge8"><a xlink:href="docs/safe.goHome.html" xlink:title="goHome, self (safe)" target="_parent">
<path fill="none" stroke="black" d="M490.22,-316.77C467.16,-282.55 428.68,-212.51 463,-167 500.31,-117.53 675.59,-83.95 773.1,-68.75"/>
<polygon fill="black" stroke="black" points="773.8,-72.19 783.16,-67.21 772.74,-65.27 773.8,-72.19"/>
</a>
</g>
<g id="a_edge8&#45;label"><a xlink:href="docs/safe.goHome.html" xlink:title="goHome, self (safe)" target="_parent">
<text text-anchor="start" x="463" y="-184.6" font-family="Times,serif" font-size="13.00">goHome, self (safe)</text>
</a>
</g>
</g>
<!-- list&#45;&gt;list -->
<g id="edge9" class="edge">
<title>list&#45;&gt;list</title>
<path fill="none" stroke="black" d="M542.61,-354.75C552.77,-353.87 560.5,-348.28 560.5,-338 560.5,-331.41 557.33,-326.75 552.38,-324.02"/>
<polygon fill="black" stroke="black" points="553.19,-320.62 542.61,-321.25 551.28,-327.35 553.19,-320.62"/>
<g id="a_edge9_5"><a xlink:href="docs/safe.goFirst.html" xlink:title="&lt;TABLE&gt;">
<text text-anchor="start" x="565" y="-374.6" font-family="Times,serif" font-size="13.00">goFirst (safe)</text>
</a>
</g>
<g id="a_edge9_6"><a xlink:href="docs/safe.goLast.html" xlink:title="&lt;TABLE&gt;">
<text text-anchor="start" x="565" y="-354.6" font-family="Times,serif" font-size="13.00">goLast (safe)</text>
</a>
</g>
<g id="a_edge9_7"><a xlink:href="docs/safe.goList.html" xlink:title="&lt;TABLE&gt;">
<text text-anchor="start" x="565" y="-334.6" font-family="Times,serif" font-size="13.00">goList (safe)</text>
</a>
</g>
<g id="a_edge9_8"><a xlink:href="docs/safe.goNext.html" xlink:title="&lt;TABLE&gt;">
<text text-anchor="start" x="565" y="-314.6" font-family="Times,serif" font-size="13.00">goNext (safe)</text>
</a>
</g>
<g id="a_edge9_9"><a xlink:href="docs/safe.goPrevious.html" xlink:title="&lt;TABLE&gt;">
<text text-anchor="start" x="565" y="-294.6" font-family="Times,serif" font-size="13.00">goPrevious (safe)</text>
</a>
</g>
</g>
<!-- exitList -->
<g id="node10" class="node">
<title>exitList</title>
<g id="a_node10"><a xlink:href="docs/semantic.exitList.html" xlink:title="exitList" target="_parent">
<polygon fill="lightgray" stroke="black" stroke-width="2" points="670.5,-206 599.5,-206 599.5,-170 670.5,-170 670.5,-206"/>
<text text-anchor="middle" x="635" y="-184.3" font-family="Times,serif" font-size="14.00">exitList</text>
</a>
</g>
</g>
<!-- list&#45;&gt;exitList -->
<g id="edge7" class="edge">
<title>list&#45;&gt;exitList</title>
<g id="a_edge7"><a xlink:href="docs/safe.goExit.html" xlink:title="goExit, collection nav exit (safe)" target="_parent">
<path fill="none" stroke="black" d="M498.37,-316.66C491.88,-292.5 485.64,-252.29 506,-227 528.59,-198.95 550.62,-219.72 585,-209 586.63,-208.49 588.27,-207.96 589.93,-207.4"/>
<polygon fill="black" stroke="black" points="591.22,-210.65 599.47,-204 588.87,-204.06 591.22,-210.65"/>
</a>
</g>
<g id="a_edge7&#45;label"><a xlink:href="docs/safe.goExit.html" xlink:title="goExit, collection nav exit (safe)" target="_parent">
<text text-anchor="start" x="506" y="-244.6" font-family="Times,serif" font-size="13.00">goExit, collection nav exit (safe)</text>
</a>
</g>
</g>
<!-- selectRecord -->
<g id="node11" class="node">
<title>selectRecord</title>
<g id="a_node11"><a xlink:href="docs/semantic.selectRecord.html" xlink:title="selectRecord" target="_parent">
<polygon fill="lightgray" stroke="black" stroke-width="2" points="797.5,-206 688.5,-206 688.5,-170 797.5,-170 797.5,-206"/>
<text text-anchor="middle" x="743" y="-184.3" font-family="Times,serif" font-size="14.00">selectRecord</text>
</a>
</g>
</g>
<!-- list&#45;&gt;selectRecord -->
<g id="edge10" class="edge">
<title>list&#45;&gt;selectRecord</title>
<g id="a_edge10"><a xlink:href="docs/safe.goSelect.html" xlink:title="goSelect, collection nav select (safe)" target="_parent">
<path fill="none" stroke="black" d="M542.67,-335.7C590.8,-331.96 673.52,-318.25 721,-269 734.49,-255 739.88,-233.52 741.95,-216.35"/>
<polygon fill="black" stroke="black" points="745.44,-216.58 742.85,-206.31 738.47,-215.96 745.44,-216.58"/>
</a>
</g>
<g id="a_edge10&#45;label"><a xlink:href="docs/safe.goSelect.html" xlink:title="goSelect, collection nav select (safe)" target="_parent">
<text text-anchor="start" x="740" y="-244.6" font-family="Times,serif" font-size="13.00">goSelect, collection nav select (safe)</text>
</a>
</g>
</g>
<!-- mru -->
<g id="node4" class="node">
<title>mru</title>
<g id="a_node4"><a xlink:href="docs/semantic.mru.html" xlink:title="&lt;TABLE&gt;" target="_parent">
<polygon fill="lightgray" stroke="black" stroke-width="2" points="894.5,-209 815.5,-209 815.5,-167 894.5,-167 894.5,-209"/>
<text text-anchor="start" x="840.5" y="-191.8" font-family="Times,serif" font-size="14.00">mru</text>
<text text-anchor="start" x="822" y="-176.8" font-family="Times,serif" font-size="14.00">(mrulink)</text>
</a>
</g>
</g>
<!-- mru&#45;&gt;home -->
<g id="edge11" class="edge">
<title>mru&#45;&gt;home</title>
<g id="a_edge11"><a xlink:href="docs/safe.goHome.html" xlink:title="goHome, self (safe)" target="_parent">
<path fill="none" stroke="black" d="M881.65,-166.98C890.27,-157.96 896.76,-146.71 893,-135 892.1,-132.19 891.05,-129.41 889.89,-126.64"/>
<polygon fill="black" stroke="black" points="892.94,-124.91 885.48,-117.38 886.61,-127.91 892.94,-124.91"/>
</a>
</g>
<g id="a_edge11&#45;label"><a xlink:href="docs/safe.goHome.html" xlink:title="goHome, self (safe)" target="_parent">
<text text-anchor="start" x="894" y="-138.6" font-family="Times,serif" font-size="13.00">goHome, self (safe)</text>
</a>
</g>
</g>
<!-- mru&#45;&gt;mru -->
<g id="edge12" class="edge">
<title>mru&#45;&gt;mru</title>
<g id="a_edge12"><a xlink:href="docs/safe.goMRU.html" xlink:title="goMRU, mru (safe)" target="_parent">
<path fill="none" stroke="black" d="M894.51,-196.54C904.76,-196.01 912.5,-193.17 912.5,-188 912.5,-184.77 909.48,-182.45 904.71,-181.03"/>
<polygon fill="black" stroke="black" points="904.92,-177.53 894.51,-179.46 903.86,-184.44 904.92,-177.53"/>
</a>
</g>
<g id="a_edge12&#45;label"><a xlink:href="docs/safe.goMRU.html" xlink:title="goMRU, mru (safe)" target="_parent">
<text text-anchor="start" x="912.5" y="-184.6" font-family="Times,serif" font-size="13.00">goMRU, mru (safe)</text>
</a>
</g>
</g>
<!-- related -->
<g id="node5" class="node">
<title>related</title>
<g id="a_node5"><a xlink:href="docs/semantic.related.html" xlink:title="&lt;TABLE&gt;" target="_parent">
<polygon fill="lightgray" stroke="black" stroke-width="2" points="1157,-209 1057,-209 1057,-167 1157,-167 1157,-209"/>
<text text-anchor="start" x="1081" y="-191.8" font-family="Times,serif" font-size="14.00">related</text>
<text text-anchor="start" x="1063" y="-176.8" font-family="Times,serif" font-size="14.00">(relatedlink)</text>
</a>
</g>
</g>
<!-- related&#45;&gt;home -->
<g id="edge13" class="edge">
<title>related&#45;&gt;home</title>
<g id="a_edge13"><a xlink:href="docs/safe.goHome.html" xlink:title="goHome, self (safe)" target="_parent">
<path fill="none" stroke="black" d="M1078.54,-166.87C1063.35,-156.61 1044.11,-144.36 1026,-135 986.75,-114.7 940.74,-96.07 904.18,-82.39"/>
<polygon fill="black" stroke="black" points="905.22,-79.04 894.62,-78.84 902.78,-85.6 905.22,-79.04"/>
</a>
</g>
<g id="a_edge13&#45;label"><a xlink:href="docs/safe.goHome.html" xlink:title="goHome, self (safe)" target="_parent">
<text text-anchor="start" x="1049" y="-138.6" font-family="Times,serif" font-size="13.00">goHome, self (safe)</text>
</a>
</g>
</g>
<!-- serviceMeta -->
<g id="node6" class="node">
<title>serviceMeta</title>
<g id="a_node6"><a xlink:href="docs/semantic.serviceMeta.html" xlink:title="&lt;TABLE&gt;" target="_parent">
<polygon fill="lightgray" stroke="black" stroke-width="2" points="1371,-209 1175,-209 1175,-167 1371,-167 1371,-209"/>
<text text-anchor="start" x="1229" y="-191.8" font-family="Times,serif" font-size="14.00">serviceMeta</text>
<text text-anchor="start" x="1181" y="-176.8" font-family="Times,serif" font-size="14.00">(serviceMetaPreferences)</text>
</a>
</g>
</g>
<!-- serviceMeta&#45;&gt;home -->
<g id="edge15" class="edge">
<title>serviceMeta&#45;&gt;home</title>
<g id="a_edge15"><a xlink:href="docs/safe.goHome.html" xlink:title="goHome, self (safe)" target="_parent">
<path fill="none" stroke="black" d="M1242.62,-166.79C1225.21,-156 1202.59,-143.27 1181,-135 1088.32,-99.49 974.8,-78.57 904.68,-68.07"/>
<polygon fill="black" stroke="black" points="905.06,-64.59 894.66,-66.6 904.04,-71.51 905.06,-64.59"/>
</a>
</g>
<g id="a_edge15&#45;label"><a xlink:href="docs/safe.goHome.html" xlink:title="goHome, self (safe)" target="_parent">
<text text-anchor="start" x="1210" y="-138.6" font-family="Times,serif" font-size="13.00">goHome, self (safe)</text>
</a>
</g>
</g>
<!-- wipitem -->
<g id="node7" class="node">
<title>wipitem</title>
<g id="a_node7"><a xlink:href="docs/semantic.wipitem.html" xlink:title="&lt;TABLE&gt;" target="_parent">
<polygon fill="lightgray" stroke="black" stroke-width="2" points="1477.5,-359 1402.5,-359 1402.5,-317 1477.5,-317 1477.5,-359"/>
<text text-anchor="start" x="1411.5" y="-341.8" font-family="Times,serif" font-size="14.00">wipitem</text>
<text text-anchor="start" x="1409" y="-326.8" font-family="Times,serif" font-size="14.00">(wiplink)</text>
</a>
</g>
</g>
<!-- wipitem&#45;&gt;home -->
<g id="edge16" class="edge">
<title>wipitem&#45;&gt;home</title>
<g id="a_edge16"><a xlink:href="docs/safe.goHome.html" xlink:title="goHome, self (safe)" target="_parent">
<path fill="none" stroke="black" d="M1434.36,-316.92C1423.09,-277.6 1397.36,-192.1 1380,-167 1367.44,-148.84 1362.12,-144.09 1342,-135 1265.08,-100.24 1022.53,-75.29 904.62,-64.88"/>
<polygon fill="black" stroke="black" points="904.91,-61.4 894.64,-64.01 904.3,-68.37 904.91,-61.4"/>
</a>
</g>
<g id="a_edge16&#45;label"><a xlink:href="docs/safe.goHome.html" xlink:title="goHome, self (safe)" target="_parent">
<text text-anchor="start" x="1399" y="-184.6" font-family="Times,serif" font-size="13.00">goHome, self (safe)</text>
</a>
</g>
</g>
<!-- wipitem&#45;&gt;wipitem -->
<g id="edge17" class="edge">
<title>wipitem&#45;&gt;wipitem</title>
<path fill="none" stroke="black" d="M1477.61,-354.75C1487.77,-353.87 1495.5,-348.28 1495.5,-338 1495.5,-331.41 1492.33,-326.75 1487.38,-324.02"/>
<polygon fill="black" stroke="black" points="1488.19,-320.62 1477.61,-321.25 1486.28,-327.35 1488.19,-320.62"/>
<g id="a_edge17_10"><a xlink:href="docs/idempotent.doShareWIP.html" xlink:title="&lt;TABLE&gt;">
<text text-anchor="start" x="1500" y="-374.6" font-family="Times,serif" font-size="13.00">doShareWIP (idempotent)</text>
</a>
</g>
<g id="a_edge17_11"><a xlink:href="docs/idempotent.doStatusWIP.html" xlink:title="&lt;TABLE&gt;">
<text text-anchor="start" x="1500" y="-354.6" font-family="Times,serif" font-size="13.00">doStatusWIP (idempotent)</text>
</a>
</g>
<g id="a_edge17_12"><a xlink:href="docs/idempotent.doSubmitWIP.html" xlink:title="&lt;TABLE&gt;">
<text text-anchor="start" x="1500" y="-334.6" font-family="Times,serif" font-size="13.00">doSubmitWIP (idempotent)</text>
</a>
</g>
<g id="a_edge17_13"><a xlink:href="docs/idempotent.doUpdateWIP.html" xlink:title="&lt;TABLE&gt;">
<text text-anchor="start" x="1500" y="-314.6" font-family="Times,serif" font-size="13.00">doUpdateWIP (idempotent)</text>
</a>
</g>
<g id="a_edge17_14"><a xlink:href="docs/safe.goReadWIP.html" xlink:title="&lt;TABLE&gt;">
<text text-anchor="start" x="1500" y="-294.6" font-family="Times,serif" font-size="13.00">goReadWIP (safe)</text>
</a>
</g>
</g>
<!-- wiplist -->
<g id="node8" class="node">
<title>wiplist</title>
<g id="a_node8"><a xlink:href="docs/semantic.wiplist.html" xlink:title="&lt;TABLE&gt;" target="_parent">
<polygon fill="lightgray" stroke="black" stroke-width="2" points="1628.5,-209 1553.5,-209 1553.5,-167 1628.5,-167 1628.5,-209"/>
<text text-anchor="start" x="1567" y="-191.8" font-family="Times,serif" font-size="14.00">wiplist</text>
<text text-anchor="start" x="1560" y="-176.8" font-family="Times,serif" font-size="14.00">(wiplink)</text>
</a>
</g>
</g>
<!-- wipitem&#45;&gt;wiplist -->
<g id="edge18" class="edge">
<title>wipitem&#45;&gt;wiplist</title>
<path fill="none" stroke="black" d="M1433.31,-316.94C1426.6,-292.68 1419.98,-252 1441,-227 1469.5,-193.1 1496.37,-221 1539,-209 1540.45,-208.59 1541.93,-208.16 1543.41,-207.7"/>
<polygon fill="black" stroke="black" points="1544.82,-210.92 1553.22,-204.46 1542.63,-204.27 1544.82,-210.92"/>
<g id="a_edge18_15"><a xlink:href="docs/idempotent.doCancelWIP.html" xlink:title="&lt;TABLE&gt;">
<text text-anchor="start" x="1445" y="-254.6" font-family="Times,serif" font-size="13.00">doCancelWIP (idempotent)</text>
</a>
</g>
<g id="a_edge18_16"><a xlink:href="docs/safe.goListWIP.html" xlink:title="&lt;TABLE&gt;">
<text text-anchor="start" x="1445" y="-234.6" font-family="Times,serif" font-size="13.00">goListWIP (safe)</text>
</a>
</g>
</g>
<!-- wiplist&#45;&gt;home -->
<g id="edge19" class="edge">
<title>wiplist&#45;&gt;home</title>
<g id="a_edge19"><a xlink:href="docs/safe.goHome.html" xlink:title="goHome, self (safe)" target="_parent">
<path fill="none" stroke="black" d="M1553.39,-172.01C1548.57,-170.25 1543.69,-168.53 1539,-167 1487.35,-150.11 1474.29,-145.63 1421,-135 1235.63,-98.02 1013.29,-74.99 904.91,-65.11"/>
<polygon fill="black" stroke="black" points="905.05,-61.61 894.78,-64.19 904.42,-68.58 905.05,-61.61"/>
</a>
</g>
<g id="a_edge19&#45;label"><a xlink:href="docs/safe.goHome.html" xlink:title="goHome, self (safe)" target="_parent">
<text text-anchor="start" x="1480" y="-138.6" font-family="Times,serif" font-size="13.00">goHome, self (safe)</text>
</a>
</g>
</g>
<!-- wiplist&#45;&gt;wipitem -->
<g id="edge20" class="edge">
<title>wiplist&#45;&gt;wipitem</title>
<path fill="none" stroke="black" d="M1615.2,-209.02C1620.01,-214.32 1624.38,-220.42 1627,-227 1633.91,-244.34 1637.71,-253.71 1627,-269 1595.74,-313.63 1532.02,-329.07 1487.7,-334.36"/>
<polygon fill="black" stroke="black" points="1487.3,-330.88 1477.73,-335.42 1488.04,-337.84 1487.3,-330.88"/>
<g id="a_edge20_17"><a xlink:href="docs/idempotent.doCreateWIP.html" xlink:title="&lt;TABLE&gt;">
<text text-anchor="start" x="1637.5" y="-254.6" font-family="Times,serif" font-size="13.00">doCreateWIP (idempotent)</text>
</a>
</g>
<g id="a_edge20_18"><a xlink:href="docs/safe.goReadWIP.html" xlink:title="&lt;TABLE&gt;">
<text text-anchor="start" x="1637.5" y="-234.6" font-family="Times,serif" font-size="13.00">goReadWIP (safe)</text>
</a>
</g>
</g>
<!-- wiplist&#45;&gt;wiplist -->
<g id="edge21" class="edge">
<title>wiplist&#45;&gt;wiplist</title>
<path fill="none" stroke="black" d="M1628.61,-196.56C1638.77,-196.11 1646.5,-193.26 1646.5,-188 1646.5,-184.72 1643.48,-182.37 1638.74,-180.96"/>
<polygon fill="black" stroke="black" points="1639.02,-177.46 1628.61,-179.44 1637.98,-184.39 1639.02,-177.46"/>
<g id="a_edge21_19"><a xlink:href="docs/safe.goFilterWIP.html" xlink:title="&lt;TABLE&gt;">
<text text-anchor="start" x="1650.5" y="-194.6" font-family="Times,serif" font-size="13.00">goFilterWIP (safe)</text>
</a>
</g>
<g id="a_edge21_20"><a xlink:href="docs/safe.goListWIP.html" xlink:title="&lt;TABLE&gt;">
<text text-anchor="start" x="1650.5" y="-174.6" font-family="Times,serif" font-size="13.00">goListWIP (safe)</text>
</a>
</g>
</g>
<!-- completed&#45;&gt;home -->
<g id="edge1" class="edge">
<title>completed&#45;&gt;home</title>
<g id="a_edge1"><a xlink:href="docs/safe.goHome.html" xlink:title="goHome, self (safe)" target="_parent">
<path fill="none" stroke="black" d="M303.94,-169.9C302.34,-158.58 302.56,-144.19 311,-135 372,-68.62 645.7,-59.54 773.22,-59"/>
<polygon fill="black" stroke="black" points="773.26,-62.5 783.25,-58.97 773.24,-55.5 773.26,-62.5"/>
</a>
</g>
<g id="a_edge1&#45;label"><a xlink:href="docs/safe.goHome.html" xlink:title="goHome, self (safe)" target="_parent">
<text text-anchor="start" x="311" y="-138.6" font-family="Times,serif" font-size="13.00">goHome, self (safe)</text>
</a>
</g>
</g>
<!-- completed&#45;&gt;inputForm -->
<g id="edge2" class="edge">
<title>completed&#45;&gt;inputForm</title>
<g id="a_edge2"><a xlink:href="docs/safe.goForm.html" xlink:title="goForm, form (safe)" target="_parent">
<path fill="none" stroke="black" d="M307.97,-206.08C307,-224.13 302.66,-252.25 286,-269 236.42,-318.86 153.39,-332.89 98.66,-336.45"/>
<polygon fill="black" stroke="black" points="98.23,-332.97 88.44,-337.01 98.62,-339.95 98.23,-332.97"/>
</a>
</g>
<g id="a_edge2&#45;label"><a xlink:href="docs/safe.goForm.html" xlink:title="goForm, form (safe)" target="_parent">
<text text-anchor="start" x="306" y="-244.6" font-family="Times,serif" font-size="13.00">goForm, form (safe)</text>
</a>
</g>
</g>
<!-- exitList&#45;&gt;home -->
<g id="edge3" class="edge">
<title>exitList&#45;&gt;home</title>
<g id="a_edge3"><a xlink:href="docs/safe.goHome.html" xlink:title="goHome, self (safe)" target="_parent">
<path fill="none" stroke="black" d="M624.03,-169.75C618.68,-158.93 614.78,-145.16 622,-135 655.95,-87.25 722.37,-69.44 772.84,-62.93"/>
<polygon fill="black" stroke="black" points="773.5,-66.38 783.02,-61.74 772.68,-59.42 773.5,-66.38"/>
</a>
</g>
<g id="a_edge3&#45;label"><a xlink:href="docs/safe.goHome.html" xlink:title="goHome, self (safe)" target="_parent">
<text text-anchor="start" x="622" y="-138.6" font-family="Times,serif" font-size="13.00">goHome, self (safe)</text>
</a>
</g>
</g>
<!-- selectRecord&#45;&gt;home -->
<g id="edge14" class="edge">
<title>selectRecord&#45;&gt;home</title>
<g id="a_edge14"><a xlink:href="docs/safe.goHome.html" xlink:title="goHome, self (safe)" target="_parent">
<path fill="none" stroke="black" d="M746.81,-169.7C749.65,-159.13 754.22,-145.63 761,-135 765.51,-127.92 770.82,-121.01 776.51,-114.44"/>
<polygon fill="black" stroke="black" points="779.22,-116.65 783.33,-106.88 774.03,-111.96 779.22,-116.65"/>
</a>
</g>
<g id="a_edge14&#45;label"><a xlink:href="docs/safe.goHome.html" xlink:title="goHome, self (safe)" target="_parent">
<text text-anchor="start" x="761" y="-138.6" font-family="Times,serif" font-size="13.00">goHome, self (safe)</text>
</a>
</g>
</g>
</g>
</svg>
