<?xml version="1.0" encoding="UTF-8" standalone="no"?>
<!DOCTYPE svg PUBLIC "-//W3C//DTD SVG 1.1//EN"
 "http://www.w3.org/Graphics/SVG/1.1/DTD/svg11.dtd">
<!-- Generated by graphviz version 2.43.0 (0)
 -->
<!-- Title: application_state_diagram Pages: 1 -->
<svg width="1818pt" height="420pt"
 viewBox="0.00 0.00 1817.50 420.00" xmlns="http://www.w3.org/2000/svg" xmlns:xlink="http://www.w3.org/1999/xlink">
<g id="graph0" class="graph" transform="scale(1 1) rotate(0) translate(4 416)">
<title>application_state_diagram</title>
<g id="a_graph0"><a xlink:href="index.html" xlink:title="Combined Semantic Profiles for RWMBook" target="_parent">
<polygon fill="white" stroke="transparent" points="-4,4 -4,-416 1813.5,-416 1813.5,4 -4,4"/>
<text text-anchor="middle" x="904.75" y="-396.8" font-family="Helvetica,sans-Serif" font-size="14.00">Combined Semantic Profiles for RWMBook</text>
</a>
</g>
<!-- about -->
<g id="node1" class="node">
<title>about</title>
<g id="a_node1"><a xlink:href="docs/semantic.about.html" xlink:title="&lt;TABLE&gt;" target="_parent">
<polygon fill="lightgray" stroke="black" stroke-width="2" points="149,-209 0,-209 0,-167 149,-167 149,-209"/>
<text text-anchor="start" x="54.5" y="-191.8" font-family="Times,serif" font-size="14.00">about</text>
<text text-anchor="start" x="6.5" y="-176.8" font-family="Times,serif" font-size="14.00">(aboutPreferences)</text>
</a>
</g>
</g>
<!-- home -->
<g id="node2" class="node">
<title>home</title>
<g id="a_node2"><a xlink:href="docs/semantic.home.html" xlink:title="&lt;TABLE&gt;" target="_parent">
<polygon fill="lightgray" stroke="black" stroke-width="2" points="901.5,-117 803.5,-117 803.5,0 901.5,0 901.5,-117"/>
<text text-anchor="start" x="832.5" y="-99.3" font-family="Times,serif" font-size="14.00">home</text>
<text text-anchor="start" x="826.5" y="-84.3" font-family="Times,serif" font-size="14.00">(about)</text>
<text text-anchor="start" x="832.5" y="-69.3" font-family="Times,serif" font-size="14.00">(mru)</text>
<text text-anchor="start" x="821.5" y="-54.3" font-family="Times,serif" font-size="14.00">(related)</text>
<text text-anchor="start" x="835.5" y="-39.3" font-family="Times,serif" font-size="14.00">(list)</text>
<text text-anchor="start" x="823" y="-24.3" font-family="Times,serif" font-size="14.00">(wiplist)</text>
<text text-anchor="start" x="809.5" y="-9.3" font-family="Times,serif" font-size="14.00">(inputForm)</text>
</a>
</g>
</g>
<!-- about&#45;&gt;home -->
<g id="edge1" class="edge">
<title>about&#45;&gt;home</title>
<g id="a_edge1"><a xlink:href="docs/safe.goHome.html" xlink:title="goHome, self (safe)" target="_parent">
<path fill="none" stroke="black" d="M69.03,-166.85C67.41,-156.08 67.77,-143.35 75.5,-135 124.04,-82.54 620.14,-65.27 793.27,-60.82"/>
<polygon fill="black" stroke="black" points="793.56,-64.31 803.47,-60.56 793.38,-57.31 793.56,-64.31"/>
</a>
</g>
<g id="a_edge1&#45;label"><a xlink:href="docs/safe.goHome.html" xlink:title="goHome, self (safe)" target="_parent">
<text text-anchor="start" x="75.5" y="-138.6" font-family="Times,serif" font-size="13.00">goHome, self (safe)</text>
</a>
</g>
</g>
<!-- inputForm -->
<g id="node3" class="node">
<title>inputForm</title>
<g id="a_node3"><a xlink:href="docs/semantic.inputForm.html" xlink:title="&lt;TABLE&gt;" target="_parent">
<polygon fill="lightgray" stroke="black" stroke-width="2" points="294.5,-389 206.5,-389 206.5,-287 294.5,-287 294.5,-389"/>
<text text-anchor="start" x="212.5" y="-371.8" font-family="Times,serif" font-size="14.00">inputForm</text>
<text text-anchor="start" x="230.5" y="-356.8" font-family="Times,serif" font-size="14.00">(href)</text>
<text text-anchor="start" x="235" y="-341.8" font-family="Times,serif" font-size="14.00">(rel)</text>
<text text-anchor="start" x="230.5" y="-326.8" font-family="Times,serif" font-size="14.00">(title)</text>
<text text-anchor="start" x="229" y="-311.8" font-family="Times,serif" font-size="14.00">(type)</text>
<text text-anchor="start" x="226" y="-296.8" font-family="Times,serif" font-size="14.00">(input)</text>
</a>
</g>
</g>
<!-- inputForm&#45;&gt;home -->
<g id="edge6" class="edge">
<title>inputForm&#45;&gt;home</title>
<path fill="none" stroke="black" d="M234.06,-286.63C224.76,-247.32 220.84,-194.86 254.5,-167 336.28,-99.33 659.07,-71.62 793.38,-62.86"/>
<polygon fill="black" stroke="black" points="793.73,-66.35 803.48,-62.22 793.28,-59.36 793.73,-66.35"/>
<g id="a_edge6_0"><a xlink:href="docs/idempotent.doCancelSubmit.html" xlink:title="&lt;TABLE&gt;">
<text text-anchor="start" x="258.5" y="-194.6" font-family="Times,serif" font-size="13.00">doCancelSubmit (idempotent)</text>
</a>
</g>
<g id="a_edge6_1"><a xlink:href="docs/safe.goHome.html" xlink:title="&lt;TABLE&gt;">
<text text-anchor="start" x="258.5" y="-174.6" font-family="Times,serif" font-size="13.00">goHome (safe)</text>
</a>
</g>
</g>
<!-- inputForm&#45;&gt;inputForm -->
<g id="edge7" class="edge">
<title>inputForm&#45;&gt;inputForm</title>
<path fill="none" stroke="black" d="M294.52,-354.54C304.87,-353.18 312.5,-347.67 312.5,-338 312.5,-331.81 309.37,-327.32 304.4,-324.53"/>
<polygon fill="black" stroke="black" points="305.11,-321.09 294.52,-321.46 303.03,-327.77 305.11,-321.09"/>
<g id="a_edge7_2"><a xlink:href="docs/idempotent.doPartialSubmit.html" xlink:title="&lt;TABLE&gt;">
<text text-anchor="start" x="316.5" y="-354.6" font-family="Times,serif" font-size="13.00">doPartialSubmit (idempotent)</text>
</a>
</g>
<g id="a_edge7_3"><a xlink:href="docs/idempotent.doResetSubmit.html" xlink:title="&lt;TABLE&gt;">
<text text-anchor="start" x="316.5" y="-334.6" font-family="Times,serif" font-size="13.00">doResetSubmit (idempotent)</text>
</a>
</g>
<g id="a_edge7_4"><a xlink:href="docs/safe.goForm.html" xlink:title="&lt;TABLE&gt;">
<text text-anchor="start" x="316.5" y="-314.6" font-family="Times,serif" font-size="13.00">goForm (safe)</text>
</a>
</g>
</g>
<!-- completed -->
<g id="node9" class="node">
<title>completed</title>
<g id="a_node9"><a xlink:href="docs/semantic.completed.html" xlink:title="completed" target="_parent">
<polygon fill="lightgray" stroke="black" stroke-width="2" points="560,-206 469,-206 469,-170 560,-170 560,-206"/>
<text text-anchor="middle" x="514.5" y="-184.3" font-family="Times,serif" font-size="14.00">completed</text>
</a>
</g>
</g>
<!-- inputForm&#45;&gt;completed -->
<g id="edge5" class="edge">
<title>inputForm&#45;&gt;completed</title>
<g id="a_edge5"><a xlink:href="docs/idempotent.doFinalSubmit.html" xlink:title="doFinalSubmit, submit (idempotent)" target="_parent">
<path fill="none" stroke="black" d="M235.09,-286.8C231.92,-265.9 233.14,-242.86 247.5,-227 274.47,-197.19 387.83,-215.52 427.5,-209 437.7,-207.32 448.49,-205.17 458.87,-202.89"/>
<polygon fill="black" stroke="black" points="459.68,-206.29 468.66,-200.68 458.14,-199.46 459.68,-206.29"/>
</a>
</g>
<g id="a_edge5&#45;label"><a xlink:href="docs/idempotent.doFinalSubmit.html" xlink:title="doFinalSubmit, submit (idempotent)" target="_parent">
<text text-anchor="start" x="247.5" y="-244.6" font-family="Times,serif" font-size="13.00">doFinalSubmit, submit (idempotent)</text>
</a>
</g>
</g>
<!-- list -->
<g id="node4" class="node">
<title>list</title>
<g id="a_node4"><a xlink:href="docs/semantic.list.html" xlink:title="&lt;TABLE&gt;" target="_parent">
<polygon fill="lightgray" stroke="black" stroke-width="2" points="748,-359 673,-359 673,-317 748,-317 748,-359"/>
<text text-anchor="start" x="699.5" y="-341.8" font-family="Times,serif" font-size="14.00">list</text>
<text text-anchor="start" x="679.5" y="-326.8" font-family="Times,serif" font-size="14.00">(navlink)</text>
</a>
</g>
</g>
<!-- list&#45;&gt;home -->
<g id="edge9" class="edge">
<title>list&#45;&gt;home</title>
<g id="a_edge9"><a xlink:href="docs/safe.goHome.html" xlink:title="goHome, self (safe)" target="_parent">
<path fill="none" stroke="black" d="M696.48,-316.82C675.28,-283.56 640.35,-216.04 668.5,-167 695.21,-120.46 750.71,-92.15 793.81,-76.35"/>
<polygon fill="black" stroke="black" points="795.09,-79.61 803.36,-72.98 792.76,-73.01 795.09,-79.61"/>
</a>
</g>
<g id="a_edge9&#45;label"><a xlink:href="docs/safe.goHome.html" xlink:title="goHome, self (safe)" target="_parent">
<text text-anchor="start" x="668.5" y="-184.6" font-family="Times,serif" font-size="13.00">goHome, self (safe)</text>
</a>
</g>
</g>
<!-- list&#45;&gt;list -->
<g id="edge10" class="edge">
<title>list&#45;&gt;list</title>
<path fill="none" stroke="black" d="M748.11,-354.75C758.27,-353.87 766,-348.28 766,-338 766,-331.41 762.83,-326.75 757.88,-324.02"/>
<polygon fill="black" stroke="black" points="758.69,-320.62 748.11,-321.25 756.78,-327.35 758.69,-320.62"/>
<g id="a_edge10_5"><a xlink:href="docs/safe.goFirst.html" xlink:title="&lt;TABLE&gt;">
<text text-anchor="start" x="770.5" y="-374.6" font-family="Times,serif" font-size="13.00">goFirst (safe)</text>
</a>
</g>
<g id="a_edge10_6"><a xlink:href="docs/safe.goLast.html" xlink:title="&lt;TABLE&gt;">
<text text-anchor="start" x="770.5" y="-354.6" font-family="Times,serif" font-size="13.00">goLast (safe)</text>
</a>
</g>
<g id="a_edge10_7"><a xlink:href="docs/safe.goList.html" xlink:title="&lt;TABLE&gt;">
<text text-anchor="start" x="770.5" y="-334.6" font-family="Times,serif" font-size="13.00">goList (safe)</text>
</a>
</g>
<g id="a_edge10_8"><a xlink:href="docs/safe.goNext.html" xlink:title="&lt;TABLE&gt;">
<text text-anchor="start" x="770.5" y="-314.6" font-family="Times,serif" font-size="13.00">goNext (safe)</text>
</a>
</g>
<g id="a_edge10_9"><a xlink:href="docs/safe.goPrevious.html" xlink:title="&lt;TABLE&gt;">
<text text-anchor="start" x="770.5" y="-294.6" font-family="Times,serif" font-size="13.00">goPrevious (safe)</text>
</a>
</g>
</g>
<!-- exitList -->
<g id="node10" class="node">
<title>exitList</title>
<g id="a_node10"><a xlink:href="docs/semantic.exitList.html" xlink:title="exitList" target="_parent">
<polygon fill="lightgray" stroke="black" stroke-width="2" points="876,-206 805,-206 805,-170 876,-170 876,-206"/>
<text text-anchor="middle" x="840.5" y="-184.3" font-family="Times,serif" font-size="14.00">exitList</text>
</a>
</g>
</g>
<!-- list&#45;&gt;exitList -->
<g id="edge8" class="edge">
<title>list&#45;&gt;exitList</title>
<g id="a_edge8"><a xlink:href="docs/safe.goExit.html" xlink:title="goExit, collection nav exit (safe)" target="_parent">
<path fill="none" stroke="black" d="M703.87,-316.66C697.38,-292.5 691.14,-252.29 711.5,-227 734.09,-198.95 756.12,-219.72 790.5,-209 792.13,-208.49 793.77,-207.96 795.43,-207.4"/>
<polygon fill="black" stroke="black" points="796.72,-210.65 804.97,-204 794.37,-204.06 796.72,-210.65"/>
</a>
</g>
<g id="a_edge8&#45;label"><a xlink:href="docs/safe.goExit.html" xlink:title="goExit, collection nav exit (safe)" target="_parent">
<text text-anchor="start" x="711.5" y="-244.6" font-family="Times,serif" font-size="13.00">goExit, collection nav exit (safe)</text>
</a>
</g>
</g>
<!-- selectRecord -->
<g id="node11" class="node">
<title>selectRecord</title>
<g id="a_node11"><a xlink:href="docs/semantic.selectRecord.html" xlink:title="selectRecord" target="_parent">
<polygon fill="lightgray" stroke="black" stroke-width="2" points="1003,-206 894,-206 894,-170 1003,-170 1003,-206"/>
<text text-anchor="middle" x="948.5" y="-184.3" font-family="Times,serif" font-size="14.00">selectRecord</text>
</a>
</g>
</g>
<!-- list&#45;&gt;selectRecord -->
<g id="edge11" class="edge">
<title>list&#45;&gt;selectRecord</title>
<g id="a_edge11"><a xlink:href="docs/safe.goSelect.html" xlink:title="goSelect, collection nav select (safe)" target="_parent">
<path fill="none" stroke="black" d="M748.17,-335.7C796.3,-331.96 879.02,-318.25 926.5,-269 939.99,-255 945.38,-233.52 947.45,-216.35"/>
<polygon fill="black" stroke="black" points="950.94,-216.58 948.35,-206.31 943.97,-215.96 950.94,-216.58"/>
</a>
</g>
<g id="a_edge11&#45;label"><a xlink:href="docs/safe.goSelect.html" xlink:title="goSelect, collection nav select (safe)" target="_parent">
<text text-anchor="start" x="945.5" y="-244.6" font-family="Times,serif" font-size="13.00">goSelect, collection nav select (safe)</text>
</a>
</g>
</g>
<!-- mru -->
<g id="node5" class="node">
<title>mru</title>
<g id="a_node5"><a xlink:href="docs/semantic.mru.html" xlink:title="&lt;TABLE&gt;" target="_parent">
<polygon fill="lightgray" stroke="black" stroke-width="2" points="1100,-209 1021,-209 1021,-167 1100,-167 1100,-209"/>
<text text-anchor="start" x="1046" y="-191.8" font-family="Times,serif" font-size="14.00">mru</text>
<text text-anchor="start" x="1027.5" y="-176.8" font-family="Times,serif" font-size="14.00">(mrulink)</text>
</a>
</g>
</g>
<!-- mru&#45;&gt;home -->
<g id="edge12" class="edge">
<title>mru&#45;&gt;home</title>
<g id="a_edge12"><a xlink:href="docs/safe.goHome.html" xlink:title="goHome, self (safe)" target="_parent">
<path fill="none" stroke="black" d="M1060.25,-166.96C1059.13,-156.35 1056.09,-143.75 1048.5,-135 1013.9,-95.15 955.78,-76.23 911.79,-67.31"/>
<polygon fill="black" stroke="black" points="912.26,-63.83 901.79,-65.4 910.95,-70.71 912.26,-63.83"/>
</a>
</g>
<g id="a_edge12&#45;label"><a xlink:href="docs/safe.goHome.html" xlink:title="goHome, self (safe)" target="_parent">
<text text-anchor="start" x="1055.5" y="-138.6" font-family="Times,serif" font-size="13.00">goHome, self (safe)</text>
</a>
</g>
</g>
<!-- mru&#45;&gt;mru -->
<g id="edge13" class="edge">
<title>mru&#45;&gt;mru</title>
<g id="a_edge13"><a xlink:href="docs/safe.goMRU.html" xlink:title="goMRU, mru (safe)" target="_parent">
<path fill="none" stroke="black" d="M1100.01,-196.54C1110.26,-196.01 1118,-193.17 1118,-188 1118,-184.77 1114.98,-182.45 1110.21,-181.03"/>
<polygon fill="black" stroke="black" points="1110.42,-177.53 1100.01,-179.46 1109.36,-184.44 1110.42,-177.53"/>
</a>
</g>
<g id="a_edge13&#45;label"><a xlink:href="docs/safe.goMRU.html" xlink:title="goMRU, mru (safe)" target="_parent">
<text text-anchor="start" x="1118" y="-184.6" font-family="Times,serif" font-size="13.00">goMRU, mru (safe)</text>
</a>
</g>
</g>
<!-- related -->
<g id="node6" class="node">
<title>related</title>
<g id="a_node6"><a xlink:href="docs/semantic.related.html" xlink:title="&lt;TABLE&gt;" target="_parent">
<polygon fill="lightgray" stroke="black" stroke-width="2" points="1362.5,-209 1262.5,-209 1262.5,-167 1362.5,-167 1362.5,-209"/>
<text text-anchor="start" x="1286.5" y="-191.8" font-family="Times,serif" font-size="14.00">related</text>
<text text-anchor="start" x="1268.5" y="-176.8" font-family="Times,serif" font-size="14.00">(relatedlink)</text>
</a>
</g>
</g>
<!-- related&#45;&gt;home -->
<g id="edge14" class="edge">
<title>related&#45;&gt;home</title>
<g id="a_edge14"><a xlink:href="docs/safe.goHome.html" xlink:title="goHome, self (safe)" target="_parent">
<path fill="none" stroke="black" d="M1269.51,-166.95C1245.71,-156.41 1215.39,-143.87 1187.5,-135 1092.8,-104.88 979.39,-81.97 911.79,-69.66"/>
<polygon fill="black" stroke="black" points="912.21,-66.18 901.75,-67.84 910.97,-73.07 912.21,-66.18"/>
</a>
</g>
<g id="a_edge14&#45;label"><a xlink:href="docs/safe.goHome.html" xlink:title="goHome, self (safe)" target="_parent">
<text text-anchor="start" x="1225.5" y="-138.6" font-family="Times,serif" font-size="13.00">goHome, self (safe)</text>
</a>
</g>
</g>
<!-- wipitem -->
<g id="node7" class="node">
<title>wipitem</title>
<g id="a_node7"><a xlink:href="docs/semantic.wipitem.html" xlink:title="&lt;TABLE&gt;" target="_parent">
<polygon fill="lightgray" stroke="black" stroke-width="2" points="1469,-359 1394,-359 1394,-317 1469,-317 1469,-359"/>
<text text-anchor="start" x="1403" y="-341.8" font-family="Times,serif" font-size="14.00">wipitem</text>
<text text-anchor="start" x="1400.5" y="-326.8" font-family="Times,serif" font-size="14.00">(wiplink)</text>
</a>
</g>
</g>
<!-- wipitem&#45;&gt;home -->
<g id="edge16" class="edge">
<title>wipitem&#45;&gt;home</title>
<g id="a_edge16"><a xlink:href="docs/safe.goHome.html" xlink:title="goHome, self (safe)" target="_parent">
<path fill="none" stroke="black" d="M1425.45,-316.82C1410.64,-267.98 1372.62,-146.58 1357.5,-135 1288.66,-82.3 1030.21,-66.06 912.08,-61.32"/>
<polygon fill="black" stroke="black" points="911.9,-57.81 901.78,-60.93 911.63,-64.81 911.9,-57.81"/>
</a>
</g>
<g id="a_edge16&#45;label"><a xlink:href="docs/safe.goHome.html" xlink:title="goHome, self (safe)" target="_parent">
<text text-anchor="start" x="1389.5" y="-184.6" font-family="Times,serif" font-size="13.00">goHome, self (safe)</text>
</a>
</g>
</g>
<!-- wipitem&#45;&gt;wipitem -->
<g id="edge17" class="edge">
<title>wipitem&#45;&gt;wipitem</title>
<path fill="none" stroke="black" d="M1469.11,-354.75C1479.27,-353.87 1487,-348.28 1487,-338 1487,-331.41 1483.83,-326.75 1478.88,-324.02"/>
<polygon fill="black" stroke="black" points="1479.69,-320.62 1469.11,-321.25 1477.78,-327.35 1479.69,-320.62"/>
<g id="a_edge17_10"><a xlink:href="docs/idempotent.doShareWIP.html" xlink:title="&lt;TABLE&gt;">
<text text-anchor="start" x="1491.5" y="-374.6" font-family="Times,serif" font-size="13.00">doShareWIP (idempotent)</text>
</a>
</g>
<g id="a_edge17_11"><a xlink:href="docs/idempotent.doStatusWIP.html" xlink:title="&lt;TABLE&gt;">
<text text-anchor="start" x="1491.5" y="-354.6" font-family="Times,serif" font-size="13.00">doStatusWIP (idempotent)</text>
</a>
</g>
<g id="a_edge17_12"><a xlink:href="docs/idempotent.doSubmitWIP.html" xlink:title="&lt;TABLE&gt;">
<text text-anchor="start" x="1491.5" y="-334.6" font-family="Times,serif" font-size="13.00">doSubmitWIP (idempotent)</text>
</a>
</g>
<g id="a_edge17_13"><a xlink:href="docs/idempotent.doUpdateWIP.html" xlink:title="&lt;TABLE&gt;">
<text text-anchor="start" x="1491.5" y="-314.6" font-family="Times,serif" font-size="13.00">doUpdateWIP (idempotent)</text>
</a>
</g>
<g id="a_edge17_14"><a xlink:href="docs/safe.goReadWIP.html" xlink:title="&lt;TABLE&gt;">
<text text-anchor="start" x="1491.5" y="-294.6" font-family="Times,serif" font-size="13.00">goReadWIP (safe)</text>
</a>
</g>
</g>
<!-- wiplist -->
<g id="node8" class="node">
<title>wiplist</title>
<g id="a_node8"><a xlink:href="docs/semantic.wiplist.html" xlink:title="&lt;TABLE&gt;" target="_parent">
<polygon fill="lightgray" stroke="black" stroke-width="2" points="1620,-209 1545,-209 1545,-167 1620,-167 1620,-209"/>
<text text-anchor="start" x="1558.5" y="-191.8" font-family="Times,serif" font-size="14.00">wiplist</text>
<text text-anchor="start" x="1551.5" y="-176.8" font-family="Times,serif" font-size="14.00">(wiplink)</text>
</a>
</g>
</g>
<!-- wipitem&#45;&gt;wiplist -->
<g id="edge18" class="edge">
<title>wipitem&#45;&gt;wiplist</title>
<path fill="none" stroke="black" d="M1424.81,-316.94C1418.1,-292.68 1411.48,-252 1432.5,-227 1461,-193.1 1487.87,-221 1530.5,-209 1531.95,-208.59 1533.43,-208.16 1534.91,-207.7"/>
<polygon fill="black" stroke="black" points="1536.32,-210.92 1544.72,-204.46 1534.13,-204.27 1536.32,-210.92"/>
<g id="a_edge18_15"><a xlink:href="docs/idempotent.doCancelWIP.html" xlink:title="&lt;TABLE&gt;">
<text text-anchor="start" x="1436.5" y="-254.6" font-family="Times,serif" font-size="13.00">doCancelWIP (idempotent)</text>
</a>
</g>
<g id="a_edge18_16"><a xlink:href="docs/safe.goListWIP.html" xlink:title="&lt;TABLE&gt;">
<text text-anchor="start" x="1436.5" y="-234.6" font-family="Times,serif" font-size="13.00">goListWIP (safe)</text>
</a>
</g>
</g>
<!-- wiplist&#45;&gt;home -->
<g id="edge19" class="edge">
<title>wiplist&#45;&gt;home</title>
<g id="a_edge19"><a xlink:href="docs/safe.goHome.html" xlink:title="goHome, self (safe)" target="_parent">
<path fill="none" stroke="black" d="M1544.89,-172.01C1540.07,-170.25 1535.19,-168.53 1530.5,-167 1478.85,-150.11 1465.76,-145.76 1412.5,-135 1231.68,-98.46 1014.35,-74.86 911.71,-64.91"/>
<polygon fill="black" stroke="black" points="911.84,-61.41 901.55,-63.93 911.17,-68.37 911.84,-61.41"/>
</a>
</g>
<g id="a_edge19&#45;label"><a xlink:href="docs/safe.goHome.html" xlink:title="goHome, self (safe)" target="_parent">
<text text-anchor="start" x="1471.5" y="-138.6" font-family="Times,serif" font-size="13.00">goHome, self (safe)</text>
</a>
</g>
</g>
<!-- wiplist&#45;&gt;wipitem -->
<g id="edge20" class="edge">
<title>wiplist&#45;&gt;wipitem</title>
<path fill="none" stroke="black" d="M1606.7,-209.02C1611.51,-214.32 1615.88,-220.42 1618.5,-227 1625.41,-244.34 1629.21,-253.71 1618.5,-269 1587.24,-313.63 1523.52,-329.07 1479.2,-334.36"/>
<polygon fill="black" stroke="black" points="1478.8,-330.88 1469.23,-335.42 1479.54,-337.84 1478.8,-330.88"/>
<g id="a_edge20_17"><a xlink:href="docs/idempotent.doCreateWIP.html" xlink:title="&lt;TABLE&gt;">
<text text-anchor="start" x="1629" y="-254.6" font-family="Times,serif" font-size="13.00">doCreateWIP (idempotent)</text>
</a>
</g>
<g id="a_edge20_18"><a xlink:href="docs/safe.goReadWIP.html" xlink:title="&lt;TABLE&gt;">
<text text-anchor="start" x="1629" y="-234.6" font-family="Times,serif" font-size="13.00">goReadWIP (safe)</text>
</a>
</g>
</g>
<!-- wiplist&#45;&gt;wiplist -->
<g id="edge21" class="edge">
<title>wiplist&#45;&gt;wiplist</title>
<path fill="none" stroke="black" d="M1620.11,-196.56C1630.27,-196.11 1638,-193.26 1638,-188 1638,-184.72 1634.98,-182.37 1630.24,-180.96"/>
<polygon fill="black" stroke="black" points="1630.52,-177.46 1620.11,-179.44 1629.48,-184.39 1630.52,-177.46"/>
<g id="a_edge21_19"><a xlink:href="docs/safe.goFilterWIP.html" xlink:title="&lt;TABLE&gt;">
<text text-anchor="start" x="1642" y="-194.6" font-family="Times,serif" font-size="13.00">goFilterWIP (safe)</text>
</a>
</g>
<g id="a_edge21_20"><a xlink:href="docs/safe.goListWIP.html" xlink:title="&lt;TABLE&gt;">
<text text-anchor="start" x="1642" y="-174.6" font-family="Times,serif" font-size="13.00">goListWIP (safe)</text>
</a>
</g>
</g>
<!-- completed&#45;&gt;home -->
<g id="edge2" class="edge">
<title>completed&#45;&gt;home</title>
<g id="a_edge2"><a xlink:href="docs/safe.goHome.html" xlink:title="goHome, self (safe)" target="_parent">
<path fill="none" stroke="black" d="M510.23,-169.66C508.57,-158.53 508.64,-144.44 516.5,-135 551.31,-93.17 706.52,-72.65 793.29,-64.29"/>
<polygon fill="black" stroke="black" points="793.63,-67.77 803.26,-63.35 792.98,-60.8 793.63,-67.77"/>
</a>
</g>
<g id="a_edge2&#45;label"><a xlink:href="docs/safe.goHome.html" xlink:title="goHome, self (safe)" target="_parent">
<text text-anchor="start" x="516.5" y="-138.6" font-family="Times,serif" font-size="13.00">goHome, self (safe)</text>
</a>
</g>
</g>
<!-- completed&#45;&gt;inputForm -->
<g id="edge3" class="edge">
<title>completed&#45;&gt;inputForm</title>
<g id="a_edge3"><a xlink:href="docs/safe.goForm.html" xlink:title="goForm, form (safe)" target="_parent">
<path fill="none" stroke="black" d="M514.47,-206.08C513.5,-224.13 509.16,-252.25 492.5,-269 442.92,-318.86 359.89,-332.89 305.16,-336.45"/>
<polygon fill="black" stroke="black" points="304.73,-332.97 294.94,-337.01 305.12,-339.95 304.73,-332.97"/>
</a>
</g>
<g id="a_edge3&#45;label"><a xlink:href="docs/safe.goForm.html" xlink:title="goForm, form (safe)" target="_parent">
<text text-anchor="start" x="511.5" y="-244.6" font-family="Times,serif" font-size="13.00">goForm, form (safe)</text>
</a>
</g>
</g>
<!-- exitList&#45;&gt;home -->
<g id="edge4" class="edge">
<title>exitList&#45;&gt;home</title>
<g id="a_edge4"><a xlink:href="docs/safe.goHome.html" xlink:title="goHome, self (safe)" target="_parent">
<path fill="none" stroke="black" d="M804.8,-173.69C787.45,-164.85 771.65,-151.78 778.5,-135 782.74,-124.62 789.17,-114.89 796.51,-106.1"/>
<polygon fill="black" stroke="black" points="799.13,-108.42 803.15,-98.62 793.89,-103.77 799.13,-108.42"/>
</a>
</g>
<g id="a_edge4&#45;label"><a xlink:href="docs/safe.goHome.html" xlink:title="goHome, self (safe)" target="_parent">
<text text-anchor="start" x="778.5" y="-138.6" font-family="Times,serif" font-size="13.00">goHome, self (safe)</text>
</a>
</g>
</g>
<!-- selectRecord&#45;&gt;home -->
<g id="edge15" class="edge">
<title>selectRecord&#45;&gt;home</title>
<g id="a_edge15"><a xlink:href="docs/safe.goHome.html" xlink:title="goHome, self (safe)" target="_parent">
<path fill="none" stroke="black" d="M935.55,-169.8C926.71,-158.06 914.38,-141.69 901.93,-125.15"/>
<polygon fill="black" stroke="black" points="904.63,-122.91 895.82,-117.03 899.04,-127.12 904.63,-122.91"/>
</a>
</g>
<g id="a_edge15&#45;label"><a xlink:href="docs/safe.goHome.html" xlink:title="goHome, self (safe)" target="_parent">
<text text-anchor="start" x="916.5" y="-138.6" font-family="Times,serif" font-size="13.00">goHome, self (safe)</text>
</a>
</g>
</g>
</g>
</svg>
