<?xml version="1.0" encoding="UTF-8" standalone="no"?>
<!DOCTYPE svg PUBLIC "-//W3C//DTD SVG 1.1//EN"
 "http://www.w3.org/Graphics/SVG/1.1/DTD/svg11.dtd">
<!-- Generated by graphviz version 2.43.0 (0)
 -->
<!-- Title: application_state_diagram Pages: 1 -->
<svg width="3456pt" height="789pt"
 viewBox="0.00 0.00 3456.35 789.00" xmlns="http://www.w3.org/2000/svg" xmlns:xlink="http://www.w3.org/1999/xlink">
<g id="graph0" class="graph" transform="scale(1 1) rotate(0) translate(4 785)">
<title>application_state_diagram</title>
<g id="a_graph0"><a xlink:href="index.html" xlink:title="Combined Semantic Profiles for RWMBook" target="_parent">
<polygon fill="white" stroke="transparent" points="-4,4 -4,-785 3452.35,-785 3452.35,4 -4,4"/>
<text text-anchor="middle" x="1724.18" y="-765.8" font-family="Helvetica,sans-Serif" font-size="14.00">Combined Semantic Profiles for RWMBook</text>
</a>
</g>
<!-- apisJSON -->
<g id="node1" class="node">
<title>apisJSON</title>
<g id="a_node1"><a xlink:href="docs/semantic.apisJSON.html" xlink:title="&lt;TABLE&gt;" target="_parent">
<polygon fill="lightgray" stroke="black" stroke-width="2" points="1676.35,-758 1556.35,-758 1556.35,-521 1676.35,-521 1676.35,-758"/>
<text text-anchor="start" x="1582.35" y="-740.3" font-family="Times,serif" font-size="14.00">apisJSON</text>
<text text-anchor="start" x="1591.35" y="-725.3" font-family="Times,serif" font-size="14.00">(name)</text>
<text text-anchor="start" x="1570.85" y="-710.3" font-family="Times,serif" font-size="14.00">(description)</text>
<text text-anchor="start" x="1588.85" y="-695.3" font-family="Times,serif" font-size="14.00">(image)</text>
<text text-anchor="start" x="1600.85" y="-680.3" font-family="Times,serif" font-size="14.00">(url)</text>
<text text-anchor="start" x="1595.35" y="-665.3" font-family="Times,serif" font-size="14.00">(tags)</text>
<text text-anchor="start" x="1583.85" y="-650.3" font-family="Times,serif" font-size="14.00">(created)</text>
<text text-anchor="start" x="1579.85" y="-635.3" font-family="Times,serif" font-size="14.00">(modified)</text>
<text text-anchor="start" x="1596.35" y="-620.3" font-family="Times,serif" font-size="14.00">(apis)</text>
<text text-anchor="start" x="1593.35" y="-605.3" font-family="Times,serif" font-size="14.00">(tools)</text>
<text text-anchor="start" x="1562.35" y="-590.3" font-family="Times,serif" font-size="14.00">(specifications)</text>
<text text-anchor="start" x="1575.85" y="-575.3" font-family="Times,serif" font-size="14.00">(resources)</text>
<text text-anchor="start" x="1580.85" y="-560.3" font-family="Times,serif" font-size="14.00">(common)</text>
<text text-anchor="start" x="1584.85" y="-545.3" font-family="Times,serif" font-size="14.00">(include)</text>
<text text-anchor="start" x="1567.85" y="-530.3" font-family="Times,serif" font-size="14.00">(maintainers)</text>
</a>
</g>
</g>
<!-- home -->
<g id="node11" class="node">
<title>home</title>
<g id="a_node11"><a xlink:href="docs/semantic.home.html" xlink:title="home" target="_parent">
<polygon fill="lightgray" stroke="black" stroke-width="2" points="1644.35,-471 1588.35,-471 1588.35,-435 1644.35,-435 1644.35,-471"/>
<text text-anchor="middle" x="1616.35" y="-449.3" font-family="Times,serif" font-size="14.00">home</text>
</a>
</g>
</g>
<!-- apisJSON&#45;&gt;home -->
<g id="edge1" class="edge">
<title>apisJSON&#45;&gt;home</title>
<g id="a_edge1"><a xlink:href="docs/safe.goHome.html" xlink:title="goHome, home (safe)" target="_parent">
<path fill="none" stroke="black" d="M1556.24,-581.78C1533.39,-553.26 1517.02,-518.56 1536.35,-489 1545.84,-474.5 1562.79,-465.97 1578.67,-460.97"/>
<polygon fill="black" stroke="black" points="1579.63,-464.34 1588.33,-458.29 1577.76,-457.59 1579.63,-464.34"/>
</a>
</g>
<g id="a_edge1&#45;label"><a xlink:href="docs/safe.goHome.html" xlink:title="goHome, home (safe)" target="_parent">
<text text-anchor="start" x="1536.35" y="-492.6" font-family="Times,serif" font-size="13.00">goHome, home (safe)</text>
</a>
</g>
</g>
<!-- clientMetaPreferences -->
<g id="node2" class="node">
<title>clientMetaPreferences</title>
<g id="a_node2"><a xlink:href="docs/semantic.clientMetaPreferences.html" xlink:title="&lt;TABLE&gt;" target="_parent">
<polygon fill="lightgray" stroke="black" stroke-width="2" points="219.85,-289.5 44.85,-289.5 44.85,-247.5 219.85,-247.5 219.85,-289.5"/>
<text text-anchor="start" x="51.35" y="-272.3" font-family="Times,serif" font-size="14.00">clientMetaPreferences</text>
<text text-anchor="start" x="66.35" y="-257.3" font-family="Times,serif" font-size="14.00">(MetaPreferences)</text>
</a>
</g>
</g>
<!-- clientMetaPreferences&#45;&gt;home -->
<g id="edge2" class="edge">
<title>clientMetaPreferences&#45;&gt;home</title>
<g id="a_edge2"><a xlink:href="docs/safe.goHome.html" xlink:title="goHome, home (safe)" target="_parent">
<path fill="none" stroke="black" d="M152.31,-289.66C172.29,-310.28 203.42,-343.66 227.35,-375 240.82,-392.64 235.01,-406.12 254.35,-417 313.55,-450.31 1363.47,-452.02 1578.19,-452.02"/>
<polygon fill="black" stroke="black" points="1578.34,-455.52 1588.34,-452.02 1578.34,-448.52 1578.34,-455.52"/>
</a>
</g>
<g id="a_edge2&#45;label"><a xlink:href="docs/safe.goHome.html" xlink:title="goHome, home (safe)" target="_parent">
<text text-anchor="start" x="254.35" y="-392.6" font-family="Times,serif" font-size="13.00">goHome, home (safe)</text>
</a>
</g>
</g>
<!-- health -->
<g id="node3" class="node">
<title>health</title>
<g id="a_node3"><a xlink:href="docs/semantic.health.html" xlink:title="&lt;TABLE&gt;" target="_parent">
<polygon fill="lightgray" stroke="black" stroke-width="2" points="550.85,-349.5 447.85,-349.5 447.85,-187.5 550.85,-187.5 550.85,-349.5"/>
<text text-anchor="start" x="476.85" y="-332.3" font-family="Times,serif" font-size="14.00">health</text>
<text text-anchor="start" x="472.35" y="-317.3" font-family="Times,serif" font-size="14.00">(status)</text>
<text text-anchor="start" x="467.85" y="-302.3" font-family="Times,serif" font-size="14.00">(version)</text>
<text text-anchor="start" x="461.35" y="-287.3" font-family="Times,serif" font-size="14.00">(releaseId)</text>
<text text-anchor="start" x="474.85" y="-272.3" font-family="Times,serif" font-size="14.00">(notes)</text>
<text text-anchor="start" x="470.85" y="-257.3" font-family="Times,serif" font-size="14.00">(output)</text>
<text text-anchor="start" x="470.35" y="-242.3" font-family="Times,serif" font-size="14.00">(checks)</text>
<text text-anchor="start" x="477.35" y="-227.3" font-family="Times,serif" font-size="14.00">(links)</text>
<text text-anchor="start" x="461.85" y="-212.3" font-family="Times,serif" font-size="14.00">(serviceId)</text>
<text text-anchor="start" x="454.35" y="-197.3" font-family="Times,serif" font-size="14.00">(description)</text>
</a>
</g>
</g>
<!-- health&#45;&gt;home -->
<g id="edge6" class="edge">
<title>health&#45;&gt;home</title>
<g id="a_edge6"><a xlink:href="docs/safe.goHome.html" xlink:title="goHome, home (safe)" target="_parent">
<path fill="none" stroke="black" d="M550.11,-349.56C555.33,-358.11 560.49,-366.7 565.35,-375 576.11,-393.36 570.23,-405.84 588.35,-417 631.24,-443.41 1397.09,-450.45 1578.19,-451.75"/>
<polygon fill="black" stroke="black" points="1578.29,-455.25 1588.31,-451.83 1578.34,-448.25 1578.29,-455.25"/>
</a>
</g>
<g id="a_edge6&#45;label"><a xlink:href="docs/safe.goHome.html" xlink:title="goHome, home (safe)" target="_parent">
<text text-anchor="start" x="588.35" y="-392.6" font-family="Times,serif" font-size="13.00">goHome, home (safe)</text>
</a>
</g>
</g>
<!-- inputForm -->
<g id="node4" class="node">
<title>inputForm</title>
<g id="a_node4"><a xlink:href="docs/semantic.inputForm.html" xlink:title="&lt;TABLE&gt;" target="_parent">
<polygon fill="lightgray" stroke="black" stroke-width="2" points="988.35,-319.5 900.35,-319.5 900.35,-217.5 988.35,-217.5 988.35,-319.5"/>
<text text-anchor="start" x="906.35" y="-302.3" font-family="Times,serif" font-size="14.00">inputForm</text>
<text text-anchor="start" x="924.35" y="-287.3" font-family="Times,serif" font-size="14.00">(href)</text>
<text text-anchor="start" x="928.85" y="-272.3" font-family="Times,serif" font-size="14.00">(rel)</text>
<text text-anchor="start" x="924.35" y="-257.3" font-family="Times,serif" font-size="14.00">(title)</text>
<text text-anchor="start" x="922.85" y="-242.3" font-family="Times,serif" font-size="14.00">(type)</text>
<text text-anchor="start" x="919.85" y="-227.3" font-family="Times,serif" font-size="14.00">(input)</text>
</a>
</g>
</g>
<!-- inputForm&#45;&gt;inputForm -->
<g id="edge18" class="edge">
<title>inputForm&#45;&gt;inputForm</title>
<path fill="none" stroke="black" d="M988.38,-291.66C998.72,-289.75 1006.35,-282.04 1006.35,-268.5 1006.35,-259.62 1003.07,-253.24 997.88,-249.37"/>
<polygon fill="black" stroke="black" points="998.95,-246.02 988.38,-245.34 996.22,-252.46 998.95,-246.02"/>
<g id="a_edge18_0"><a xlink:href="docs/idempotent.doPartialSubmit.html" xlink:title="&lt;TABLE&gt;">
<text text-anchor="start" x="1010.35" y="-285.1" font-family="Times,serif" font-size="13.00">doPartialSubmit (idempotent)</text>
</a>
</g>
<g id="a_edge18_1"><a xlink:href="docs/idempotent.doResetSubmit.html" xlink:title="&lt;TABLE&gt;">
<text text-anchor="start" x="1010.35" y="-265.1" font-family="Times,serif" font-size="13.00">doResetSubmit (idempotent)</text>
</a>
</g>
<g id="a_edge18_2"><a xlink:href="docs/safe.goForm.html" xlink:title="&lt;TABLE&gt;">
<text text-anchor="start" x="1010.35" y="-245.1" font-family="Times,serif" font-size="13.00">goForm (safe)</text>
</a>
</g>
</g>
<!-- inputForm&#45;&gt;home -->
<g id="edge17" class="edge">
<title>inputForm&#45;&gt;home</title>
<path fill="none" stroke="black" d="M926.73,-319.69C918.99,-351.69 916.36,-391.74 940.35,-417 962.41,-440.23 1437.41,-449.28 1577.68,-451.45"/>
<polygon fill="black" stroke="black" points="1577.9,-454.96 1587.95,-451.61 1578,-447.96 1577.9,-454.96"/>
<g id="a_edge17_3"><a xlink:href="docs/idempotent.doCancelSubmit.html" xlink:title="&lt;TABLE&gt;">
<text text-anchor="start" x="944.35" y="-402.6" font-family="Times,serif" font-size="13.00">doCancelSubmit (idempotent)</text>
</a>
</g>
<g id="a_edge17_4"><a xlink:href="docs/safe.goHome.html" xlink:title="&lt;TABLE&gt;">
<text text-anchor="start" x="944.35" y="-382.6" font-family="Times,serif" font-size="13.00">goHome (safe)</text>
</a>
</g>
</g>
<!-- completed -->
<g id="node12" class="node">
<title>completed</title>
<g id="a_node12"><a xlink:href="docs/semantic.completed.html" xlink:title="completed" target="_parent">
<polygon fill="lightgray" stroke="black" stroke-width="2" points="836.85,-69 745.85,-69 745.85,-33 836.85,-33 836.85,-69"/>
<text text-anchor="middle" x="791.35" y="-47.3" font-family="Times,serif" font-size="14.00">completed</text>
</a>
</g>
</g>
<!-- inputForm&#45;&gt;completed -->
<g id="edge16" class="edge">
<title>inputForm&#45;&gt;completed</title>
<g id="a_edge16"><a xlink:href="docs/idempotent.doFinalSubmit.html" xlink:title="doFinalSubmit, submit (idempotent)" target="_parent">
<path fill="none" stroke="black" d="M947.85,-217.48C947.52,-186.74 942.36,-148.03 922.35,-120 904.17,-94.54 873.53,-77.89 846.46,-67.45"/>
<polygon fill="black" stroke="black" points="847.65,-64.16 837.05,-64.01 845.24,-70.73 847.65,-64.16"/>
</a>
</g>
<g id="a_edge16&#45;label"><a xlink:href="docs/idempotent.doFinalSubmit.html" xlink:title="doFinalSubmit, submit (idempotent)" target="_parent">
<text text-anchor="start" x="941.35" y="-137.6" font-family="Times,serif" font-size="13.00">doFinalSubmit, submit (idempotent)</text>
</a>
</g>
</g>
<!-- list -->
<g id="node5" class="node">
<title>list</title>
<g id="a_node5"><a xlink:href="docs/semantic.list.html" xlink:title="&lt;TABLE&gt;" target="_parent">
<polygon fill="lightgray" stroke="black" stroke-width="2" points="3021.85,-289.5 2946.85,-289.5 2946.85,-247.5 3021.85,-247.5 3021.85,-289.5"/>
<text text-anchor="start" x="2973.35" y="-272.3" font-family="Times,serif" font-size="14.00">list</text>
<text text-anchor="start" x="2953.35" y="-257.3" font-family="Times,serif" font-size="14.00">(navlink)</text>
</a>
</g>
</g>
<!-- list&#45;&gt;list -->
<g id="edge21" class="edge">
<title>list&#45;&gt;list</title>
<path fill="none" stroke="black" d="M3007.16,-289.58C3023.54,-296.45 3039.85,-289.42 3039.85,-268.5 3039.85,-251.83 3029.49,-243.98 3016.99,-244.96"/>
<polygon fill="black" stroke="black" points="3016.01,-241.59 3007.16,-247.42 3017.71,-248.38 3016.01,-241.59"/>
<g id="a_edge21_5"><a xlink:href="docs/safe.goFirst.html" xlink:title="&lt;TABLE&gt;">
<text text-anchor="start" x="3044.35" y="-305.1" font-family="Times,serif" font-size="13.00">goFirst (safe)</text>
</a>
</g>
<g id="a_edge21_6"><a xlink:href="docs/safe.goLast.html" xlink:title="&lt;TABLE&gt;">
<text text-anchor="start" x="3044.35" y="-285.1" font-family="Times,serif" font-size="13.00">goLast (safe)</text>
</a>
</g>
<g id="a_edge21_7"><a xlink:href="docs/safe.goList.html" xlink:title="&lt;TABLE&gt;">
<text text-anchor="start" x="3044.35" y="-265.1" font-family="Times,serif" font-size="13.00">goList (safe)</text>
</a>
</g>
<g id="a_edge21_8"><a xlink:href="docs/safe.goNext.html" xlink:title="&lt;TABLE&gt;">
<text text-anchor="start" x="3044.35" y="-245.1" font-family="Times,serif" font-size="13.00">goNext (safe)</text>
</a>
</g>
<g id="a_edge21_9"><a xlink:href="docs/safe.goPrevious.html" xlink:title="&lt;TABLE&gt;">
<text text-anchor="start" x="3044.35" y="-225.1" font-family="Times,serif" font-size="13.00">goPrevious (safe)</text>
</a>
</g>
</g>
<!-- list&#45;&gt;home -->
<g id="edge20" class="edge">
<title>list&#45;&gt;home</title>
<g id="a_edge20"><a xlink:href="docs/safe.goHome.html" xlink:title="goHome, home (safe)" target="_parent">
<path fill="none" stroke="black" d="M2992.07,-289.67C3002.77,-321.49 3017.33,-383.17 2984.35,-417 2960.49,-441.48 1873.11,-450.24 1654.42,-451.75"/>
<polygon fill="black" stroke="black" points="1654.36,-448.25 1644.39,-451.82 1654.41,-455.25 1654.36,-448.25"/>
</a>
</g>
<g id="a_edge20&#45;label"><a xlink:href="docs/safe.goHome.html" xlink:title="goHome, home (safe)" target="_parent">
<text text-anchor="start" x="3003.35" y="-392.6" font-family="Times,serif" font-size="13.00">goHome, home (safe)</text>
</a>
</g>
</g>
<!-- exitList -->
<g id="node13" class="node">
<title>exitList</title>
<g id="a_node13"><a xlink:href="docs/semantic.exitList.html" xlink:title="exitList" target="_parent">
<polygon fill="lightgray" stroke="black" stroke-width="2" points="2817.85,-69 2746.85,-69 2746.85,-33 2817.85,-33 2817.85,-69"/>
<text text-anchor="middle" x="2782.35" y="-47.3" font-family="Times,serif" font-size="14.00">exitList</text>
</a>
</g>
</g>
<!-- list&#45;&gt;exitList -->
<g id="edge19" class="edge">
<title>list&#45;&gt;exitList</title>
<g id="a_edge19"><a xlink:href="docs/safe.goExit.html" xlink:title="goExit, collection nav exit (safe)" target="_parent">
<path fill="none" stroke="black" d="M2973.1,-247.18C2960.6,-226.68 2938.42,-195.85 2910.35,-180 2866.45,-155.21 2833.74,-197.91 2798.35,-162 2777.23,-140.56 2775.91,-104.43 2778.09,-79.46"/>
<polygon fill="black" stroke="black" points="2781.61,-79.52 2779.24,-69.19 2774.65,-78.74 2781.61,-79.52"/>
</a>
</g>
<g id="a_edge19&#45;label"><a xlink:href="docs/safe.goExit.html" xlink:title="goExit, collection nav exit (safe)" target="_parent">
<text text-anchor="start" x="2798.35" y="-137.6" font-family="Times,serif" font-size="13.00">goExit, collection nav exit (safe)</text>
</a>
</g>
</g>
<!-- selectRecord -->
<g id="node14" class="node">
<title>selectRecord</title>
<g id="a_node14"><a xlink:href="docs/semantic.selectRecord.html" xlink:title="selectRecord" target="_parent">
<polygon fill="lightgray" stroke="black" stroke-width="2" points="3220.85,-69 3111.85,-69 3111.85,-33 3220.85,-33 3220.85,-69"/>
<text text-anchor="middle" x="3166.35" y="-47.3" font-family="Times,serif" font-size="14.00">selectRecord</text>
</a>
</g>
</g>
<!-- list&#45;&gt;selectRecord -->
<g id="edge22" class="edge">
<title>list&#45;&gt;selectRecord</title>
<g id="a_edge22"><a xlink:href="docs/safe.goSelect.html" xlink:title="goSelect, collection nav select (safe)" target="_parent">
<path fill="none" stroke="black" d="M2989.8,-247.32C2999.72,-211.7 3021.29,-139.58 3038.35,-120 3056.3,-99.4 3082.05,-84.04 3105.76,-73.18"/>
<polygon fill="black" stroke="black" points="3107.32,-76.32 3115.07,-69.09 3104.5,-69.91 3107.32,-76.32"/>
</a>
</g>
<g id="a_edge22&#45;label"><a xlink:href="docs/safe.goSelect.html" xlink:title="goSelect, collection nav select (safe)" target="_parent">
<text text-anchor="start" x="3038.35" y="-137.6" font-family="Times,serif" font-size="13.00">goSelect, collection nav select (safe)</text>
</a>
</g>
</g>
<!-- mru -->
<g id="node6" class="node">
<title>mru</title>
<g id="a_node6"><a xlink:href="docs/semantic.mru.html" xlink:title="&lt;TABLE&gt;" target="_parent">
<polygon fill="lightgray" stroke="black" stroke-width="2" points="1326.85,-289.5 1247.85,-289.5 1247.85,-247.5 1326.85,-247.5 1326.85,-289.5"/>
<text text-anchor="start" x="1272.85" y="-272.3" font-family="Times,serif" font-size="14.00">mru</text>
<text text-anchor="start" x="1254.35" y="-257.3" font-family="Times,serif" font-size="14.00">(mrulink)</text>
</a>
</g>
</g>
<!-- mru&#45;&gt;mru -->
<g id="edge24" class="edge">
<title>mru&#45;&gt;mru</title>
<g id="a_edge24"><a xlink:href="docs/safe.goMRU.html" xlink:title="goMRU, mru (safe)" target="_parent">
<path fill="none" stroke="black" d="M1310.98,-289.58C1327.95,-296.45 1344.85,-289.42 1344.85,-268.5 1344.85,-251.67 1333.91,-243.83 1320.79,-244.99"/>
<polygon fill="black" stroke="black" points="1319.84,-241.62 1310.98,-247.42 1321.53,-248.41 1319.84,-241.62"/>
</a>
</g>
<g id="a_edge24&#45;label"><a xlink:href="docs/safe.goMRU.html" xlink:title="goMRU, mru (safe)" target="_parent">
<text text-anchor="start" x="1344.85" y="-265.1" font-family="Times,serif" font-size="13.00">goMRU, mru (safe)</text>
</a>
</g>
</g>
<!-- mru&#45;&gt;home -->
<g id="edge23" class="edge">
<title>mru&#45;&gt;home</title>
<g id="a_edge23"><a xlink:href="docs/safe.goHome.html" xlink:title="goHome, home (safe)" target="_parent">
<path fill="none" stroke="black" d="M1285.09,-289.72C1282.73,-321.89 1283.46,-384.41 1319.35,-417 1356.37,-450.61 1505.81,-453.46 1577.55,-452.81"/>
<polygon fill="black" stroke="black" points="1578,-456.3 1587.96,-452.68 1577.92,-449.3 1578,-456.3"/>
</a>
</g>
<g id="a_edge23&#45;label"><a xlink:href="docs/safe.goHome.html" xlink:title="goHome, home (safe)" target="_parent">
<text text-anchor="start" x="1319.35" y="-392.6" font-family="Times,serif" font-size="13.00">goHome, home (safe)</text>
</a>
</g>
</g>
<!-- queryMetadata -->
<g id="node7" class="node">
<title>queryMetadata</title>
<g id="a_node7"><a xlink:href="docs/semantic.queryMetadata.html" xlink:title="&lt;TABLE&gt;" target="_parent">
<polygon fill="lightgray" stroke="black" stroke-width="2" points="1718.35,-357 1596.35,-357 1596.35,-180 1718.35,-180 1718.35,-357"/>
<text text-anchor="start" x="1602.35" y="-339.3" font-family="Times,serif" font-size="14.00">queryMetadata</text>
<text text-anchor="start" x="1622.85" y="-324.3" font-family="Times,serif" font-size="14.00">(q&#45;status)</text>
<text text-anchor="start" x="1629.85" y="-309.3" font-family="Times,serif" font-size="14.00">(q&#45;sent)</text>
<text text-anchor="start" x="1612.85" y="-294.3" font-family="Times,serif" font-size="14.00">(q&#45;executed)</text>
<text text-anchor="start" x="1625.35" y="-279.3" font-family="Times,serif" font-size="14.00">(q&#45;count)</text>
<text text-anchor="start" x="1616.35" y="-264.3" font-family="Times,serif" font-size="14.00">(q&#45;seconds)</text>
<text text-anchor="start" x="1613.35" y="-249.3" font-family="Times,serif" font-size="14.00">(q&#45;datetime)</text>
<text text-anchor="start" x="1625.85" y="-234.3" font-family="Times,serif" font-size="14.00">(q&#45;score)</text>
<text text-anchor="start" x="1621.35" y="-219.3" font-family="Times,serif" font-size="14.00">(q&#45;source)</text>
<text text-anchor="start" x="1616.85" y="-204.3" font-family="Times,serif" font-size="14.00">(q&#45;suggest)</text>
<text text-anchor="start" x="1616.85" y="-189.3" font-family="Times,serif" font-size="14.00">(q&#45;location)</text>
</a>
</g>
</g>
<!-- queryMetadata&#45;&gt;home -->
<g id="edge25" class="edge">
<title>queryMetadata&#45;&gt;home</title>
<g id="a_edge25"><a xlink:href="docs/safe.goHome.html" xlink:title="goHome, home (safe)" target="_parent">
<path fill="none" stroke="black" d="M1718.63,-323.13C1744.26,-352.08 1763.52,-387.77 1741.35,-417 1730.82,-430.89 1687.34,-440.78 1654.6,-446.43"/>
<polygon fill="black" stroke="black" points="1653.7,-443.03 1644.4,-448.11 1654.84,-449.93 1653.7,-443.03"/>
</a>
</g>
<g id="a_edge25&#45;label"><a xlink:href="docs/safe.goHome.html" xlink:title="goHome, home (safe)" target="_parent">
<text text-anchor="start" x="1751.35" y="-392.6" font-family="Times,serif" font-size="13.00">goHome, home (safe)</text>
</a>
</g>
</g>
<!-- related -->
<g id="node8" class="node">
<title>related</title>
<g id="a_node8"><a xlink:href="docs/semantic.related.html" xlink:title="&lt;TABLE&gt;" target="_parent">
<polygon fill="lightgray" stroke="black" stroke-width="2" points="2059.35,-289.5 1959.35,-289.5 1959.35,-247.5 2059.35,-247.5 2059.35,-289.5"/>
<text text-anchor="start" x="1983.35" y="-272.3" font-family="Times,serif" font-size="14.00">related</text>
<text text-anchor="start" x="1965.35" y="-257.3" font-family="Times,serif" font-size="14.00">(relatedlink)</text>
</a>
</g>
</g>
<!-- related&#45;&gt;home -->
<g id="edge26" class="edge">
<title>related&#45;&gt;home</title>
<g id="a_edge26"><a xlink:href="docs/safe.goHome.html" xlink:title="goHome, home (safe)" target="_parent">
<path fill="none" stroke="black" d="M2029.81,-289.56C2058.83,-320.41 2104.81,-379.79 2070.35,-417 2042.38,-447.21 1759.23,-451.43 1654.78,-451.95"/>
<polygon fill="black" stroke="black" points="1654.66,-448.45 1644.67,-452 1654.69,-455.45 1654.66,-448.45"/>
</a>
</g>
<g id="a_edge26&#45;label"><a xlink:href="docs/safe.goHome.html" xlink:title="goHome, home (safe)" target="_parent">
<text text-anchor="start" x="2083.35" y="-392.6" font-family="Times,serif" font-size="13.00">goHome, home (safe)</text>
</a>
</g>
</g>
<!-- wipitem -->
<g id="node9" class="node">
<title>wipitem</title>
<g id="a_node9"><a xlink:href="docs/semantic.wipitem.html" xlink:title="&lt;TABLE&gt;" target="_parent">
<polygon fill="lightgray" stroke="black" stroke-width="2" points="2427.85,-72 2352.85,-72 2352.85,-30 2427.85,-30 2427.85,-72"/>
<text text-anchor="start" x="2361.85" y="-54.8" font-family="Times,serif" font-size="14.00">wipitem</text>
<text text-anchor="start" x="2359.35" y="-39.8" font-family="Times,serif" font-size="14.00">(wiplink)</text>
</a>
</g>
</g>
<!-- wipitem&#45;&gt;wipitem -->
<g id="edge29" class="edge">
<title>wipitem&#45;&gt;wipitem</title>
<path fill="none" stroke="black" d="M2427.97,-67.75C2438.12,-66.87 2445.85,-61.28 2445.85,-51 2445.85,-44.41 2442.68,-39.75 2437.73,-37.02"/>
<polygon fill="black" stroke="black" points="2438.54,-33.62 2427.97,-34.25 2436.63,-40.35 2438.54,-33.62"/>
<g id="a_edge29_10"><a xlink:href="docs/idempotent.doShareWIP.html" xlink:title="&lt;TABLE&gt;">
<text text-anchor="start" x="2450.35" y="-87.6" font-family="Times,serif" font-size="13.00">doShareWIP (idempotent)</text>
</a>
</g>
<g id="a_edge29_11"><a xlink:href="docs/idempotent.doStatusWIP.html" xlink:title="&lt;TABLE&gt;">
<text text-anchor="start" x="2450.35" y="-67.6" font-family="Times,serif" font-size="13.00">doStatusWIP (idempotent)</text>
</a>
</g>
<g id="a_edge29_12"><a xlink:href="docs/idempotent.doSubmitWIP.html" xlink:title="&lt;TABLE&gt;">
<text text-anchor="start" x="2450.35" y="-47.6" font-family="Times,serif" font-size="13.00">doSubmitWIP (idempotent)</text>
</a>
</g>
<g id="a_edge29_13"><a xlink:href="docs/idempotent.doUpdateWIP.html" xlink:title="&lt;TABLE&gt;">
<text text-anchor="start" x="2450.35" y="-27.6" font-family="Times,serif" font-size="13.00">doUpdateWIP (idempotent)</text>
</a>
</g>
<g id="a_edge29_14"><a xlink:href="docs/safe.goReadWIP.html" xlink:title="&lt;TABLE&gt;">
<text text-anchor="start" x="2450.35" y="-7.6" font-family="Times,serif" font-size="13.00">goReadWIP (safe)</text>
</a>
</g>
</g>
<!-- wiplist -->
<g id="node10" class="node">
<title>wiplist</title>
<g id="a_node10"><a xlink:href="docs/semantic.wiplist.html" xlink:title="&lt;TABLE&gt;" target="_parent">
<polygon fill="lightgray" stroke="black" stroke-width="2" points="2348.85,-289.5 2273.85,-289.5 2273.85,-247.5 2348.85,-247.5 2348.85,-289.5"/>
<text text-anchor="start" x="2287.35" y="-272.3" font-family="Times,serif" font-size="14.00">wiplist</text>
<text text-anchor="start" x="2280.35" y="-257.3" font-family="Times,serif" font-size="14.00">(wiplink)</text>
</a>
</g>
</g>
<!-- wipitem&#45;&gt;wiplist -->
<g id="edge30" class="edge">
<title>wipitem&#45;&gt;wiplist</title>
<path fill="none" stroke="black" d="M2352.78,-51.95C2304.25,-54.16 2221.38,-66.18 2182.35,-120 2148.7,-166.41 2215.24,-215.63 2264.66,-243.85"/>
<polygon fill="black" stroke="black" points="2263.22,-247.06 2273.66,-248.87 2266.63,-240.95 2263.22,-247.06"/>
<g id="a_edge30_15"><a xlink:href="docs/idempotent.doCancelWIP.html" xlink:title="&lt;TABLE&gt;">
<text text-anchor="start" x="2186.35" y="-147.6" font-family="Times,serif" font-size="13.00">doCancelWIP (idempotent)</text>
</a>
</g>
<g id="a_edge30_16"><a xlink:href="docs/safe.goListWIP.html" xlink:title="&lt;TABLE&gt;">
<text text-anchor="start" x="2186.35" y="-127.6" font-family="Times,serif" font-size="13.00">goListWIP (safe)</text>
</a>
</g>
</g>
<!-- wipitem&#45;&gt;home -->
<g id="edge28" class="edge">
<title>wipitem&#45;&gt;home</title>
<g id="a_edge28"><a xlink:href="docs/safe.goHome.html" xlink:title="goHome, home (safe)" target="_parent">
<path fill="none" stroke="black" d="M2427.97,-55.31C2469.38,-61.07 2534.67,-76.86 2569.35,-120 2636.07,-202.98 2539.03,-272.92 2604.35,-357 2617.06,-373.36 2635.87,-357.75 2647.35,-375 2657.69,-390.54 2660.33,-403.58 2647.35,-417 2612.23,-453.34 1837.29,-452.8 1654.66,-452.17"/>
<polygon fill="black" stroke="black" points="1654.47,-448.67 1644.46,-452.13 1654.45,-455.67 1654.47,-448.67"/>
</a>
</g>
<g id="a_edge28&#45;label"><a xlink:href="docs/safe.goHome.html" xlink:title="goHome, home (safe)" target="_parent">
<text text-anchor="start" x="2604.35" y="-265.1" font-family="Times,serif" font-size="13.00">goHome, home (safe)</text>
</a>
</g>
</g>
<!-- wiplist&#45;&gt;wipitem -->
<g id="edge32" class="edge">
<title>wiplist&#45;&gt;wipitem</title>
<path fill="none" stroke="black" d="M2324.62,-247.34C2337.61,-226.71 2357.04,-193.33 2368.35,-162 2377.77,-135.91 2383.52,-104.8 2386.77,-82.33"/>
<polygon fill="black" stroke="black" points="2390.24,-82.74 2388.12,-72.36 2383.31,-81.79 2390.24,-82.74"/>
<g id="a_edge32_17"><a xlink:href="docs/idempotent.doCreateWIP.html" xlink:title="&lt;TABLE&gt;">
<text text-anchor="start" x="2384.85" y="-147.6" font-family="Times,serif" font-size="13.00">doCreateWIP (idempotent)</text>
</a>
</g>
<g id="a_edge32_18"><a xlink:href="docs/safe.goReadWIP.html" xlink:title="&lt;TABLE&gt;">
<text text-anchor="start" x="2384.85" y="-127.6" font-family="Times,serif" font-size="13.00">goReadWIP (safe)</text>
</a>
</g>
</g>
<!-- wiplist&#45;&gt;wiplist -->
<g id="edge33" class="edge">
<title>wiplist&#45;&gt;wiplist</title>
<path fill="none" stroke="black" d="M2334.16,-289.58C2350.54,-296.45 2366.85,-289.42 2366.85,-268.5 2366.85,-251.83 2356.49,-243.98 2343.99,-244.96"/>
<polygon fill="black" stroke="black" points="2343.01,-241.59 2334.16,-247.42 2344.71,-248.38 2343.01,-241.59"/>
<g id="a_edge33_19"><a xlink:href="docs/safe.goFilterWIP.html" xlink:title="&lt;TABLE&gt;">
<text text-anchor="start" x="2370.85" y="-275.1" font-family="Times,serif" font-size="13.00">goFilterWIP (safe)</text>
</a>
</g>
<g id="a_edge33_20"><a xlink:href="docs/safe.goListWIP.html" xlink:title="&lt;TABLE&gt;">
<text text-anchor="start" x="2370.85" y="-255.1" font-family="Times,serif" font-size="13.00">goListWIP (safe)</text>
</a>
</g>
</g>
<!-- wiplist&#45;&gt;home -->
<g id="edge31" class="edge">
<title>wiplist&#45;&gt;home</title>
<g id="a_edge31"><a xlink:href="docs/safe.goHome.html" xlink:title="goHome, home (safe)" target="_parent">
<path fill="none" stroke="black" d="M2300.1,-289.55C2277.56,-329.65 2228.89,-416.05 2227.35,-417 2178.88,-447.07 1781.8,-451.32 1655.07,-451.91"/>
<polygon fill="black" stroke="black" points="1654.68,-448.41 1644.69,-451.95 1654.71,-455.41 1654.68,-448.41"/>
</a>
</g>
<g id="a_edge31&#45;label"><a xlink:href="docs/safe.goHome.html" xlink:title="goHome, home (safe)" target="_parent">
<text text-anchor="start" x="2251.35" y="-392.6" font-family="Times,serif" font-size="13.00">goHome, home (safe)</text>
</a>
</g>
</g>
<!-- home&#45;&gt;apisJSON -->
<g id="edge7" class="edge">
<title>home&#45;&gt;apisJSON</title>
<g id="a_edge7"><a xlink:href="docs/safe.goAPIsJSON.html" xlink:title="goAPIsJSON, service&#45;meta (safe)" target="_parent">
<path fill="none" stroke="black" d="M1644.62,-463.21C1656.64,-468.69 1669.45,-476.97 1676.35,-489 1679.45,-494.4 1677.64,-496.91 1676.35,-503 1675.79,-505.68 1675.16,-508.37 1674.49,-511.07"/>
<polygon fill="black" stroke="black" points="1671.07,-510.29 1671.83,-520.85 1677.83,-512.12 1671.07,-510.29"/>
</a>
</g>
<g id="a_edge7&#45;label"><a xlink:href="docs/safe.goAPIsJSON.html" xlink:title="goAPIsJSON, service&#45;meta (safe)" target="_parent">
<text text-anchor="start" x="1678.35" y="-492.6" font-family="Times,serif" font-size="13.00">goAPIsJSON, service&#45;meta (safe)</text>
</a>
</g>
</g>
<!-- home&#45;&gt;clientMetaPreferences -->
<g id="edge8" class="edge">
<title>home&#45;&gt;clientMetaPreferences</title>
<g id="a_edge8"><a xlink:href="docs/safe.goMetaPreferences.html" xlink:title="goMetaPreferences, meta (safe)" target="_parent">
<path fill="none" stroke="black" d="M1588.03,-451.93C1375.76,-451.32 41.04,-446.32 12.35,-417 -26.85,-376.93 38.75,-325.12 87.37,-294.78"/>
<polygon fill="black" stroke="black" points="89.21,-297.75 95.92,-289.55 85.56,-291.78 89.21,-297.75"/>
</a>
</g>
<g id="a_edge8&#45;label"><a xlink:href="docs/safe.goMetaPreferences.html" xlink:title="goMetaPreferences, meta (safe)" target="_parent">
<text text-anchor="start" x="12.35" y="-392.6" font-family="Times,serif" font-size="13.00">goMetaPreferences, meta (safe)</text>
</a>
</g>
</g>
<!-- home&#45;&gt;health -->
<g id="edge9" class="edge">
<title>home&#45;&gt;health</title>
<g id="a_edge9"><a xlink:href="docs/safe.goHealth.html" xlink:title="goHealth, health (safe)" target="_parent">
<path fill="none" stroke="black" d="M1588.24,-451.72C1408.82,-449.88 430.58,-438.85 409.35,-417 380.79,-387.59 408.37,-347.55 440.29,-316.6"/>
<polygon fill="black" stroke="black" points="442.7,-319.15 447.59,-309.75 437.9,-314.05 442.7,-319.15"/>
</a>
</g>
<g id="a_edge9&#45;label"><a xlink:href="docs/safe.goHealth.html" xlink:title="goHealth, health (safe)" target="_parent">
<text text-anchor="start" x="409.35" y="-392.6" font-family="Times,serif" font-size="13.00">goHealth, health (safe)</text>
</a>
</g>
</g>
<!-- home&#45;&gt;inputForm -->
<g id="edge10" class="edge">
<title>home&#45;&gt;inputForm</title>
<g id="a_edge10"><a xlink:href="docs/safe.goForm.html" xlink:title="goForm, form (safe)" target="_parent">
<path fill="none" stroke="black" d="M1588.04,-451.91C1444.72,-451.3 805.05,-446.92 776.35,-417 763.43,-403.53 764.27,-389.23 776.35,-375 808.43,-337.25 844.75,-383.89 886.35,-357 897.7,-349.67 907.33,-339.25 915.3,-328.14"/>
<polygon fill="black" stroke="black" points="918.4,-329.81 921.07,-319.56 912.59,-325.91 918.4,-329.81"/>
</a>
</g>
<g id="a_edge10&#45;label"><a xlink:href="docs/safe.goForm.html" xlink:title="goForm, form (safe)" target="_parent">
<text text-anchor="start" x="776.35" y="-392.6" font-family="Times,serif" font-size="13.00">goForm, form (safe)</text>
</a>
</g>
</g>
<!-- home&#45;&gt;list -->
<g id="edge11" class="edge">
<title>home&#45;&gt;list</title>
<g id="a_edge11"><a xlink:href="docs/safe.goList.html" xlink:title="goList, collection nav (safe)" target="_parent">
<path fill="none" stroke="black" d="M1644.57,-451.94C1817.44,-451.46 2727.58,-447.52 2777.35,-417 2795.5,-405.88 2782.98,-387.3 2800.35,-375 2840.79,-346.38 2867.25,-381.42 2910.35,-357 2934.67,-343.22 2954.58,-318.22 2967.6,-298.45"/>
<polygon fill="black" stroke="black" points="2970.69,-300.12 2973.09,-289.8 2964.78,-296.37 2970.69,-300.12"/>
</a>
</g>
<g id="a_edge11&#45;label"><a xlink:href="docs/safe.goList.html" xlink:title="goList, collection nav (safe)" target="_parent">
<text text-anchor="start" x="2800.35" y="-392.6" font-family="Times,serif" font-size="13.00">goList, collection nav (safe)</text>
</a>
</g>
</g>
<!-- home&#45;&gt;mru -->
<g id="edge12" class="edge">
<title>home&#45;&gt;mru</title>
<g id="a_edge12"><a xlink:href="docs/safe.goMRU.html" xlink:title="goMRU, mru (safe)" target="_parent">
<path fill="none" stroke="black" d="M1588.12,-452.02C1492.85,-451.78 1187.59,-448.55 1158.35,-417 1145.67,-403.31 1147.18,-389.95 1158.35,-375 1175.28,-352.36 1196,-372.93 1219.35,-357 1241.31,-342.03 1259.37,-317.74 1271.34,-298.55"/>
<polygon fill="black" stroke="black" points="1274.41,-300.24 1276.57,-289.87 1268.41,-296.63 1274.41,-300.24"/>
</a>
</g>
<g id="a_edge12&#45;label"><a xlink:href="docs/safe.goMRU.html" xlink:title="goMRU, mru (safe)" target="_parent">
<text text-anchor="start" x="1158.35" y="-392.6" font-family="Times,serif" font-size="13.00">goMRU, mru (safe)</text>
</a>
</g>
</g>
<!-- home&#45;&gt;queryMetadata -->
<g id="edge13" class="edge">
<title>home&#45;&gt;queryMetadata</title>
<g id="a_edge13"><a xlink:href="docs/safe.goQueryMetadata.html" xlink:title="goQueryMetadata, query&#45;metadata (safe)" target="_parent">
<path fill="none" stroke="black" d="M1588.27,-449.34C1550.06,-445.08 1484.76,-435.27 1470.35,-417 1458.79,-402.34 1460.94,-391.12 1470.35,-375 1495.29,-332.3 1544.6,-305.52 1586.33,-289.63"/>
<polygon fill="black" stroke="black" points="1587.74,-292.84 1595.93,-286.11 1585.33,-286.27 1587.74,-292.84"/>
</a>
</g>
<g id="a_edge13&#45;label"><a xlink:href="docs/safe.goQueryMetadata.html" xlink:title="goQueryMetadata, query&#45;metadata (safe)" target="_parent">
<text text-anchor="start" x="1470.35" y="-392.6" font-family="Times,serif" font-size="13.00">goQueryMetadata, query&#45;metadata (safe)</text>
</a>
</g>
</g>
<!-- home&#45;&gt;related -->
<g id="edge14" class="edge">
<title>home&#45;&gt;related</title>
<g id="a_edge14"><a xlink:href="docs/safe.goRelated.html" xlink:title="goRelated, mru (safe)" target="_parent">
<path fill="none" stroke="black" d="M1644.49,-451.2C1706.55,-449.02 1853.04,-441.35 1895.35,-417 1915.69,-405.29 1913.04,-393.6 1927.35,-375 1947.59,-348.71 1970.8,-318.87 1987.36,-297.65"/>
<polygon fill="black" stroke="black" points="1990.18,-299.72 1993.57,-289.68 1984.66,-295.41 1990.18,-299.72"/>
</a>
</g>
<g id="a_edge14&#45;label"><a xlink:href="docs/safe.goRelated.html" xlink:title="goRelated, mru (safe)" target="_parent">
<text text-anchor="start" x="1927.35" y="-392.6" font-family="Times,serif" font-size="13.00">goRelated, mru (safe)</text>
</a>
</g>
</g>
<!-- home&#45;&gt;wiplist -->
<g id="edge15" class="edge">
<title>home&#45;&gt;wiplist</title>
<g id="a_edge15"><a xlink:href="docs/safe.goListWIP.html" xlink:title="goListWIP, list collection wip (safe)" target="_parent">
<path fill="none" stroke="black" d="M1644.43,-451.81C1780.95,-450.78 2369.86,-444.71 2396.35,-417 2430.91,-380.85 2382.66,-328.05 2345.96,-296.4"/>
<polygon fill="black" stroke="black" points="2347.78,-293.36 2337.87,-289.6 2343.27,-298.72 2347.78,-293.36"/>
</a>
</g>
<g id="a_edge15&#45;label"><a xlink:href="docs/safe.goListWIP.html" xlink:title="goListWIP, list collection wip (safe)" target="_parent">
<text text-anchor="start" x="2408.35" y="-392.6" font-family="Times,serif" font-size="13.00">goListWIP, list collection wip (safe)</text>
</a>
</g>
</g>
<!-- completed&#45;&gt;inputForm -->
<g id="edge4" class="edge">
<title>completed&#45;&gt;inputForm</title>
<g id="a_edge4"><a xlink:href="docs/safe.goForm.html" xlink:title="goForm, form (safe)" target="_parent">
<path fill="none" stroke="black" d="M785.51,-69.14C778.6,-92.91 770.57,-135.9 792.35,-162 819.6,-194.66 850.94,-156.43 886.35,-180 897.48,-187.4 906.98,-197.74 914.89,-208.73"/>
<polygon fill="black" stroke="black" points="912.13,-210.89 920.63,-217.22 917.93,-206.97 912.13,-210.89"/>
</a>
</g>
<g id="a_edge4&#45;label"><a xlink:href="docs/safe.goForm.html" xlink:title="goForm, form (safe)" target="_parent">
<text text-anchor="start" x="792.35" y="-137.6" font-family="Times,serif" font-size="13.00">goForm, form (safe)</text>
</a>
</g>
</g>
<!-- completed&#45;&gt;home -->
<g id="edge3" class="edge">
<title>completed&#45;&gt;home</title>
<g id="a_edge3"><a xlink:href="docs/safe.goHome.html" xlink:title="goHome, home (safe)" target="_parent">
<path fill="none" stroke="black" d="M782.09,-69C751.1,-128.36 658.76,-327.6 763.35,-417 794.67,-443.77 1415.3,-450.44 1577.72,-451.73"/>
<polygon fill="black" stroke="black" points="1578.16,-455.24 1588.18,-451.81 1578.21,-448.24 1578.16,-455.24"/>
</a>
</g>
<g id="a_edge3&#45;label"><a xlink:href="docs/safe.goHome.html" xlink:title="goHome, home (safe)" target="_parent">
<text text-anchor="start" x="734.35" y="-265.1" font-family="Times,serif" font-size="13.00">goHome, home (safe)</text>
</a>
</g>
</g>
<!-- exitList&#45;&gt;home -->
<g id="edge5" class="edge">
<title>exitList&#45;&gt;home</title>
<g id="a_edge5"><a xlink:href="docs/safe.goHome.html" xlink:title="goHome, home (safe)" target="_parent">
<path fill="none" stroke="black" d="M2781.93,-69.13C2780.28,-125.92 2772.83,-307.21 2744.35,-357 2722.64,-394.97 2707.52,-402.23 2666.35,-417 2569.77,-451.65 1831.68,-452.43 1654.5,-452.11"/>
<polygon fill="black" stroke="black" points="1654.36,-448.61 1644.35,-452.09 1654.35,-455.61 1654.36,-448.61"/>
</a>
</g>
<g id="a_edge5&#45;label"><a xlink:href="docs/safe.goHome.html" xlink:title="goHome, home (safe)" target="_parent">
<text text-anchor="start" x="2776.35" y="-265.1" font-family="Times,serif" font-size="13.00">goHome, home (safe)</text>
</a>
</g>
</g>
<!-- selectRecord&#45;&gt;home -->
<g id="edge27" class="edge">
<title>selectRecord&#45;&gt;home</title>
<g id="a_edge27"><a xlink:href="docs/safe.goHome.html" xlink:title="goHome, home (safe)" target="_parent">
<path fill="none" stroke="black" d="M3218.9,-69.01C3242.73,-79.65 3268.6,-96 3282.35,-120 3354.44,-245.81 3270.71,-340.8 3147.35,-417 3081.98,-457.38 1885.9,-453.37 1654.82,-452.22"/>
<polygon fill="black" stroke="black" points="1654.57,-448.71 1644.55,-452.16 1654.53,-455.71 1654.57,-448.71"/>
</a>
</g>
<g id="a_edge27&#45;label"><a xlink:href="docs/safe.goHome.html" xlink:title="goHome, home (safe)" target="_parent">
<text text-anchor="start" x="3308.35" y="-265.1" font-family="Times,serif" font-size="13.00">goHome, home (safe)</text>
</a>
</g>
</g>
</g>
</svg>
