<?xml version="1.0" encoding="UTF-8" standalone="no"?>
<!DOCTYPE svg PUBLIC "-//W3C//DTD SVG 1.1//EN"
 "http://www.w3.org/Graphics/SVG/1.1/DTD/svg11.dtd">
<!-- Generated by graphviz version 2.43.0 (0)
 -->
<!-- Title: application_state_diagram Pages: 1 -->
<svg width="2107pt" height="645pt"
 viewBox="0.00 0.00 2107.00 645.00" xmlns="http://www.w3.org/2000/svg" xmlns:xlink="http://www.w3.org/1999/xlink">
<g id="graph0" class="graph" transform="scale(1 1) rotate(0) translate(4 641)">
<title>application_state_diagram</title>
<g id="a_graph0"><a xlink:href="index.html" xlink:title="Combined Semantic Profiles for RWMBook" target="_parent">
<polygon fill="white" stroke="transparent" points="-4,4 -4,-641 2103,-641 2103,4 -4,4"/>
<text text-anchor="middle" x="1049.5" y="-621.8" font-family="Helvetica,sans-Serif" font-size="14.00">Combined Semantic Profiles for RWMBook</text>
</a>
</g>
<!-- apisJSON -->
<g id="node1" class="node">
<title>apisJSON</title>
<g id="a_node1"><a xlink:href="docs/semantic.apisJSON.html" xlink:title="&lt;TABLE&gt;" target="_parent">
<polygon fill="lightgray" stroke="black" stroke-width="2" points="120,-434 0,-434 0,-197 120,-197 120,-434"/>
<text text-anchor="start" x="26" y="-416.3" font-family="Times,serif" font-size="14.00">apisJSON</text>
<text text-anchor="start" x="35" y="-401.3" font-family="Times,serif" font-size="14.00">(name)</text>
<text text-anchor="start" x="14.5" y="-386.3" font-family="Times,serif" font-size="14.00">(description)</text>
<text text-anchor="start" x="32.5" y="-371.3" font-family="Times,serif" font-size="14.00">(image)</text>
<text text-anchor="start" x="44.5" y="-356.3" font-family="Times,serif" font-size="14.00">(url)</text>
<text text-anchor="start" x="39" y="-341.3" font-family="Times,serif" font-size="14.00">(tags)</text>
<text text-anchor="start" x="27.5" y="-326.3" font-family="Times,serif" font-size="14.00">(created)</text>
<text text-anchor="start" x="23.5" y="-311.3" font-family="Times,serif" font-size="14.00">(modified)</text>
<text text-anchor="start" x="40" y="-296.3" font-family="Times,serif" font-size="14.00">(apis)</text>
<text text-anchor="start" x="37" y="-281.3" font-family="Times,serif" font-size="14.00">(tools)</text>
<text text-anchor="start" x="6" y="-266.3" font-family="Times,serif" font-size="14.00">(specifications)</text>
<text text-anchor="start" x="19.5" y="-251.3" font-family="Times,serif" font-size="14.00">(resources)</text>
<text text-anchor="start" x="24.5" y="-236.3" font-family="Times,serif" font-size="14.00">(common)</text>
<text text-anchor="start" x="28.5" y="-221.3" font-family="Times,serif" font-size="14.00">(include)</text>
<text text-anchor="start" x="11.5" y="-206.3" font-family="Times,serif" font-size="14.00">(maintainers)</text>
</a>
</g>
</g>
<!-- home -->
<g id="node4" class="node">
<title>home</title>
<g id="a_node4"><a xlink:href="docs/semantic.home.html" xlink:title="&lt;TABLE&gt;" target="_parent">
<polygon fill="lightgray" stroke="black" stroke-width="2" points="1040.5,-147 855.5,-147 855.5,0 1040.5,0 1040.5,-147"/>
<text text-anchor="start" x="928.5" y="-129.3" font-family="Times,serif" font-size="14.00">home</text>
<text text-anchor="start" x="862" y="-114.3" font-family="Times,serif" font-size="14.00">(clientMetaPreferences)</text>
<text text-anchor="start" x="920.5" y="-99.3" font-family="Times,serif" font-size="14.00">(health)</text>
<text text-anchor="start" x="909" y="-84.3" font-family="Times,serif" font-size="14.00">(apisJSON)</text>
<text text-anchor="start" x="928.5" y="-69.3" font-family="Times,serif" font-size="14.00">(mru)</text>
<text text-anchor="start" x="917.5" y="-54.3" font-family="Times,serif" font-size="14.00">(related)</text>
<text text-anchor="start" x="931.5" y="-39.3" font-family="Times,serif" font-size="14.00">(list)</text>
<text text-anchor="start" x="919" y="-24.3" font-family="Times,serif" font-size="14.00">(wiplist)</text>
<text text-anchor="start" x="905.5" y="-9.3" font-family="Times,serif" font-size="14.00">(inputForm)</text>
</a>
</g>
</g>
<!-- apisJSON&#45;&gt;home -->
<g id="edge1" class="edge">
<title>apisJSON&#45;&gt;home</title>
<g id="a_edge1"><a xlink:href="docs/safe.goHome.html" xlink:title="goHome, home (safe)" target="_parent">
<path fill="none" stroke="black" d="M63.35,-196.7C67.99,-184.8 74.65,-173.86 84,-165 138.38,-113.52 628.36,-87.45 845.36,-78.35"/>
<polygon fill="black" stroke="black" points="845.64,-81.84 855.49,-77.92 845.35,-74.84 845.64,-81.84"/>
</a>
</g>
<g id="a_edge1&#45;label"><a xlink:href="docs/safe.goHome.html" xlink:title="goHome, home (safe)" target="_parent">
<text text-anchor="start" x="84" y="-168.6" font-family="Times,serif" font-size="13.00">goHome, home (safe)</text>
</a>
</g>
</g>
<!-- clientMetaPreferences -->
<g id="node2" class="node">
<title>clientMetaPreferences</title>
<g id="a_node2"><a xlink:href="docs/semantic.clientMetaPreferences.html" xlink:title="&lt;TABLE&gt;" target="_parent">
<polygon fill="lightgray" stroke="black" stroke-width="2" points="313.5,-336.5 138.5,-336.5 138.5,-294.5 313.5,-294.5 313.5,-336.5"/>
<text text-anchor="start" x="145" y="-319.3" font-family="Times,serif" font-size="14.00">clientMetaPreferences</text>
<text text-anchor="start" x="160" y="-304.3" font-family="Times,serif" font-size="14.00">(MetaPreferences)</text>
</a>
</g>
</g>
<!-- clientMetaPreferences&#45;&gt;home -->
<g id="edge2" class="edge">
<title>clientMetaPreferences&#45;&gt;home</title>
<g id="a_edge2"><a xlink:href="docs/safe.goHome.html" xlink:title="goHome, home (safe)" target="_parent">
<path fill="none" stroke="black" d="M220.42,-294.44C212.88,-262.45 203.87,-199.94 237,-165 278.14,-121.61 658.33,-92.36 845.24,-80.47"/>
<polygon fill="black" stroke="black" points="845.59,-83.96 855.35,-79.84 845.15,-76.97 845.59,-83.96"/>
</a>
</g>
<g id="a_edge2&#45;label"><a xlink:href="docs/safe.goHome.html" xlink:title="goHome, home (safe)" target="_parent">
<text text-anchor="start" x="237" y="-168.6" font-family="Times,serif" font-size="13.00">goHome, home (safe)</text>
</a>
</g>
</g>
<!-- health -->
<g id="node3" class="node">
<title>health</title>
<g id="a_node3"><a xlink:href="docs/semantic.health.html" xlink:title="&lt;TABLE&gt;" target="_parent">
<polygon fill="lightgray" stroke="black" stroke-width="2" points="440.5,-396.5 337.5,-396.5 337.5,-234.5 440.5,-234.5 440.5,-396.5"/>
<text text-anchor="start" x="366.5" y="-379.3" font-family="Times,serif" font-size="14.00">health</text>
<text text-anchor="start" x="362" y="-364.3" font-family="Times,serif" font-size="14.00">(status)</text>
<text text-anchor="start" x="357.5" y="-349.3" font-family="Times,serif" font-size="14.00">(version)</text>
<text text-anchor="start" x="351" y="-334.3" font-family="Times,serif" font-size="14.00">(releaseId)</text>
<text text-anchor="start" x="364.5" y="-319.3" font-family="Times,serif" font-size="14.00">(notes)</text>
<text text-anchor="start" x="360.5" y="-304.3" font-family="Times,serif" font-size="14.00">(output)</text>
<text text-anchor="start" x="360" y="-289.3" font-family="Times,serif" font-size="14.00">(checks)</text>
<text text-anchor="start" x="367" y="-274.3" font-family="Times,serif" font-size="14.00">(links)</text>
<text text-anchor="start" x="351.5" y="-259.3" font-family="Times,serif" font-size="14.00">(serviceId)</text>
<text text-anchor="start" x="344" y="-244.3" font-family="Times,serif" font-size="14.00">(description)</text>
</a>
</g>
</g>
<!-- health&#45;&gt;home -->
<g id="edge6" class="edge">
<title>health&#45;&gt;home</title>
<g id="a_edge6"><a xlink:href="docs/safe.goHome.html" xlink:title="goHome, home (safe)" target="_parent">
<path fill="none" stroke="black" d="M370.69,-234.48C369.6,-209.68 373.79,-183.92 390,-165 447.48,-97.9 700.14,-80.42 844.99,-75.95"/>
<polygon fill="black" stroke="black" points="845.33,-79.44 855.22,-75.65 845.13,-72.45 845.33,-79.44"/>
</a>
</g>
<g id="a_edge6&#45;label"><a xlink:href="docs/safe.goHome.html" xlink:title="goHome, home (safe)" target="_parent">
<text text-anchor="start" x="390" y="-168.6" font-family="Times,serif" font-size="13.00">goHome, home (safe)</text>
</a>
</g>
</g>
<!-- inputForm -->
<g id="node5" class="node">
<title>inputForm</title>
<g id="a_node5"><a xlink:href="docs/semantic.inputForm.html" xlink:title="&lt;TABLE&gt;" target="_parent">
<polygon fill="lightgray" stroke="black" stroke-width="2" points="587,-614 499,-614 499,-512 587,-512 587,-614"/>
<text text-anchor="start" x="505" y="-596.8" font-family="Times,serif" font-size="14.00">inputForm</text>
<text text-anchor="start" x="523" y="-581.8" font-family="Times,serif" font-size="14.00">(href)</text>
<text text-anchor="start" x="527.5" y="-566.8" font-family="Times,serif" font-size="14.00">(rel)</text>
<text text-anchor="start" x="523" y="-551.8" font-family="Times,serif" font-size="14.00">(title)</text>
<text text-anchor="start" x="521.5" y="-536.8" font-family="Times,serif" font-size="14.00">(type)</text>
<text text-anchor="start" x="518.5" y="-521.8" font-family="Times,serif" font-size="14.00">(input)</text>
</a>
</g>
</g>
<!-- inputForm&#45;&gt;home -->
<g id="edge8" class="edge">
<title>inputForm&#45;&gt;home</title>
<path fill="none" stroke="black" d="M521.15,-511.9C491.63,-435.63 450.24,-289.53 520,-197 559.12,-145.11 731.55,-108.53 845.26,-89.54"/>
<polygon fill="black" stroke="black" points="846.09,-92.95 855.39,-87.87 844.95,-86.04 846.09,-92.95"/>
<g id="a_edge8_0"><a xlink:href="docs/idempotent.doCancelSubmit.html" xlink:title="&lt;TABLE&gt;">
<text text-anchor="start" x="524" y="-322.1" font-family="Times,serif" font-size="13.00">doCancelSubmit (idempotent)</text>
</a>
</g>
<g id="a_edge8_1"><a xlink:href="docs/safe.goHome.html" xlink:title="&lt;TABLE&gt;">
<text text-anchor="start" x="524" y="-302.1" font-family="Times,serif" font-size="13.00">goHome (safe)</text>
</a>
</g>
</g>
<!-- inputForm&#45;&gt;inputForm -->
<g id="edge9" class="edge">
<title>inputForm&#45;&gt;inputForm</title>
<path fill="none" stroke="black" d="M587.02,-579.54C597.37,-578.18 605,-572.67 605,-563 605,-556.81 601.87,-552.32 596.9,-549.53"/>
<polygon fill="black" stroke="black" points="597.61,-546.09 587.02,-546.46 595.53,-552.77 597.61,-546.09"/>
<g id="a_edge9_2"><a xlink:href="docs/idempotent.doPartialSubmit.html" xlink:title="&lt;TABLE&gt;">
<text text-anchor="start" x="609" y="-579.6" font-family="Times,serif" font-size="13.00">doPartialSubmit (idempotent)</text>
</a>
</g>
<g id="a_edge9_3"><a xlink:href="docs/idempotent.doResetSubmit.html" xlink:title="&lt;TABLE&gt;">
<text text-anchor="start" x="609" y="-559.6" font-family="Times,serif" font-size="13.00">doResetSubmit (idempotent)</text>
</a>
</g>
<g id="a_edge9_4"><a xlink:href="docs/safe.goForm.html" xlink:title="&lt;TABLE&gt;">
<text text-anchor="start" x="609" y="-539.6" font-family="Times,serif" font-size="13.00">goForm (safe)</text>
</a>
</g>
</g>
<!-- completed -->
<g id="node11" class="node">
<title>completed</title>
<g id="a_node11"><a xlink:href="docs/semantic.completed.html" xlink:title="completed" target="_parent">
<polygon fill="lightgray" stroke="black" stroke-width="2" points="825.5,-333.5 734.5,-333.5 734.5,-297.5 825.5,-297.5 825.5,-333.5"/>
<text text-anchor="middle" x="780" y="-311.8" font-family="Times,serif" font-size="14.00">completed</text>
</a>
</g>
</g>
<!-- inputForm&#45;&gt;completed -->
<g id="edge7" class="edge">
<title>inputForm&#45;&gt;completed</title>
<g id="a_edge7"><a xlink:href="docs/idempotent.doFinalSubmit.html" xlink:title="doFinalSubmit, submit (idempotent)" target="_parent">
<path fill="none" stroke="black" d="M527.59,-511.8C524.42,-490.9 525.64,-467.86 540,-452 566.97,-422.19 686.8,-456.67 720,-434 750.86,-412.92 766.76,-370.99 774.23,-343.34"/>
<polygon fill="black" stroke="black" points="777.65,-344.07 776.69,-333.51 770.86,-342.36 777.65,-344.07"/>
</a>
</g>
<g id="a_edge7&#45;label"><a xlink:href="docs/idempotent.doFinalSubmit.html" xlink:title="doFinalSubmit, submit (idempotent)" target="_parent">
<text text-anchor="start" x="540" y="-469.6" font-family="Times,serif" font-size="13.00">doFinalSubmit, submit (idempotent)</text>
</a>
</g>
</g>
<!-- list -->
<g id="node6" class="node">
<title>list</title>
<g id="a_node6"><a xlink:href="docs/semantic.list.html" xlink:title="&lt;TABLE&gt;" target="_parent">
<polygon fill="lightgray" stroke="black" stroke-width="2" points="1029.5,-584 954.5,-584 954.5,-542 1029.5,-542 1029.5,-584"/>
<text text-anchor="start" x="981" y="-566.8" font-family="Times,serif" font-size="14.00">list</text>
<text text-anchor="start" x="961" y="-551.8" font-family="Times,serif" font-size="14.00">(navlink)</text>
</a>
</g>
</g>
<!-- list&#45;&gt;home -->
<g id="edge11" class="edge">
<title>list&#45;&gt;home</title>
<g id="a_edge11"><a xlink:href="docs/safe.goHome.html" xlink:title="goHome, home (safe)" target="_parent">
<path fill="none" stroke="black" d="M980.56,-541.98C967.28,-517.45 946.13,-474.19 938,-434 919.11,-340.63 926.29,-230.86 935.17,-157.4"/>
<polygon fill="black" stroke="black" points="938.67,-157.64 936.43,-147.28 931.72,-156.77 938.67,-157.64"/>
</a>
</g>
<g id="a_edge11&#45;label"><a xlink:href="docs/safe.goHome.html" xlink:title="goHome, home (safe)" target="_parent">
<text text-anchor="start" x="938" y="-312.1" font-family="Times,serif" font-size="13.00">goHome, home (safe)</text>
</a>
</g>
</g>
<!-- list&#45;&gt;list -->
<g id="edge12" class="edge">
<title>list&#45;&gt;list</title>
<path fill="none" stroke="black" d="M1029.61,-579.75C1039.77,-578.87 1047.5,-573.28 1047.5,-563 1047.5,-556.41 1044.33,-551.75 1039.38,-549.02"/>
<polygon fill="black" stroke="black" points="1040.19,-545.62 1029.61,-546.25 1038.28,-552.35 1040.19,-545.62"/>
<g id="a_edge12_5"><a xlink:href="docs/safe.goFirst.html" xlink:title="&lt;TABLE&gt;">
<text text-anchor="start" x="1052" y="-599.6" font-family="Times,serif" font-size="13.00">goFirst (safe)</text>
</a>
</g>
<g id="a_edge12_6"><a xlink:href="docs/safe.goLast.html" xlink:title="&lt;TABLE&gt;">
<text text-anchor="start" x="1052" y="-579.6" font-family="Times,serif" font-size="13.00">goLast (safe)</text>
</a>
</g>
<g id="a_edge12_7"><a xlink:href="docs/safe.goList.html" xlink:title="&lt;TABLE&gt;">
<text text-anchor="start" x="1052" y="-559.6" font-family="Times,serif" font-size="13.00">goList (safe)</text>
</a>
</g>
<g id="a_edge12_8"><a xlink:href="docs/safe.goNext.html" xlink:title="&lt;TABLE&gt;">
<text text-anchor="start" x="1052" y="-539.6" font-family="Times,serif" font-size="13.00">goNext (safe)</text>
</a>
</g>
<g id="a_edge12_9"><a xlink:href="docs/safe.goPrevious.html" xlink:title="&lt;TABLE&gt;">
<text text-anchor="start" x="1052" y="-519.6" font-family="Times,serif" font-size="13.00">goPrevious (safe)</text>
</a>
</g>
</g>
<!-- exitList -->
<g id="node12" class="node">
<title>exitList</title>
<g id="a_node12"><a xlink:href="docs/semantic.exitList.html" xlink:title="exitList" target="_parent">
<polygon fill="lightgray" stroke="black" stroke-width="2" points="1157.5,-333.5 1086.5,-333.5 1086.5,-297.5 1157.5,-297.5 1157.5,-333.5"/>
<text text-anchor="middle" x="1122" y="-311.8" font-family="Times,serif" font-size="14.00">exitList</text>
</a>
</g>
</g>
<!-- list&#45;&gt;exitList -->
<g id="edge10" class="edge">
<title>list&#45;&gt;exitList</title>
<g id="a_edge10"><a xlink:href="docs/safe.goExit.html" xlink:title="goExit, collection nav exit (safe)" target="_parent">
<path fill="none" stroke="black" d="M985.37,-541.66C978.88,-517.5 972.64,-477.29 993,-452 1015.59,-423.95 1044.37,-457.1 1072,-434 1099.33,-411.16 1112.05,-370.7 1117.73,-343.74"/>
<polygon fill="black" stroke="black" points="1121.19,-344.27 1119.64,-333.79 1114.32,-342.95 1121.19,-344.27"/>
</a>
</g>
<g id="a_edge10&#45;label"><a xlink:href="docs/safe.goExit.html" xlink:title="goExit, collection nav exit (safe)" target="_parent">
<text text-anchor="start" x="993" y="-469.6" font-family="Times,serif" font-size="13.00">goExit, collection nav exit (safe)</text>
</a>
</g>
</g>
<!-- selectRecord -->
<g id="node13" class="node">
<title>selectRecord</title>
<g id="a_node13"><a xlink:href="docs/semantic.selectRecord.html" xlink:title="selectRecord" target="_parent">
<polygon fill="lightgray" stroke="black" stroke-width="2" points="1284.5,-333.5 1175.5,-333.5 1175.5,-297.5 1284.5,-297.5 1284.5,-333.5"/>
<text text-anchor="middle" x="1230" y="-311.8" font-family="Times,serif" font-size="14.00">selectRecord</text>
</a>
</g>
</g>
<!-- list&#45;&gt;selectRecord -->
<g id="edge13" class="edge">
<title>list&#45;&gt;selectRecord</title>
<g id="a_edge13"><a xlink:href="docs/safe.goSelect.html" xlink:title="goSelect, collection nav select (safe)" target="_parent">
<path fill="none" stroke="black" d="M1029.54,-561.78C1078.71,-559.3 1163.84,-547.01 1208,-494 1243.36,-451.55 1240.2,-382.36 1234.98,-344.11"/>
<polygon fill="black" stroke="black" points="1238.36,-343.1 1233.4,-333.74 1231.44,-344.15 1238.36,-343.1"/>
</a>
</g>
<g id="a_edge13&#45;label"><a xlink:href="docs/safe.goSelect.html" xlink:title="goSelect, collection nav select (safe)" target="_parent">
<text text-anchor="start" x="1229" y="-469.6" font-family="Times,serif" font-size="13.00">goSelect, collection nav select (safe)</text>
</a>
</g>
</g>
<!-- mru -->
<g id="node7" class="node">
<title>mru</title>
<g id="a_node7"><a xlink:href="docs/semantic.mru.html" xlink:title="&lt;TABLE&gt;" target="_parent">
<polygon fill="lightgray" stroke="black" stroke-width="2" points="1381.5,-336.5 1302.5,-336.5 1302.5,-294.5 1381.5,-294.5 1381.5,-336.5"/>
<text text-anchor="start" x="1327.5" y="-319.3" font-family="Times,serif" font-size="14.00">mru</text>
<text text-anchor="start" x="1309" y="-304.3" font-family="Times,serif" font-size="14.00">(mrulink)</text>
</a>
</g>
</g>
<!-- mru&#45;&gt;home -->
<g id="edge14" class="edge">
<title>mru&#45;&gt;home</title>
<g id="a_edge14"><a xlink:href="docs/safe.goHome.html" xlink:title="goHome, home (safe)" target="_parent">
<path fill="none" stroke="black" d="M1341.12,-294.37C1338.61,-262.27 1328.95,-199.61 1292,-165 1257.17,-132.38 1139.03,-106.16 1050.85,-90.51"/>
<polygon fill="black" stroke="black" points="1051.25,-87.02 1040.8,-88.74 1050.04,-93.92 1051.25,-87.02"/>
</a>
</g>
<g id="a_edge14&#45;label"><a xlink:href="docs/safe.goHome.html" xlink:title="goHome, home (safe)" target="_parent">
<text text-anchor="start" x="1303" y="-168.6" font-family="Times,serif" font-size="13.00">goHome, home (safe)</text>
</a>
</g>
</g>
<!-- mru&#45;&gt;mru -->
<g id="edge15" class="edge">
<title>mru&#45;&gt;mru</title>
<g id="a_edge15"><a xlink:href="docs/safe.goMRU.html" xlink:title="goMRU, mru (safe)" target="_parent">
<path fill="none" stroke="black" d="M1360.85,-336.66C1379.26,-348.35 1399.5,-341.29 1399.5,-315.5 1399.5,-293.94 1385.36,-285.47 1369.96,-290.1"/>
<polygon fill="black" stroke="black" points="1368.44,-286.95 1360.85,-294.34 1371.39,-293.3 1368.44,-286.95"/>
</a>
</g>
<g id="a_edge15&#45;label"><a xlink:href="docs/safe.goMRU.html" xlink:title="goMRU, mru (safe)" target="_parent">
<text text-anchor="start" x="1399.5" y="-312.1" font-family="Times,serif" font-size="13.00">goMRU, mru (safe)</text>
</a>
</g>
</g>
<!-- related -->
<g id="node8" class="node">
<title>related</title>
<g id="a_node8"><a xlink:href="docs/semantic.related.html" xlink:title="&lt;TABLE&gt;" target="_parent">
<polygon fill="lightgray" stroke="black" stroke-width="2" points="1644,-336.5 1544,-336.5 1544,-294.5 1644,-294.5 1644,-336.5"/>
<text text-anchor="start" x="1568" y="-319.3" font-family="Times,serif" font-size="14.00">related</text>
<text text-anchor="start" x="1550" y="-304.3" font-family="Times,serif" font-size="14.00">(relatedlink)</text>
</a>
</g>
</g>
<!-- related&#45;&gt;home -->
<g id="edge16" class="edge">
<title>related&#45;&gt;home</title>
<g id="a_edge16"><a xlink:href="docs/safe.goHome.html" xlink:title="goHome, home (safe)" target="_parent">
<path fill="none" stroke="black" d="M1588.85,-294.18C1581.27,-268.2 1564.67,-223.4 1535,-197 1464.48,-134.26 1199.35,-98.94 1050.68,-83.67"/>
<polygon fill="black" stroke="black" points="1050.92,-80.18 1040.62,-82.65 1050.22,-87.14 1050.92,-80.18"/>
</a>
</g>
<g id="a_edge16&#45;label"><a xlink:href="docs/safe.goHome.html" xlink:title="goHome, home (safe)" target="_parent">
<text text-anchor="start" x="1504" y="-168.6" font-family="Times,serif" font-size="13.00">goHome, home (safe)</text>
</a>
</g>
</g>
<!-- wipitem -->
<g id="node9" class="node">
<title>wipitem</title>
<g id="a_node9"><a xlink:href="docs/semantic.wipitem.html" xlink:title="&lt;TABLE&gt;" target="_parent">
<polygon fill="lightgray" stroke="black" stroke-width="2" points="1750.5,-584 1675.5,-584 1675.5,-542 1750.5,-542 1750.5,-584"/>
<text text-anchor="start" x="1684.5" y="-566.8" font-family="Times,serif" font-size="14.00">wipitem</text>
<text text-anchor="start" x="1682" y="-551.8" font-family="Times,serif" font-size="14.00">(wiplink)</text>
</a>
</g>
</g>
<!-- wipitem&#45;&gt;home -->
<g id="edge18" class="edge">
<title>wipitem&#45;&gt;home</title>
<g id="a_edge18"><a xlink:href="docs/safe.goHome.html" xlink:title="goHome, home (safe)" target="_parent">
<path fill="none" stroke="black" d="M1707.01,-541.91C1703.17,-528.45 1698.29,-510.28 1695,-494 1680.35,-421.61 1700.91,-216.53 1648,-165 1605.97,-124.07 1235.1,-93.73 1050.9,-81.04"/>
<polygon fill="black" stroke="black" points="1050.87,-77.53 1040.66,-80.34 1050.39,-84.52 1050.87,-77.53"/>
</a>
</g>
<g id="a_edge18&#45;label"><a xlink:href="docs/safe.goHome.html" xlink:title="goHome, home (safe)" target="_parent">
<text text-anchor="start" x="1689" y="-312.1" font-family="Times,serif" font-size="13.00">goHome, home (safe)</text>
</a>
</g>
</g>
<!-- wipitem&#45;&gt;wipitem -->
<g id="edge19" class="edge">
<title>wipitem&#45;&gt;wipitem</title>
<path fill="none" stroke="black" d="M1750.61,-579.75C1760.77,-578.87 1768.5,-573.28 1768.5,-563 1768.5,-556.41 1765.33,-551.75 1760.38,-549.02"/>
<polygon fill="black" stroke="black" points="1761.19,-545.62 1750.61,-546.25 1759.28,-552.35 1761.19,-545.62"/>
<g id="a_edge19_10"><a xlink:href="docs/idempotent.doShareWIP.html" xlink:title="&lt;TABLE&gt;">
<text text-anchor="start" x="1773" y="-599.6" font-family="Times,serif" font-size="13.00">doShareWIP (idempotent)</text>
</a>
</g>
<g id="a_edge19_11"><a xlink:href="docs/idempotent.doStatusWIP.html" xlink:title="&lt;TABLE&gt;">
<text text-anchor="start" x="1773" y="-579.6" font-family="Times,serif" font-size="13.00">doStatusWIP (idempotent)</text>
</a>
</g>
<g id="a_edge19_12"><a xlink:href="docs/idempotent.doSubmitWIP.html" xlink:title="&lt;TABLE&gt;">
<text text-anchor="start" x="1773" y="-559.6" font-family="Times,serif" font-size="13.00">doSubmitWIP (idempotent)</text>
</a>
</g>
<g id="a_edge19_13"><a xlink:href="docs/idempotent.doUpdateWIP.html" xlink:title="&lt;TABLE&gt;">
<text text-anchor="start" x="1773" y="-539.6" font-family="Times,serif" font-size="13.00">doUpdateWIP (idempotent)</text>
</a>
</g>
<g id="a_edge19_14"><a xlink:href="docs/safe.goReadWIP.html" xlink:title="&lt;TABLE&gt;">
<text text-anchor="start" x="1773" y="-519.6" font-family="Times,serif" font-size="13.00">goReadWIP (safe)</text>
</a>
</g>
</g>
<!-- wiplist -->
<g id="node10" class="node">
<title>wiplist</title>
<g id="a_node10"><a xlink:href="docs/semantic.wiplist.html" xlink:title="&lt;TABLE&gt;" target="_parent">
<polygon fill="lightgray" stroke="black" stroke-width="2" points="1913.5,-336.5 1838.5,-336.5 1838.5,-294.5 1913.5,-294.5 1913.5,-336.5"/>
<text text-anchor="start" x="1852" y="-319.3" font-family="Times,serif" font-size="14.00">wiplist</text>
<text text-anchor="start" x="1845" y="-304.3" font-family="Times,serif" font-size="14.00">(wiplink)</text>
</a>
</g>
</g>
<!-- wipitem&#45;&gt;wiplist -->
<g id="edge20" class="edge">
<title>wipitem&#45;&gt;wiplist</title>
<path fill="none" stroke="black" d="M1706.23,-541.87C1699.44,-517.54 1692.74,-476.79 1714,-452 1746.25,-414.39 1784.81,-464.3 1824,-434 1851.42,-412.8 1864.71,-374.05 1870.92,-346.86"/>
<polygon fill="black" stroke="black" points="1874.42,-347.22 1873.04,-336.72 1867.57,-345.79 1874.42,-347.22"/>
<g id="a_edge20_15"><a xlink:href="docs/idempotent.doCancelWIP.html" xlink:title="&lt;TABLE&gt;">
<text text-anchor="start" x="1718" y="-479.6" font-family="Times,serif" font-size="13.00">doCancelWIP (idempotent)</text>
</a>
</g>
<g id="a_edge20_16"><a xlink:href="docs/safe.goListWIP.html" xlink:title="&lt;TABLE&gt;">
<text text-anchor="start" x="1718" y="-459.6" font-family="Times,serif" font-size="13.00">goListWIP (safe)</text>
</a>
</g>
</g>
<!-- wiplist&#45;&gt;home -->
<g id="edge21" class="edge">
<title>wiplist&#45;&gt;home</title>
<g id="a_edge21"><a xlink:href="docs/safe.goHome.html" xlink:title="goHome, home (safe)" target="_parent">
<path fill="none" stroke="black" d="M1872.66,-294.19C1867.23,-267.78 1853.91,-222.08 1824,-197 1778.4,-158.77 1752.53,-175.71 1694,-165 1466.07,-123.28 1195.32,-95.89 1050.89,-83.02"/>
<polygon fill="black" stroke="black" points="1050.98,-79.52 1040.71,-82.12 1050.36,-86.49 1050.98,-79.52"/>
</a>
</g>
<g id="a_edge21&#45;label"><a xlink:href="docs/safe.goHome.html" xlink:title="goHome, home (safe)" target="_parent">
<text text-anchor="start" x="1796" y="-168.6" font-family="Times,serif" font-size="13.00">goHome, home (safe)</text>
</a>
</g>
</g>
<!-- wiplist&#45;&gt;wipitem -->
<g id="edge22" class="edge">
<title>wiplist&#45;&gt;wipitem</title>
<path fill="none" stroke="black" d="M1887,-336.72C1904.57,-372.05 1933.72,-445.86 1900,-494 1868.74,-538.63 1805.02,-554.07 1760.7,-559.36"/>
<polygon fill="black" stroke="black" points="1760.3,-555.88 1750.73,-560.42 1761.04,-562.84 1760.3,-555.88"/>
<g id="a_edge22_17"><a xlink:href="docs/idempotent.doCreateWIP.html" xlink:title="&lt;TABLE&gt;">
<text text-anchor="start" x="1918.5" y="-479.6" font-family="Times,serif" font-size="13.00">doCreateWIP (idempotent)</text>
</a>
</g>
<g id="a_edge22_18"><a xlink:href="docs/safe.goReadWIP.html" xlink:title="&lt;TABLE&gt;">
<text text-anchor="start" x="1918.5" y="-459.6" font-family="Times,serif" font-size="13.00">goReadWIP (safe)</text>
</a>
</g>
</g>
<!-- wiplist&#45;&gt;wiplist -->
<g id="edge23" class="edge">
<title>wiplist&#45;&gt;wiplist</title>
<path fill="none" stroke="black" d="M1894.19,-336.66C1911.97,-348.35 1931.5,-341.29 1931.5,-315.5 1931.5,-294.14 1918.11,-285.63 1903.4,-289.98"/>
<polygon fill="black" stroke="black" points="1901.73,-286.9 1894.19,-294.34 1904.73,-293.22 1901.73,-286.9"/>
<g id="a_edge23_19"><a xlink:href="docs/safe.goFilterWIP.html" xlink:title="&lt;TABLE&gt;">
<text text-anchor="start" x="1935.5" y="-322.1" font-family="Times,serif" font-size="13.00">goFilterWIP (safe)</text>
</a>
</g>
<g id="a_edge23_20"><a xlink:href="docs/safe.goListWIP.html" xlink:title="&lt;TABLE&gt;">
<text text-anchor="start" x="1935.5" y="-302.1" font-family="Times,serif" font-size="13.00">goListWIP (safe)</text>
</a>
</g>
</g>
<!-- completed&#45;&gt;home -->
<g id="edge3" class="edge">
<title>completed&#45;&gt;home</title>
<g id="a_edge3"><a xlink:href="docs/safe.goHome.html" xlink:title="goHome, home (safe)" target="_parent">
<path fill="none" stroke="black" d="M773.59,-297.3C763.77,-267.8 748.66,-206.74 774,-165 790.42,-137.95 817.85,-118.61 846.14,-104.95"/>
<polygon fill="black" stroke="black" points="847.72,-108.08 855.34,-100.71 844.79,-101.72 847.72,-108.08"/>
</a>
</g>
<g id="a_edge3&#45;label"><a xlink:href="docs/safe.goHome.html" xlink:title="goHome, home (safe)" target="_parent">
<text text-anchor="start" x="774" y="-168.6" font-family="Times,serif" font-size="13.00">goHome, home (safe)</text>
</a>
</g>
</g>
<!-- completed&#45;&gt;inputForm -->
<g id="edge4" class="edge">
<title>completed&#45;&gt;inputForm</title>
<g id="a_edge4"><a xlink:href="docs/safe.goForm.html" xlink:title="goForm, form (safe)" target="_parent">
<path fill="none" stroke="black" d="M786.8,-333.51C799.29,-367.78 821.4,-445.96 785,-494 762.36,-523.88 661.11,-544.28 596.96,-554.47"/>
<polygon fill="black" stroke="black" points="596.34,-551.02 587,-556.02 597.42,-557.94 596.34,-551.02"/>
</a>
</g>
<g id="a_edge4&#45;label"><a xlink:href="docs/safe.goForm.html" xlink:title="goForm, form (safe)" target="_parent">
<text text-anchor="start" x="801" y="-469.6" font-family="Times,serif" font-size="13.00">goForm, form (safe)</text>
</a>
</g>
</g>
<!-- exitList&#45;&gt;home -->
<g id="edge5" class="edge">
<title>exitList&#45;&gt;home</title>
<g id="a_edge5"><a xlink:href="docs/safe.goHome.html" xlink:title="goHome, home (safe)" target="_parent">
<path fill="none" stroke="black" d="M1119.72,-297.11C1115.35,-271.13 1103.27,-222.5 1072,-197 1040.72,-171.5 1013.24,-205.72 983,-179 975.82,-172.65 970.1,-164.79 965.56,-156.24"/>
<polygon fill="black" stroke="black" points="968.69,-154.66 961.24,-147.13 962.36,-157.66 968.69,-154.66"/>
</a>
</g>
<g id="a_edge5&#45;label"><a xlink:href="docs/safe.goHome.html" xlink:title="goHome, home (safe)" target="_parent">
<text text-anchor="start" x="983" y="-168.6" font-family="Times,serif" font-size="13.00">goHome, home (safe)</text>
</a>
</g>
</g>
<!-- selectRecord&#45;&gt;home -->
<g id="edge17" class="edge">
<title>selectRecord&#45;&gt;home</title>
<g id="a_edge17"><a xlink:href="docs/safe.goHome.html" xlink:title="goHome, home (safe)" target="_parent">
<path fill="none" stroke="black" d="M1223.72,-297.48C1214.18,-273.23 1194.23,-228.23 1167,-197 1135.53,-160.9 1090.7,-133.22 1049.79,-113.38"/>
<polygon fill="black" stroke="black" points="1051.12,-110.13 1040.58,-109.01 1048.12,-116.46 1051.12,-110.13"/>
</a>
</g>
<g id="a_edge17&#45;label"><a xlink:href="docs/safe.goHome.html" xlink:title="goHome, home (safe)" target="_parent">
<text text-anchor="start" x="1148" y="-168.6" font-family="Times,serif" font-size="13.00">goHome, home (safe)</text>
</a>
</g>
</g>
</g>
</svg>
