<?xml version="1.0" encoding="UTF-8" standalone="no"?>
<!DOCTYPE svg PUBLIC "-//W3C//DTD SVG 1.1//EN"
 "http://www.w3.org/Graphics/SVG/1.1/DTD/svg11.dtd">
<!-- Generated by graphviz version 2.43.0 (0)
 -->
<!-- Title: application_state_diagram Pages: 1 -->
<svg width="1993pt" height="630pt"
 viewBox="0.00 0.00 1993.00 630.00" xmlns="http://www.w3.org/2000/svg" xmlns:xlink="http://www.w3.org/1999/xlink">
<g id="graph0" class="graph" transform="scale(1 1) rotate(0) translate(4 626)">
<title>application_state_diagram</title>
<g id="a_graph0"><a xlink:href="index.html" xlink:title="Combined Semantic Profiles for RWMBook" target="_parent">
<polygon fill="white" stroke="transparent" points="-4,4 -4,-626 1989,-626 1989,4 -4,4"/>
<text text-anchor="middle" x="992.5" y="-606.8" font-family="Helvetica,sans-Serif" font-size="14.00">Combined Semantic Profiles for RWMBook</text>
</a>
</g>
<!-- apisJSON -->
<g id="node1" class="node">
<title>apisJSON</title>
<g id="a_node1"><a xlink:href="docs/semantic.apisJSON.html" xlink:title="&lt;TABLE&gt;" target="_parent">
<polygon fill="lightgray" stroke="black" stroke-width="2" points="120,-419 0,-419 0,-182 120,-182 120,-419"/>
<text text-anchor="start" x="26" y="-401.3" font-family="Times,serif" font-size="14.00">apisJSON</text>
<text text-anchor="start" x="35" y="-386.3" font-family="Times,serif" font-size="14.00">(name)</text>
<text text-anchor="start" x="14.5" y="-371.3" font-family="Times,serif" font-size="14.00">(description)</text>
<text text-anchor="start" x="32.5" y="-356.3" font-family="Times,serif" font-size="14.00">(image)</text>
<text text-anchor="start" x="44.5" y="-341.3" font-family="Times,serif" font-size="14.00">(url)</text>
<text text-anchor="start" x="39" y="-326.3" font-family="Times,serif" font-size="14.00">(tags)</text>
<text text-anchor="start" x="27.5" y="-311.3" font-family="Times,serif" font-size="14.00">(created)</text>
<text text-anchor="start" x="23.5" y="-296.3" font-family="Times,serif" font-size="14.00">(modified)</text>
<text text-anchor="start" x="40" y="-281.3" font-family="Times,serif" font-size="14.00">(apis)</text>
<text text-anchor="start" x="37" y="-266.3" font-family="Times,serif" font-size="14.00">(tools)</text>
<text text-anchor="start" x="6" y="-251.3" font-family="Times,serif" font-size="14.00">(specifications)</text>
<text text-anchor="start" x="19.5" y="-236.3" font-family="Times,serif" font-size="14.00">(resources)</text>
<text text-anchor="start" x="24.5" y="-221.3" font-family="Times,serif" font-size="14.00">(common)</text>
<text text-anchor="start" x="28.5" y="-206.3" font-family="Times,serif" font-size="14.00">(include)</text>
<text text-anchor="start" x="11.5" y="-191.3" font-family="Times,serif" font-size="14.00">(maintainers)</text>
</a>
</g>
</g>
<!-- home -->
<g id="node3" class="node">
<title>home</title>
<g id="a_node3"><a xlink:href="docs/semantic.home.html" xlink:title="&lt;TABLE&gt;" target="_parent">
<polygon fill="lightgray" stroke="black" stroke-width="2" points="994.5,-132 809.5,-132 809.5,0 994.5,0 994.5,-132"/>
<text text-anchor="start" x="882.5" y="-114.8" font-family="Times,serif" font-size="14.00">home</text>
<text text-anchor="start" x="816" y="-99.8" font-family="Times,serif" font-size="14.00">(clientMetaPreferences)</text>
<text text-anchor="start" x="863" y="-84.8" font-family="Times,serif" font-size="14.00">(apisJSON)</text>
<text text-anchor="start" x="882.5" y="-69.8" font-family="Times,serif" font-size="14.00">(mru)</text>
<text text-anchor="start" x="871.5" y="-54.8" font-family="Times,serif" font-size="14.00">(related)</text>
<text text-anchor="start" x="885.5" y="-39.8" font-family="Times,serif" font-size="14.00">(list)</text>
<text text-anchor="start" x="873" y="-24.8" font-family="Times,serif" font-size="14.00">(wiplist)</text>
<text text-anchor="start" x="859.5" y="-9.8" font-family="Times,serif" font-size="14.00">(inputForm)</text>
</a>
</g>
</g>
<!-- apisJSON&#45;&gt;home -->
<g id="edge1" class="edge">
<title>apisJSON&#45;&gt;home</title>
<g id="a_edge1"><a xlink:href="docs/safe.goHome.html" xlink:title="goHome, home (safe)" target="_parent">
<path fill="none" stroke="black" d="M55.96,-181.7C59.96,-169.87 66.05,-158.95 75,-150 125.32,-99.68 589.16,-77.63 799.34,-70.16"/>
<polygon fill="black" stroke="black" points="799.58,-73.65 809.46,-69.8 799.34,-66.65 799.58,-73.65"/>
</a>
</g>
<g id="a_edge1&#45;label"><a xlink:href="docs/safe.goHome.html" xlink:title="goHome, home (safe)" target="_parent">
<text text-anchor="start" x="75" y="-153.6" font-family="Times,serif" font-size="13.00">goHome, home (safe)</text>
</a>
</g>
</g>
<!-- clientMetaPreferences -->
<g id="node2" class="node">
<title>clientMetaPreferences</title>
<g id="a_node2"><a xlink:href="docs/semantic.clientMetaPreferences.html" xlink:title="&lt;TABLE&gt;" target="_parent">
<polygon fill="lightgray" stroke="black" stroke-width="2" points="313.5,-321.5 138.5,-321.5 138.5,-279.5 313.5,-279.5 313.5,-321.5"/>
<text text-anchor="start" x="145" y="-304.3" font-family="Times,serif" font-size="14.00">clientMetaPreferences</text>
<text text-anchor="start" x="160" y="-289.3" font-family="Times,serif" font-size="14.00">(MetaPreferences)</text>
</a>
</g>
</g>
<!-- clientMetaPreferences&#45;&gt;home -->
<g id="edge2" class="edge">
<title>clientMetaPreferences&#45;&gt;home</title>
<g id="a_edge2"><a xlink:href="docs/safe.goHome.html" xlink:title="goHome, home (safe)" target="_parent">
<path fill="none" stroke="black" d="M218.74,-279.4C208.69,-247.63 195.15,-185.76 227,-150 264.4,-108 620,-82.54 799.46,-72.27"/>
<polygon fill="black" stroke="black" points="799.66,-75.76 809.44,-71.7 799.26,-68.77 799.66,-75.76"/>
</a>
</g>
<g id="a_edge2&#45;label"><a xlink:href="docs/safe.goHome.html" xlink:title="goHome, home (safe)" target="_parent">
<text text-anchor="start" x="227" y="-153.6" font-family="Times,serif" font-size="13.00">goHome, home (safe)</text>
</a>
</g>
</g>
<!-- inputForm -->
<g id="node4" class="node">
<title>inputForm</title>
<g id="a_node4"><a xlink:href="docs/semantic.inputForm.html" xlink:title="&lt;TABLE&gt;" target="_parent">
<polygon fill="lightgray" stroke="black" stroke-width="2" points="458,-599 370,-599 370,-497 458,-497 458,-599"/>
<text text-anchor="start" x="376" y="-581.8" font-family="Times,serif" font-size="14.00">inputForm</text>
<text text-anchor="start" x="394" y="-566.8" font-family="Times,serif" font-size="14.00">(href)</text>
<text text-anchor="start" x="398.5" y="-551.8" font-family="Times,serif" font-size="14.00">(rel)</text>
<text text-anchor="start" x="394" y="-536.8" font-family="Times,serif" font-size="14.00">(title)</text>
<text text-anchor="start" x="392.5" y="-521.8" font-family="Times,serif" font-size="14.00">(type)</text>
<text text-anchor="start" x="389.5" y="-506.8" font-family="Times,serif" font-size="14.00">(input)</text>
</a>
</g>
</g>
<!-- inputForm&#45;&gt;home -->
<g id="edge7" class="edge">
<title>inputForm&#45;&gt;home</title>
<path fill="none" stroke="black" d="M393.22,-496.89C365,-419.95 325.94,-272.18 399,-182 448.53,-120.86 666.95,-89.48 799.14,-75.8"/>
<polygon fill="black" stroke="black" points="799.7,-79.26 809.29,-74.77 798.99,-72.3 799.7,-79.26"/>
<g id="a_edge7_0"><a xlink:href="docs/idempotent.doCancelSubmit.html" xlink:title="&lt;TABLE&gt;">
<text text-anchor="start" x="403" y="-307.1" font-family="Times,serif" font-size="13.00">doCancelSubmit (idempotent)</text>
</a>
</g>
<g id="a_edge7_1"><a xlink:href="docs/safe.goHome.html" xlink:title="&lt;TABLE&gt;">
<text text-anchor="start" x="403" y="-287.1" font-family="Times,serif" font-size="13.00">goHome (safe)</text>
</a>
</g>
</g>
<!-- inputForm&#45;&gt;inputForm -->
<g id="edge8" class="edge">
<title>inputForm&#45;&gt;inputForm</title>
<path fill="none" stroke="black" d="M458.02,-564.54C468.37,-563.18 476,-557.67 476,-548 476,-541.81 472.87,-537.32 467.9,-534.53"/>
<polygon fill="black" stroke="black" points="468.61,-531.09 458.02,-531.46 466.53,-537.77 468.61,-531.09"/>
<g id="a_edge8_2"><a xlink:href="docs/idempotent.doPartialSubmit.html" xlink:title="&lt;TABLE&gt;">
<text text-anchor="start" x="480" y="-564.6" font-family="Times,serif" font-size="13.00">doPartialSubmit (idempotent)</text>
</a>
</g>
<g id="a_edge8_3"><a xlink:href="docs/idempotent.doResetSubmit.html" xlink:title="&lt;TABLE&gt;">
<text text-anchor="start" x="480" y="-544.6" font-family="Times,serif" font-size="13.00">doResetSubmit (idempotent)</text>
</a>
</g>
<g id="a_edge8_4"><a xlink:href="docs/safe.goForm.html" xlink:title="&lt;TABLE&gt;">
<text text-anchor="start" x="480" y="-524.6" font-family="Times,serif" font-size="13.00">goForm (safe)</text>
</a>
</g>
</g>
<!-- completed -->
<g id="node10" class="node">
<title>completed</title>
<g id="a_node10"><a xlink:href="docs/semantic.completed.html" xlink:title="completed" target="_parent">
<polygon fill="lightgray" stroke="black" stroke-width="2" points="704.5,-318.5 613.5,-318.5 613.5,-282.5 704.5,-282.5 704.5,-318.5"/>
<text text-anchor="middle" x="659" y="-296.8" font-family="Times,serif" font-size="14.00">completed</text>
</a>
</g>
</g>
<!-- inputForm&#45;&gt;completed -->
<g id="edge6" class="edge">
<title>inputForm&#45;&gt;completed</title>
<g id="a_edge6"><a xlink:href="docs/idempotent.doFinalSubmit.html" xlink:title="doFinalSubmit, submit (idempotent)" target="_parent">
<path fill="none" stroke="black" d="M398.59,-496.8C395.42,-475.9 396.64,-452.86 411,-437 437.97,-407.19 557.22,-440.79 591,-419 623.31,-398.15 642.06,-356.15 651.41,-328.43"/>
<polygon fill="black" stroke="black" points="654.84,-329.17 654.54,-318.58 648.17,-327.05 654.84,-329.17"/>
</a>
</g>
<g id="a_edge6&#45;label"><a xlink:href="docs/idempotent.doFinalSubmit.html" xlink:title="doFinalSubmit, submit (idempotent)" target="_parent">
<text text-anchor="start" x="411" y="-454.6" font-family="Times,serif" font-size="13.00">doFinalSubmit, submit (idempotent)</text>
</a>
</g>
</g>
<!-- list -->
<g id="node5" class="node">
<title>list</title>
<g id="a_node5"><a xlink:href="docs/semantic.list.html" xlink:title="&lt;TABLE&gt;" target="_parent">
<polygon fill="lightgray" stroke="black" stroke-width="2" points="915.5,-569 840.5,-569 840.5,-527 915.5,-527 915.5,-569"/>
<text text-anchor="start" x="867" y="-551.8" font-family="Times,serif" font-size="14.00">list</text>
<text text-anchor="start" x="847" y="-536.8" font-family="Times,serif" font-size="14.00">(navlink)</text>
</a>
</g>
</g>
<!-- list&#45;&gt;home -->
<g id="edge10" class="edge">
<title>list&#45;&gt;home</title>
<g id="a_edge10"><a xlink:href="docs/safe.goHome.html" xlink:title="goHome, home (safe)" target="_parent">
<path fill="none" stroke="black" d="M866.56,-526.98C853.28,-502.45 832.13,-459.19 824,-419 803.11,-315.76 793.07,-282.69 824,-182 828.32,-167.95 835,-154.07 842.67,-141.08"/>
<polygon fill="black" stroke="black" points="845.86,-142.58 848.13,-132.23 839.9,-138.91 845.86,-142.58"/>
</a>
</g>
<g id="a_edge10&#45;label"><a xlink:href="docs/safe.goHome.html" xlink:title="goHome, home (safe)" target="_parent">
<text text-anchor="start" x="824" y="-297.1" font-family="Times,serif" font-size="13.00">goHome, home (safe)</text>
</a>
</g>
</g>
<!-- list&#45;&gt;list -->
<g id="edge11" class="edge">
<title>list&#45;&gt;list</title>
<path fill="none" stroke="black" d="M915.61,-564.75C925.77,-563.87 933.5,-558.28 933.5,-548 933.5,-541.41 930.33,-536.75 925.38,-534.02"/>
<polygon fill="black" stroke="black" points="926.19,-530.62 915.61,-531.25 924.28,-537.35 926.19,-530.62"/>
<g id="a_edge11_5"><a xlink:href="docs/safe.goFirst.html" xlink:title="&lt;TABLE&gt;">
<text text-anchor="start" x="938" y="-584.6" font-family="Times,serif" font-size="13.00">goFirst (safe)</text>
</a>
</g>
<g id="a_edge11_6"><a xlink:href="docs/safe.goLast.html" xlink:title="&lt;TABLE&gt;">
<text text-anchor="start" x="938" y="-564.6" font-family="Times,serif" font-size="13.00">goLast (safe)</text>
</a>
</g>
<g id="a_edge11_7"><a xlink:href="docs/safe.goList.html" xlink:title="&lt;TABLE&gt;">
<text text-anchor="start" x="938" y="-544.6" font-family="Times,serif" font-size="13.00">goList (safe)</text>
</a>
</g>
<g id="a_edge11_8"><a xlink:href="docs/safe.goNext.html" xlink:title="&lt;TABLE&gt;">
<text text-anchor="start" x="938" y="-524.6" font-family="Times,serif" font-size="13.00">goNext (safe)</text>
</a>
</g>
<g id="a_edge11_9"><a xlink:href="docs/safe.goPrevious.html" xlink:title="&lt;TABLE&gt;">
<text text-anchor="start" x="938" y="-504.6" font-family="Times,serif" font-size="13.00">goPrevious (safe)</text>
</a>
</g>
</g>
<!-- exitList -->
<g id="node11" class="node">
<title>exitList</title>
<g id="a_node11"><a xlink:href="docs/semantic.exitList.html" xlink:title="exitList" target="_parent">
<polygon fill="lightgray" stroke="black" stroke-width="2" points="1043.5,-318.5 972.5,-318.5 972.5,-282.5 1043.5,-282.5 1043.5,-318.5"/>
<text text-anchor="middle" x="1008" y="-296.8" font-family="Times,serif" font-size="14.00">exitList</text>
</a>
</g>
</g>
<!-- list&#45;&gt;exitList -->
<g id="edge9" class="edge">
<title>list&#45;&gt;exitList</title>
<g id="a_edge9"><a xlink:href="docs/safe.goExit.html" xlink:title="goExit, collection nav exit (safe)" target="_parent">
<path fill="none" stroke="black" d="M871.37,-526.66C864.88,-502.5 858.64,-462.29 879,-437 901.59,-408.95 930.37,-442.1 958,-419 985.33,-396.16 998.05,-355.7 1003.73,-328.74"/>
<polygon fill="black" stroke="black" points="1007.19,-329.27 1005.64,-318.79 1000.32,-327.95 1007.19,-329.27"/>
</a>
</g>
<g id="a_edge9&#45;label"><a xlink:href="docs/safe.goExit.html" xlink:title="goExit, collection nav exit (safe)" target="_parent">
<text text-anchor="start" x="879" y="-454.6" font-family="Times,serif" font-size="13.00">goExit, collection nav exit (safe)</text>
</a>
</g>
</g>
<!-- selectRecord -->
<g id="node12" class="node">
<title>selectRecord</title>
<g id="a_node12"><a xlink:href="docs/semantic.selectRecord.html" xlink:title="selectRecord" target="_parent">
<polygon fill="lightgray" stroke="black" stroke-width="2" points="1170.5,-318.5 1061.5,-318.5 1061.5,-282.5 1170.5,-282.5 1170.5,-318.5"/>
<text text-anchor="middle" x="1116" y="-296.8" font-family="Times,serif" font-size="14.00">selectRecord</text>
</a>
</g>
</g>
<!-- list&#45;&gt;selectRecord -->
<g id="edge12" class="edge">
<title>list&#45;&gt;selectRecord</title>
<g id="a_edge12"><a xlink:href="docs/safe.goSelect.html" xlink:title="goSelect, collection nav select (safe)" target="_parent">
<path fill="none" stroke="black" d="M915.54,-546.78C964.71,-544.3 1049.84,-532.01 1094,-479 1129.36,-436.55 1126.2,-367.36 1120.98,-329.11"/>
<polygon fill="black" stroke="black" points="1124.36,-328.1 1119.4,-318.74 1117.44,-329.15 1124.36,-328.1"/>
</a>
</g>
<g id="a_edge12&#45;label"><a xlink:href="docs/safe.goSelect.html" xlink:title="goSelect, collection nav select (safe)" target="_parent">
<text text-anchor="start" x="1115" y="-454.6" font-family="Times,serif" font-size="13.00">goSelect, collection nav select (safe)</text>
</a>
</g>
</g>
<!-- mru -->
<g id="node6" class="node">
<title>mru</title>
<g id="a_node6"><a xlink:href="docs/semantic.mru.html" xlink:title="&lt;TABLE&gt;" target="_parent">
<polygon fill="lightgray" stroke="black" stroke-width="2" points="1267.5,-321.5 1188.5,-321.5 1188.5,-279.5 1267.5,-279.5 1267.5,-321.5"/>
<text text-anchor="start" x="1213.5" y="-304.3" font-family="Times,serif" font-size="14.00">mru</text>
<text text-anchor="start" x="1195" y="-289.3" font-family="Times,serif" font-size="14.00">(mrulink)</text>
</a>
</g>
</g>
<!-- mru&#45;&gt;home -->
<g id="edge13" class="edge">
<title>mru&#45;&gt;home</title>
<g id="a_edge13"><a xlink:href="docs/safe.goHome.html" xlink:title="goHome, home (safe)" target="_parent">
<path fill="none" stroke="black" d="M1230.06,-279.41C1232.13,-247.66 1231.21,-185.81 1198,-150 1171.56,-121.49 1079.33,-98.55 1004.76,-84.07"/>
<polygon fill="black" stroke="black" points="1005.31,-80.61 994.83,-82.17 1004,-87.48 1005.31,-80.61"/>
</a>
</g>
<g id="a_edge13&#45;label"><a xlink:href="docs/safe.goHome.html" xlink:title="goHome, home (safe)" target="_parent">
<text text-anchor="start" x="1207" y="-153.6" font-family="Times,serif" font-size="13.00">goHome, home (safe)</text>
</a>
</g>
</g>
<!-- mru&#45;&gt;mru -->
<g id="edge14" class="edge">
<title>mru&#45;&gt;mru</title>
<g id="a_edge14"><a xlink:href="docs/safe.goMRU.html" xlink:title="goMRU, mru (safe)" target="_parent">
<path fill="none" stroke="black" d="M1246.85,-321.66C1265.26,-333.35 1285.5,-326.29 1285.5,-300.5 1285.5,-278.94 1271.36,-270.47 1255.96,-275.1"/>
<polygon fill="black" stroke="black" points="1254.44,-271.95 1246.85,-279.34 1257.39,-278.3 1254.44,-271.95"/>
</a>
</g>
<g id="a_edge14&#45;label"><a xlink:href="docs/safe.goMRU.html" xlink:title="goMRU, mru (safe)" target="_parent">
<text text-anchor="start" x="1285.5" y="-297.1" font-family="Times,serif" font-size="13.00">goMRU, mru (safe)</text>
</a>
</g>
</g>
<!-- related -->
<g id="node7" class="node">
<title>related</title>
<g id="a_node7"><a xlink:href="docs/semantic.related.html" xlink:title="&lt;TABLE&gt;" target="_parent">
<polygon fill="lightgray" stroke="black" stroke-width="2" points="1530,-321.5 1430,-321.5 1430,-279.5 1530,-279.5 1530,-321.5"/>
<text text-anchor="start" x="1454" y="-304.3" font-family="Times,serif" font-size="14.00">related</text>
<text text-anchor="start" x="1436" y="-289.3" font-family="Times,serif" font-size="14.00">(relatedlink)</text>
</a>
</g>
</g>
<!-- related&#45;&gt;home -->
<g id="edge15" class="edge">
<title>related&#45;&gt;home</title>
<g id="a_edge15"><a xlink:href="docs/safe.goHome.html" xlink:title="goHome, home (safe)" target="_parent">
<path fill="none" stroke="black" d="M1474.38,-279.1C1466.38,-253.43 1449.43,-209.41 1421,-182 1396.37,-158.26 1383.62,-160.3 1351,-150 1235.15,-113.43 1097.09,-90.9 1004.94,-78.7"/>
<polygon fill="black" stroke="black" points="1005.14,-75.2 994.77,-77.38 1004.23,-82.14 1005.14,-75.2"/>
</a>
</g>
<g id="a_edge15&#45;label"><a xlink:href="docs/safe.goHome.html" xlink:title="goHome, home (safe)" target="_parent">
<text text-anchor="start" x="1395" y="-153.6" font-family="Times,serif" font-size="13.00">goHome, home (safe)</text>
</a>
</g>
</g>
<!-- wipitem -->
<g id="node8" class="node">
<title>wipitem</title>
<g id="a_node8"><a xlink:href="docs/semantic.wipitem.html" xlink:title="&lt;TABLE&gt;" target="_parent">
<polygon fill="lightgray" stroke="black" stroke-width="2" points="1636.5,-569 1561.5,-569 1561.5,-527 1636.5,-527 1636.5,-569"/>
<text text-anchor="start" x="1570.5" y="-551.8" font-family="Times,serif" font-size="14.00">wipitem</text>
<text text-anchor="start" x="1568" y="-536.8" font-family="Times,serif" font-size="14.00">(wiplink)</text>
</a>
</g>
</g>
<!-- wipitem&#45;&gt;home -->
<g id="edge17" class="edge">
<title>wipitem&#45;&gt;home</title>
<g id="a_edge17"><a xlink:href="docs/safe.goHome.html" xlink:title="goHome, home (safe)" target="_parent">
<path fill="none" stroke="black" d="M1592.94,-526.93C1589.06,-513.47 1584.18,-495.3 1581,-479 1573.94,-442.83 1565.02,-176.09 1539,-150 1501.96,-112.86 1175.35,-85.48 1004.77,-73.58"/>
<polygon fill="black" stroke="black" points="1004.99,-70.08 994.77,-72.88 1004.5,-77.07 1004.99,-70.08"/>
</a>
</g>
<g id="a_edge17&#45;label"><a xlink:href="docs/safe.goHome.html" xlink:title="goHome, home (safe)" target="_parent">
<text text-anchor="start" x="1575" y="-297.1" font-family="Times,serif" font-size="13.00">goHome, home (safe)</text>
</a>
</g>
</g>
<!-- wipitem&#45;&gt;wipitem -->
<g id="edge18" class="edge">
<title>wipitem&#45;&gt;wipitem</title>
<path fill="none" stroke="black" d="M1636.61,-564.75C1646.77,-563.87 1654.5,-558.28 1654.5,-548 1654.5,-541.41 1651.33,-536.75 1646.38,-534.02"/>
<polygon fill="black" stroke="black" points="1647.19,-530.62 1636.61,-531.25 1645.28,-537.35 1647.19,-530.62"/>
<g id="a_edge18_10"><a xlink:href="docs/idempotent.doShareWIP.html" xlink:title="&lt;TABLE&gt;">
<text text-anchor="start" x="1659" y="-584.6" font-family="Times,serif" font-size="13.00">doShareWIP (idempotent)</text>
</a>
</g>
<g id="a_edge18_11"><a xlink:href="docs/idempotent.doStatusWIP.html" xlink:title="&lt;TABLE&gt;">
<text text-anchor="start" x="1659" y="-564.6" font-family="Times,serif" font-size="13.00">doStatusWIP (idempotent)</text>
</a>
</g>
<g id="a_edge18_12"><a xlink:href="docs/idempotent.doSubmitWIP.html" xlink:title="&lt;TABLE&gt;">
<text text-anchor="start" x="1659" y="-544.6" font-family="Times,serif" font-size="13.00">doSubmitWIP (idempotent)</text>
</a>
</g>
<g id="a_edge18_13"><a xlink:href="docs/idempotent.doUpdateWIP.html" xlink:title="&lt;TABLE&gt;">
<text text-anchor="start" x="1659" y="-524.6" font-family="Times,serif" font-size="13.00">doUpdateWIP (idempotent)</text>
</a>
</g>
<g id="a_edge18_14"><a xlink:href="docs/safe.goReadWIP.html" xlink:title="&lt;TABLE&gt;">
<text text-anchor="start" x="1659" y="-504.6" font-family="Times,serif" font-size="13.00">goReadWIP (safe)</text>
</a>
</g>
</g>
<!-- wiplist -->
<g id="node9" class="node">
<title>wiplist</title>
<g id="a_node9"><a xlink:href="docs/semantic.wiplist.html" xlink:title="&lt;TABLE&gt;" target="_parent">
<polygon fill="lightgray" stroke="black" stroke-width="2" points="1799.5,-321.5 1724.5,-321.5 1724.5,-279.5 1799.5,-279.5 1799.5,-321.5"/>
<text text-anchor="start" x="1738" y="-304.3" font-family="Times,serif" font-size="14.00">wiplist</text>
<text text-anchor="start" x="1731" y="-289.3" font-family="Times,serif" font-size="14.00">(wiplink)</text>
</a>
</g>
</g>
<!-- wipitem&#45;&gt;wiplist -->
<g id="edge19" class="edge">
<title>wipitem&#45;&gt;wiplist</title>
<path fill="none" stroke="black" d="M1592.23,-526.87C1585.44,-502.54 1578.74,-461.79 1600,-437 1632.25,-399.39 1670.81,-449.3 1710,-419 1737.42,-397.8 1750.71,-359.05 1756.92,-331.86"/>
<polygon fill="black" stroke="black" points="1760.42,-332.22 1759.04,-321.72 1753.57,-330.79 1760.42,-332.22"/>
<g id="a_edge19_15"><a xlink:href="docs/idempotent.doCancelWIP.html" xlink:title="&lt;TABLE&gt;">
<text text-anchor="start" x="1604" y="-464.6" font-family="Times,serif" font-size="13.00">doCancelWIP (idempotent)</text>
</a>
</g>
<g id="a_edge19_16"><a xlink:href="docs/safe.goListWIP.html" xlink:title="&lt;TABLE&gt;">
<text text-anchor="start" x="1604" y="-444.6" font-family="Times,serif" font-size="13.00">goListWIP (safe)</text>
</a>
</g>
</g>
<!-- wiplist&#45;&gt;home -->
<g id="edge20" class="edge">
<title>wiplist&#45;&gt;home</title>
<g id="a_edge20"><a xlink:href="docs/safe.goHome.html" xlink:title="goHome, home (safe)" target="_parent">
<path fill="none" stroke="black" d="M1758.66,-279.19C1753.23,-252.78 1739.91,-207.08 1710,-182 1664.4,-143.77 1638.52,-160.75 1580,-150 1377.66,-112.85 1138.2,-87.93 1004.85,-75.73"/>
<polygon fill="black" stroke="black" points="1004.92,-72.22 994.65,-74.8 1004.29,-79.2 1004.92,-72.22"/>
</a>
</g>
<g id="a_edge20&#45;label"><a xlink:href="docs/safe.goHome.html" xlink:title="goHome, home (safe)" target="_parent">
<text text-anchor="start" x="1682" y="-153.6" font-family="Times,serif" font-size="13.00">goHome, home (safe)</text>
</a>
</g>
</g>
<!-- wiplist&#45;&gt;wipitem -->
<g id="edge21" class="edge">
<title>wiplist&#45;&gt;wipitem</title>
<path fill="none" stroke="black" d="M1773,-321.72C1790.57,-357.05 1819.72,-430.86 1786,-479 1754.74,-523.63 1691.02,-539.07 1646.7,-544.36"/>
<polygon fill="black" stroke="black" points="1646.3,-540.88 1636.73,-545.42 1647.04,-547.84 1646.3,-540.88"/>
<g id="a_edge21_17"><a xlink:href="docs/idempotent.doCreateWIP.html" xlink:title="&lt;TABLE&gt;">
<text text-anchor="start" x="1804.5" y="-464.6" font-family="Times,serif" font-size="13.00">doCreateWIP (idempotent)</text>
</a>
</g>
<g id="a_edge21_18"><a xlink:href="docs/safe.goReadWIP.html" xlink:title="&lt;TABLE&gt;">
<text text-anchor="start" x="1804.5" y="-444.6" font-family="Times,serif" font-size="13.00">goReadWIP (safe)</text>
</a>
</g>
</g>
<!-- wiplist&#45;&gt;wiplist -->
<g id="edge22" class="edge">
<title>wiplist&#45;&gt;wiplist</title>
<path fill="none" stroke="black" d="M1780.19,-321.66C1797.97,-333.35 1817.5,-326.29 1817.5,-300.5 1817.5,-279.14 1804.11,-270.63 1789.4,-274.98"/>
<polygon fill="black" stroke="black" points="1787.73,-271.9 1780.19,-279.34 1790.73,-278.22 1787.73,-271.9"/>
<g id="a_edge22_19"><a xlink:href="docs/safe.goFilterWIP.html" xlink:title="&lt;TABLE&gt;">
<text text-anchor="start" x="1821.5" y="-307.1" font-family="Times,serif" font-size="13.00">goFilterWIP (safe)</text>
</a>
</g>
<g id="a_edge22_20"><a xlink:href="docs/safe.goListWIP.html" xlink:title="&lt;TABLE&gt;">
<text text-anchor="start" x="1821.5" y="-287.1" font-family="Times,serif" font-size="13.00">goListWIP (safe)</text>
</a>
</g>
</g>
<!-- completed&#45;&gt;home -->
<g id="edge3" class="edge">
<title>completed&#45;&gt;home</title>
<g id="a_edge3"><a xlink:href="docs/safe.goHome.html" xlink:title="goHome, home (safe)" target="_parent">
<path fill="none" stroke="black" d="M653.28,-282.32C644.46,-252.33 631.36,-189.82 660,-150 691.79,-105.8 748.62,-84.9 799.22,-75.12"/>
<polygon fill="black" stroke="black" points="800.03,-78.53 809.25,-73.31 798.79,-71.64 800.03,-78.53"/>
</a>
</g>
<g id="a_edge3&#45;label"><a xlink:href="docs/safe.goHome.html" xlink:title="goHome, home (safe)" target="_parent">
<text text-anchor="start" x="660" y="-153.6" font-family="Times,serif" font-size="13.00">goHome, home (safe)</text>
</a>
</g>
</g>
<!-- completed&#45;&gt;inputForm -->
<g id="edge4" class="edge">
<title>completed&#45;&gt;inputForm</title>
<g id="a_edge4"><a xlink:href="docs/safe.goForm.html" xlink:title="goForm, form (safe)" target="_parent">
<path fill="none" stroke="black" d="M664.74,-318.56C675.14,-352.93 692.79,-431.29 656,-479 633.14,-508.65 532.22,-529.1 468.14,-539.36"/>
<polygon fill="black" stroke="black" points="467.53,-535.92 458.19,-540.92 468.62,-542.83 467.53,-535.92"/>
</a>
</g>
<g id="a_edge4&#45;label"><a xlink:href="docs/safe.goForm.html" xlink:title="goForm, form (safe)" target="_parent">
<text text-anchor="start" x="673" y="-454.6" font-family="Times,serif" font-size="13.00">goForm, form (safe)</text>
</a>
</g>
</g>
<!-- exitList&#45;&gt;home -->
<g id="edge5" class="edge">
<title>exitList&#45;&gt;home</title>
<g id="a_edge5"><a xlink:href="docs/safe.goHome.html" xlink:title="goHome, home (safe)" target="_parent">
<path fill="none" stroke="black" d="M1005.25,-282.14C1000.32,-256.63 987.57,-209.13 958,-182 939.05,-164.61 918.2,-184.75 903,-164 898.24,-157.51 895.22,-150.05 893.47,-142.23"/>
<polygon fill="black" stroke="black" points="896.89,-141.49 891.87,-132.16 889.98,-142.58 896.89,-141.49"/>
</a>
</g>
<g id="a_edge5&#45;label"><a xlink:href="docs/safe.goHome.html" xlink:title="goHome, home (safe)" target="_parent">
<text text-anchor="start" x="903" y="-153.6" font-family="Times,serif" font-size="13.00">goHome, home (safe)</text>
</a>
</g>
</g>
<!-- selectRecord&#45;&gt;home -->
<g id="edge16" class="edge">
<title>selectRecord&#45;&gt;home</title>
<g id="a_edge16"><a xlink:href="docs/safe.goHome.html" xlink:title="goHome, home (safe)" target="_parent">
<path fill="none" stroke="black" d="M1111.23,-282.37C1102.19,-252.46 1080.07,-190.07 1043,-150 1031.47,-137.54 1017.64,-126.37 1003.21,-116.57"/>
<polygon fill="black" stroke="black" points="1004.94,-113.52 994.66,-110.96 1001.1,-119.37 1004.94,-113.52"/>
</a>
</g>
<g id="a_edge16&#45;label"><a xlink:href="docs/safe.goHome.html" xlink:title="goHome, home (safe)" target="_parent">
<text text-anchor="start" x="1054" y="-153.6" font-family="Times,serif" font-size="13.00">goHome, home (safe)</text>
</a>
</g>
</g>
</g>
</svg>
