<?xml version="1.0" encoding="UTF-8" standalone="no"?>
<!DOCTYPE svg PUBLIC "-//W3C//DTD SVG 1.1//EN"
 "http://www.w3.org/Graphics/SVG/1.1/DTD/svg11.dtd">
<!-- Generated by graphviz version 2.43.0 (0)
 -->
<!-- Title: application_state_diagram Pages: 1 -->
<svg width="1855pt" height="420pt"
 viewBox="0.00 0.00 1854.50 420.00" xmlns="http://www.w3.org/2000/svg" xmlns:xlink="http://www.w3.org/1999/xlink">
<g id="graph0" class="graph" transform="scale(1 1) rotate(0) translate(4 416)">
<title>application_state_diagram</title>
<g id="a_graph0"><a xlink:href="index.html" xlink:title="Combined Semantic Profiles for RWMBook" target="_parent">
<polygon fill="white" stroke="transparent" points="-4,4 -4,-416 1850.5,-416 1850.5,4 -4,4"/>
<text text-anchor="middle" x="923.25" y="-396.8" font-family="Helvetica,sans-Serif" font-size="14.00">Combined Semantic Profiles for RWMBook</text>
</a>
</g>
<!-- clientMetaPreferences -->
<g id="node1" class="node">
<title>clientMetaPreferences</title>
<g id="a_node1"><a xlink:href="docs/semantic.clientMetaPreferences.html" xlink:title="&lt;TABLE&gt;" target="_parent">
<polygon fill="lightgray" stroke="black" stroke-width="2" points="175,-209 0,-209 0,-167 175,-167 175,-209"/>
<text text-anchor="start" x="6.5" y="-191.8" font-family="Times,serif" font-size="14.00">clientMetaPreferences</text>
<text text-anchor="start" x="21.5" y="-176.8" font-family="Times,serif" font-size="14.00">(MetaPreferences)</text>
</a>
</g>
</g>
<!-- home -->
<g id="node2" class="node">
<title>home</title>
<g id="a_node2"><a xlink:href="docs/semantic.home.html" xlink:title="&lt;TABLE&gt;" target="_parent">
<polygon fill="lightgray" stroke="black" stroke-width="2" points="956,-117 771,-117 771,0 956,0 956,-117"/>
<text text-anchor="start" x="844" y="-99.3" font-family="Times,serif" font-size="14.00">home</text>
<text text-anchor="start" x="777.5" y="-84.3" font-family="Times,serif" font-size="14.00">(clientMetaPreferences)</text>
<text text-anchor="start" x="844" y="-69.3" font-family="Times,serif" font-size="14.00">(mru)</text>
<text text-anchor="start" x="833" y="-54.3" font-family="Times,serif" font-size="14.00">(related)</text>
<text text-anchor="start" x="847" y="-39.3" font-family="Times,serif" font-size="14.00">(list)</text>
<text text-anchor="start" x="834.5" y="-24.3" font-family="Times,serif" font-size="14.00">(wiplist)</text>
<text text-anchor="start" x="821" y="-9.3" font-family="Times,serif" font-size="14.00">(inputForm)</text>
</a>
</g>
</g>
<!-- clientMetaPreferences&#45;&gt;home -->
<g id="edge1" class="edge">
<title>clientMetaPreferences&#45;&gt;home</title>
<g id="a_edge1"><a xlink:href="docs/safe.goHome.html" xlink:title="goHome, home (safe)" target="_parent">
<path fill="none" stroke="black" d="M82.04,-166.85C80.41,-156.08 80.77,-143.35 88.5,-135 133.28,-86.59 559.96,-68.12 760.42,-62.07"/>
<polygon fill="black" stroke="black" points="760.77,-65.56 770.66,-61.76 760.56,-58.56 760.77,-65.56"/>
</a>
</g>
<g id="a_edge1&#45;label"><a xlink:href="docs/safe.goHome.html" xlink:title="goHome, home (safe)" target="_parent">
<text text-anchor="start" x="88.5" y="-138.6" font-family="Times,serif" font-size="13.00">goHome, home (safe)</text>
</a>
</g>
</g>
<!-- inputForm -->
<g id="node3" class="node">
<title>inputForm</title>
<g id="a_node3"><a xlink:href="docs/semantic.inputForm.html" xlink:title="&lt;TABLE&gt;" target="_parent">
<polygon fill="lightgray" stroke="black" stroke-width="2" points="319.5,-389 231.5,-389 231.5,-287 319.5,-287 319.5,-389"/>
<text text-anchor="start" x="237.5" y="-371.8" font-family="Times,serif" font-size="14.00">inputForm</text>
<text text-anchor="start" x="255.5" y="-356.8" font-family="Times,serif" font-size="14.00">(href)</text>
<text text-anchor="start" x="260" y="-341.8" font-family="Times,serif" font-size="14.00">(rel)</text>
<text text-anchor="start" x="255.5" y="-326.8" font-family="Times,serif" font-size="14.00">(title)</text>
<text text-anchor="start" x="254" y="-311.8" font-family="Times,serif" font-size="14.00">(type)</text>
<text text-anchor="start" x="251" y="-296.8" font-family="Times,serif" font-size="14.00">(input)</text>
</a>
</g>
</g>
<!-- inputForm&#45;&gt;home -->
<g id="edge6" class="edge">
<title>inputForm&#45;&gt;home</title>
<path fill="none" stroke="black" d="M256.07,-286.8C244.85,-248.39 238.39,-197.06 269.5,-167 338.11,-100.71 609.57,-74.34 760.65,-64.63"/>
<polygon fill="black" stroke="black" points="761.11,-68.11 770.87,-63.99 760.67,-61.12 761.11,-68.11"/>
<g id="a_edge6_0"><a xlink:href="docs/idempotent.doCancelSubmit.html" xlink:title="&lt;TABLE&gt;">
<text text-anchor="start" x="273.5" y="-194.6" font-family="Times,serif" font-size="13.00">doCancelSubmit (idempotent)</text>
</a>
</g>
<g id="a_edge6_1"><a xlink:href="docs/safe.goHome.html" xlink:title="&lt;TABLE&gt;">
<text text-anchor="start" x="273.5" y="-174.6" font-family="Times,serif" font-size="13.00">goHome (safe)</text>
</a>
</g>
</g>
<!-- inputForm&#45;&gt;inputForm -->
<g id="edge7" class="edge">
<title>inputForm&#45;&gt;inputForm</title>
<path fill="none" stroke="black" d="M319.52,-354.54C329.87,-353.18 337.5,-347.67 337.5,-338 337.5,-331.81 334.37,-327.32 329.4,-324.53"/>
<polygon fill="black" stroke="black" points="330.11,-321.09 319.52,-321.46 328.03,-327.77 330.11,-321.09"/>
<g id="a_edge7_2"><a xlink:href="docs/idempotent.doPartialSubmit.html" xlink:title="&lt;TABLE&gt;">
<text text-anchor="start" x="341.5" y="-354.6" font-family="Times,serif" font-size="13.00">doPartialSubmit (idempotent)</text>
</a>
</g>
<g id="a_edge7_3"><a xlink:href="docs/idempotent.doResetSubmit.html" xlink:title="&lt;TABLE&gt;">
<text text-anchor="start" x="341.5" y="-334.6" font-family="Times,serif" font-size="13.00">doResetSubmit (idempotent)</text>
</a>
</g>
<g id="a_edge7_4"><a xlink:href="docs/safe.goForm.html" xlink:title="&lt;TABLE&gt;">
<text text-anchor="start" x="341.5" y="-314.6" font-family="Times,serif" font-size="13.00">goForm (safe)</text>
</a>
</g>
</g>
<!-- completed -->
<g id="node9" class="node">
<title>completed</title>
<g id="a_node9"><a xlink:href="docs/semantic.completed.html" xlink:title="completed" target="_parent">
<polygon fill="lightgray" stroke="black" stroke-width="2" points="575,-206 484,-206 484,-170 575,-170 575,-206"/>
<text text-anchor="middle" x="529.5" y="-184.3" font-family="Times,serif" font-size="14.00">completed</text>
</a>
</g>
</g>
<!-- inputForm&#45;&gt;completed -->
<g id="edge5" class="edge">
<title>inputForm&#45;&gt;completed</title>
<g id="a_edge5"><a xlink:href="docs/idempotent.doFinalSubmit.html" xlink:title="doFinalSubmit, submit (idempotent)" target="_parent">
<path fill="none" stroke="black" d="M260.09,-286.8C256.92,-265.9 258.14,-242.86 272.5,-227 299.47,-197.19 412.93,-216.07 452.5,-209 459.51,-207.75 466.82,-206.19 474.03,-204.5"/>
<polygon fill="black" stroke="black" points="474.86,-207.89 483.75,-202.12 473.2,-201.09 474.86,-207.89"/>
</a>
</g>
<g id="a_edge5&#45;label"><a xlink:href="docs/idempotent.doFinalSubmit.html" xlink:title="doFinalSubmit, submit (idempotent)" target="_parent">
<text text-anchor="start" x="272.5" y="-244.6" font-family="Times,serif" font-size="13.00">doFinalSubmit, submit (idempotent)</text>
</a>
</g>
</g>
<!-- list -->
<g id="node4" class="node">
<title>list</title>
<g id="a_node4"><a xlink:href="docs/semantic.list.html" xlink:title="&lt;TABLE&gt;" target="_parent">
<polygon fill="lightgray" stroke="black" stroke-width="2" points="786,-359 711,-359 711,-317 786,-317 786,-359"/>
<text text-anchor="start" x="737.5" y="-341.8" font-family="Times,serif" font-size="14.00">list</text>
<text text-anchor="start" x="717.5" y="-326.8" font-family="Times,serif" font-size="14.00">(navlink)</text>
</a>
</g>
</g>
<!-- list&#45;&gt;home -->
<g id="edge9" class="edge">
<title>list&#45;&gt;home</title>
<g id="a_edge9"><a xlink:href="docs/safe.goHome.html" xlink:title="goHome, home (safe)" target="_parent">
<path fill="none" stroke="black" d="M732.18,-316.88C707.63,-283.99 666.85,-217.35 694.5,-167 709.68,-139.36 735.31,-117.81 762.08,-101.51"/>
<polygon fill="black" stroke="black" points="763.95,-104.47 770.81,-96.4 760.41,-98.43 763.95,-104.47"/>
</a>
</g>
<g id="a_edge9&#45;label"><a xlink:href="docs/safe.goHome.html" xlink:title="goHome, home (safe)" target="_parent">
<text text-anchor="start" x="694.5" y="-184.6" font-family="Times,serif" font-size="13.00">goHome, home (safe)</text>
</a>
</g>
</g>
<!-- list&#45;&gt;list -->
<g id="edge10" class="edge">
<title>list&#45;&gt;list</title>
<path fill="none" stroke="black" d="M786.11,-354.75C796.27,-353.87 804,-348.28 804,-338 804,-331.41 800.83,-326.75 795.88,-324.02"/>
<polygon fill="black" stroke="black" points="796.69,-320.62 786.11,-321.25 794.78,-327.35 796.69,-320.62"/>
<g id="a_edge10_5"><a xlink:href="docs/safe.goFirst.html" xlink:title="&lt;TABLE&gt;">
<text text-anchor="start" x="808.5" y="-374.6" font-family="Times,serif" font-size="13.00">goFirst (safe)</text>
</a>
</g>
<g id="a_edge10_6"><a xlink:href="docs/safe.goLast.html" xlink:title="&lt;TABLE&gt;">
<text text-anchor="start" x="808.5" y="-354.6" font-family="Times,serif" font-size="13.00">goLast (safe)</text>
</a>
</g>
<g id="a_edge10_7"><a xlink:href="docs/safe.goList.html" xlink:title="&lt;TABLE&gt;">
<text text-anchor="start" x="808.5" y="-334.6" font-family="Times,serif" font-size="13.00">goList (safe)</text>
</a>
</g>
<g id="a_edge10_8"><a xlink:href="docs/safe.goNext.html" xlink:title="&lt;TABLE&gt;">
<text text-anchor="start" x="808.5" y="-314.6" font-family="Times,serif" font-size="13.00">goNext (safe)</text>
</a>
</g>
<g id="a_edge10_9"><a xlink:href="docs/safe.goPrevious.html" xlink:title="&lt;TABLE&gt;">
<text text-anchor="start" x="808.5" y="-294.6" font-family="Times,serif" font-size="13.00">goPrevious (safe)</text>
</a>
</g>
</g>
<!-- exitList -->
<g id="node10" class="node">
<title>exitList</title>
<g id="a_node10"><a xlink:href="docs/semantic.exitList.html" xlink:title="exitList" target="_parent">
<polygon fill="lightgray" stroke="black" stroke-width="2" points="914,-206 843,-206 843,-170 914,-170 914,-206"/>
<text text-anchor="middle" x="878.5" y="-184.3" font-family="Times,serif" font-size="14.00">exitList</text>
</a>
</g>
</g>
<!-- list&#45;&gt;exitList -->
<g id="edge8" class="edge">
<title>list&#45;&gt;exitList</title>
<g id="a_edge8"><a xlink:href="docs/safe.goExit.html" xlink:title="goExit, collection nav exit (safe)" target="_parent">
<path fill="none" stroke="black" d="M741.87,-316.66C735.38,-292.5 729.14,-252.29 749.5,-227 772.09,-198.95 794.12,-219.72 828.5,-209 830.13,-208.49 831.77,-207.96 833.43,-207.4"/>
<polygon fill="black" stroke="black" points="834.72,-210.65 842.97,-204 832.37,-204.06 834.72,-210.65"/>
</a>
</g>
<g id="a_edge8&#45;label"><a xlink:href="docs/safe.goExit.html" xlink:title="goExit, collection nav exit (safe)" target="_parent">
<text text-anchor="start" x="749.5" y="-244.6" font-family="Times,serif" font-size="13.00">goExit, collection nav exit (safe)</text>
</a>
</g>
</g>
<!-- selectRecord -->
<g id="node11" class="node">
<title>selectRecord</title>
<g id="a_node11"><a xlink:href="docs/semantic.selectRecord.html" xlink:title="selectRecord" target="_parent">
<polygon fill="lightgray" stroke="black" stroke-width="2" points="1041,-206 932,-206 932,-170 1041,-170 1041,-206"/>
<text text-anchor="middle" x="986.5" y="-184.3" font-family="Times,serif" font-size="14.00">selectRecord</text>
</a>
</g>
</g>
<!-- list&#45;&gt;selectRecord -->
<g id="edge11" class="edge">
<title>list&#45;&gt;selectRecord</title>
<g id="a_edge11"><a xlink:href="docs/safe.goSelect.html" xlink:title="goSelect, collection nav select (safe)" target="_parent">
<path fill="none" stroke="black" d="M786.17,-335.7C834.3,-331.96 917.02,-318.25 964.5,-269 977.99,-255 983.38,-233.52 985.45,-216.35"/>
<polygon fill="black" stroke="black" points="988.94,-216.58 986.35,-206.31 981.97,-215.96 988.94,-216.58"/>
</a>
</g>
<g id="a_edge11&#45;label"><a xlink:href="docs/safe.goSelect.html" xlink:title="goSelect, collection nav select (safe)" target="_parent">
<text text-anchor="start" x="983.5" y="-244.6" font-family="Times,serif" font-size="13.00">goSelect, collection nav select (safe)</text>
</a>
</g>
</g>
<!-- mru -->
<g id="node5" class="node">
<title>mru</title>
<g id="a_node5"><a xlink:href="docs/semantic.mru.html" xlink:title="&lt;TABLE&gt;" target="_parent">
<polygon fill="lightgray" stroke="black" stroke-width="2" points="1138,-209 1059,-209 1059,-167 1138,-167 1138,-209"/>
<text text-anchor="start" x="1084" y="-191.8" font-family="Times,serif" font-size="14.00">mru</text>
<text text-anchor="start" x="1065.5" y="-176.8" font-family="Times,serif" font-size="14.00">(mrulink)</text>
</a>
</g>
</g>
<!-- mru&#45;&gt;home -->
<g id="edge12" class="edge">
<title>mru&#45;&gt;home</title>
<g id="a_edge12"><a xlink:href="docs/safe.goHome.html" xlink:title="goHome, home (safe)" target="_parent">
<path fill="none" stroke="black" d="M1098.39,-166.83C1097.31,-156.19 1094.27,-143.59 1086.5,-135 1055.65,-100.91 1008.85,-82.2 966.08,-71.94"/>
<polygon fill="black" stroke="black" points="966.7,-68.49 956.17,-69.69 965.15,-75.32 966.7,-68.49"/>
</a>
</g>
<g id="a_edge12&#45;label"><a xlink:href="docs/safe.goHome.html" xlink:title="goHome, home (safe)" target="_parent">
<text text-anchor="start" x="1093.5" y="-138.6" font-family="Times,serif" font-size="13.00">goHome, home (safe)</text>
</a>
</g>
</g>
<!-- mru&#45;&gt;mru -->
<g id="edge13" class="edge">
<title>mru&#45;&gt;mru</title>
<g id="a_edge13"><a xlink:href="docs/safe.goMRU.html" xlink:title="goMRU, mru (safe)" target="_parent">
<path fill="none" stroke="black" d="M1138.01,-196.54C1148.26,-196.01 1156,-193.17 1156,-188 1156,-184.77 1152.98,-182.45 1148.21,-181.03"/>
<polygon fill="black" stroke="black" points="1148.42,-177.53 1138.01,-179.46 1147.36,-184.44 1148.42,-177.53"/>
</a>
</g>
<g id="a_edge13&#45;label"><a xlink:href="docs/safe.goMRU.html" xlink:title="goMRU, mru (safe)" target="_parent">
<text text-anchor="start" x="1156" y="-184.6" font-family="Times,serif" font-size="13.00">goMRU, mru (safe)</text>
</a>
</g>
</g>
<!-- related -->
<g id="node6" class="node">
<title>related</title>
<g id="a_node6"><a xlink:href="docs/semantic.related.html" xlink:title="&lt;TABLE&gt;" target="_parent">
<polygon fill="lightgray" stroke="black" stroke-width="2" points="1400.5,-209 1300.5,-209 1300.5,-167 1400.5,-167 1400.5,-209"/>
<text text-anchor="start" x="1324.5" y="-191.8" font-family="Times,serif" font-size="14.00">related</text>
<text text-anchor="start" x="1306.5" y="-176.8" font-family="Times,serif" font-size="14.00">(relatedlink)</text>
</a>
</g>
</g>
<!-- related&#45;&gt;home -->
<g id="edge14" class="edge">
<title>related&#45;&gt;home</title>
<g id="a_edge14"><a xlink:href="docs/safe.goHome.html" xlink:title="goHome, home (safe)" target="_parent">
<path fill="none" stroke="black" d="M1312.69,-166.92C1291.15,-156.17 1263.37,-143.44 1237.5,-135 1147.85,-105.76 1042.25,-85.7 966.17,-73.64"/>
<polygon fill="black" stroke="black" points="966.52,-70.15 956.1,-72.07 965.44,-77.07 966.52,-70.15"/>
</a>
</g>
<g id="a_edge14&#45;label"><a xlink:href="docs/safe.goHome.html" xlink:title="goHome, home (safe)" target="_parent">
<text text-anchor="start" x="1272.5" y="-138.6" font-family="Times,serif" font-size="13.00">goHome, home (safe)</text>
</a>
</g>
</g>
<!-- wipitem -->
<g id="node7" class="node">
<title>wipitem</title>
<g id="a_node7"><a xlink:href="docs/semantic.wipitem.html" xlink:title="&lt;TABLE&gt;" target="_parent">
<polygon fill="lightgray" stroke="black" stroke-width="2" points="1507,-359 1432,-359 1432,-317 1507,-317 1507,-359"/>
<text text-anchor="start" x="1441" y="-341.8" font-family="Times,serif" font-size="14.00">wipitem</text>
<text text-anchor="start" x="1438.5" y="-326.8" font-family="Times,serif" font-size="14.00">(wiplink)</text>
</a>
</g>
</g>
<!-- wipitem&#45;&gt;home -->
<g id="edge16" class="edge">
<title>wipitem&#45;&gt;home</title>
<g id="a_edge16"><a xlink:href="docs/safe.goHome.html" xlink:title="goHome, home (safe)" target="_parent">
<path fill="none" stroke="black" d="M1464.13,-316.77C1460.54,-303.25 1455.72,-285.06 1451.5,-269 1435.85,-209.47 1462.55,-175.84 1416.5,-135 1351.7,-77.53 1107.71,-63.51 966.41,-60.28"/>
<polygon fill="black" stroke="black" points="966.07,-56.77 956,-60.05 965.93,-63.77 966.07,-56.77"/>
</a>
</g>
<g id="a_edge16&#45;label"><a xlink:href="docs/safe.goHome.html" xlink:title="goHome, home (safe)" target="_parent">
<text text-anchor="start" x="1445.5" y="-184.6" font-family="Times,serif" font-size="13.00">goHome, home (safe)</text>
</a>
</g>
</g>
<!-- wipitem&#45;&gt;wipitem -->
<g id="edge17" class="edge">
<title>wipitem&#45;&gt;wipitem</title>
<path fill="none" stroke="black" d="M1507.11,-354.75C1517.27,-353.87 1525,-348.28 1525,-338 1525,-331.41 1521.83,-326.75 1516.88,-324.02"/>
<polygon fill="black" stroke="black" points="1517.69,-320.62 1507.11,-321.25 1515.78,-327.35 1517.69,-320.62"/>
<g id="a_edge17_10"><a xlink:href="docs/idempotent.doShareWIP.html" xlink:title="&lt;TABLE&gt;">
<text text-anchor="start" x="1529.5" y="-374.6" font-family="Times,serif" font-size="13.00">doShareWIP (idempotent)</text>
</a>
</g>
<g id="a_edge17_11"><a xlink:href="docs/idempotent.doStatusWIP.html" xlink:title="&lt;TABLE&gt;">
<text text-anchor="start" x="1529.5" y="-354.6" font-family="Times,serif" font-size="13.00">doStatusWIP (idempotent)</text>
</a>
</g>
<g id="a_edge17_12"><a xlink:href="docs/idempotent.doSubmitWIP.html" xlink:title="&lt;TABLE&gt;">
<text text-anchor="start" x="1529.5" y="-334.6" font-family="Times,serif" font-size="13.00">doSubmitWIP (idempotent)</text>
</a>
</g>
<g id="a_edge17_13"><a xlink:href="docs/idempotent.doUpdateWIP.html" xlink:title="&lt;TABLE&gt;">
<text text-anchor="start" x="1529.5" y="-314.6" font-family="Times,serif" font-size="13.00">doUpdateWIP (idempotent)</text>
</a>
</g>
<g id="a_edge17_14"><a xlink:href="docs/safe.goReadWIP.html" xlink:title="&lt;TABLE&gt;">
<text text-anchor="start" x="1529.5" y="-294.6" font-family="Times,serif" font-size="13.00">goReadWIP (safe)</text>
</a>
</g>
</g>
<!-- wiplist -->
<g id="node8" class="node">
<title>wiplist</title>
<g id="a_node8"><a xlink:href="docs/semantic.wiplist.html" xlink:title="&lt;TABLE&gt;" target="_parent">
<polygon fill="lightgray" stroke="black" stroke-width="2" points="1670,-209 1595,-209 1595,-167 1670,-167 1670,-209"/>
<text text-anchor="start" x="1608.5" y="-191.8" font-family="Times,serif" font-size="14.00">wiplist</text>
<text text-anchor="start" x="1601.5" y="-176.8" font-family="Times,serif" font-size="14.00">(wiplink)</text>
</a>
</g>
</g>
<!-- wipitem&#45;&gt;wiplist -->
<g id="edge18" class="edge">
<title>wipitem&#45;&gt;wiplist</title>
<path fill="none" stroke="black" d="M1462.73,-316.87C1455.94,-292.54 1449.24,-251.79 1470.5,-227 1486.62,-208.2 1556.59,-215.48 1580.5,-209 1581.96,-208.6 1583.43,-208.18 1584.92,-207.74"/>
<polygon fill="black" stroke="black" points="1586.31,-210.97 1594.74,-204.55 1584.15,-204.31 1586.31,-210.97"/>
<g id="a_edge18_15"><a xlink:href="docs/idempotent.doCancelWIP.html" xlink:title="&lt;TABLE&gt;">
<text text-anchor="start" x="1474.5" y="-254.6" font-family="Times,serif" font-size="13.00">doCancelWIP (idempotent)</text>
</a>
</g>
<g id="a_edge18_16"><a xlink:href="docs/safe.goListWIP.html" xlink:title="&lt;TABLE&gt;">
<text text-anchor="start" x="1474.5" y="-234.6" font-family="Times,serif" font-size="13.00">goListWIP (safe)</text>
</a>
</g>
</g>
<!-- wiplist&#45;&gt;home -->
<g id="edge19" class="edge">
<title>wiplist&#45;&gt;home</title>
<g id="a_edge19"><a xlink:href="docs/safe.goHome.html" xlink:title="goHome, home (safe)" target="_parent">
<path fill="none" stroke="black" d="M1594.92,-171.91C1590.1,-170.16 1585.21,-168.48 1580.5,-167 1523.73,-149.17 1508.99,-145.92 1450.5,-135 1281.94,-103.52 1083.69,-81 966.09,-69.13"/>
<polygon fill="black" stroke="black" points="966.32,-65.64 956.02,-68.12 965.62,-72.6 966.32,-65.64"/>
</a>
</g>
<g id="a_edge19&#45;label"><a xlink:href="docs/safe.goHome.html" xlink:title="goHome, home (safe)" target="_parent">
<text text-anchor="start" x="1517.5" y="-138.6" font-family="Times,serif" font-size="13.00">goHome, home (safe)</text>
</a>
</g>
</g>
<!-- wiplist&#45;&gt;wipitem -->
<g id="edge20" class="edge">
<title>wiplist&#45;&gt;wipitem</title>
<path fill="none" stroke="black" d="M1647.64,-209.28C1658.45,-226.46 1669.06,-251.07 1656.5,-269 1625.24,-313.63 1561.52,-329.07 1517.2,-334.36"/>
<polygon fill="black" stroke="black" points="1516.8,-330.88 1507.23,-335.42 1517.54,-337.84 1516.8,-330.88"/>
<g id="a_edge20_17"><a xlink:href="docs/idempotent.doCreateWIP.html" xlink:title="&lt;TABLE&gt;">
<text text-anchor="start" x="1666" y="-254.6" font-family="Times,serif" font-size="13.00">doCreateWIP (idempotent)</text>
</a>
</g>
<g id="a_edge20_18"><a xlink:href="docs/safe.goReadWIP.html" xlink:title="&lt;TABLE&gt;">
<text text-anchor="start" x="1666" y="-234.6" font-family="Times,serif" font-size="13.00">goReadWIP (safe)</text>
</a>
</g>
</g>
<!-- wiplist&#45;&gt;wiplist -->
<g id="edge21" class="edge">
<title>wiplist&#45;&gt;wiplist</title>
<path fill="none" stroke="black" d="M1670.11,-196.56C1680.27,-196.11 1688,-193.26 1688,-188 1688,-184.72 1684.98,-182.37 1680.24,-180.96"/>
<polygon fill="black" stroke="black" points="1680.52,-177.46 1670.11,-179.44 1679.48,-184.39 1680.52,-177.46"/>
<g id="a_edge21_19"><a xlink:href="docs/safe.goFilterWIP.html" xlink:title="&lt;TABLE&gt;">
<text text-anchor="start" x="1692" y="-194.6" font-family="Times,serif" font-size="13.00">goFilterWIP (safe)</text>
</a>
</g>
<g id="a_edge21_20"><a xlink:href="docs/safe.goListWIP.html" xlink:title="&lt;TABLE&gt;">
<text text-anchor="start" x="1692" y="-174.6" font-family="Times,serif" font-size="13.00">goListWIP (safe)</text>
</a>
</g>
</g>
<!-- completed&#45;&gt;home -->
<g id="edge2" class="edge">
<title>completed&#45;&gt;home</title>
<g id="a_edge2"><a xlink:href="docs/safe.goHome.html" xlink:title="goHome, home (safe)" target="_parent">
<path fill="none" stroke="black" d="M524.84,-169.71C522.95,-158.6 522.74,-144.52 530.5,-135 559.31,-99.63 673.84,-79.5 760.6,-69.07"/>
<polygon fill="black" stroke="black" points="761.25,-72.52 770.77,-67.88 760.43,-65.57 761.25,-72.52"/>
</a>
</g>
<g id="a_edge2&#45;label"><a xlink:href="docs/safe.goHome.html" xlink:title="goHome, home (safe)" target="_parent">
<text text-anchor="start" x="530.5" y="-138.6" font-family="Times,serif" font-size="13.00">goHome, home (safe)</text>
</a>
</g>
</g>
<!-- completed&#45;&gt;inputForm -->
<g id="edge3" class="edge">
<title>completed&#45;&gt;inputForm</title>
<g id="a_edge3"><a xlink:href="docs/safe.goForm.html" xlink:title="goForm, form (safe)" target="_parent">
<path fill="none" stroke="black" d="M531.9,-206.21C533.37,-224.09 532.64,-251.83 517.5,-269 492.85,-296.94 393.43,-317.86 329.94,-328.69"/>
<polygon fill="black" stroke="black" points="328.98,-325.31 319.69,-330.41 330.13,-332.21 328.98,-325.31"/>
</a>
</g>
<g id="a_edge3&#45;label"><a xlink:href="docs/safe.goForm.html" xlink:title="goForm, form (safe)" target="_parent">
<text text-anchor="start" x="531.5" y="-244.6" font-family="Times,serif" font-size="13.00">goForm, form (safe)</text>
</a>
</g>
</g>
<!-- exitList&#45;&gt;home -->
<g id="edge4" class="edge">
<title>exitList&#45;&gt;home</title>
<g id="a_edge4"><a xlink:href="docs/safe.goHome.html" xlink:title="goHome, home (safe)" target="_parent">
<path fill="none" stroke="black" d="M842.86,-172.74C815.9,-161.96 783.5,-149 783.5,-149 778.52,-141.64 777.42,-134.26 779.04,-127.05"/>
<polygon fill="black" stroke="black" points="782.44,-127.95 782.82,-117.36 775.92,-125.4 782.44,-127.95"/>
</a>
</g>
<g id="a_edge4&#45;label"><a xlink:href="docs/safe.goHome.html" xlink:title="goHome, home (safe)" target="_parent">
<text text-anchor="start" x="783.5" y="-138.6" font-family="Times,serif" font-size="13.00">goHome, home (safe)</text>
</a>
</g>
</g>
<!-- selectRecord&#45;&gt;home -->
<g id="edge15" class="edge">
<title>selectRecord&#45;&gt;home</title>
<g id="a_edge15"><a xlink:href="docs/safe.goHome.html" xlink:title="goHome, home (safe)" target="_parent">
<path fill="none" stroke="black" d="M967.94,-169.84C961.11,-163.39 953.37,-155.95 946.5,-149 938.86,-141.27 930.95,-133.04 923.18,-124.83"/>
<polygon fill="black" stroke="black" points="925.5,-122.19 916.1,-117.3 920.41,-126.98 925.5,-122.19"/>
</a>
</g>
<g id="a_edge15&#45;label"><a xlink:href="docs/safe.goHome.html" xlink:title="goHome, home (safe)" target="_parent">
<text text-anchor="start" x="946.5" y="-138.6" font-family="Times,serif" font-size="13.00">goHome, home (safe)</text>
</a>
</g>
</g>
</g>
</svg>
