<?xml version="1.0" encoding="UTF-8" standalone="no"?>
<!DOCTYPE svg PUBLIC "-//W3C//DTD SVG 1.1//EN"
 "http://www.w3.org/Graphics/SVG/1.1/DTD/svg11.dtd">
<!-- Generated by graphviz version 2.43.0 (0)
 -->
<!-- Title: application_state_diagram Pages: 1 -->
<svg width="2924pt" height="774pt"
 viewBox="0.00 0.00 2923.74 774.00" xmlns="http://www.w3.org/2000/svg" xmlns:xlink="http://www.w3.org/1999/xlink">
<g id="graph0" class="graph" transform="scale(1 1) rotate(0) translate(4 770)">
<title>application_state_diagram</title>
<g id="a_graph0"><a xlink:href="index.html" xlink:title="Combined Semantic Profiles for RWMBook" target="_parent">
<polygon fill="white" stroke="transparent" points="-4,4 -4,-770 2919.74,-770 2919.74,4 -4,4"/>
<text text-anchor="middle" x="1457.87" y="-750.8" font-family="Helvetica,sans-Serif" font-size="14.00">Combined Semantic Profiles for RWMBook</text>
</a>
</g>
<!-- apisJSON -->
<g id="node1" class="node">
<title>apisJSON</title>
<g id="a_node1"><a xlink:href="docs/semantic.apisJSON.html" xlink:title="&lt;TABLE&gt;" target="_parent">
<polygon fill="lightgray" stroke="black" stroke-width="2" points="1446.74,-743 1326.74,-743 1326.74,-506 1446.74,-506 1446.74,-743"/>
<text text-anchor="start" x="1352.74" y="-725.3" font-family="Times,serif" font-size="14.00">apisJSON</text>
<text text-anchor="start" x="1361.74" y="-710.3" font-family="Times,serif" font-size="14.00">(name)</text>
<text text-anchor="start" x="1341.24" y="-695.3" font-family="Times,serif" font-size="14.00">(description)</text>
<text text-anchor="start" x="1359.24" y="-680.3" font-family="Times,serif" font-size="14.00">(image)</text>
<text text-anchor="start" x="1371.24" y="-665.3" font-family="Times,serif" font-size="14.00">(url)</text>
<text text-anchor="start" x="1365.74" y="-650.3" font-family="Times,serif" font-size="14.00">(tags)</text>
<text text-anchor="start" x="1354.24" y="-635.3" font-family="Times,serif" font-size="14.00">(created)</text>
<text text-anchor="start" x="1350.24" y="-620.3" font-family="Times,serif" font-size="14.00">(modified)</text>
<text text-anchor="start" x="1366.74" y="-605.3" font-family="Times,serif" font-size="14.00">(apis)</text>
<text text-anchor="start" x="1363.74" y="-590.3" font-family="Times,serif" font-size="14.00">(tools)</text>
<text text-anchor="start" x="1332.74" y="-575.3" font-family="Times,serif" font-size="14.00">(specifications)</text>
<text text-anchor="start" x="1346.24" y="-560.3" font-family="Times,serif" font-size="14.00">(resources)</text>
<text text-anchor="start" x="1351.24" y="-545.3" font-family="Times,serif" font-size="14.00">(common)</text>
<text text-anchor="start" x="1355.24" y="-530.3" font-family="Times,serif" font-size="14.00">(include)</text>
<text text-anchor="start" x="1338.24" y="-515.3" font-family="Times,serif" font-size="14.00">(maintainers)</text>
</a>
</g>
</g>
<!-- home -->
<g id="node10" class="node">
<title>home</title>
<g id="a_node10"><a xlink:href="docs/semantic.home.html" xlink:title="home" target="_parent">
<polygon fill="lightgray" stroke="black" stroke-width="2" points="1414.74,-456 1358.74,-456 1358.74,-420 1414.74,-420 1414.74,-456"/>
<text text-anchor="middle" x="1386.74" y="-434.3" font-family="Times,serif" font-size="14.00">home</text>
</a>
</g>
</g>
<!-- apisJSON&#45;&gt;home -->
<g id="edge1" class="edge">
<title>apisJSON&#45;&gt;home</title>
<g id="a_edge1"><a xlink:href="docs/safe.goHome.html" xlink:title="goHome, home (safe)" target="_parent">
<path fill="none" stroke="black" d="M1326.63,-566.78C1303.78,-538.26 1287.41,-503.56 1306.74,-474 1316.23,-459.5 1333.19,-450.97 1349.06,-445.97"/>
<polygon fill="black" stroke="black" points="1350.02,-449.34 1358.72,-443.29 1348.15,-442.59 1350.02,-449.34"/>
</a>
</g>
<g id="a_edge1&#45;label"><a xlink:href="docs/safe.goHome.html" xlink:title="goHome, home (safe)" target="_parent">
<text text-anchor="start" x="1306.74" y="-477.6" font-family="Times,serif" font-size="13.00">goHome, home (safe)</text>
</a>
</g>
</g>
<!-- clientMetaPreferences -->
<g id="node2" class="node">
<title>clientMetaPreferences</title>
<g id="a_node2"><a xlink:href="docs/semantic.clientMetaPreferences.html" xlink:title="&lt;TABLE&gt;" target="_parent">
<polygon fill="lightgray" stroke="black" stroke-width="2" points="219.24,-282 44.24,-282 44.24,-240 219.24,-240 219.24,-282"/>
<text text-anchor="start" x="50.74" y="-264.8" font-family="Times,serif" font-size="14.00">clientMetaPreferences</text>
<text text-anchor="start" x="65.74" y="-249.8" font-family="Times,serif" font-size="14.00">(MetaPreferences)</text>
</a>
</g>
</g>
<!-- clientMetaPreferences&#45;&gt;home -->
<g id="edge2" class="edge">
<title>clientMetaPreferences&#45;&gt;home</title>
<g id="a_edge2"><a xlink:href="docs/safe.goHome.html" xlink:title="goHome, home (safe)" target="_parent">
<path fill="none" stroke="black" d="M153.78,-282.29C173.91,-301.37 203.92,-331.22 226.74,-360 240.54,-377.39 234.43,-391.07 253.74,-402 302.36,-429.52 1156.21,-435.76 1348.5,-436.81"/>
<polygon fill="black" stroke="black" points="1348.67,-440.32 1358.69,-436.87 1348.71,-433.32 1348.67,-440.32"/>
</a>
</g>
<g id="a_edge2&#45;label"><a xlink:href="docs/safe.goHome.html" xlink:title="goHome, home (safe)" target="_parent">
<text text-anchor="start" x="253.74" y="-377.6" font-family="Times,serif" font-size="13.00">goHome, home (safe)</text>
</a>
</g>
</g>
<!-- health -->
<g id="node3" class="node">
<title>health</title>
<g id="a_node3"><a xlink:href="docs/semantic.health.html" xlink:title="&lt;TABLE&gt;" target="_parent">
<polygon fill="lightgray" stroke="black" stroke-width="2" points="550.24,-342 447.24,-342 447.24,-180 550.24,-180 550.24,-342"/>
<text text-anchor="start" x="476.24" y="-324.8" font-family="Times,serif" font-size="14.00">health</text>
<text text-anchor="start" x="471.74" y="-309.8" font-family="Times,serif" font-size="14.00">(status)</text>
<text text-anchor="start" x="467.24" y="-294.8" font-family="Times,serif" font-size="14.00">(version)</text>
<text text-anchor="start" x="460.74" y="-279.8" font-family="Times,serif" font-size="14.00">(releaseId)</text>
<text text-anchor="start" x="474.24" y="-264.8" font-family="Times,serif" font-size="14.00">(notes)</text>
<text text-anchor="start" x="470.24" y="-249.8" font-family="Times,serif" font-size="14.00">(output)</text>
<text text-anchor="start" x="469.74" y="-234.8" font-family="Times,serif" font-size="14.00">(checks)</text>
<text text-anchor="start" x="476.74" y="-219.8" font-family="Times,serif" font-size="14.00">(links)</text>
<text text-anchor="start" x="461.24" y="-204.8" font-family="Times,serif" font-size="14.00">(serviceId)</text>
<text text-anchor="start" x="453.74" y="-189.8" font-family="Times,serif" font-size="14.00">(description)</text>
</a>
</g>
</g>
<!-- health&#45;&gt;home -->
<g id="edge6" class="edge">
<title>health&#45;&gt;home</title>
<g id="a_edge6"><a xlink:href="docs/safe.goHome.html" xlink:title="goHome, home (safe)" target="_parent">
<path fill="none" stroke="black" d="M550.26,-336.99C555.25,-344.7 560.16,-352.47 564.74,-360 575.81,-378.18 569.68,-390.75 587.74,-402 620.34,-422.29 1193.1,-433.65 1348.25,-436.36"/>
<polygon fill="black" stroke="black" points="1348.63,-439.87 1358.69,-436.54 1348.75,-432.87 1348.63,-439.87"/>
</a>
</g>
<g id="a_edge6&#45;label"><a xlink:href="docs/safe.goHome.html" xlink:title="goHome, home (safe)" target="_parent">
<text text-anchor="start" x="587.74" y="-377.6" font-family="Times,serif" font-size="13.00">goHome, home (safe)</text>
</a>
</g>
</g>
<!-- inputForm -->
<g id="node4" class="node">
<title>inputForm</title>
<g id="a_node4"><a xlink:href="docs/semantic.inputForm.html" xlink:title="&lt;TABLE&gt;" target="_parent">
<polygon fill="lightgray" stroke="black" stroke-width="2" points="987.74,-312 899.74,-312 899.74,-210 987.74,-210 987.74,-312"/>
<text text-anchor="start" x="905.74" y="-294.8" font-family="Times,serif" font-size="14.00">inputForm</text>
<text text-anchor="start" x="923.74" y="-279.8" font-family="Times,serif" font-size="14.00">(href)</text>
<text text-anchor="start" x="928.24" y="-264.8" font-family="Times,serif" font-size="14.00">(rel)</text>
<text text-anchor="start" x="923.74" y="-249.8" font-family="Times,serif" font-size="14.00">(title)</text>
<text text-anchor="start" x="922.24" y="-234.8" font-family="Times,serif" font-size="14.00">(type)</text>
<text text-anchor="start" x="919.24" y="-219.8" font-family="Times,serif" font-size="14.00">(input)</text>
</a>
</g>
</g>
<!-- inputForm&#45;&gt;inputForm -->
<g id="edge17" class="edge">
<title>inputForm&#45;&gt;inputForm</title>
<path fill="none" stroke="black" d="M987.77,-283.06C998.11,-281.24 1005.74,-273.89 1005.74,-261 1005.74,-252.54 1002.46,-246.47 997.28,-242.78"/>
<polygon fill="black" stroke="black" points="998.35,-239.44 987.77,-238.94 995.73,-245.93 998.35,-239.44"/>
<g id="a_edge17_0"><a xlink:href="docs/idempotent.doPartialSubmit.html" xlink:title="&lt;TABLE&gt;">
<text text-anchor="start" x="1009.74" y="-277.6" font-family="Times,serif" font-size="13.00">doPartialSubmit (idempotent)</text>
</a>
</g>
<g id="a_edge17_1"><a xlink:href="docs/idempotent.doResetSubmit.html" xlink:title="&lt;TABLE&gt;">
<text text-anchor="start" x="1009.74" y="-257.6" font-family="Times,serif" font-size="13.00">doResetSubmit (idempotent)</text>
</a>
</g>
<g id="a_edge17_2"><a xlink:href="docs/safe.goForm.html" xlink:title="&lt;TABLE&gt;">
<text text-anchor="start" x="1009.74" y="-237.6" font-family="Times,serif" font-size="13.00">goForm (safe)</text>
</a>
</g>
</g>
<!-- inputForm&#45;&gt;home -->
<g id="edge16" class="edge">
<title>inputForm&#45;&gt;home</title>
<path fill="none" stroke="black" d="M926.5,-312.13C919.7,-341.95 917.95,-378.44 939.74,-402 967.21,-431.7 1244.85,-436.25 1348.23,-436.9"/>
<polygon fill="black" stroke="black" points="1348.52,-440.4 1358.53,-436.96 1348.55,-433.4 1348.52,-440.4"/>
<g id="a_edge16_3"><a xlink:href="docs/idempotent.doCancelSubmit.html" xlink:title="&lt;TABLE&gt;">
<text text-anchor="start" x="943.74" y="-387.6" font-family="Times,serif" font-size="13.00">doCancelSubmit (idempotent)</text>
</a>
</g>
<g id="a_edge16_4"><a xlink:href="docs/safe.goHome.html" xlink:title="&lt;TABLE&gt;">
<text text-anchor="start" x="943.74" y="-367.6" font-family="Times,serif" font-size="13.00">goHome (safe)</text>
</a>
</g>
</g>
<!-- completed -->
<g id="node11" class="node">
<title>completed</title>
<g id="a_node11"><a xlink:href="docs/semantic.completed.html" xlink:title="completed" target="_parent">
<polygon fill="lightgray" stroke="black" stroke-width="2" points="836.24,-69 745.24,-69 745.24,-33 836.24,-33 836.24,-69"/>
<text text-anchor="middle" x="790.74" y="-47.3" font-family="Times,serif" font-size="14.00">completed</text>
</a>
</g>
</g>
<!-- inputForm&#45;&gt;completed -->
<g id="edge15" class="edge">
<title>inputForm&#45;&gt;completed</title>
<g id="a_edge15"><a xlink:href="docs/idempotent.doFinalSubmit.html" xlink:title="doFinalSubmit, submit (idempotent)" target="_parent">
<path fill="none" stroke="black" d="M946.56,-209.84C945.73,-181.11 940.29,-145.76 921.74,-120 903.47,-94.61 872.82,-77.97 845.77,-67.51"/>
<polygon fill="black" stroke="black" points="846.97,-64.22 836.37,-64.06 844.55,-70.79 846.97,-64.22"/>
</a>
</g>
<g id="a_edge15&#45;label"><a xlink:href="docs/idempotent.doFinalSubmit.html" xlink:title="doFinalSubmit, submit (idempotent)" target="_parent">
<text text-anchor="start" x="940.74" y="-137.6" font-family="Times,serif" font-size="13.00">doFinalSubmit, submit (idempotent)</text>
</a>
</g>
</g>
<!-- list -->
<g id="node5" class="node">
<title>list</title>
<g id="a_node5"><a xlink:href="docs/semantic.list.html" xlink:title="&lt;TABLE&gt;" target="_parent">
<polygon fill="lightgray" stroke="black" stroke-width="2" points="2491.24,-282 2416.24,-282 2416.24,-240 2491.24,-240 2491.24,-282"/>
<text text-anchor="start" x="2442.74" y="-264.8" font-family="Times,serif" font-size="14.00">list</text>
<text text-anchor="start" x="2422.74" y="-249.8" font-family="Times,serif" font-size="14.00">(navlink)</text>
</a>
</g>
</g>
<!-- list&#45;&gt;list -->
<g id="edge20" class="edge">
<title>list&#45;&gt;list</title>
<path fill="none" stroke="black" d="M2479.15,-282C2494.61,-286.87 2509.24,-279.87 2509.24,-261 2509.24,-246.41 2500.49,-238.91 2489.37,-238.52"/>
<polygon fill="black" stroke="black" points="2488.54,-235.1 2479.15,-240 2489.55,-242.03 2488.54,-235.1"/>
<g id="a_edge20_5"><a xlink:href="docs/safe.goFirst.html" xlink:title="&lt;TABLE&gt;">
<text text-anchor="start" x="2513.74" y="-297.6" font-family="Times,serif" font-size="13.00">goFirst (safe)</text>
</a>
</g>
<g id="a_edge20_6"><a xlink:href="docs/safe.goLast.html" xlink:title="&lt;TABLE&gt;">
<text text-anchor="start" x="2513.74" y="-277.6" font-family="Times,serif" font-size="13.00">goLast (safe)</text>
</a>
</g>
<g id="a_edge20_7"><a xlink:href="docs/safe.goList.html" xlink:title="&lt;TABLE&gt;">
<text text-anchor="start" x="2513.74" y="-257.6" font-family="Times,serif" font-size="13.00">goList (safe)</text>
</a>
</g>
<g id="a_edge20_8"><a xlink:href="docs/safe.goNext.html" xlink:title="&lt;TABLE&gt;">
<text text-anchor="start" x="2513.74" y="-237.6" font-family="Times,serif" font-size="13.00">goNext (safe)</text>
</a>
</g>
<g id="a_edge20_9"><a xlink:href="docs/safe.goPrevious.html" xlink:title="&lt;TABLE&gt;">
<text text-anchor="start" x="2513.74" y="-217.6" font-family="Times,serif" font-size="13.00">goPrevious (safe)</text>
</a>
</g>
</g>
<!-- list&#45;&gt;home -->
<g id="edge19" class="edge">
<title>list&#45;&gt;home</title>
<g id="a_edge19"><a xlink:href="docs/safe.goHome.html" xlink:title="goHome, home (safe)" target="_parent">
<path fill="none" stroke="black" d="M2461.37,-282.11C2471.46,-312.55 2484.59,-370.12 2453.74,-402 2417.28,-439.68 1611.1,-438.09 1424.89,-437.22"/>
<polygon fill="black" stroke="black" points="1424.77,-433.72 1414.75,-437.17 1424.74,-440.72 1424.77,-433.72"/>
</a>
</g>
<g id="a_edge19&#45;label"><a xlink:href="docs/safe.goHome.html" xlink:title="goHome, home (safe)" target="_parent">
<text text-anchor="start" x="2471.74" y="-377.6" font-family="Times,serif" font-size="13.00">goHome, home (safe)</text>
</a>
</g>
</g>
<!-- exitList -->
<g id="node12" class="node">
<title>exitList</title>
<g id="a_node12"><a xlink:href="docs/semantic.exitList.html" xlink:title="exitList" target="_parent">
<polygon fill="lightgray" stroke="black" stroke-width="2" points="2287.24,-69 2216.24,-69 2216.24,-33 2287.24,-33 2287.24,-69"/>
<text text-anchor="middle" x="2251.74" y="-47.3" font-family="Times,serif" font-size="14.00">exitList</text>
</a>
</g>
</g>
<!-- list&#45;&gt;exitList -->
<g id="edge18" class="edge">
<title>list&#45;&gt;exitList</title>
<g id="a_edge18"><a xlink:href="docs/safe.goExit.html" xlink:title="goExit, collection nav exit (safe)" target="_parent">
<path fill="none" stroke="black" d="M2440.85,-239.65C2427.83,-220.94 2405.93,-194.03 2379.74,-180 2335.3,-156.19 2303.13,-197.91 2267.74,-162 2246.63,-140.56 2245.3,-104.43 2247.49,-79.46"/>
<polygon fill="black" stroke="black" points="2251,-79.52 2248.64,-69.19 2244.05,-78.74 2251,-79.52"/>
</a>
</g>
<g id="a_edge18&#45;label"><a xlink:href="docs/safe.goExit.html" xlink:title="goExit, collection nav exit (safe)" target="_parent">
<text text-anchor="start" x="2267.74" y="-137.6" font-family="Times,serif" font-size="13.00">goExit, collection nav exit (safe)</text>
</a>
</g>
</g>
<!-- selectRecord -->
<g id="node13" class="node">
<title>selectRecord</title>
<g id="a_node13"><a xlink:href="docs/semantic.selectRecord.html" xlink:title="selectRecord" target="_parent">
<polygon fill="lightgray" stroke="black" stroke-width="2" points="2690.24,-69 2581.24,-69 2581.24,-33 2690.24,-33 2690.24,-69"/>
<text text-anchor="middle" x="2635.74" y="-47.3" font-family="Times,serif" font-size="14.00">selectRecord</text>
</a>
</g>
</g>
<!-- list&#45;&gt;selectRecord -->
<g id="edge21" class="edge">
<title>list&#45;&gt;selectRecord</title>
<g id="a_edge21"><a xlink:href="docs/safe.goSelect.html" xlink:title="goSelect, collection nav select (safe)" target="_parent">
<path fill="none" stroke="black" d="M2459.63,-239.77C2469.88,-205.59 2491.46,-138.37 2507.74,-120 2525.94,-99.47 2551.86,-84.09 2575.62,-73.2"/>
<polygon fill="black" stroke="black" points="2577.19,-76.33 2584.94,-69.1 2574.38,-69.93 2577.19,-76.33"/>
</a>
</g>
<g id="a_edge21&#45;label"><a xlink:href="docs/safe.goSelect.html" xlink:title="goSelect, collection nav select (safe)" target="_parent">
<text text-anchor="start" x="2507.74" y="-137.6" font-family="Times,serif" font-size="13.00">goSelect, collection nav select (safe)</text>
</a>
</g>
</g>
<!-- mru -->
<g id="node6" class="node">
<title>mru</title>
<g id="a_node6"><a xlink:href="docs/semantic.mru.html" xlink:title="&lt;TABLE&gt;" target="_parent">
<polygon fill="lightgray" stroke="black" stroke-width="2" points="1326.24,-282 1247.24,-282 1247.24,-240 1326.24,-240 1326.24,-282"/>
<text text-anchor="start" x="1272.24" y="-264.8" font-family="Times,serif" font-size="14.00">mru</text>
<text text-anchor="start" x="1253.74" y="-249.8" font-family="Times,serif" font-size="14.00">(mrulink)</text>
</a>
</g>
</g>
<!-- mru&#45;&gt;mru -->
<g id="edge23" class="edge">
<title>mru&#45;&gt;mru</title>
<g id="a_edge23"><a xlink:href="docs/safe.goMRU.html" xlink:title="goMRU, mru (safe)" target="_parent">
<path fill="none" stroke="black" d="M1313.06,-282C1329.08,-286.87 1344.24,-279.87 1344.24,-261 1344.24,-246.11 1334.8,-238.61 1322.95,-238.5"/>
<polygon fill="black" stroke="black" points="1322.43,-235.04 1313.06,-240 1323.47,-241.96 1322.43,-235.04"/>
</a>
</g>
<g id="a_edge23&#45;label"><a xlink:href="docs/safe.goMRU.html" xlink:title="goMRU, mru (safe)" target="_parent">
<text text-anchor="start" x="1344.24" y="-257.6" font-family="Times,serif" font-size="13.00">goMRU, mru (safe)</text>
</a>
</g>
</g>
<!-- mru&#45;&gt;home -->
<g id="edge22" class="edge">
<title>mru&#45;&gt;home</title>
<g id="a_edge22"><a xlink:href="docs/safe.goHome.html" xlink:title="goHome, home (safe)" target="_parent">
<path fill="none" stroke="black" d="M1283.91,-282.39C1280.97,-311.9 1279.99,-366.82 1306.74,-402 1316.98,-415.46 1333.49,-423.84 1348.86,-429"/>
<polygon fill="black" stroke="black" points="1348.13,-432.44 1358.72,-431.96 1350.14,-425.73 1348.13,-432.44"/>
</a>
</g>
<g id="a_edge22&#45;label"><a xlink:href="docs/safe.goHome.html" xlink:title="goHome, home (safe)" target="_parent">
<text text-anchor="start" x="1306.74" y="-377.6" font-family="Times,serif" font-size="13.00">goHome, home (safe)</text>
</a>
</g>
</g>
<!-- related -->
<g id="node7" class="node">
<title>related</title>
<g id="a_node7"><a xlink:href="docs/semantic.related.html" xlink:title="&lt;TABLE&gt;" target="_parent">
<polygon fill="lightgray" stroke="black" stroke-width="2" points="1646.74,-282 1546.74,-282 1546.74,-240 1646.74,-240 1646.74,-282"/>
<text text-anchor="start" x="1570.74" y="-264.8" font-family="Times,serif" font-size="14.00">related</text>
<text text-anchor="start" x="1552.74" y="-249.8" font-family="Times,serif" font-size="14.00">(relatedlink)</text>
</a>
</g>
</g>
<!-- related&#45;&gt;home -->
<g id="edge24" class="edge">
<title>related&#45;&gt;home</title>
<g id="a_edge24"><a xlink:href="docs/safe.goHome.html" xlink:title="goHome, home (safe)" target="_parent">
<path fill="none" stroke="black" d="M1607.48,-282.35C1621.63,-312.32 1641.56,-368.38 1612.74,-402 1589.03,-429.67 1483.11,-435.65 1425.08,-436.83"/>
<polygon fill="black" stroke="black" points="1424.78,-433.33 1414.83,-436.99 1424.89,-440.33 1424.78,-433.33"/>
</a>
</g>
<g id="a_edge24&#45;label"><a xlink:href="docs/safe.goHome.html" xlink:title="goHome, home (safe)" target="_parent">
<text text-anchor="start" x="1627.74" y="-377.6" font-family="Times,serif" font-size="13.00">goHome, home (safe)</text>
</a>
</g>
</g>
<!-- wipitem -->
<g id="node8" class="node">
<title>wipitem</title>
<g id="a_node8"><a xlink:href="docs/semantic.wipitem.html" xlink:title="&lt;TABLE&gt;" target="_parent">
<polygon fill="lightgray" stroke="black" stroke-width="2" points="1860.24,-72 1785.24,-72 1785.24,-30 1860.24,-30 1860.24,-72"/>
<text text-anchor="start" x="1794.24" y="-54.8" font-family="Times,serif" font-size="14.00">wipitem</text>
<text text-anchor="start" x="1791.74" y="-39.8" font-family="Times,serif" font-size="14.00">(wiplink)</text>
</a>
</g>
</g>
<!-- wipitem&#45;&gt;wipitem -->
<g id="edge27" class="edge">
<title>wipitem&#45;&gt;wipitem</title>
<path fill="none" stroke="black" d="M1860.36,-67.75C1870.52,-66.87 1878.24,-61.28 1878.24,-51 1878.24,-44.41 1875.07,-39.75 1870.12,-37.02"/>
<polygon fill="black" stroke="black" points="1870.93,-33.62 1860.36,-34.25 1869.02,-40.35 1870.93,-33.62"/>
<g id="a_edge27_10"><a xlink:href="docs/idempotent.doShareWIP.html" xlink:title="&lt;TABLE&gt;">
<text text-anchor="start" x="1882.74" y="-87.6" font-family="Times,serif" font-size="13.00">doShareWIP (idempotent)</text>
</a>
</g>
<g id="a_edge27_11"><a xlink:href="docs/idempotent.doStatusWIP.html" xlink:title="&lt;TABLE&gt;">
<text text-anchor="start" x="1882.74" y="-67.6" font-family="Times,serif" font-size="13.00">doStatusWIP (idempotent)</text>
</a>
</g>
<g id="a_edge27_12"><a xlink:href="docs/idempotent.doSubmitWIP.html" xlink:title="&lt;TABLE&gt;">
<text text-anchor="start" x="1882.74" y="-47.6" font-family="Times,serif" font-size="13.00">doSubmitWIP (idempotent)</text>
</a>
</g>
<g id="a_edge27_13"><a xlink:href="docs/idempotent.doUpdateWIP.html" xlink:title="&lt;TABLE&gt;">
<text text-anchor="start" x="1882.74" y="-27.6" font-family="Times,serif" font-size="13.00">doUpdateWIP (idempotent)</text>
</a>
</g>
<g id="a_edge27_14"><a xlink:href="docs/safe.goReadWIP.html" xlink:title="&lt;TABLE&gt;">
<text text-anchor="start" x="1882.74" y="-7.6" font-family="Times,serif" font-size="13.00">goReadWIP (safe)</text>
</a>
</g>
</g>
<!-- wiplist -->
<g id="node9" class="node">
<title>wiplist</title>
<g id="a_node9"><a xlink:href="docs/semantic.wiplist.html" xlink:title="&lt;TABLE&gt;" target="_parent">
<polygon fill="lightgray" stroke="black" stroke-width="2" points="2037.24,-282 1962.24,-282 1962.24,-240 2037.24,-240 2037.24,-282"/>
<text text-anchor="start" x="1975.74" y="-264.8" font-family="Times,serif" font-size="14.00">wiplist</text>
<text text-anchor="start" x="1968.74" y="-249.8" font-family="Times,serif" font-size="14.00">(wiplink)</text>
</a>
</g>
</g>
<!-- wipitem&#45;&gt;wiplist -->
<g id="edge28" class="edge">
<title>wipitem&#45;&gt;wiplist</title>
<path fill="none" stroke="black" d="M1815.97,-72.13C1809.18,-96.46 1802.49,-137.21 1823.74,-162 1855.99,-199.61 1890.79,-155.32 1933.74,-180 1954.62,-191.99 1971.69,-213.28 1983.24,-230.88"/>
<polygon fill="black" stroke="black" points="1980.48,-233.07 1988.76,-239.68 1986.41,-229.35 1980.48,-233.07"/>
<g id="a_edge28_15"><a xlink:href="docs/idempotent.doCancelWIP.html" xlink:title="&lt;TABLE&gt;">
<text text-anchor="start" x="1827.74" y="-147.6" font-family="Times,serif" font-size="13.00">doCancelWIP (idempotent)</text>
</a>
</g>
<g id="a_edge28_16"><a xlink:href="docs/safe.goListWIP.html" xlink:title="&lt;TABLE&gt;">
<text text-anchor="start" x="1827.74" y="-127.6" font-family="Times,serif" font-size="13.00">goListWIP (safe)</text>
</a>
</g>
</g>
<!-- wipitem&#45;&gt;home -->
<g id="edge26" class="edge">
<title>wipitem&#45;&gt;home</title>
<g id="a_edge26"><a xlink:href="docs/safe.goHome.html" xlink:title="goHome, home (safe)" target="_parent">
<path fill="none" stroke="black" d="M1817.02,-72.09C1813.36,-85.55 1808.75,-103.73 1805.74,-120 1794.29,-182.07 1817.03,-358.03 1771.74,-402 1747.2,-425.83 1517.53,-433.9 1425.05,-436.2"/>
<polygon fill="black" stroke="black" points="1424.91,-432.7 1414.99,-436.44 1425.07,-439.7 1424.91,-432.7"/>
</a>
</g>
<g id="a_edge26&#45;label"><a xlink:href="docs/safe.goHome.html" xlink:title="goHome, home (safe)" target="_parent">
<text text-anchor="start" x="1802.74" y="-257.6" font-family="Times,serif" font-size="13.00">goHome, home (safe)</text>
</a>
</g>
</g>
<!-- wiplist&#45;&gt;wipitem -->
<g id="edge30" class="edge">
<title>wiplist&#45;&gt;wipitem</title>
<path fill="none" stroke="black" d="M2008.52,-239.81C2019.74,-210.54 2034.91,-155.93 2009.74,-120 1978.49,-75.37 1914.77,-59.93 1870.45,-54.64"/>
<polygon fill="black" stroke="black" points="1870.78,-51.16 1860.47,-53.58 1870.05,-58.12 1870.78,-51.16"/>
<g id="a_edge30_17"><a xlink:href="docs/idempotent.doCreateWIP.html" xlink:title="&lt;TABLE&gt;">
<text text-anchor="start" x="2028.24" y="-147.6" font-family="Times,serif" font-size="13.00">doCreateWIP (idempotent)</text>
</a>
</g>
<g id="a_edge30_18"><a xlink:href="docs/safe.goReadWIP.html" xlink:title="&lt;TABLE&gt;">
<text text-anchor="start" x="2028.24" y="-127.6" font-family="Times,serif" font-size="13.00">goReadWIP (safe)</text>
</a>
</g>
</g>
<!-- wiplist&#45;&gt;wiplist -->
<g id="edge31" class="edge">
<title>wiplist&#45;&gt;wiplist</title>
<path fill="none" stroke="black" d="M2025.15,-282C2040.61,-286.87 2055.24,-279.87 2055.24,-261 2055.24,-246.41 2046.49,-238.91 2035.37,-238.52"/>
<polygon fill="black" stroke="black" points="2034.54,-235.1 2025.15,-240 2035.55,-242.03 2034.54,-235.1"/>
<g id="a_edge31_19"><a xlink:href="docs/safe.goFilterWIP.html" xlink:title="&lt;TABLE&gt;">
<text text-anchor="start" x="2059.24" y="-267.6" font-family="Times,serif" font-size="13.00">goFilterWIP (safe)</text>
</a>
</g>
<g id="a_edge31_20"><a xlink:href="docs/safe.goListWIP.html" xlink:title="&lt;TABLE&gt;">
<text text-anchor="start" x="2059.24" y="-247.6" font-family="Times,serif" font-size="13.00">goListWIP (safe)</text>
</a>
</g>
</g>
<!-- wiplist&#45;&gt;home -->
<g id="edge29" class="edge">
<title>wiplist&#45;&gt;home</title>
<g id="a_edge29"><a xlink:href="docs/safe.goHome.html" xlink:title="goHome, home (safe)" target="_parent">
<path fill="none" stroke="black" d="M2020.43,-282.09C2048.51,-311.73 2091.61,-367.38 2058.74,-402 2036.82,-425.1 1564.63,-434.24 1425.19,-436.44"/>
<polygon fill="black" stroke="black" points="1424.93,-432.95 1414.98,-436.6 1425.03,-439.95 1424.93,-432.95"/>
</a>
</g>
<g id="a_edge29&#45;label"><a xlink:href="docs/safe.goHome.html" xlink:title="goHome, home (safe)" target="_parent">
<text text-anchor="start" x="2070.74" y="-377.6" font-family="Times,serif" font-size="13.00">goHome, home (safe)</text>
</a>
</g>
</g>
<!-- home&#45;&gt;apisJSON -->
<g id="edge7" class="edge">
<title>home&#45;&gt;apisJSON</title>
<g id="a_edge7"><a xlink:href="docs/safe.goAPIsJSON.html" xlink:title="goAPIsJSON, service&#45;meta (safe)" target="_parent">
<path fill="none" stroke="black" d="M1415.01,-448.21C1427.03,-453.69 1439.84,-461.97 1446.74,-474 1449.84,-479.4 1448.03,-481.91 1446.74,-488 1446.18,-490.68 1445.55,-493.37 1444.88,-496.07"/>
<polygon fill="black" stroke="black" points="1441.47,-495.29 1442.23,-505.85 1448.22,-497.12 1441.47,-495.29"/>
</a>
</g>
<g id="a_edge7&#45;label"><a xlink:href="docs/safe.goAPIsJSON.html" xlink:title="goAPIsJSON, service&#45;meta (safe)" target="_parent">
<text text-anchor="start" x="1448.74" y="-477.6" font-family="Times,serif" font-size="13.00">goAPIsJSON, service&#45;meta (safe)</text>
</a>
</g>
</g>
<!-- home&#45;&gt;clientMetaPreferences -->
<g id="edge8" class="edge">
<title>home&#45;&gt;clientMetaPreferences</title>
<g id="a_edge8"><a xlink:href="docs/safe.goMetaPreferences.html" xlink:title="goMetaPreferences, meta (safe)" target="_parent">
<path fill="none" stroke="black" d="M1358.57,-436.82C1164.76,-435.54 36.12,-427.01 11.74,-402 -25.49,-363.8 36.59,-316.02 84.47,-287.31"/>
<polygon fill="black" stroke="black" points="86.36,-290.26 93.22,-282.18 82.82,-284.22 86.36,-290.26"/>
</a>
</g>
<g id="a_edge8&#45;label"><a xlink:href="docs/safe.goMetaPreferences.html" xlink:title="goMetaPreferences, meta (safe)" target="_parent">
<text text-anchor="start" x="11.74" y="-377.6" font-family="Times,serif" font-size="13.00">goMetaPreferences, meta (safe)</text>
</a>
</g>
</g>
<!-- home&#45;&gt;health -->
<g id="edge9" class="edge">
<title>home&#45;&gt;health</title>
<g id="a_edge9"><a xlink:href="docs/safe.goHealth.html" xlink:title="goHealth, health (safe)" target="_parent">
<path fill="none" stroke="black" d="M1358.56,-437.08C1201.75,-437.39 442.59,-437.08 408.74,-402 381.63,-373.89 408.23,-336.44 439.39,-307.34"/>
<polygon fill="black" stroke="black" points="441.88,-309.82 446.95,-300.52 437.18,-304.62 441.88,-309.82"/>
</a>
</g>
<g id="a_edge9&#45;label"><a xlink:href="docs/safe.goHealth.html" xlink:title="goHealth, health (safe)" target="_parent">
<text text-anchor="start" x="408.74" y="-377.6" font-family="Times,serif" font-size="13.00">goHealth, health (safe)</text>
</a>
</g>
</g>
<!-- home&#45;&gt;inputForm -->
<g id="edge10" class="edge">
<title>home&#45;&gt;inputForm</title>
<g id="a_edge10"><a xlink:href="docs/safe.goForm.html" xlink:title="goForm, form (safe)" target="_parent">
<path fill="none" stroke="black" d="M1358.74,-436.45C1241.6,-434.04 796.01,-423.46 775.74,-402 762.93,-388.43 763.66,-374.23 775.74,-360 807.82,-322.25 843.59,-368.01 885.74,-342 894.91,-336.34 903.07,-328.65 910.16,-320.26"/>
<polygon fill="black" stroke="black" points="912.92,-322.41 916.38,-312.4 907.43,-318.07 912.92,-322.41"/>
</a>
</g>
<g id="a_edge10&#45;label"><a xlink:href="docs/safe.goForm.html" xlink:title="goForm, form (safe)" target="_parent">
<text text-anchor="start" x="775.74" y="-377.6" font-family="Times,serif" font-size="13.00">goForm, form (safe)</text>
</a>
</g>
</g>
<!-- home&#45;&gt;list -->
<g id="edge11" class="edge">
<title>home&#45;&gt;list</title>
<g id="a_edge11"><a xlink:href="docs/safe.goList.html" xlink:title="goList, collection nav (safe)" target="_parent">
<path fill="none" stroke="black" d="M1415.01,-436.63C1559.53,-434.63 2210.63,-424.4 2246.74,-402 2264.83,-390.78 2252.37,-372.3 2269.74,-360 2310.18,-331.38 2336.11,-365.46 2379.74,-342 2402.23,-329.91 2421.57,-308.34 2434.83,-290.65"/>
<polygon fill="black" stroke="black" points="2437.82,-292.48 2440.84,-282.33 2432.15,-288.38 2437.82,-292.48"/>
</a>
</g>
<g id="a_edge11&#45;label"><a xlink:href="docs/safe.goList.html" xlink:title="goList, collection nav (safe)" target="_parent">
<text text-anchor="start" x="2269.74" y="-377.6" font-family="Times,serif" font-size="13.00">goList, collection nav (safe)</text>
</a>
</g>
</g>
<!-- home&#45;&gt;mru -->
<g id="edge12" class="edge">
<title>home&#45;&gt;mru</title>
<g id="a_edge12"><a xlink:href="docs/safe.goMRU.html" xlink:title="goMRU, mru (safe)" target="_parent">
<path fill="none" stroke="black" d="M1358.71,-437.06C1303.4,-436.51 1183.36,-431.83 1157.74,-402 1145.58,-387.84 1146.57,-374.95 1157.74,-360 1174.67,-337.36 1195.05,-357.41 1218.74,-342 1238.91,-328.88 1256.36,-308.02 1268.53,-290.9"/>
<polygon fill="black" stroke="black" points="1271.63,-292.56 1274.4,-282.34 1265.86,-288.6 1271.63,-292.56"/>
</a>
</g>
<g id="a_edge12&#45;label"><a xlink:href="docs/safe.goMRU.html" xlink:title="goMRU, mru (safe)" target="_parent">
<text text-anchor="start" x="1157.74" y="-377.6" font-family="Times,serif" font-size="13.00">goMRU, mru (safe)</text>
</a>
</g>
</g>
<!-- home&#45;&gt;related -->
<g id="edge13" class="edge">
<title>home&#45;&gt;related</title>
<g id="a_edge13"><a xlink:href="docs/safe.goRelated.html" xlink:title="goRelated, mru (safe)" target="_parent">
<path fill="none" stroke="black" d="M1414.91,-424.63C1425.79,-418.88 1437.74,-411.25 1446.74,-402 1461.59,-386.75 1455.92,-376.18 1469.74,-360 1494.24,-331.35 1528.33,-305.6 1555.03,-287.69"/>
<polygon fill="black" stroke="black" points="1557,-290.59 1563.42,-282.16 1553.14,-284.74 1557,-290.59"/>
</a>
</g>
<g id="a_edge13&#45;label"><a xlink:href="docs/safe.goRelated.html" xlink:title="goRelated, mru (safe)" target="_parent">
<text text-anchor="start" x="1469.74" y="-377.6" font-family="Times,serif" font-size="13.00">goRelated, mru (safe)</text>
</a>
</g>
</g>
<!-- home&#45;&gt;wiplist -->
<g id="edge14" class="edge">
<title>home&#45;&gt;wiplist</title>
<g id="a_edge14"><a xlink:href="docs/safe.goListWIP.html" xlink:title="goListWIP, list collection wip (safe)" target="_parent">
<path fill="none" stroke="black" d="M1414.83,-436.15C1502.71,-433.29 1768.52,-422.98 1800.74,-402 1818.58,-390.39 1806.37,-372.3 1823.74,-360 1864.18,-331.38 1890.79,-366.68 1933.74,-342 1954.62,-330.01 1971.69,-308.72 1983.24,-291.12"/>
<polygon fill="black" stroke="black" points="1986.41,-292.65 1988.76,-282.32 1980.48,-288.93 1986.41,-292.65"/>
</a>
</g>
<g id="a_edge14&#45;label"><a xlink:href="docs/safe.goListWIP.html" xlink:title="goListWIP, list collection wip (safe)" target="_parent">
<text text-anchor="start" x="1823.74" y="-377.6" font-family="Times,serif" font-size="13.00">goListWIP, list collection wip (safe)</text>
</a>
</g>
</g>
<!-- completed&#45;&gt;inputForm -->
<g id="edge4" class="edge">
<title>completed&#45;&gt;inputForm</title>
<g id="a_edge4"><a xlink:href="docs/safe.goForm.html" xlink:title="goForm, form (safe)" target="_parent">
<path fill="none" stroke="black" d="M784.9,-69.14C777.99,-92.91 769.97,-135.9 791.74,-162 819,-194.66 849.85,-157.18 885.74,-180 894.83,-185.78 902.95,-193.53 910.03,-201.95"/>
<polygon fill="black" stroke="black" points="907.3,-204.14 916.24,-209.83 912.8,-199.81 907.3,-204.14"/>
</a>
</g>
<g id="a_edge4&#45;label"><a xlink:href="docs/safe.goForm.html" xlink:title="goForm, form (safe)" target="_parent">
<text text-anchor="start" x="791.74" y="-137.6" font-family="Times,serif" font-size="13.00">goForm, form (safe)</text>
</a>
</g>
</g>
<!-- completed&#45;&gt;home -->
<g id="edge3" class="edge">
<title>completed&#45;&gt;home</title>
<g id="a_edge3"><a xlink:href="docs/safe.goHome.html" xlink:title="goHome, home (safe)" target="_parent">
<path fill="none" stroke="black" d="M781.41,-69.04C751.19,-126.74 663.53,-315.9 762.74,-402 784.94,-421.26 1216.41,-432.99 1348.59,-436.14"/>
<polygon fill="black" stroke="black" points="1348.58,-439.64 1358.66,-436.37 1348.74,-432.64 1348.58,-439.64"/>
</a>
</g>
<g id="a_edge3&#45;label"><a xlink:href="docs/safe.goHome.html" xlink:title="goHome, home (safe)" target="_parent">
<text text-anchor="start" x="734.74" y="-257.6" font-family="Times,serif" font-size="13.00">goHome, home (safe)</text>
</a>
</g>
</g>
<!-- exitList&#45;&gt;home -->
<g id="edge5" class="edge">
<title>exitList&#45;&gt;home</title>
<g id="a_edge5"><a xlink:href="docs/safe.goHome.html" xlink:title="goHome, home (safe)" target="_parent">
<path fill="none" stroke="black" d="M2251.21,-69.45C2248.96,-137.05 2239.25,-379 2214.74,-402 2185.65,-429.32 1584.88,-435.57 1425.35,-436.76"/>
<polygon fill="black" stroke="black" points="1425.04,-433.26 1415.07,-436.83 1425.09,-440.26 1425.04,-433.26"/>
</a>
</g>
<g id="a_edge5&#45;label"><a xlink:href="docs/safe.goHome.html" xlink:title="goHome, home (safe)" target="_parent">
<text text-anchor="start" x="2246.74" y="-257.6" font-family="Times,serif" font-size="13.00">goHome, home (safe)</text>
</a>
</g>
</g>
<!-- selectRecord&#45;&gt;home -->
<g id="edge25" class="edge">
<title>selectRecord&#45;&gt;home</title>
<g id="a_edge25"><a xlink:href="docs/safe.goHome.html" xlink:title="goHome, home (safe)" target="_parent">
<path fill="none" stroke="black" d="M2688.29,-69.01C2712.12,-79.65 2737.99,-96 2751.74,-120 2820.92,-240.73 2734.96,-330.24 2615.74,-402 2563.56,-433.41 1627.1,-436.63 1424.99,-436.96"/>
<polygon fill="black" stroke="black" points="1424.85,-433.46 1414.86,-436.98 1424.86,-440.46 1424.85,-433.46"/>
</a>
</g>
<g id="a_edge25&#45;label"><a xlink:href="docs/safe.goHome.html" xlink:title="goHome, home (safe)" target="_parent">
<text text-anchor="start" x="2775.74" y="-257.6" font-family="Times,serif" font-size="13.00">goHome, home (safe)</text>
</a>
</g>
</g>
</g>
</svg>
