<?xml version="1.0" encoding="UTF-8" standalone="no"?>
<!DOCTYPE svg PUBLIC "-//W3C//DTD SVG 1.1//EN"
 "http://www.w3.org/Graphics/SVG/1.1/DTD/svg11.dtd">
<!-- Generated by graphviz version 2.43.0 (0)
 -->
<!-- Title: application_state_diagram Pages: 1 -->
<svg width="1612pt" height="405pt"
 viewBox="0.00 0.00 1612.00 405.00" xmlns="http://www.w3.org/2000/svg" xmlns:xlink="http://www.w3.org/1999/xlink">
<g id="graph0" class="graph" transform="scale(1 1) rotate(0) translate(4 401)">
<title>application_state_diagram</title>
<g id="a_graph0"><a xlink:href="index.html" xlink:title="Combined Semantic Profiles for RWMBook" target="_parent">
<polygon fill="white" stroke="transparent" points="-4,4 -4,-401 1608,-401 1608,4 -4,4"/>
<text text-anchor="middle" x="802" y="-381.8" font-family="Helvetica,sans-Serif" font-size="14.00">Combined Semantic Profiles for RWMBook</text>
</a>
</g>
<!-- home -->
<g id="node1" class="node">
<title>home</title>
<g id="a_node1"><a xlink:href="docs/semantic.home.html" xlink:title="&lt;TABLE&gt;" target="_parent">
<polygon fill="lightgray" stroke="black" stroke-width="2" points="792,-102 694,-102 694,0 792,0 792,-102"/>
<text text-anchor="start" x="723" y="-84.8" font-family="Times,serif" font-size="14.00">home</text>
<text text-anchor="start" x="723" y="-69.8" font-family="Times,serif" font-size="14.00">(mru)</text>
<text text-anchor="start" x="712" y="-54.8" font-family="Times,serif" font-size="14.00">(related)</text>
<text text-anchor="start" x="726" y="-39.8" font-family="Times,serif" font-size="14.00">(list)</text>
<text text-anchor="start" x="713.5" y="-24.8" font-family="Times,serif" font-size="14.00">(wiplist)</text>
<text text-anchor="start" x="700" y="-9.8" font-family="Times,serif" font-size="14.00">(inputForm)</text>
</a>
</g>
</g>
<!-- inputForm -->
<g id="node2" class="node">
<title>inputForm</title>
<g id="a_node2"><a xlink:href="docs/semantic.inputForm.html" xlink:title="&lt;TABLE&gt;" target="_parent">
<polygon fill="lightgray" stroke="black" stroke-width="2" points="88,-374 0,-374 0,-272 88,-272 88,-374"/>
<text text-anchor="start" x="6" y="-356.8" font-family="Times,serif" font-size="14.00">inputForm</text>
<text text-anchor="start" x="24" y="-341.8" font-family="Times,serif" font-size="14.00">(href)</text>
<text text-anchor="start" x="28.5" y="-326.8" font-family="Times,serif" font-size="14.00">(rel)</text>
<text text-anchor="start" x="24" y="-311.8" font-family="Times,serif" font-size="14.00">(title)</text>
<text text-anchor="start" x="22.5" y="-296.8" font-family="Times,serif" font-size="14.00">(type)</text>
<text text-anchor="start" x="19.5" y="-281.8" font-family="Times,serif" font-size="14.00">(input)</text>
</a>
</g>
</g>
<!-- inputForm&#45;&gt;home -->
<g id="edge5" class="edge">
<title>inputForm&#45;&gt;home</title>
<path fill="none" stroke="black" d="M27.4,-271.72C17.88,-232.18 13.74,-179.36 48,-152 145.79,-73.91 533.79,-56.76 683.57,-53.02"/>
<polygon fill="black" stroke="black" points="684.02,-56.51 693.94,-52.78 683.86,-49.52 684.02,-56.51"/>
<g id="a_edge5_0"><a xlink:href="docs/idempotent.doCancelSubmit.html" xlink:title="&lt;TABLE&gt;">
<text text-anchor="start" x="52" y="-179.6" font-family="Times,serif" font-size="13.00">doCancelSubmit (idempotent)</text>
</a>
</g>
<g id="a_edge5_1"><a xlink:href="docs/safe.goHome.html" xlink:title="&lt;TABLE&gt;">
<text text-anchor="start" x="52" y="-159.6" font-family="Times,serif" font-size="13.00">goHome (safe)</text>
</a>
</g>
</g>
<!-- inputForm&#45;&gt;inputForm -->
<g id="edge6" class="edge">
<title>inputForm&#45;&gt;inputForm</title>
<path fill="none" stroke="black" d="M88.02,-339.54C98.37,-338.18 106,-332.67 106,-323 106,-316.81 102.87,-312.32 97.9,-309.53"/>
<polygon fill="black" stroke="black" points="98.61,-306.09 88.02,-306.46 96.53,-312.77 98.61,-306.09"/>
<g id="a_edge6_2"><a xlink:href="docs/idempotent.doPartialSubmit.html" xlink:title="&lt;TABLE&gt;">
<text text-anchor="start" x="110" y="-339.6" font-family="Times,serif" font-size="13.00">doPartialSubmit (idempotent)</text>
</a>
</g>
<g id="a_edge6_3"><a xlink:href="docs/idempotent.doResetSubmit.html" xlink:title="&lt;TABLE&gt;">
<text text-anchor="start" x="110" y="-319.6" font-family="Times,serif" font-size="13.00">doResetSubmit (idempotent)</text>
</a>
</g>
<g id="a_edge6_4"><a xlink:href="docs/safe.goForm.html" xlink:title="&lt;TABLE&gt;">
<text text-anchor="start" x="110" y="-299.6" font-family="Times,serif" font-size="13.00">goForm (safe)</text>
</a>
</g>
</g>
<!-- completed -->
<g id="node8" class="node">
<title>completed</title>
<g id="a_node8"><a xlink:href="docs/semantic.completed.html" xlink:title="completed" target="_parent">
<polygon fill="lightgray" stroke="black" stroke-width="2" points="353.5,-191 262.5,-191 262.5,-155 353.5,-155 353.5,-191"/>
<text text-anchor="middle" x="308" y="-169.3" font-family="Times,serif" font-size="14.00">completed</text>
</a>
</g>
</g>
<!-- inputForm&#45;&gt;completed -->
<g id="edge4" class="edge">
<title>inputForm&#45;&gt;completed</title>
<g id="a_edge4"><a xlink:href="docs/idempotent.doFinalSubmit.html" xlink:title="doFinalSubmit, submit (idempotent)" target="_parent">
<path fill="none" stroke="black" d="M28.59,-271.8C25.42,-250.9 26.64,-227.86 41,-212 67.97,-182.19 181.33,-200.52 221,-194 231.2,-192.32 241.99,-190.17 252.37,-187.89"/>
<polygon fill="black" stroke="black" points="253.18,-191.29 262.16,-185.68 251.64,-184.46 253.18,-191.29"/>
</a>
</g>
<g id="a_edge4&#45;label"><a xlink:href="docs/idempotent.doFinalSubmit.html" xlink:title="doFinalSubmit, submit (idempotent)" target="_parent">
<text text-anchor="middle" x="161.5" y="-229.6" font-family="Times,serif" font-size="13.00">doFinalSubmit, submit (idempotent)</text>
</a>
</g>
</g>
<!-- list -->
<g id="node3" class="node">
<title>list</title>
<g id="a_node3"><a xlink:href="docs/semantic.list.html" xlink:title="&lt;TABLE&gt;" target="_parent">
<polygon fill="lightgray" stroke="black" stroke-width="2" points="542.5,-344 467.5,-344 467.5,-302 542.5,-302 542.5,-344"/>
<text text-anchor="start" x="494" y="-326.8" font-family="Times,serif" font-size="14.00">list</text>
<text text-anchor="start" x="474" y="-311.8" font-family="Times,serif" font-size="14.00">(navlink)</text>
</a>
</g>
</g>
<!-- list&#45;&gt;home -->
<g id="edge8" class="edge">
<title>list&#45;&gt;home</title>
<g id="a_edge8"><a xlink:href="docs/safe.goHome.html" xlink:title="goHome, self (safe)" target="_parent">
<path fill="none" stroke="black" d="M490.35,-301.74C467.76,-267.76 430.25,-198.47 463,-152 512.82,-81.31 617.35,-60.32 683.65,-54.25"/>
<polygon fill="black" stroke="black" points="684.27,-57.71 693.95,-53.4 683.69,-50.73 684.27,-57.71"/>
</a>
</g>
<g id="a_edge8&#45;label"><a xlink:href="docs/safe.goHome.html" xlink:title="goHome, self (safe)" target="_parent">
<text text-anchor="middle" x="527" y="-169.6" font-family="Times,serif" font-size="13.00">goHome, self (safe)</text>
</a>
</g>
</g>
<!-- list&#45;&gt;list -->
<g id="edge9" class="edge">
<title>list&#45;&gt;list</title>
<path fill="none" stroke="black" d="M542.61,-339.75C552.77,-338.87 560.5,-333.28 560.5,-323 560.5,-316.41 557.33,-311.75 552.38,-309.02"/>
<polygon fill="black" stroke="black" points="553.19,-305.62 542.61,-306.25 551.28,-312.35 553.19,-305.62"/>
<g id="a_edge9_5"><a xlink:href="docs/safe.goFirst.html" xlink:title="&lt;TABLE&gt;">
<text text-anchor="start" x="565" y="-359.6" font-family="Times,serif" font-size="13.00">goFirst (safe)</text>
</a>
</g>
<g id="a_edge9_6"><a xlink:href="docs/safe.goLast.html" xlink:title="&lt;TABLE&gt;">
<text text-anchor="start" x="565" y="-339.6" font-family="Times,serif" font-size="13.00">goLast (safe)</text>
</a>
</g>
<g id="a_edge9_7"><a xlink:href="docs/safe.goList.html" xlink:title="&lt;TABLE&gt;">
<text text-anchor="start" x="565" y="-319.6" font-family="Times,serif" font-size="13.00">goList (safe)</text>
</a>
</g>
<g id="a_edge9_8"><a xlink:href="docs/safe.goNext.html" xlink:title="&lt;TABLE&gt;">
<text text-anchor="start" x="565" y="-299.6" font-family="Times,serif" font-size="13.00">goNext (safe)</text>
</a>
</g>
<g id="a_edge9_9"><a xlink:href="docs/safe.goPrevious.html" xlink:title="&lt;TABLE&gt;">
<text text-anchor="start" x="565" y="-279.6" font-family="Times,serif" font-size="13.00">goPrevious (safe)</text>
</a>
</g>
</g>
<!-- exitList -->
<g id="node9" class="node">
<title>exitList</title>
<g id="a_node9"><a xlink:href="docs/semantic.exitList.html" xlink:title="exitList" target="_parent">
<polygon fill="lightgray" stroke="black" stroke-width="2" points="670.5,-191 599.5,-191 599.5,-155 670.5,-155 670.5,-191"/>
<text text-anchor="middle" x="635" y="-169.3" font-family="Times,serif" font-size="14.00">exitList</text>
</a>
</g>
</g>
<!-- list&#45;&gt;exitList -->
<g id="edge7" class="edge">
<title>list&#45;&gt;exitList</title>
<g id="a_edge7"><a xlink:href="docs/safe.goExit.html" xlink:title="goExit, collection nav exit (safe)" target="_parent">
<path fill="none" stroke="black" d="M498.37,-301.66C491.88,-277.5 485.64,-237.29 506,-212 528.59,-183.95 550.62,-204.72 585,-194 586.63,-193.49 588.27,-192.96 589.93,-192.4"/>
<polygon fill="black" stroke="black" points="591.22,-195.65 599.47,-189 588.87,-189.06 591.22,-195.65"/>
</a>
</g>
<g id="a_edge7&#45;label"><a xlink:href="docs/safe.goExit.html" xlink:title="goExit, collection nav exit (safe)" target="_parent">
<text text-anchor="middle" x="613.5" y="-229.6" font-family="Times,serif" font-size="13.00">goExit, collection nav exit (safe)</text>
</a>
</g>
</g>
<!-- selectRecord -->
<g id="node10" class="node">
<title>selectRecord</title>
<g id="a_node10"><a xlink:href="docs/semantic.selectRecord.html" xlink:title="selectRecord" target="_parent">
<polygon fill="lightgray" stroke="black" stroke-width="2" points="797.5,-191 688.5,-191 688.5,-155 797.5,-155 797.5,-191"/>
<text text-anchor="middle" x="743" y="-169.3" font-family="Times,serif" font-size="14.00">selectRecord</text>
</a>
</g>
</g>
<!-- list&#45;&gt;selectRecord -->
<g id="edge10" class="edge">
<title>list&#45;&gt;selectRecord</title>
<g id="a_edge10"><a xlink:href="docs/safe.goSelect.html" xlink:title="goSelect, collection nav select (safe)" target="_parent">
<path fill="none" stroke="black" d="M542.67,-320.7C590.8,-316.96 673.52,-303.25 721,-254 734.49,-240 739.88,-218.52 741.95,-201.35"/>
<polygon fill="black" stroke="black" points="745.44,-201.58 742.85,-191.31 738.47,-200.96 745.44,-201.58"/>
</a>
</g>
<g id="a_edge10&#45;label"><a xlink:href="docs/safe.goSelect.html" xlink:title="goSelect, collection nav select (safe)" target="_parent">
<text text-anchor="middle" x="862" y="-229.6" font-family="Times,serif" font-size="13.00">goSelect, collection nav select (safe)</text>
</a>
</g>
</g>
<!-- mru -->
<g id="node4" class="node">
<title>mru</title>
<g id="a_node4"><a xlink:href="docs/semantic.mru.html" xlink:title="&lt;TABLE&gt;" target="_parent">
<polygon fill="lightgray" stroke="black" stroke-width="2" points="894.5,-194 815.5,-194 815.5,-152 894.5,-152 894.5,-194"/>
<text text-anchor="start" x="840.5" y="-176.8" font-family="Times,serif" font-size="14.00">mru</text>
<text text-anchor="start" x="822" y="-161.8" font-family="Times,serif" font-size="14.00">(mrulink)</text>
</a>
</g>
</g>
<!-- mru&#45;&gt;home -->
<g id="edge11" class="edge">
<title>mru&#45;&gt;home</title>
<g id="a_edge11"><a xlink:href="docs/safe.goHome.html" xlink:title="goHome, self (safe)" target="_parent">
<path fill="none" stroke="black" d="M869.28,-151.83C874.52,-141.79 877.89,-129.76 872,-120 856.57,-94.42 827.95,-77.97 801.58,-67.67"/>
<polygon fill="black" stroke="black" points="802.6,-64.32 792,-64.15 800.18,-70.89 802.6,-64.32"/>
</a>
</g>
<g id="a_edge11&#45;label"><a xlink:href="docs/safe.goHome.html" xlink:title="goHome, self (safe)" target="_parent">
<text text-anchor="middle" x="939" y="-123.6" font-family="Times,serif" font-size="13.00">goHome, self (safe)</text>
</a>
</g>
</g>
<!-- mru&#45;&gt;mru -->
<g id="edge12" class="edge">
<title>mru&#45;&gt;mru</title>
<g id="a_edge12"><a xlink:href="docs/safe.goMRU.html" xlink:title="goMRU, mru (safe)" target="_parent">
<path fill="none" stroke="black" d="M894.51,-181.54C904.76,-181.01 912.5,-178.17 912.5,-173 912.5,-169.77 909.48,-167.45 904.71,-166.03"/>
<polygon fill="black" stroke="black" points="904.92,-162.53 894.51,-164.46 903.86,-169.44 904.92,-162.53"/>
</a>
</g>
<g id="a_edge12&#45;label"><a xlink:href="docs/safe.goMRU.html" xlink:title="goMRU, mru (safe)" target="_parent">
<text text-anchor="middle" x="975.5" y="-169.6" font-family="Times,serif" font-size="13.00">goMRU, mru (safe)</text>
</a>
</g>
</g>
<!-- related -->
<g id="node5" class="node">
<title>related</title>
<g id="a_node5"><a xlink:href="docs/semantic.related.html" xlink:title="&lt;TABLE&gt;" target="_parent">
<polygon fill="lightgray" stroke="black" stroke-width="2" points="1157,-194 1057,-194 1057,-152 1157,-152 1157,-194"/>
<text text-anchor="start" x="1081" y="-176.8" font-family="Times,serif" font-size="14.00">related</text>
<text text-anchor="start" x="1063" y="-161.8" font-family="Times,serif" font-size="14.00">(relatedlink)</text>
</a>
</g>
</g>
<!-- related&#45;&gt;home -->
<g id="edge13" class="edge">
<title>related&#45;&gt;home</title>
<g id="a_edge13"><a xlink:href="docs/safe.goHome.html" xlink:title="goHome, self (safe)" target="_parent">
<path fill="none" stroke="black" d="M1073.19,-151.96C1054.22,-141.35 1029.84,-128.75 1007,-120 938.55,-93.78 856.31,-74.4 802.01,-63.18"/>
<polygon fill="black" stroke="black" points="802.7,-59.75 792.2,-61.18 801.3,-66.61 802.7,-59.75"/>
</a>
</g>
<g id="a_edge13&#45;label"><a xlink:href="docs/safe.goHome.html" xlink:title="goHome, self (safe)" target="_parent">
<text text-anchor="middle" x="1102" y="-123.6" font-family="Times,serif" font-size="13.00">goHome, self (safe)</text>
</a>
</g>
</g>
<!-- wipitem -->
<g id="node6" class="node">
<title>wipitem</title>
<g id="a_node6"><a xlink:href="docs/semantic.wipitem.html" xlink:title="&lt;TABLE&gt;" target="_parent">
<polygon fill="lightgray" stroke="black" stroke-width="2" points="1263.5,-344 1188.5,-344 1188.5,-302 1263.5,-302 1263.5,-344"/>
<text text-anchor="start" x="1197.5" y="-326.8" font-family="Times,serif" font-size="14.00">wipitem</text>
<text text-anchor="start" x="1195" y="-311.8" font-family="Times,serif" font-size="14.00">(wiplink)</text>
</a>
</g>
</g>
<!-- wipitem&#45;&gt;home -->
<g id="edge15" class="edge">
<title>wipitem&#45;&gt;home</title>
<g id="a_edge15"><a xlink:href="docs/safe.goHome.html" xlink:title="goHome, self (safe)" target="_parent">
<path fill="none" stroke="black" d="M1220.53,-301.7C1206.77,-250.78 1171.74,-121.56 1170,-120 1116.7,-72.39 906.47,-57.98 802.23,-53.73"/>
<polygon fill="black" stroke="black" points="802.31,-50.23 792.18,-53.34 802.04,-57.22 802.31,-50.23"/>
</a>
</g>
<g id="a_edge15&#45;label"><a xlink:href="docs/safe.goHome.html" xlink:title="goHome, self (safe)" target="_parent">
<text text-anchor="middle" x="1254" y="-169.6" font-family="Times,serif" font-size="13.00">goHome, self (safe)</text>
</a>
</g>
</g>
<!-- wipitem&#45;&gt;wipitem -->
<g id="edge16" class="edge">
<title>wipitem&#45;&gt;wipitem</title>
<path fill="none" stroke="black" d="M1263.61,-339.75C1273.77,-338.87 1281.5,-333.28 1281.5,-323 1281.5,-316.41 1278.33,-311.75 1273.38,-309.02"/>
<polygon fill="black" stroke="black" points="1274.19,-305.62 1263.61,-306.25 1272.28,-312.35 1274.19,-305.62"/>
<g id="a_edge16_10"><a xlink:href="docs/idempotent.doShareWIP.html" xlink:title="&lt;TABLE&gt;">
<text text-anchor="start" x="1286" y="-359.6" font-family="Times,serif" font-size="13.00">doShareWIP (idempotent)</text>
</a>
</g>
<g id="a_edge16_11"><a xlink:href="docs/idempotent.doStatusWIP.html" xlink:title="&lt;TABLE&gt;">
<text text-anchor="start" x="1286" y="-339.6" font-family="Times,serif" font-size="13.00">doStatusWIP (idempotent)</text>
</a>
</g>
<g id="a_edge16_12"><a xlink:href="docs/idempotent.doSubmitWIP.html" xlink:title="&lt;TABLE&gt;">
<text text-anchor="start" x="1286" y="-319.6" font-family="Times,serif" font-size="13.00">doSubmitWIP (idempotent)</text>
</a>
</g>
<g id="a_edge16_13"><a xlink:href="docs/idempotent.doUpdateWIP.html" xlink:title="&lt;TABLE&gt;">
<text text-anchor="start" x="1286" y="-299.6" font-family="Times,serif" font-size="13.00">doUpdateWIP (idempotent)</text>
</a>
</g>
<g id="a_edge16_14"><a xlink:href="docs/safe.goReadWIP.html" xlink:title="&lt;TABLE&gt;">
<text text-anchor="start" x="1286" y="-279.6" font-family="Times,serif" font-size="13.00">goReadWIP (safe)</text>
</a>
</g>
</g>
<!-- wiplist -->
<g id="node7" class="node">
<title>wiplist</title>
<g id="a_node7"><a xlink:href="docs/semantic.wiplist.html" xlink:title="&lt;TABLE&gt;" target="_parent">
<polygon fill="lightgray" stroke="black" stroke-width="2" points="1414.5,-194 1339.5,-194 1339.5,-152 1414.5,-152 1414.5,-194"/>
<text text-anchor="start" x="1353" y="-176.8" font-family="Times,serif" font-size="14.00">wiplist</text>
<text text-anchor="start" x="1346" y="-161.8" font-family="Times,serif" font-size="14.00">(wiplink)</text>
</a>
</g>
</g>
<!-- wipitem&#45;&gt;wiplist -->
<g id="edge17" class="edge">
<title>wipitem&#45;&gt;wiplist</title>
<path fill="none" stroke="black" d="M1219.31,-301.94C1212.6,-277.68 1205.98,-237 1227,-212 1255.5,-178.1 1282.37,-206 1325,-194 1326.45,-193.59 1327.93,-193.16 1329.41,-192.7"/>
<polygon fill="black" stroke="black" points="1330.82,-195.92 1339.22,-189.46 1328.63,-189.27 1330.82,-195.92"/>
<g id="a_edge17_15"><a xlink:href="docs/idempotent.doCancelWIP.html" xlink:title="&lt;TABLE&gt;">
<text text-anchor="start" x="1231" y="-239.6" font-family="Times,serif" font-size="13.00">doCancelWIP (idempotent)</text>
</a>
</g>
<g id="a_edge17_16"><a xlink:href="docs/safe.goListWIP.html" xlink:title="&lt;TABLE&gt;">
<text text-anchor="start" x="1231" y="-219.6" font-family="Times,serif" font-size="13.00">goListWIP (safe)</text>
</a>
</g>
</g>
<!-- wiplist&#45;&gt;home -->
<g id="edge18" class="edge">
<title>wiplist&#45;&gt;home</title>
<g id="a_edge18"><a xlink:href="docs/safe.goHome.html" xlink:title="goHome, self (safe)" target="_parent">
<path fill="none" stroke="black" d="M1339.39,-157.01C1334.57,-155.25 1329.69,-153.53 1325,-152 1273.35,-135.11 1260.2,-131.07 1207,-120 1062.86,-90 890.82,-68.45 802.23,-58.39"/>
<polygon fill="black" stroke="black" points="802.43,-54.89 792.1,-57.24 801.65,-61.84 802.43,-54.89"/>
</a>
</g>
<g id="a_edge18&#45;label"><a xlink:href="docs/safe.goHome.html" xlink:title="goHome, self (safe)" target="_parent">
<text text-anchor="middle" x="1330" y="-123.6" font-family="Times,serif" font-size="13.00">goHome, self (safe)</text>
</a>
</g>
</g>
<!-- wiplist&#45;&gt;wipitem -->
<g id="edge19" class="edge">
<title>wiplist&#45;&gt;wipitem</title>
<path fill="none" stroke="black" d="M1401.2,-194.02C1406.01,-199.32 1410.38,-205.42 1413,-212 1419.91,-229.34 1423.71,-238.71 1413,-254 1381.74,-298.63 1318.02,-314.07 1273.7,-319.36"/>
<polygon fill="black" stroke="black" points="1273.3,-315.88 1263.73,-320.42 1274.04,-322.84 1273.3,-315.88"/>
<g id="a_edge19_17"><a xlink:href="docs/idempotent.doCreateWIP.html" xlink:title="&lt;TABLE&gt;">
<text text-anchor="start" x="1423.5" y="-239.6" font-family="Times,serif" font-size="13.00">doCreateWIP (idempotent)</text>
</a>
</g>
<g id="a_edge19_18"><a xlink:href="docs/safe.goReadWIP.html" xlink:title="&lt;TABLE&gt;">
<text text-anchor="start" x="1423.5" y="-219.6" font-family="Times,serif" font-size="13.00">goReadWIP (safe)</text>
</a>
</g>
</g>
<!-- wiplist&#45;&gt;wiplist -->
<g id="edge20" class="edge">
<title>wiplist&#45;&gt;wiplist</title>
<path fill="none" stroke="black" d="M1414.61,-181.56C1424.77,-181.11 1432.5,-178.26 1432.5,-173 1432.5,-169.72 1429.48,-167.37 1424.74,-165.96"/>
<polygon fill="black" stroke="black" points="1425.02,-162.46 1414.61,-164.44 1423.98,-169.39 1425.02,-162.46"/>
<g id="a_edge20_19"><a xlink:href="docs/safe.goFilterWIP.html" xlink:title="&lt;TABLE&gt;">
<text text-anchor="start" x="1436.5" y="-179.6" font-family="Times,serif" font-size="13.00">goFilterWIP (safe)</text>
</a>
</g>
<g id="a_edge20_20"><a xlink:href="docs/safe.goListWIP.html" xlink:title="&lt;TABLE&gt;">
<text text-anchor="start" x="1436.5" y="-159.6" font-family="Times,serif" font-size="13.00">goListWIP (safe)</text>
</a>
</g>
</g>
<!-- completed&#45;&gt;home -->
<g id="edge1" class="edge">
<title>completed&#45;&gt;home</title>
<g id="a_edge1"><a xlink:href="docs/safe.goHome.html" xlink:title="goHome, self (safe)" target="_parent">
<path fill="none" stroke="black" d="M303.98,-154.94C302.4,-143.64 302.62,-129.25 311,-120 359.78,-66.16 577.05,-54.82 683.64,-52.52"/>
<polygon fill="black" stroke="black" points="683.98,-56.01 693.91,-52.32 683.84,-49.02 683.98,-56.01"/>
</a>
</g>
<g id="a_edge1&#45;label"><a xlink:href="docs/safe.goHome.html" xlink:title="goHome, self (safe)" target="_parent">
<text text-anchor="middle" x="375" y="-123.6" font-family="Times,serif" font-size="13.00">goHome, self (safe)</text>
</a>
</g>
</g>
<!-- completed&#45;&gt;inputForm -->
<g id="edge2" class="edge">
<title>completed&#45;&gt;inputForm</title>
<g id="a_edge2"><a xlink:href="docs/safe.goForm.html" xlink:title="goForm, form (safe)" target="_parent">
<path fill="none" stroke="black" d="M307.97,-191.08C307,-209.13 302.66,-237.25 286,-254 236.42,-303.86 153.39,-317.89 98.66,-321.45"/>
<polygon fill="black" stroke="black" points="98.23,-317.97 88.44,-322.01 98.62,-324.95 98.23,-317.97"/>
</a>
</g>
<g id="a_edge2&#45;label"><a xlink:href="docs/safe.goForm.html" xlink:title="goForm, form (safe)" target="_parent">
<text text-anchor="middle" x="370" y="-229.6" font-family="Times,serif" font-size="13.00">goForm, form (safe)</text>
</a>
</g>
</g>
<!-- exitList&#45;&gt;home -->
<g id="edge3" class="edge">
<title>exitList&#45;&gt;home</title>
<g id="a_edge3"><a xlink:href="docs/safe.goHome.html" xlink:title="goHome, self (safe)" target="_parent">
<path fill="none" stroke="black" d="M618.39,-154.63C610.56,-144.27 604.27,-131.04 611,-120 627.09,-93.62 657.05,-77.03 684.37,-66.85"/>
<polygon fill="black" stroke="black" points="685.61,-70.13 693.89,-63.52 683.3,-63.52 685.61,-70.13"/>
</a>
</g>
<g id="a_edge3&#45;label"><a xlink:href="docs/safe.goHome.html" xlink:title="goHome, self (safe)" target="_parent">
<text text-anchor="middle" x="675" y="-123.6" font-family="Times,serif" font-size="13.00">goHome, self (safe)</text>
</a>
</g>
</g>
<!-- selectRecord&#45;&gt;home -->
<g id="edge14" class="edge">
<title>selectRecord&#45;&gt;home</title>
<g id="a_edge14"><a xlink:href="docs/safe.goHome.html" xlink:title="goHome, self (safe)" target="_parent">
<path fill="none" stroke="black" d="M743,-154.81C743,-143.48 743,-127.92 743,-112.32"/>
<polygon fill="black" stroke="black" points="746.5,-112.11 743,-102.11 739.5,-112.11 746.5,-112.11"/>
</a>
</g>
<g id="a_edge14&#45;label"><a xlink:href="docs/safe.goHome.html" xlink:title="goHome, self (safe)" target="_parent">
<text text-anchor="middle" x="807" y="-123.6" font-family="Times,serif" font-size="13.00">goHome, self (safe)</text>
</a>
</g>
</g>
</g>
</svg>
