<?xml version="1.0" encoding="UTF-8" standalone="no"?>
<!DOCTYPE svg PUBLIC "-//W3C//DTD SVG 1.1//EN"
 "http://www.w3.org/Graphics/SVG/1.1/DTD/svg11.dtd">
<!-- Generated by graphviz version 2.43.0 (0)
 -->
<!-- Title: application_state_diagram Pages: 1 -->
<svg width="2531pt" height="545pt"
 viewBox="0.00 0.00 2531.00 545.00" xmlns="http://www.w3.org/2000/svg" xmlns:xlink="http://www.w3.org/1999/xlink">
<g id="graph0" class="graph" transform="scale(1 1) rotate(0) translate(4 541)">
<title>application_state_diagram</title>
<g id="a_graph0"><a xlink:href="index.html" xlink:title="Work&#45;In&#45;Progress (WIP) Profile" target="_parent">
<polygon fill="white" stroke="transparent" points="-4,4 -4,-541 2527,-541 2527,4 -4,4"/>
<text text-anchor="middle" x="1261.5" y="-7.8" font-family="Helvetica,sans-Serif" font-size="14.00">Work&#45;In&#45;Progress (WIP) Profile</text>
</a>
</g>
<!-- home -->
<g id="node1" class="node">
<title>home</title>
<g id="a_node1"><a xlink:href="docs/semantic.home.html" xlink:title="&lt;TABLE&gt;" target="_parent">
<polygon fill="none" stroke="black" points="1686.5,-537 1609.5,-537 1609.5,-493 1686.5,-493 1686.5,-537"/>
<polygon fill="#dddddd" stroke="transparent" points="1611,-494 1611,-536 1686,-536 1686,-494 1611,-494"/>
<polygon fill="none" stroke="black" points="1611,-494 1611,-536 1686,-536 1686,-494 1611,-494"/>
<text text-anchor="start" x="1628.5" y="-518.8" font-family="Times,serif" font-size="14.00">home</text>
<text text-anchor="start" x="1617" y="-503.8" font-family="Times,serif" font-size="14.00">(wiplink)</text>
</a>
</g>
</g>
<!-- home&#45;&gt;home -->
<g id="edge2" class="edge">
<title>home&#45;&gt;home</title>
<g id="a_edge2"><a xlink:href="docs/safe.getHome.html" xlink:title="getHome, self (safe)" target="_parent">
<path fill="none" stroke="black" d="M1686.56,-523.55C1696.77,-523.06 1704.5,-520.21 1704.5,-515 1704.5,-511.74 1701.48,-509.41 1696.72,-508"/>
<polygon fill="black" stroke="black" points="1696.97,-504.49 1686.56,-506.45 1695.92,-511.41 1696.97,-504.49"/>
</a>
</g>
<g id="a_edge2&#45;label"><a xlink:href="docs/safe.getHome.html" xlink:title="getHome, self (safe)" target="_parent">
<text text-anchor="middle" x="1771" y="-511.6" font-family="Times,serif" font-size="13.00">getHome, self (safe)</text>
</a>
</g>
</g>
<!-- listwip -->
<g id="node2" class="node">
<title>listwip</title>
<g id="a_node2"><a xlink:href="docs/semantic.listwip.html" xlink:title="&lt;TABLE&gt;" target="_parent">
<polygon fill="none" stroke="black" points="1163.5,-443 1086.5,-443 1086.5,-399 1163.5,-399 1163.5,-443"/>
<polygon fill="#dddddd" stroke="transparent" points="1088,-400 1088,-442 1163,-442 1163,-400 1088,-400"/>
<polygon fill="none" stroke="black" points="1088,-400 1088,-442 1163,-442 1163,-400 1088,-400"/>
<text text-anchor="start" x="1101" y="-424.8" font-family="Times,serif" font-size="14.00">listwip</text>
<text text-anchor="start" x="1094" y="-409.8" font-family="Times,serif" font-size="14.00">(wiplink)</text>
</a>
</g>
</g>
<!-- home&#45;&gt;listwip -->
<g id="edge1" class="edge">
<title>home&#45;&gt;listwip</title>
<g id="a_edge1"><a xlink:href="docs/safe.getListWIP.html" xlink:title="getListWIP, list&#45;wip (safe)" target="_parent">
<path fill="none" stroke="black" d="M1609.34,-513.29C1539.91,-511.29 1389.86,-503.72 1267,-475 1234.8,-467.47 1199.99,-454.56 1172.89,-443.37"/>
<polygon fill="black" stroke="black" points="1174.22,-440.13 1163.65,-439.49 1171.52,-446.59 1174.22,-440.13"/>
</a>
</g>
<g id="a_edge1&#45;label"><a xlink:href="docs/safe.getListWIP.html" xlink:title="getListWIP, list&#45;wip (safe)" target="_parent">
<text text-anchor="middle" x="1353" y="-464.6" font-family="Times,serif" font-size="13.00">getListWIP, list&#45;wip (safe)</text>
</a>
</g>
</g>
<!-- listwip&#45;&gt;home -->
<g id="edge6" class="edge">
<title>listwip&#45;&gt;home</title>
<g id="a_edge6"><a xlink:href="docs/safe.getHome.html" xlink:title="getHome, self (safe)" target="_parent">
<path fill="none" stroke="black" d="M1163.91,-425.26C1223.49,-430.6 1340.75,-442.51 1439,-461 1494.68,-471.48 1557.59,-488.09 1599.7,-499.93"/>
<polygon fill="black" stroke="black" points="1598.84,-503.32 1609.42,-502.67 1600.75,-496.58 1598.84,-503.32"/>
</a>
</g>
<g id="a_edge6&#45;label"><a xlink:href="docs/safe.getHome.html" xlink:title="getHome, self (safe)" target="_parent">
<text text-anchor="middle" x="1568.5" y="-464.6" font-family="Times,serif" font-size="13.00">getHome, self (safe)</text>
</a>
</g>
</g>
<!-- createwip -->
<g id="node3" class="node">
<title>createwip</title>
<g id="a_node3"><a xlink:href="docs/semantic.createwip.html" xlink:title="&lt;TABLE&gt;" target="_parent">
<polygon fill="none" stroke="black" points="765.5,-349 680.5,-349 680.5,-305 765.5,-305 765.5,-349"/>
<polygon fill="#dddddd" stroke="transparent" points="682,-306 682,-348 765,-348 765,-306 682,-306"/>
<polygon fill="none" stroke="black" points="682,-306 682,-348 765,-348 765,-306 682,-306"/>
<text text-anchor="start" x="688" y="-330.8" font-family="Times,serif" font-size="14.00">createwip</text>
<text text-anchor="start" x="692" y="-315.8" font-family="Times,serif" font-size="14.00">(wiplink)</text>
</a>
</g>
</g>
<!-- listwip&#45;&gt;createwip -->
<g id="edge5" class="edge">
<title>listwip&#45;&gt;createwip</title>
<g id="a_edge5"><a xlink:href="docs/idempotent.doCreateWIP.html" xlink:title="doCreateWIP, create&#45;wip (idempotent)" target="_parent">
<path fill="none" stroke="black" d="M1086.16,-420.09C1027.5,-419.1 913.54,-412.78 823,-381 811.71,-377.04 810.46,-372.82 800,-367 791.92,-362.51 783.27,-357.91 774.78,-353.53"/>
<polygon fill="black" stroke="black" points="776.17,-350.31 765.67,-348.87 772.98,-356.54 776.17,-350.31"/>
</a>
</g>
<g id="a_edge5&#45;label"><a xlink:href="docs/idempotent.doCreateWIP.html" xlink:title="doCreateWIP, create&#45;wip (idempotent)" target="_parent">
<text text-anchor="middle" x="949.5" y="-370.6" font-family="Times,serif" font-size="13.00">doCreateWIP, create&#45;wip (idempotent)</text>
</a>
</g>
</g>
<!-- readwip -->
<g id="node4" class="node">
<title>readwip</title>
<g id="a_node4"><a xlink:href="docs/semantic.readwip.html" xlink:title="&lt;TABLE&gt;" target="_parent">
<polygon fill="none" stroke="black" points="1386.5,-255 1309.5,-255 1309.5,-211 1386.5,-211 1386.5,-255"/>
<polygon fill="#dddddd" stroke="transparent" points="1311,-212 1311,-254 1386,-254 1386,-212 1311,-212"/>
<polygon fill="none" stroke="black" points="1311,-212 1311,-254 1386,-254 1386,-212 1311,-212"/>
<text text-anchor="start" x="1319.5" y="-236.8" font-family="Times,serif" font-size="14.00">readwip</text>
<text text-anchor="start" x="1317" y="-221.8" font-family="Times,serif" font-size="14.00">(wiplink)</text>
</a>
</g>
</g>
<!-- listwip&#45;&gt;readwip -->
<g id="edge4" class="edge">
<title>listwip&#45;&gt;readwip</title>
<g id="a_edge4"><a xlink:href="docs/safe.getReadWIP.html" xlink:title="getReadWIP, read&#45;wip (safe)" target="_parent">
<path fill="none" stroke="black" d="M1120.71,-398.57C1116.9,-372.76 1115.13,-329.76 1139,-305 1174.29,-268.38 1203.91,-303.54 1252,-287 1271.14,-280.42 1290.94,-270.16 1307.55,-260.42"/>
<polygon fill="black" stroke="black" points="1309.66,-263.24 1316.42,-255.09 1306.05,-257.24 1309.66,-263.24"/>
</a>
</g>
<g id="a_edge4&#45;label"><a xlink:href="docs/safe.getReadWIP.html" xlink:title="getReadWIP, read&#45;wip (safe)" target="_parent">
<text text-anchor="middle" x="1232.5" y="-323.6" font-family="Times,serif" font-size="13.00">getReadWIP, read&#45;wip (safe)</text>
</a>
</g>
</g>
<!-- filterwip -->
<g id="node8" class="node">
<title>filterwip</title>
<g id="a_node8"><a xlink:href="docs/semantic.filterwip.html" xlink:title="&lt;TABLE&gt;" target="_parent">
<polygon fill="none" stroke="black" points="1615.5,-349 1538.5,-349 1538.5,-305 1615.5,-305 1615.5,-349"/>
<polygon fill="#dddddd" stroke="transparent" points="1540,-306 1540,-348 1615,-348 1615,-306 1540,-306"/>
<polygon fill="none" stroke="black" points="1540,-306 1540,-348 1615,-348 1615,-306 1540,-306"/>
<text text-anchor="start" x="1547" y="-330.8" font-family="Times,serif" font-size="14.00">filterwip</text>
<text text-anchor="start" x="1546" y="-315.8" font-family="Times,serif" font-size="14.00">(wiplink)</text>
</a>
</g>
</g>
<!-- listwip&#45;&gt;filterwip -->
<g id="edge3" class="edge">
<title>listwip&#45;&gt;filterwip</title>
<g id="a_edge3"><a xlink:href="docs/safe.getFilterWIP.html" xlink:title="getFilterWIP, filter&#45;wip (safe)" target="_parent">
<path fill="none" stroke="black" d="M1163.58,-412.65C1193.16,-406.29 1234.61,-395.77 1269,-381 1280,-376.28 1280.61,-370.67 1292,-367 1390.42,-335.24 1423.24,-372.31 1524,-349 1525.48,-348.66 1526.97,-348.28 1528.46,-347.88"/>
<polygon fill="black" stroke="black" points="1529.82,-351.12 1538.35,-344.84 1527.76,-344.43 1529.82,-351.12"/>
</a>
</g>
<g id="a_edge3&#45;label"><a xlink:href="docs/safe.getFilterWIP.html" xlink:title="getFilterWIP, filter&#45;wip (safe)" target="_parent">
<text text-anchor="middle" x="1389" y="-370.6" font-family="Times,serif" font-size="13.00">getFilterWIP, filter&#45;wip (safe)</text>
</a>
</g>
</g>
<!-- createwip&#45;&gt;home -->
<g id="edge9" class="edge">
<title>createwip&#45;&gt;home</title>
<g id="a_edge9"><a xlink:href="docs/safe.getHome.html" xlink:title="getHome, self (safe)" target="_parent">
<path fill="none" stroke="black" d="M680.19,-333.85C641.48,-340.92 593.6,-355.2 615,-381 788.46,-590.09 948.78,-446.94 1219,-475 1356.57,-489.28 1519.28,-503.28 1598.99,-509.96"/>
<polygon fill="black" stroke="black" points="1598.96,-513.47 1609.22,-510.81 1599.55,-506.49 1598.96,-513.47"/>
</a>
</g>
<g id="a_edge9&#45;label"><a xlink:href="docs/safe.getHome.html" xlink:title="getHome, self (safe)" target="_parent">
<text text-anchor="middle" x="745.5" y="-417.6" font-family="Times,serif" font-size="13.00">getHome, self (safe)</text>
</a>
</g>
</g>
<!-- createwip&#45;&gt;listwip -->
<g id="edge8" class="edge">
<title>createwip&#45;&gt;listwip</title>
<g id="a_edge8"><a xlink:href="docs/safe.getListWIP.html" xlink:title="getListWIP, list&#45;wip (safe)" target="_parent">
<path fill="none" stroke="black" d="M680.37,-335.65C644.89,-343.78 603.28,-358.6 624,-381 639.22,-397.45 952.87,-412.62 1076,-417.97"/>
<polygon fill="black" stroke="black" points="1076.13,-421.48 1086.27,-418.41 1076.43,-414.48 1076.13,-421.48"/>
</a>
</g>
<g id="a_edge8&#45;label"><a xlink:href="docs/safe.getListWIP.html" xlink:title="getListWIP, list&#45;wip (safe)" target="_parent">
<text text-anchor="middle" x="710" y="-370.6" font-family="Times,serif" font-size="13.00">getListWIP, list&#45;wip (safe)</text>
</a>
</g>
</g>
<!-- updatewip -->
<g id="node5" class="node">
<title>updatewip</title>
<g id="a_node5"><a xlink:href="docs/semantic.updatewip.html" xlink:title="&lt;TABLE&gt;" target="_parent">
<polygon fill="none" stroke="black" points="615,-161 525,-161 525,-117 615,-117 615,-161"/>
<polygon fill="#dddddd" stroke="transparent" points="526,-118 526,-160 614,-160 614,-118 526,-118"/>
<polygon fill="none" stroke="black" points="526,-118 526,-160 614,-160 614,-118 526,-118"/>
<text text-anchor="start" x="532" y="-142.8" font-family="Times,serif" font-size="14.00">updatewip</text>
<text text-anchor="start" x="538.5" y="-127.8" font-family="Times,serif" font-size="14.00">(wiplink)</text>
</a>
</g>
</g>
<!-- createwip&#45;&gt;updatewip -->
<g id="edge7" class="edge">
<title>createwip&#45;&gt;updatewip</title>
<g id="a_edge7"><a xlink:href="docs/idempotent.doUpdateWIP.html" xlink:title="doUpdateWIP, update&#45;wip (idempotent)" target="_parent">
<path fill="none" stroke="black" d="M756.35,-304.94C766.96,-295.55 774.27,-284.11 767,-273 718.4,-198.72 641.76,-260.41 584,-193 578.69,-186.8 575.36,-178.81 573.29,-170.91"/>
<polygon fill="black" stroke="black" points="576.72,-170.21 571.28,-161.11 569.86,-171.61 576.72,-170.21"/>
</a>
</g>
<g id="a_edge7&#45;label"><a xlink:href="docs/idempotent.doUpdateWIP.html" xlink:title="doUpdateWIP, update&#45;wip (idempotent)" target="_parent">
<text text-anchor="middle" x="882.5" y="-229.6" font-family="Times,serif" font-size="13.00">doUpdateWIP, update&#45;wip (idempotent)</text>
</a>
</g>
</g>
<!-- readwip&#45;&gt;home -->
<g id="edge16" class="edge">
<title>readwip&#45;&gt;home</title>
<g id="a_edge16"><a xlink:href="docs/safe.getHome.html" xlink:title="getHome, self (safe)" target="_parent">
<path fill="none" stroke="black" d="M1386.74,-233.31C1492.14,-232.37 1779.98,-236.24 1837,-305 1876.22,-352.29 1865.74,-393.76 1829,-443 1797.95,-484.62 1738.87,-501.85 1696.65,-508.99"/>
<polygon fill="black" stroke="black" points="1695.92,-505.56 1686.58,-510.55 1697,-512.47 1695.92,-505.56"/>
</a>
</g>
<g id="a_edge16&#45;label"><a xlink:href="docs/safe.getHome.html" xlink:title="getHome, self (safe)" target="_parent">
<text text-anchor="middle" x="1927.5" y="-370.6" font-family="Times,serif" font-size="13.00">getHome, self (safe)</text>
</a>
</g>
</g>
<!-- readwip&#45;&gt;listwip -->
<g id="edge15" class="edge">
<title>readwip&#45;&gt;listwip</title>
<g id="a_edge15"><a xlink:href="docs/safe.getListWIP.html" xlink:title="getListWIP, list&#45;wip (safe)" target="_parent">
<path fill="none" stroke="black" d="M1349.93,-255.41C1350.99,-280.82 1348.76,-323 1326,-349 1309.34,-368.04 1295.9,-358.71 1272,-367 1238.98,-378.45 1201.98,-391.8 1173.35,-402.23"/>
<polygon fill="black" stroke="black" points="1171.79,-399.08 1163.6,-405.79 1174.19,-405.65 1171.79,-399.08"/>
</a>
</g>
<g id="a_edge15&#45;label"><a xlink:href="docs/safe.getListWIP.html" xlink:title="getListWIP, list&#45;wip (safe)" target="_parent">
<text text-anchor="middle" x="1432" y="-323.6" font-family="Times,serif" font-size="13.00">getListWIP, list&#45;wip (safe)</text>
</a>
</g>
</g>
<!-- readwip&#45;&gt;updatewip -->
<g id="edge11" class="edge">
<title>readwip&#45;&gt;updatewip</title>
<g id="a_edge11"><a xlink:href="docs/idempotent.doUpdateWIP.html" xlink:title="doUpdateWIP, update&#45;wip (idempotent)" target="_parent">
<path fill="none" stroke="black" d="M1309.4,-231.11C1232.42,-228.77 1054.58,-220.6 908,-193 886.16,-188.89 881.74,-183.6 860,-179 779.13,-161.87 683.89,-150.76 625.23,-144.94"/>
<polygon fill="black" stroke="black" points="625.36,-141.43 615.07,-143.94 624.68,-148.4 625.36,-141.43"/>
</a>
</g>
<g id="a_edge11&#45;label"><a xlink:href="docs/idempotent.doUpdateWIP.html" xlink:title="doUpdateWIP, update&#45;wip (idempotent)" target="_parent">
<text text-anchor="middle" x="1038.5" y="-182.6" font-family="Times,serif" font-size="13.00">doUpdateWIP, update&#45;wip (idempotent)</text>
</a>
</g>
</g>
<!-- submitwip -->
<g id="node6" class="node">
<title>submitwip</title>
<g id="a_node6"><a xlink:href="docs/semantic.submitwip.html" xlink:title="&lt;TABLE&gt;" target="_parent">
<polygon fill="none" stroke="black" points="1074,-67 984,-67 984,-23 1074,-23 1074,-67"/>
<polygon fill="#dddddd" stroke="transparent" points="985,-24 985,-66 1073,-66 1073,-24 985,-24"/>
<polygon fill="none" stroke="black" points="985,-24 985,-66 1073,-66 1073,-24 985,-24"/>
<text text-anchor="start" x="991" y="-48.8" font-family="Times,serif" font-size="14.00">submitwip</text>
<text text-anchor="start" x="997.5" y="-33.8" font-family="Times,serif" font-size="14.00">(wiplink)</text>
</a>
</g>
</g>
<!-- readwip&#45;&gt;submitwip -->
<g id="edge12" class="edge">
<title>readwip&#45;&gt;submitwip</title>
<g id="a_edge12"><a xlink:href="docs/idempotent.doSubmitWIP.html" xlink:title="doSubmitWIP, submit&#45;wip (idempotent)" target="_parent">
<path fill="none" stroke="black" d="M1309.3,-226.59C1279.6,-221.23 1238.33,-211.13 1206,-193 1144.84,-158.71 1146.49,-127.87 1091,-85 1085.59,-80.82 1079.72,-76.68 1073.82,-72.74"/>
<polygon fill="black" stroke="black" points="1075.5,-69.65 1065.2,-67.14 1071.68,-75.52 1075.5,-69.65"/>
</a>
</g>
<g id="a_edge12&#45;label"><a xlink:href="docs/idempotent.doSubmitWIP.html" xlink:title="doSubmitWIP, submit&#45;wip (idempotent)" target="_parent">
<text text-anchor="middle" x="1292" y="-135.6" font-family="Times,serif" font-size="13.00">doSubmitWIP, submit&#45;wip (idempotent)</text>
</a>
</g>
</g>
<!-- cancelwip -->
<g id="node7" class="node">
<title>cancelwip</title>
<g id="a_node7"><a xlink:href="docs/semantic.cancelwip.html" xlink:title="&lt;TABLE&gt;" target="_parent">
<polygon fill="none" stroke="black" points="441.5,-161 356.5,-161 356.5,-117 441.5,-117 441.5,-161"/>
<polygon fill="#dddddd" stroke="transparent" points="358,-118 358,-160 441,-160 441,-118 358,-118"/>
<polygon fill="none" stroke="black" points="358,-118 358,-160 441,-160 441,-118 358,-118"/>
<text text-anchor="start" x="364" y="-142.8" font-family="Times,serif" font-size="14.00">cancelwip</text>
<text text-anchor="start" x="368" y="-127.8" font-family="Times,serif" font-size="14.00">(wiplink)</text>
</a>
</g>
</g>
<!-- readwip&#45;&gt;cancelwip -->
<g id="edge13" class="edge">
<title>readwip&#45;&gt;cancelwip</title>
<g id="a_edge13"><a xlink:href="docs/idempotent.doCancelWIP.html" xlink:title="doCancelWIP, cancel&#45;wip (idempotent)" target="_parent">
<path fill="none" stroke="black" d="M1309.47,-229.98C1237.88,-226.24 1079.48,-217.96 946,-211 792.22,-202.98 752.14,-216.76 600,-193 548.61,-184.98 491.38,-169.19 451.17,-156.92"/>
<polygon fill="black" stroke="black" points="452.17,-153.57 441.59,-153.97 450.11,-160.26 452.17,-153.57"/>
</a>
</g>
<g id="a_edge13&#45;label"><a xlink:href="docs/idempotent.doCancelWIP.html" xlink:title="doCancelWIP, cancel&#45;wip (idempotent)" target="_parent">
<text text-anchor="middle" x="728" y="-182.6" font-family="Times,serif" font-size="13.00">doCancelWIP, cancel&#45;wip (idempotent)</text>
</a>
</g>
</g>
<!-- sharewip -->
<g id="node9" class="node">
<title>sharewip</title>
<g id="a_node9"><a xlink:href="docs/semantic.sharewip.html" xlink:title="&lt;TABLE&gt;" target="_parent">
<polygon fill="none" stroke="black" points="1541,-161 1461,-161 1461,-117 1541,-117 1541,-161"/>
<polygon fill="#dddddd" stroke="transparent" points="1462,-118 1462,-160 1540,-160 1540,-118 1462,-118"/>
<polygon fill="none" stroke="black" points="1462,-118 1462,-160 1540,-160 1540,-118 1462,-118"/>
<text text-anchor="start" x="1468" y="-142.8" font-family="Times,serif" font-size="14.00">sharewip</text>
<text text-anchor="start" x="1469.5" y="-127.8" font-family="Times,serif" font-size="14.00">(wiplink)</text>
</a>
</g>
</g>
<!-- readwip&#45;&gt;sharewip -->
<g id="edge10" class="edge">
<title>readwip&#45;&gt;sharewip</title>
<g id="a_edge10"><a xlink:href="docs/idempotent.doShareWIP.html" xlink:title="doShareWIP, share&#45;wip (idempotent)" target="_parent">
<path fill="none" stroke="black" d="M1309.44,-229.04C1261.01,-223.94 1187.6,-210.79 1217,-179 1234.4,-160.18 1422.01,-166.71 1447,-161 1448.27,-160.71 1449.55,-160.4 1450.83,-160.06"/>
<polygon fill="black" stroke="black" points="1452.12,-163.33 1460.71,-157.13 1450.13,-156.62 1452.12,-163.33"/>
</a>
</g>
<g id="a_edge10&#45;label"><a xlink:href="docs/idempotent.doShareWIP.html" xlink:title="doShareWIP, share&#45;wip (idempotent)" target="_parent">
<text text-anchor="middle" x="1338" y="-182.6" font-family="Times,serif" font-size="13.00">doShareWIP, share&#45;wip (idempotent)</text>
</a>
</g>
</g>
<!-- statuswip -->
<g id="node10" class="node">
<title>statuswip</title>
<g id="a_node10"><a xlink:href="docs/semantic.statuswip.html" xlink:title="&lt;TABLE&gt;" target="_parent">
<polygon fill="none" stroke="black" points="2107,-161 2023,-161 2023,-117 2107,-117 2107,-161"/>
<polygon fill="#dddddd" stroke="transparent" points="2024,-118 2024,-160 2106,-160 2106,-118 2024,-118"/>
<polygon fill="none" stroke="black" points="2024,-118 2024,-160 2106,-160 2106,-118 2024,-118"/>
<text text-anchor="start" x="2030" y="-142.8" font-family="Times,serif" font-size="14.00">statuswip</text>
<text text-anchor="start" x="2033.5" y="-127.8" font-family="Times,serif" font-size="14.00">(wiplink)</text>
</a>
</g>
</g>
<!-- readwip&#45;&gt;statuswip -->
<g id="edge14" class="edge">
<title>readwip&#45;&gt;statuswip</title>
<g id="a_edge14"><a xlink:href="docs/idempotent.doStatusWIP.html" xlink:title="doStatusWIP, status&#45;wip (idempotent)" target="_parent">
<path fill="none" stroke="black" d="M1386.98,-231.62C1447.73,-230.05 1568.07,-223.02 1665,-193 1677.91,-189 1679.05,-182.88 1692,-179 1802.71,-145.81 1939.24,-139.9 2012.54,-139.39"/>
<polygon fill="black" stroke="black" points="2012.9,-142.89 2022.89,-139.35 2012.88,-135.89 2012.9,-142.89"/>
</a>
</g>
<g id="a_edge14&#45;label"><a xlink:href="docs/idempotent.doStatusWIP.html" xlink:title="doStatusWIP, status&#45;wip (idempotent)" target="_parent">
<text text-anchor="middle" x="1817" y="-182.6" font-family="Times,serif" font-size="13.00">doStatusWIP, status&#45;wip (idempotent)</text>
</a>
</g>
</g>
<!-- updatewip&#45;&gt;home -->
<g id="edge19" class="edge">
<title>updatewip&#45;&gt;home</title>
<g id="a_edge19"><a xlink:href="docs/safe.getHome.html" xlink:title="getHome, self (safe)" target="_parent">
<path fill="none" stroke="black" d="M524.91,-148.93C463.47,-164.02 361,-200.89 361,-279 361,-422 361,-422 361,-422 361,-485.29 1364.27,-508.54 1599.2,-513.11"/>
<polygon fill="black" stroke="black" points="1599.42,-516.62 1609.48,-513.31 1599.55,-509.62 1599.42,-516.62"/>
</a>
</g>
<g id="a_edge19&#45;label"><a xlink:href="docs/safe.getHome.html" xlink:title="getHome, self (safe)" target="_parent">
<text text-anchor="middle" x="427.5" y="-323.6" font-family="Times,serif" font-size="13.00">getHome, self (safe)</text>
</a>
</g>
</g>
<!-- updatewip&#45;&gt;listwip -->
<g id="edge18" class="edge">
<title>updatewip&#45;&gt;listwip</title>
<g id="a_edge18"><a xlink:href="docs/safe.getListWIP.html" xlink:title="getListWIP, list&#45;wip (safe)" target="_parent">
<path fill="none" stroke="black" d="M570.65,-161.15C572.79,-214.61 581.51,-352.87 615,-381 619.39,-384.69 949.14,-407.84 1076.01,-416.63"/>
<polygon fill="black" stroke="black" points="1076,-420.13 1086.22,-417.33 1076.48,-413.15 1076,-420.13"/>
</a>
</g>
<g id="a_edge18&#45;label"><a xlink:href="docs/safe.getListWIP.html" xlink:title="getListWIP, list&#45;wip (safe)" target="_parent">
<text text-anchor="middle" x="668" y="-276.6" font-family="Times,serif" font-size="13.00">getListWIP, list&#45;wip (safe)</text>
</a>
</g>
</g>
<!-- updatewip&#45;&gt;submitwip -->
<g id="edge17" class="edge">
<title>updatewip&#45;&gt;submitwip</title>
<g id="a_edge17"><a xlink:href="docs/idempotent.doSubmitWIP.html" xlink:title="doSubmitWIP, submit&#45;wip (idempotent)" target="_parent">
<path fill="none" stroke="black" d="M615.27,-128.93C699.96,-111.95 882.08,-75.45 973.81,-57.06"/>
<polygon fill="black" stroke="black" points="974.62,-60.47 983.73,-55.07 973.24,-53.61 974.62,-60.47"/>
</a>
</g>
<g id="a_edge17&#45;label"><a xlink:href="docs/idempotent.doSubmitWIP.html" xlink:title="doSubmitWIP, submit&#45;wip (idempotent)" target="_parent">
<text text-anchor="middle" x="957" y="-88.6" font-family="Times,serif" font-size="13.00">doSubmitWIP, submit&#45;wip (idempotent)</text>
</a>
</g>
</g>
<!-- submitwip&#45;&gt;home -->
<g id="edge21" class="edge">
<title>submitwip&#45;&gt;home</title>
<g id="a_edge21"><a xlink:href="docs/safe.getHome.html" xlink:title="getHome, self (safe)" target="_parent">
<path fill="none" stroke="black" d="M1074.28,-46.64C1310.44,-50.26 2390,-70.51 2390,-138 2390,-422 2390,-422 2390,-422 2390,-492.06 1862.32,-509.38 1696.95,-513.09"/>
<polygon fill="black" stroke="black" points="1696.51,-509.6 1686.59,-513.32 1696.66,-516.6 1696.51,-509.6"/>
</a>
</g>
<g id="a_edge21&#45;label"><a xlink:href="docs/safe.getHome.html" xlink:title="getHome, self (safe)" target="_parent">
<text text-anchor="middle" x="2456.5" y="-276.6" font-family="Times,serif" font-size="13.00">getHome, self (safe)</text>
</a>
</g>
</g>
<!-- submitwip&#45;&gt;listwip -->
<g id="edge20" class="edge">
<title>submitwip&#45;&gt;listwip</title>
<g id="a_edge20"><a xlink:href="docs/safe.getListWIP.html" xlink:title="getListWIP, list&#45;wip (safe)" target="_parent">
<path fill="none" stroke="black" d="M983.86,-46C805.69,-46.57 161,-54.42 161,-138 161,-328 161,-328 161,-328 161,-419.65 478.8,-371.9 570,-381 594.97,-383.49 945.32,-407.65 1076.17,-416.65"/>
<polygon fill="black" stroke="black" points="1076.09,-420.15 1086.31,-417.34 1076.57,-413.17 1076.09,-420.15"/>
</a>
</g>
<g id="a_edge20&#45;label"><a xlink:href="docs/safe.getListWIP.html" xlink:title="getListWIP, list&#45;wip (safe)" target="_parent">
<text text-anchor="middle" x="247" y="-229.6" font-family="Times,serif" font-size="13.00">getListWIP, list&#45;wip (safe)</text>
</a>
</g>
</g>
<!-- cancelwip&#45;&gt;home -->
<g id="edge23" class="edge">
<title>cancelwip&#45;&gt;home</title>
<g id="a_edge23"><a xlink:href="docs/safe.getHome.html" xlink:title="getHome, self (safe)" target="_parent">
<path fill="none" stroke="black" d="M356.3,-140.87C253.37,-144.12 0,-159.49 0,-232 0,-422 0,-422 0,-422 0,-504.23 1325.14,-512.96 1598.89,-513.89"/>
<polygon fill="black" stroke="black" points="1599.28,-517.39 1609.29,-513.92 1599.3,-510.39 1599.28,-517.39"/>
</a>
</g>
<g id="a_edge23&#45;label"><a xlink:href="docs/safe.getHome.html" xlink:title="getHome, self (safe)" target="_parent">
<text text-anchor="middle" x="66.5" y="-323.6" font-family="Times,serif" font-size="13.00">getHome, self (safe)</text>
</a>
</g>
</g>
<!-- cancelwip&#45;&gt;listwip -->
<g id="edge22" class="edge">
<title>cancelwip&#45;&gt;listwip</title>
<g id="a_edge22"><a xlink:href="docs/safe.getListWIP.html" xlink:title="getListWIP, list&#45;wip (safe)" target="_parent">
<path fill="none" stroke="black" d="M392.55,-161.17C384.39,-192.65 374.77,-251.85 405,-287 432.45,-318.92 459.45,-288.09 498,-305 550.1,-327.86 547.66,-361.23 601,-381 612.06,-385.1 947.62,-408.05 1075.85,-416.7"/>
<polygon fill="black" stroke="black" points="1075.95,-420.22 1086.16,-417.4 1076.42,-413.23 1075.95,-420.22"/>
</a>
</g>
<g id="a_edge22&#45;label"><a xlink:href="docs/safe.getListWIP.html" xlink:title="getListWIP, list&#45;wip (safe)" target="_parent">
<text text-anchor="middle" x="491" y="-276.6" font-family="Times,serif" font-size="13.00">getListWIP, list&#45;wip (safe)</text>
</a>
</g>
</g>
<!-- filterwip&#45;&gt;home -->
<g id="edge24" class="edge">
<title>filterwip&#45;&gt;home</title>
<g id="a_edge24"><a xlink:href="docs/safe.getHome.html" xlink:title="getHome, self (safe)" target="_parent">
<path fill="none" stroke="black" d="M1615.58,-331.71C1638.68,-336.14 1666.34,-345.84 1681,-367 1705.34,-402.12 1685.17,-452.28 1667.39,-483.99"/>
<polygon fill="black" stroke="black" points="1664.27,-482.4 1662.24,-492.8 1670.31,-485.93 1664.27,-482.4"/>
</a>
</g>
<g id="a_edge24&#45;label"><a xlink:href="docs/safe.getHome.html" xlink:title="getHome, self (safe)" target="_parent">
<text text-anchor="middle" x="1758.5" y="-417.6" font-family="Times,serif" font-size="13.00">getHome, self (safe)</text>
</a>
</g>
</g>
<!-- filterwip&#45;&gt;listwip -->
<g id="edge25" class="edge">
<title>filterwip&#45;&gt;listwip</title>
<g id="a_edge25"><a xlink:href="docs/safe.getListWIP.html" xlink:title="getListWIP, list&#45;wip (safe)" target="_parent">
<path fill="none" stroke="black" d="M1539.84,-349.08C1529.8,-354.84 1518.96,-361.11 1509,-367 1498.7,-373.09 1497.33,-377.15 1486,-381 1429.41,-400.21 1258.64,-412.35 1173.85,-417.37"/>
<polygon fill="black" stroke="black" points="1173.48,-413.88 1163.7,-417.96 1173.89,-420.87 1173.48,-413.88"/>
</a>
</g>
<g id="a_edge25&#45;label"><a xlink:href="docs/safe.getListWIP.html" xlink:title="getListWIP, list&#45;wip (safe)" target="_parent">
<text text-anchor="middle" x="1595" y="-370.6" font-family="Times,serif" font-size="13.00">getListWIP, list&#45;wip (safe)</text>
</a>
</g>
</g>
<!-- filterwip&#45;&gt;readwip -->
<g id="edge27" class="edge">
<title>filterwip&#45;&gt;readwip</title>
<g id="a_edge27"><a xlink:href="docs/safe.getReadWIP.html" xlink:title="getReadWIP, read&#45;wip (safe)" target="_parent">
<path fill="none" stroke="black" d="M1538.41,-310.5C1499.27,-294.77 1438.58,-270.39 1396.28,-253.4"/>
<polygon fill="black" stroke="black" points="1397.33,-250.05 1386.75,-249.57 1394.72,-256.54 1397.33,-250.05"/>
</a>
</g>
<g id="a_edge27&#45;label"><a xlink:href="docs/safe.getReadWIP.html" xlink:title="getReadWIP, read&#45;wip (safe)" target="_parent">
<text text-anchor="middle" x="1569.5" y="-276.6" font-family="Times,serif" font-size="13.00">getReadWIP, read&#45;wip (safe)</text>
</a>
</g>
</g>
<!-- filterwip&#45;&gt;filterwip -->
<g id="edge26" class="edge">
<title>filterwip&#45;&gt;filterwip</title>
<g id="a_edge26"><a xlink:href="docs/safe.getFilterWIP.html" xlink:title="getFilterWIP, filter&#45;wip (safe)" target="_parent">
<path fill="none" stroke="black" d="M1615.56,-335.55C1625.77,-335.06 1633.5,-332.21 1633.5,-327 1633.5,-323.74 1630.48,-321.41 1625.72,-320"/>
<polygon fill="black" stroke="black" points="1625.97,-316.49 1615.56,-318.45 1624.92,-323.41 1625.97,-316.49"/>
</a>
</g>
<g id="a_edge26&#45;label"><a xlink:href="docs/safe.getFilterWIP.html" xlink:title="getFilterWIP, filter&#45;wip (safe)" target="_parent">
<text text-anchor="middle" x="1730.5" y="-323.6" font-family="Times,serif" font-size="13.00">getFilterWIP, filter&#45;wip (safe)</text>
</a>
</g>
</g>
<!-- sharewip&#45;&gt;home -->
<g id="edge30" class="edge">
<title>sharewip&#45;&gt;home</title>
<g id="a_edge30"><a xlink:href="docs/safe.getHome.html" xlink:title="getHome, self (safe)" target="_parent">
<path fill="none" stroke="black" d="M1541.15,-141.74C1681.78,-147.93 2144.24,-168.99 2156,-179 2218.85,-232.51 2188.27,-273.59 2177,-287 2147.1,-322.58 2114.37,-281.98 2074,-305 2035.39,-327.01 2044.16,-353.81 2009,-381 1933.52,-439.37 1905.93,-443.12 1816,-475 1776.87,-488.87 1730.84,-499.16 1696.87,-505.67"/>
<polygon fill="black" stroke="black" points="1695.92,-502.29 1686.73,-507.57 1697.21,-509.17 1695.92,-502.29"/>
</a>
</g>
<g id="a_edge30&#45;label"><a xlink:href="docs/safe.getHome.html" xlink:title="getHome, self (safe)" target="_parent">
<text text-anchor="middle" x="2140.5" y="-323.6" font-family="Times,serif" font-size="13.00">getHome, self (safe)</text>
</a>
</g>
</g>
<!-- sharewip&#45;&gt;listwip -->
<g id="edge29" class="edge">
<title>sharewip&#45;&gt;listwip</title>
<g id="a_edge29"><a xlink:href="docs/safe.getListWIP.html" xlink:title="getListWIP, list&#45;wip (safe)" target="_parent">
<path fill="none" stroke="black" d="M1460.85,-152.77C1449.67,-155.91 1437.45,-158.95 1426,-161 1265.24,-189.81 1150.31,-127.56 1076,-273 1056.28,-311.59 1080.78,-359.83 1101.66,-390.28"/>
<polygon fill="black" stroke="black" points="1099.04,-392.64 1107.69,-398.76 1104.75,-388.58 1099.04,-392.64"/>
</a>
</g>
<g id="a_edge29&#45;label"><a xlink:href="docs/safe.getListWIP.html" xlink:title="getListWIP, list&#45;wip (safe)" target="_parent">
<text text-anchor="middle" x="1162" y="-276.6" font-family="Times,serif" font-size="13.00">getListWIP, list&#45;wip (safe)</text>
</a>
</g>
</g>
<!-- sharewip&#45;&gt;readwip -->
<g id="edge28" class="edge">
<title>sharewip&#45;&gt;readwip</title>
<g id="a_edge28"><a xlink:href="docs/safe.getReadWIP.html" xlink:title="getReadWIP, read&#45;wip (safe)" target="_parent">
<path fill="none" stroke="black" d="M1488.47,-161C1481.08,-171.85 1470.85,-184.55 1459,-193 1440.49,-206.19 1417.1,-215.29 1396.56,-221.35"/>
<polygon fill="black" stroke="black" points="1395.44,-218.03 1386.75,-224.09 1397.32,-224.77 1395.44,-218.03"/>
</a>
</g>
<g id="a_edge28&#45;label"><a xlink:href="docs/safe.getReadWIP.html" xlink:title="getReadWIP, read&#45;wip (safe)" target="_parent">
<text text-anchor="middle" x="1567.5" y="-182.6" font-family="Times,serif" font-size="13.00">getReadWIP, read&#45;wip (safe)</text>
</a>
</g>
</g>
<!-- statuswip&#45;&gt;home -->
<g id="edge33" class="edge">
<title>statuswip&#45;&gt;home</title>
<g id="a_edge33"><a xlink:href="docs/safe.getHome.html" xlink:title="getHome, self (safe)" target="_parent">
<path fill="none" stroke="black" d="M2107.23,-145.23C2155.83,-153.88 2229,-176.17 2229,-232 2229,-422 2229,-422 2229,-422 2229,-475.74 1836.24,-503.3 1696.57,-511.41"/>
<polygon fill="black" stroke="black" points="1696.35,-507.91 1686.57,-511.98 1696.75,-514.9 1696.35,-507.91"/>
</a>
</g>
<g id="a_edge33&#45;label"><a xlink:href="docs/safe.getHome.html" xlink:title="getHome, self (safe)" target="_parent">
<text text-anchor="middle" x="2295.5" y="-323.6" font-family="Times,serif" font-size="13.00">getHome, self (safe)</text>
</a>
</g>
</g>
<!-- statuswip&#45;&gt;listwip -->
<g id="edge32" class="edge">
<title>statuswip&#45;&gt;listwip</title>
<g id="a_edge32"><a xlink:href="docs/safe.getListWIP.html" xlink:title="getListWIP, list&#45;wip (safe)" target="_parent">
<path fill="none" stroke="black" d="M2107.27,-148.82C2135.45,-156.88 2165.1,-170.95 2152,-193 2114,-256.94 2047.32,-211.83 2005,-273 1977.43,-312.85 2025.82,-348.36 1990,-381 1982.4,-387.92 1355.48,-411.52 1173.82,-418.21"/>
<polygon fill="black" stroke="black" points="1173.61,-414.72 1163.75,-418.58 1173.87,-421.71 1173.61,-414.72"/>
</a>
</g>
<g id="a_edge32&#45;label"><a xlink:href="docs/safe.getListWIP.html" xlink:title="getListWIP, list&#45;wip (safe)" target="_parent">
<text text-anchor="middle" x="2091" y="-276.6" font-family="Times,serif" font-size="13.00">getListWIP, list&#45;wip (safe)</text>
</a>
</g>
</g>
<!-- statuswip&#45;&gt;readwip -->
<g id="edge31" class="edge">
<title>statuswip&#45;&gt;readwip</title>
<g id="a_edge31"><a xlink:href="docs/safe.getReadWIP.html" xlink:title="getReadWIP, read&#45;wip (safe)" target="_parent">
<path fill="none" stroke="black" d="M2022.94,-154.54C2004.8,-161.28 1983.54,-169.83 1965,-179 1954.27,-184.31 1953.41,-189.39 1942,-193 1840.86,-224.97 1520.02,-230.75 1396.82,-231.78"/>
<polygon fill="black" stroke="black" points="1396.54,-228.28 1386.57,-231.86 1396.59,-235.28 1396.54,-228.28"/>
</a>
</g>
<g id="a_edge31&#45;label"><a xlink:href="docs/safe.getReadWIP.html" xlink:title="getReadWIP, read&#45;wip (safe)" target="_parent">
<text text-anchor="middle" x="2058.5" y="-182.6" font-family="Times,serif" font-size="13.00">getReadWIP, read&#45;wip (safe)</text>
</a>
</g>
</g>
</g>
</svg>
