<?xml version="1.0" encoding="UTF-8" standalone="no"?>
<!DOCTYPE svg PUBLIC "-//W3C//DTD SVG 1.1//EN"
 "http://www.w3.org/Graphics/SVG/1.1/DTD/svg11.dtd">
<!-- Generated by graphviz version 2.43.0 (0)
 -->
<!-- Title: application_state_diagram Pages: 1 -->
<svg width="2471pt" height="545pt"
 viewBox="0.00 0.00 2471.00 545.00" xmlns="http://www.w3.org/2000/svg" xmlns:xlink="http://www.w3.org/1999/xlink">
<g id="graph0" class="graph" transform="scale(1 1) rotate(0) translate(4 541)">
<title>application_state_diagram</title>
<g id="a_graph0"><a xlink:href="index.html" xlink:title="Work&#45;In&#45;Progress (WIP) Profile" target="_parent">
<polygon fill="white" stroke="transparent" points="-4,4 -4,-541 2467,-541 2467,4 -4,4"/>
<text text-anchor="middle" x="1231.5" y="-7.8" font-family="Helvetica,sans-Serif" font-size="14.00">Work&#45;In&#45;Progress (WIP) Profile</text>
</a>
</g>
<!-- home -->
<g id="node1" class="node">
<title>home</title>
<g id="a_node1"><a xlink:href="docs/semantic.home.html" xlink:title="&lt;TABLE&gt;" target="_parent">
<polygon fill="none" stroke="black" points="1652.5,-537 1575.5,-537 1575.5,-493 1652.5,-493 1652.5,-537"/>
<polygon fill="#dddddd" stroke="transparent" points="1577,-494 1577,-536 1652,-536 1652,-494 1577,-494"/>
<polygon fill="none" stroke="black" points="1577,-494 1577,-536 1652,-536 1652,-494 1577,-494"/>
<text text-anchor="start" x="1594.5" y="-518.8" font-family="Times,serif" font-size="14.00">home</text>
<text text-anchor="start" x="1583" y="-503.8" font-family="Times,serif" font-size="14.00">(wiplink)</text>
</a>
</g>
</g>
<!-- home&#45;&gt;home -->
<g id="edge2" class="edge">
<title>home&#45;&gt;home</title>
<g id="a_edge2"><a xlink:href="docs/safe.goHome.html" xlink:title="goHome, self (safe)" target="_parent">
<path fill="none" stroke="black" d="M1652.56,-523.55C1662.77,-523.06 1670.5,-520.21 1670.5,-515 1670.5,-511.74 1667.48,-509.41 1662.72,-508"/>
<polygon fill="black" stroke="black" points="1662.97,-504.49 1652.56,-506.45 1661.92,-511.41 1662.97,-504.49"/>
</a>
</g>
<g id="a_edge2&#45;label"><a xlink:href="docs/safe.goHome.html" xlink:title="goHome, self (safe)" target="_parent">
<text text-anchor="middle" x="1734.5" y="-511.6" font-family="Times,serif" font-size="13.00">goHome, self (safe)</text>
</a>
</g>
</g>
<!-- listwip -->
<g id="node2" class="node">
<title>listwip</title>
<g id="a_node2"><a xlink:href="docs/semantic.listwip.html" xlink:title="&lt;TABLE&gt;" target="_parent">
<polygon fill="none" stroke="black" points="1140.5,-443 1063.5,-443 1063.5,-399 1140.5,-399 1140.5,-443"/>
<polygon fill="#dddddd" stroke="transparent" points="1065,-400 1065,-442 1140,-442 1140,-400 1065,-400"/>
<polygon fill="none" stroke="black" points="1065,-400 1065,-442 1140,-442 1140,-400 1065,-400"/>
<text text-anchor="start" x="1078" y="-424.8" font-family="Times,serif" font-size="14.00">listwip</text>
<text text-anchor="start" x="1071" y="-409.8" font-family="Times,serif" font-size="14.00">(wiplink)</text>
</a>
</g>
</g>
<!-- home&#45;&gt;listwip -->
<g id="edge1" class="edge">
<title>home&#45;&gt;listwip</title>
<g id="a_edge1"><a xlink:href="docs/safe.goListWIP.html" xlink:title="goListWIP, list&#45;wip (safe)" target="_parent">
<path fill="none" stroke="black" d="M1575.32,-513.25C1506.96,-511.21 1360.7,-503.56 1241,-475 1209.9,-467.58 1176.37,-454.94 1150.04,-443.87"/>
<polygon fill="black" stroke="black" points="1151.25,-440.58 1140.68,-439.87 1148.5,-447.02 1151.25,-440.58"/>
</a>
</g>
<g id="a_edge1&#45;label"><a xlink:href="docs/safe.goListWIP.html" xlink:title="goListWIP, list&#45;wip (safe)" target="_parent">
<text text-anchor="middle" x="1324" y="-464.6" font-family="Times,serif" font-size="13.00">goListWIP, list&#45;wip (safe)</text>
</a>
</g>
</g>
<!-- listwip&#45;&gt;home -->
<g id="edge6" class="edge">
<title>listwip&#45;&gt;home</title>
<g id="a_edge6"><a xlink:href="docs/safe.goHome.html" xlink:title="goHome, self (safe)" target="_parent">
<path fill="none" stroke="black" d="M1140.76,-425.41C1198.93,-430.87 1312.1,-442.85 1407,-461 1461.98,-471.51 1524.07,-488.05 1565.78,-499.85"/>
<polygon fill="black" stroke="black" points="1564.83,-503.22 1575.41,-502.59 1566.75,-496.49 1564.83,-503.22"/>
</a>
</g>
<g id="a_edge6&#45;label"><a xlink:href="docs/safe.goHome.html" xlink:title="goHome, self (safe)" target="_parent">
<text text-anchor="middle" x="1534" y="-464.6" font-family="Times,serif" font-size="13.00">goHome, self (safe)</text>
</a>
</g>
</g>
<!-- createwip -->
<g id="node3" class="node">
<title>createwip</title>
<g id="a_node3"><a xlink:href="docs/semantic.createwip.html" xlink:title="&lt;TABLE&gt;" target="_parent">
<polygon fill="none" stroke="black" points="745.5,-349 660.5,-349 660.5,-305 745.5,-305 745.5,-349"/>
<polygon fill="#dddddd" stroke="transparent" points="662,-306 662,-348 745,-348 745,-306 662,-306"/>
<polygon fill="none" stroke="black" points="662,-306 662,-348 745,-348 745,-306 662,-306"/>
<text text-anchor="start" x="668" y="-330.8" font-family="Times,serif" font-size="14.00">createwip</text>
<text text-anchor="start" x="672" y="-315.8" font-family="Times,serif" font-size="14.00">(wiplink)</text>
</a>
</g>
</g>
<!-- listwip&#45;&gt;createwip -->
<g id="edge5" class="edge">
<title>listwip&#45;&gt;createwip</title>
<g id="a_edge5"><a xlink:href="docs/idempotent.doCreateWIP.html" xlink:title="doCreateWIP, create&#45;wip (idempotent)" target="_parent">
<path fill="none" stroke="black" d="M1063.16,-420.09C1004.5,-419.1 890.54,-412.78 800,-381 788.71,-377.04 787.41,-372.9 777,-367 769.29,-362.63 761.05,-358.12 752.97,-353.8"/>
<polygon fill="black" stroke="black" points="754.43,-350.61 743.96,-349.01 751.15,-356.79 754.43,-350.61"/>
</a>
</g>
<g id="a_edge5&#45;label"><a xlink:href="docs/idempotent.doCreateWIP.html" xlink:title="doCreateWIP, create&#45;wip (idempotent)" target="_parent">
<text text-anchor="middle" x="926.5" y="-370.6" font-family="Times,serif" font-size="13.00">doCreateWIP, create&#45;wip (idempotent)</text>
</a>
</g>
</g>
<!-- readwip -->
<g id="node4" class="node">
<title>readwip</title>
<g id="a_node4"><a xlink:href="docs/semantic.readwip.html" xlink:title="&lt;TABLE&gt;" target="_parent">
<polygon fill="none" stroke="black" points="1358.5,-255 1281.5,-255 1281.5,-211 1358.5,-211 1358.5,-255"/>
<polygon fill="#dddddd" stroke="transparent" points="1283,-212 1283,-254 1358,-254 1358,-212 1283,-212"/>
<polygon fill="none" stroke="black" points="1283,-212 1283,-254 1358,-254 1358,-212 1283,-212"/>
<text text-anchor="start" x="1291.5" y="-236.8" font-family="Times,serif" font-size="14.00">readwip</text>
<text text-anchor="start" x="1289" y="-221.8" font-family="Times,serif" font-size="14.00">(wiplink)</text>
</a>
</g>
</g>
<!-- listwip&#45;&gt;readwip -->
<g id="edge4" class="edge">
<title>listwip&#45;&gt;readwip</title>
<g id="a_edge4"><a xlink:href="docs/safe.goReadWIP.html" xlink:title="goReadWIP, read&#45;wip (safe)" target="_parent">
<path fill="none" stroke="black" d="M1097.75,-398.61C1093.98,-372.82 1092.24,-329.87 1116,-305 1149.31,-270.13 1177.43,-302.78 1223,-287 1242.28,-280.32 1262.27,-270.05 1279.07,-260.32"/>
<polygon fill="black" stroke="black" points="1281.22,-263.11 1288.04,-255 1277.65,-257.09 1281.22,-263.11"/>
</a>
</g>
<g id="a_edge4&#45;label"><a xlink:href="docs/safe.goReadWIP.html" xlink:title="goReadWIP, read&#45;wip (safe)" target="_parent">
<text text-anchor="middle" x="1207" y="-323.6" font-family="Times,serif" font-size="13.00">goReadWIP, read&#45;wip (safe)</text>
</a>
</g>
</g>
<!-- filterwip -->
<g id="node8" class="node">
<title>filterwip</title>
<g id="a_node8"><a xlink:href="docs/semantic.filterwip.html" xlink:title="&lt;TABLE&gt;" target="_parent">
<polygon fill="none" stroke="black" points="1581.5,-349 1504.5,-349 1504.5,-305 1581.5,-305 1581.5,-349"/>
<polygon fill="#dddddd" stroke="transparent" points="1506,-306 1506,-348 1581,-348 1581,-306 1506,-306"/>
<polygon fill="none" stroke="black" points="1506,-306 1506,-348 1581,-348 1581,-306 1506,-306"/>
<text text-anchor="start" x="1513" y="-330.8" font-family="Times,serif" font-size="14.00">filterwip</text>
<text text-anchor="start" x="1512" y="-315.8" font-family="Times,serif" font-size="14.00">(wiplink)</text>
</a>
</g>
</g>
<!-- listwip&#45;&gt;filterwip -->
<g id="edge3" class="edge">
<title>listwip&#45;&gt;filterwip</title>
<g id="a_edge3"><a xlink:href="docs/safe.goFilterWIP.html" xlink:title="goFilterWIP, filter&#45;wip (safe)" target="_parent">
<path fill="none" stroke="black" d="M1140.58,-412.65C1170.16,-406.29 1211.61,-395.77 1246,-381 1257,-376.28 1257.62,-370.7 1269,-367 1362.73,-336.56 1394.03,-371.4 1490,-349 1491.48,-348.66 1492.96,-348.28 1494.46,-347.87"/>
<polygon fill="black" stroke="black" points="1495.82,-351.11 1504.35,-344.82 1493.76,-344.42 1495.82,-351.11"/>
</a>
</g>
<g id="a_edge3&#45;label"><a xlink:href="docs/safe.goFilterWIP.html" xlink:title="goFilterWIP, filter&#45;wip (safe)" target="_parent">
<text text-anchor="middle" x="1363.5" y="-370.6" font-family="Times,serif" font-size="13.00">goFilterWIP, filter&#45;wip (safe)</text>
</a>
</g>
</g>
<!-- createwip&#45;&gt;home -->
<g id="edge9" class="edge">
<title>createwip&#45;&gt;home</title>
<g id="a_edge9"><a xlink:href="docs/safe.goHome.html" xlink:title="goHome, self (safe)" target="_parent">
<path fill="none" stroke="black" d="M660.27,-334.3C622.8,-341.61 577.28,-356.01 598,-381 768.88,-587.09 926.78,-446.66 1193,-475 1327.64,-489.33 1486.84,-503.26 1565.3,-509.92"/>
<polygon fill="black" stroke="black" points="1565.11,-513.42 1575.37,-510.78 1565.7,-506.45 1565.11,-513.42"/>
</a>
</g>
<g id="a_edge9&#45;label"><a xlink:href="docs/safe.goHome.html" xlink:title="goHome, self (safe)" target="_parent">
<text text-anchor="middle" x="725" y="-417.6" font-family="Times,serif" font-size="13.00">goHome, self (safe)</text>
</a>
</g>
</g>
<!-- createwip&#45;&gt;listwip -->
<g id="edge8" class="edge">
<title>createwip&#45;&gt;listwip</title>
<g id="a_edge8"><a xlink:href="docs/safe.goListWIP.html" xlink:title="goListWIP, list&#45;wip (safe)" target="_parent">
<path fill="none" stroke="black" d="M660.28,-336.2C626.13,-344.57 587.03,-359.4 607,-381 622.01,-397.24 931.2,-412.51 1053.15,-417.93"/>
<polygon fill="black" stroke="black" points="1053.18,-421.43 1063.33,-418.37 1053.49,-414.44 1053.18,-421.43"/>
</a>
</g>
<g id="a_edge8&#45;label"><a xlink:href="docs/safe.goListWIP.html" xlink:title="goListWIP, list&#45;wip (safe)" target="_parent">
<text text-anchor="middle" x="690" y="-370.6" font-family="Times,serif" font-size="13.00">goListWIP, list&#45;wip (safe)</text>
</a>
</g>
</g>
<!-- updatewip -->
<g id="node5" class="node">
<title>updatewip</title>
<g id="a_node5"><a xlink:href="docs/semantic.updatewip.html" xlink:title="&lt;TABLE&gt;" target="_parent">
<polygon fill="none" stroke="black" points="575,-161 485,-161 485,-117 575,-117 575,-161"/>
<polygon fill="#dddddd" stroke="transparent" points="486,-118 486,-160 574,-160 574,-118 486,-118"/>
<polygon fill="none" stroke="black" points="486,-118 486,-160 574,-160 574,-118 486,-118"/>
<text text-anchor="start" x="492" y="-142.8" font-family="Times,serif" font-size="14.00">updatewip</text>
<text text-anchor="start" x="498.5" y="-127.8" font-family="Times,serif" font-size="14.00">(wiplink)</text>
</a>
</g>
</g>
<!-- createwip&#45;&gt;updatewip -->
<g id="edge7" class="edge">
<title>createwip&#45;&gt;updatewip</title>
<g id="a_edge7"><a xlink:href="docs/idempotent.doUpdateWIP.html" xlink:title="doUpdateWIP, update&#45;wip (idempotent)" target="_parent">
<path fill="none" stroke="black" d="M734.26,-304.8C744.37,-295.28 751.3,-283.79 744,-273 690.33,-193.72 607.43,-264.7 544,-193 538.59,-186.89 535.23,-178.92 533.16,-171.03"/>
<polygon fill="black" stroke="black" points="536.59,-170.32 531.17,-161.21 529.73,-171.71 536.59,-170.32"/>
</a>
</g>
<g id="a_edge7&#45;label"><a xlink:href="docs/idempotent.doUpdateWIP.html" xlink:title="doUpdateWIP, update&#45;wip (idempotent)" target="_parent">
<text text-anchor="middle" x="858.5" y="-229.6" font-family="Times,serif" font-size="13.00">doUpdateWIP, update&#45;wip (idempotent)</text>
</a>
</g>
</g>
<!-- readwip&#45;&gt;home -->
<g id="edge16" class="edge">
<title>readwip&#45;&gt;home</title>
<g id="a_edge16"><a xlink:href="docs/safe.goHome.html" xlink:title="goHome, self (safe)" target="_parent">
<path fill="none" stroke="black" d="M1358.62,-233.46C1462.26,-232.93 1742.44,-237.86 1798,-305 1837.17,-352.33 1826.5,-393.58 1790,-443 1760.23,-483.31 1703.7,-500.79 1662.72,-508.33"/>
<polygon fill="black" stroke="black" points="1661.93,-504.91 1652.66,-510.04 1663.11,-511.81 1661.93,-504.91"/>
</a>
</g>
<g id="a_edge16&#45;label"><a xlink:href="docs/safe.goHome.html" xlink:title="goHome, self (safe)" target="_parent">
<text text-anchor="middle" x="1886" y="-370.6" font-family="Times,serif" font-size="13.00">goHome, self (safe)</text>
</a>
</g>
</g>
<!-- readwip&#45;&gt;listwip -->
<g id="edge15" class="edge">
<title>readwip&#45;&gt;listwip</title>
<g id="a_edge15"><a xlink:href="docs/safe.goListWIP.html" xlink:title="goListWIP, list&#45;wip (safe)" target="_parent">
<path fill="none" stroke="black" d="M1321.81,-255.31C1322.77,-280.62 1320.42,-322.71 1298,-349 1297.68,-349.37 1208.29,-381.66 1150.36,-402.56"/>
<polygon fill="black" stroke="black" points="1148.86,-399.38 1140.64,-406.07 1151.24,-405.97 1148.86,-399.38"/>
</a>
</g>
<g id="a_edge15&#45;label"><a xlink:href="docs/safe.goListWIP.html" xlink:title="goListWIP, list&#45;wip (safe)" target="_parent">
<text text-anchor="middle" x="1400" y="-323.6" font-family="Times,serif" font-size="13.00">goListWIP, list&#45;wip (safe)</text>
</a>
</g>
</g>
<!-- readwip&#45;&gt;updatewip -->
<g id="edge11" class="edge">
<title>readwip&#45;&gt;updatewip</title>
<g id="a_edge11"><a xlink:href="docs/idempotent.doUpdateWIP.html" xlink:title="doUpdateWIP, update&#45;wip (idempotent)" target="_parent">
<path fill="none" stroke="black" d="M1281.26,-231.23C1202.67,-229.11 1019.16,-221.28 868,-193 846.16,-188.91 841.74,-183.6 820,-179 739.13,-161.87 643.89,-150.76 585.23,-144.94"/>
<polygon fill="black" stroke="black" points="585.36,-141.43 575.07,-143.94 584.68,-148.4 585.36,-141.43"/>
</a>
</g>
<g id="a_edge11&#45;label"><a xlink:href="docs/idempotent.doUpdateWIP.html" xlink:title="doUpdateWIP, update&#45;wip (idempotent)" target="_parent">
<text text-anchor="middle" x="998.5" y="-182.6" font-family="Times,serif" font-size="13.00">doUpdateWIP, update&#45;wip (idempotent)</text>
</a>
</g>
</g>
<!-- submitwip -->
<g id="node6" class="node">
<title>submitwip</title>
<g id="a_node6"><a xlink:href="docs/semantic.submitwip.html" xlink:title="&lt;TABLE&gt;" target="_parent">
<polygon fill="none" stroke="black" points="1034,-67 944,-67 944,-23 1034,-23 1034,-67"/>
<polygon fill="#dddddd" stroke="transparent" points="945,-24 945,-66 1033,-66 1033,-24 945,-24"/>
<polygon fill="none" stroke="black" points="945,-24 945,-66 1033,-66 1033,-24 945,-24"/>
<text text-anchor="start" x="951" y="-48.8" font-family="Times,serif" font-size="14.00">submitwip</text>
<text text-anchor="start" x="957.5" y="-33.8" font-family="Times,serif" font-size="14.00">(wiplink)</text>
</a>
</g>
</g>
<!-- readwip&#45;&gt;submitwip -->
<g id="edge12" class="edge">
<title>readwip&#45;&gt;submitwip</title>
<g id="a_edge12"><a xlink:href="docs/idempotent.doSubmitWIP.html" xlink:title="doSubmitWIP, submit&#45;wip (idempotent)" target="_parent">
<path fill="none" stroke="black" d="M1281.37,-227.84C1248.74,-223.05 1201.6,-213.11 1165,-193 1103.83,-159.39 1106.14,-127.79 1051,-85 1045.6,-80.81 1039.73,-76.66 1033.84,-72.72"/>
<polygon fill="black" stroke="black" points="1035.51,-69.63 1025.22,-67.11 1031.7,-75.5 1035.51,-69.63"/>
</a>
</g>
<g id="a_edge12&#45;label"><a xlink:href="docs/idempotent.doSubmitWIP.html" xlink:title="doSubmitWIP, submit&#45;wip (idempotent)" target="_parent">
<text text-anchor="middle" x="1251" y="-135.6" font-family="Times,serif" font-size="13.00">doSubmitWIP, submit&#45;wip (idempotent)</text>
</a>
</g>
</g>
<!-- cancelwip -->
<g id="node7" class="node">
<title>cancelwip</title>
<g id="a_node7"><a xlink:href="docs/semantic.cancelwip.html" xlink:title="&lt;TABLE&gt;" target="_parent">
<polygon fill="none" stroke="black" points="430.5,-161 345.5,-161 345.5,-117 430.5,-117 430.5,-161"/>
<polygon fill="#dddddd" stroke="transparent" points="347,-118 347,-160 430,-160 430,-118 347,-118"/>
<polygon fill="none" stroke="black" points="347,-118 347,-160 430,-160 430,-118 347,-118"/>
<text text-anchor="start" x="353" y="-142.8" font-family="Times,serif" font-size="14.00">cancelwip</text>
<text text-anchor="start" x="357" y="-127.8" font-family="Times,serif" font-size="14.00">(wiplink)</text>
</a>
</g>
</g>
<!-- readwip&#45;&gt;cancelwip -->
<g id="edge13" class="edge">
<title>readwip&#45;&gt;cancelwip</title>
<g id="a_edge13"><a xlink:href="docs/idempotent.doCancelWIP.html" xlink:title="doCancelWIP, cancel&#45;wip (idempotent)" target="_parent">
<path fill="none" stroke="black" d="M1281.44,-229.77C1212.79,-225.82 1064.88,-217.41 940,-211 771.14,-202.34 726.55,-222.12 560,-193 518.96,-185.82 474.01,-171.74 440.36,-159.9"/>
<polygon fill="black" stroke="black" points="441.33,-156.53 430.74,-156.47 438.98,-163.12 441.33,-156.53"/>
</a>
</g>
<g id="a_edge13&#45;label"><a xlink:href="docs/idempotent.doCancelWIP.html" xlink:title="doCancelWIP, cancel&#45;wip (idempotent)" target="_parent">
<text text-anchor="middle" x="688" y="-182.6" font-family="Times,serif" font-size="13.00">doCancelWIP, cancel&#45;wip (idempotent)</text>
</a>
</g>
</g>
<!-- sharewip -->
<g id="node9" class="node">
<title>sharewip</title>
<g id="a_node9"><a xlink:href="docs/semantic.sharewip.html" xlink:title="&lt;TABLE&gt;" target="_parent">
<polygon fill="none" stroke="black" points="1501,-161 1421,-161 1421,-117 1501,-117 1501,-161"/>
<polygon fill="#dddddd" stroke="transparent" points="1422,-118 1422,-160 1500,-160 1500,-118 1422,-118"/>
<polygon fill="none" stroke="black" points="1422,-118 1422,-160 1500,-160 1500,-118 1422,-118"/>
<text text-anchor="start" x="1428" y="-142.8" font-family="Times,serif" font-size="14.00">sharewip</text>
<text text-anchor="start" x="1429.5" y="-127.8" font-family="Times,serif" font-size="14.00">(wiplink)</text>
</a>
</g>
</g>
<!-- readwip&#45;&gt;sharewip -->
<g id="edge10" class="edge">
<title>readwip&#45;&gt;sharewip</title>
<g id="a_edge10"><a xlink:href="docs/idempotent.doShareWIP.html" xlink:title="doShareWIP, share&#45;wip (idempotent)" target="_parent">
<path fill="none" stroke="black" d="M1281.12,-230.01C1228.48,-225.98 1144.64,-213.99 1177,-179 1194.4,-160.18 1382.01,-166.71 1407,-161 1408.27,-160.71 1409.55,-160.4 1410.83,-160.06"/>
<polygon fill="black" stroke="black" points="1412.12,-163.33 1420.71,-157.13 1410.13,-156.62 1412.12,-163.33"/>
</a>
</g>
<g id="a_edge10&#45;label"><a xlink:href="docs/idempotent.doShareWIP.html" xlink:title="doShareWIP, share&#45;wip (idempotent)" target="_parent">
<text text-anchor="middle" x="1298" y="-182.6" font-family="Times,serif" font-size="13.00">doShareWIP, share&#45;wip (idempotent)</text>
</a>
</g>
</g>
<!-- statuswip -->
<g id="node10" class="node">
<title>statuswip</title>
<g id="a_node10"><a xlink:href="docs/semantic.statuswip.html" xlink:title="&lt;TABLE&gt;" target="_parent">
<polygon fill="none" stroke="black" points="2060,-161 1976,-161 1976,-117 2060,-117 2060,-161"/>
<polygon fill="#dddddd" stroke="transparent" points="1977,-118 1977,-160 2059,-160 2059,-118 1977,-118"/>
<polygon fill="none" stroke="black" points="1977,-118 1977,-160 2059,-160 2059,-118 1977,-118"/>
<text text-anchor="start" x="1983" y="-142.8" font-family="Times,serif" font-size="14.00">statuswip</text>
<text text-anchor="start" x="1986.5" y="-127.8" font-family="Times,serif" font-size="14.00">(wiplink)</text>
</a>
</g>
</g>
<!-- readwip&#45;&gt;statuswip -->
<g id="edge14" class="edge">
<title>readwip&#45;&gt;statuswip</title>
<g id="a_edge14"><a xlink:href="docs/idempotent.doStatusWIP.html" xlink:title="doStatusWIP, status&#45;wip (idempotent)" target="_parent">
<path fill="none" stroke="black" d="M1358.62,-231.05C1416.44,-228.73 1528.39,-220.7 1619,-193 1632.31,-188.93 1633.64,-182.9 1647,-179 1757.21,-146.81 1892.7,-140.5 1965.6,-139.66"/>
<polygon fill="black" stroke="black" points="1965.92,-143.16 1975.89,-139.58 1965.86,-136.16 1965.92,-143.16"/>
</a>
</g>
<g id="a_edge14&#45;label"><a xlink:href="docs/idempotent.doStatusWIP.html" xlink:title="doStatusWIP, status&#45;wip (idempotent)" target="_parent">
<text text-anchor="middle" x="1772" y="-182.6" font-family="Times,serif" font-size="13.00">doStatusWIP, status&#45;wip (idempotent)</text>
</a>
</g>
</g>
<!-- updatewip&#45;&gt;home -->
<g id="edge19" class="edge">
<title>updatewip&#45;&gt;home</title>
<g id="a_edge19"><a xlink:href="docs/safe.goHome.html" xlink:title="goHome, self (safe)" target="_parent">
<path fill="none" stroke="black" d="M484.58,-153.14C431.25,-171.69 350,-211.09 350,-279 350,-422 350,-422 350,-422 350,-484.1 1333.19,-508.22 1565.32,-513.05"/>
<polygon fill="black" stroke="black" points="1565.41,-516.56 1575.48,-513.26 1565.55,-509.56 1565.41,-516.56"/>
</a>
</g>
<g id="a_edge19&#45;label"><a xlink:href="docs/safe.goHome.html" xlink:title="goHome, self (safe)" target="_parent">
<text text-anchor="middle" x="414" y="-323.6" font-family="Times,serif" font-size="13.00">goHome, self (safe)</text>
</a>
</g>
</g>
<!-- updatewip&#45;&gt;listwip -->
<g id="edge18" class="edge">
<title>updatewip&#45;&gt;listwip</title>
<g id="a_edge18"><a xlink:href="docs/safe.goListWIP.html" xlink:title="goListWIP, list&#45;wip (safe)" target="_parent">
<path fill="none" stroke="black" d="M529.86,-161.06C530.14,-170.85 530.95,-182.6 533,-193 537.28,-214.68 580.51,-367.49 598,-381 602.48,-384.46 927.5,-407.7 1053.16,-416.57"/>
<polygon fill="black" stroke="black" points="1053.05,-420.07 1063.28,-417.28 1053.55,-413.09 1053.05,-420.07"/>
</a>
</g>
<g id="a_edge18&#45;label"><a xlink:href="docs/safe.goListWIP.html" xlink:title="goListWIP, list&#45;wip (safe)" target="_parent">
<text text-anchor="middle" x="643" y="-276.6" font-family="Times,serif" font-size="13.00">goListWIP, list&#45;wip (safe)</text>
</a>
</g>
</g>
<!-- updatewip&#45;&gt;submitwip -->
<g id="edge17" class="edge">
<title>updatewip&#45;&gt;submitwip</title>
<g id="a_edge17"><a xlink:href="docs/idempotent.doSubmitWIP.html" xlink:title="doSubmitWIP, submit&#45;wip (idempotent)" target="_parent">
<path fill="none" stroke="black" d="M575.27,-128.93C659.96,-111.95 842.08,-75.45 933.81,-57.06"/>
<polygon fill="black" stroke="black" points="934.62,-60.47 943.73,-55.07 933.24,-53.61 934.62,-60.47"/>
</a>
</g>
<g id="a_edge17&#45;label"><a xlink:href="docs/idempotent.doSubmitWIP.html" xlink:title="doSubmitWIP, submit&#45;wip (idempotent)" target="_parent">
<text text-anchor="middle" x="917" y="-88.6" font-family="Times,serif" font-size="13.00">doSubmitWIP, submit&#45;wip (idempotent)</text>
</a>
</g>
</g>
<!-- submitwip&#45;&gt;home -->
<g id="edge21" class="edge">
<title>submitwip&#45;&gt;home</title>
<g id="a_edge21"><a xlink:href="docs/safe.goHome.html" xlink:title="goHome, self (safe)" target="_parent">
<path fill="none" stroke="black" d="M1034.17,-46.67C1268.51,-50.44 2335,-71.28 2335,-138 2335,-422 2335,-422 2335,-422 2335,-489.95 1824.58,-508.69 1662.66,-512.92"/>
<polygon fill="black" stroke="black" points="1662.42,-509.42 1652.51,-513.18 1662.59,-516.42 1662.42,-509.42"/>
</a>
</g>
<g id="a_edge21&#45;label"><a xlink:href="docs/safe.goHome.html" xlink:title="goHome, self (safe)" target="_parent">
<text text-anchor="middle" x="2399" y="-276.6" font-family="Times,serif" font-size="13.00">goHome, self (safe)</text>
</a>
</g>
</g>
<!-- submitwip&#45;&gt;listwip -->
<g id="edge20" class="edge">
<title>submitwip&#45;&gt;listwip</title>
<g id="a_edge20"><a xlink:href="docs/safe.goListWIP.html" xlink:title="goListWIP, list&#45;wip (safe)" target="_parent">
<path fill="none" stroke="black" d="M943.92,-46.2C770.49,-47.56 156,-58.02 156,-138 156,-328 156,-328 156,-328 156,-417.45 466.02,-371.93 555,-381 603.77,-385.97 928.12,-408.19 1053.06,-416.68"/>
<polygon fill="black" stroke="black" points="1052.9,-420.18 1063.11,-417.37 1053.38,-413.2 1052.9,-420.18"/>
</a>
</g>
<g id="a_edge20&#45;label"><a xlink:href="docs/safe.goListWIP.html" xlink:title="goListWIP, list&#45;wip (safe)" target="_parent">
<text text-anchor="middle" x="239" y="-229.6" font-family="Times,serif" font-size="13.00">goListWIP, list&#45;wip (safe)</text>
</a>
</g>
</g>
<!-- cancelwip&#45;&gt;home -->
<g id="edge23" class="edge">
<title>cancelwip&#45;&gt;home</title>
<g id="a_edge23"><a xlink:href="docs/safe.goHome.html" xlink:title="goHome, self (safe)" target="_parent">
<path fill="none" stroke="black" d="M345.37,-141.15C244.58,-145.01 0,-161.65 0,-232 0,-422 0,-422 0,-422 0,-502.45 1295.02,-512.59 1565.03,-513.83"/>
<polygon fill="black" stroke="black" points="1565.28,-517.33 1575.3,-513.88 1565.32,-510.33 1565.28,-517.33"/>
</a>
</g>
<g id="a_edge23&#45;label"><a xlink:href="docs/safe.goHome.html" xlink:title="goHome, self (safe)" target="_parent">
<text text-anchor="middle" x="64" y="-323.6" font-family="Times,serif" font-size="13.00">goHome, self (safe)</text>
</a>
</g>
</g>
<!-- cancelwip&#45;&gt;listwip -->
<g id="edge22" class="edge">
<title>cancelwip&#45;&gt;listwip</title>
<g id="a_edge22"><a xlink:href="docs/safe.goListWIP.html" xlink:title="goListWIP, list&#45;wip (safe)" target="_parent">
<path fill="none" stroke="black" d="M380.07,-161.05C369.79,-192.36 356.42,-251.35 386,-287 413.72,-320.4 442.16,-287.77 482,-305 534.54,-327.73 532.29,-361.19 586,-381 596.89,-385.01 926.56,-407.97 1053.15,-416.66"/>
<polygon fill="black" stroke="black" points="1053.12,-420.17 1063.34,-417.36 1053.6,-413.19 1053.12,-420.17"/>
</a>
</g>
<g id="a_edge22&#45;label"><a xlink:href="docs/safe.goListWIP.html" xlink:title="goListWIP, list&#45;wip (safe)" target="_parent">
<text text-anchor="middle" x="469" y="-276.6" font-family="Times,serif" font-size="13.00">goListWIP, list&#45;wip (safe)</text>
</a>
</g>
</g>
<!-- filterwip&#45;&gt;home -->
<g id="edge24" class="edge">
<title>filterwip&#45;&gt;home</title>
<g id="a_edge24"><a xlink:href="docs/safe.goHome.html" xlink:title="goHome, self (safe)" target="_parent">
<path fill="none" stroke="black" d="M1581.58,-331.71C1604.68,-336.14 1632.34,-345.84 1647,-367 1671.34,-402.12 1651.17,-452.28 1633.39,-483.99"/>
<polygon fill="black" stroke="black" points="1630.27,-482.4 1628.24,-492.8 1636.31,-485.93 1630.27,-482.4"/>
</a>
</g>
<g id="a_edge24&#45;label"><a xlink:href="docs/safe.goHome.html" xlink:title="goHome, self (safe)" target="_parent">
<text text-anchor="middle" x="1722" y="-417.6" font-family="Times,serif" font-size="13.00">goHome, self (safe)</text>
</a>
</g>
</g>
<!-- filterwip&#45;&gt;listwip -->
<g id="edge25" class="edge">
<title>filterwip&#45;&gt;listwip</title>
<g id="a_edge25"><a xlink:href="docs/safe.goListWIP.html" xlink:title="goListWIP, list&#45;wip (safe)" target="_parent">
<path fill="none" stroke="black" d="M1509.28,-349.26C1486.19,-363.78 1459.48,-380.49 1458,-381 1402.45,-400.24 1234.7,-412.33 1150.83,-417.34"/>
<polygon fill="black" stroke="black" points="1150.57,-413.85 1140.79,-417.93 1150.98,-420.84 1150.57,-413.85"/>
</a>
</g>
<g id="a_edge25&#45;label"><a xlink:href="docs/safe.goListWIP.html" xlink:title="goListWIP, list&#45;wip (safe)" target="_parent">
<text text-anchor="middle" x="1562" y="-370.6" font-family="Times,serif" font-size="13.00">goListWIP, list&#45;wip (safe)</text>
</a>
</g>
</g>
<!-- filterwip&#45;&gt;readwip -->
<g id="edge27" class="edge">
<title>filterwip&#45;&gt;readwip</title>
<g id="a_edge27"><a xlink:href="docs/safe.goReadWIP.html" xlink:title="goReadWIP, read&#45;wip (safe)" target="_parent">
<path fill="none" stroke="black" d="M1504.41,-310.08C1466.67,-294.51 1409.09,-270.76 1368.33,-253.94"/>
<polygon fill="black" stroke="black" points="1369.44,-250.61 1358.86,-250.03 1366.77,-257.08 1369.44,-250.61"/>
</a>
</g>
<g id="a_edge27&#45;label"><a xlink:href="docs/safe.goReadWIP.html" xlink:title="goReadWIP, read&#45;wip (safe)" target="_parent">
<text text-anchor="middle" x="1535" y="-276.6" font-family="Times,serif" font-size="13.00">goReadWIP, read&#45;wip (safe)</text>
</a>
</g>
</g>
<!-- filterwip&#45;&gt;filterwip -->
<g id="edge26" class="edge">
<title>filterwip&#45;&gt;filterwip</title>
<g id="a_edge26"><a xlink:href="docs/safe.goFilterWIP.html" xlink:title="goFilterWIP, filter&#45;wip (safe)" target="_parent">
<path fill="none" stroke="black" d="M1581.56,-335.55C1591.77,-335.06 1599.5,-332.21 1599.5,-327 1599.5,-323.74 1596.48,-321.41 1591.72,-320"/>
<polygon fill="black" stroke="black" points="1591.97,-316.49 1581.56,-318.45 1590.92,-323.41 1591.97,-316.49"/>
</a>
</g>
<g id="a_edge26&#45;label"><a xlink:href="docs/safe.goFilterWIP.html" xlink:title="goFilterWIP, filter&#45;wip (safe)" target="_parent">
<text text-anchor="middle" x="1694" y="-323.6" font-family="Times,serif" font-size="13.00">goFilterWIP, filter&#45;wip (safe)</text>
</a>
</g>
</g>
<!-- sharewip&#45;&gt;home -->
<g id="edge30" class="edge">
<title>sharewip&#45;&gt;home</title>
<g id="a_edge30"><a xlink:href="docs/safe.goHome.html" xlink:title="goHome, self (safe)" target="_parent">
<path fill="none" stroke="black" d="M1501.15,-141.11C1638.58,-145.06 2082.92,-159.33 2106,-179 2168.43,-232.2 2138.21,-273.55 2127,-287 2098.66,-321.02 2067.29,-282.76 2029,-305 1990.82,-327.18 1999.66,-353.64 1965,-381 1891.99,-438.64 1865.39,-443.14 1778,-475 1740.12,-488.81 1695.53,-499.05 1662.41,-505.56"/>
<polygon fill="black" stroke="black" points="1661.67,-502.14 1652.52,-507.46 1663,-509.01 1661.67,-502.14"/>
</a>
</g>
<g id="a_edge30&#45;label"><a xlink:href="docs/safe.goHome.html" xlink:title="goHome, self (safe)" target="_parent">
<text text-anchor="middle" x="2093" y="-323.6" font-family="Times,serif" font-size="13.00">goHome, self (safe)</text>
</a>
</g>
</g>
<!-- sharewip&#45;&gt;listwip -->
<g id="edge29" class="edge">
<title>sharewip&#45;&gt;listwip</title>
<g id="a_edge29"><a xlink:href="docs/safe.goListWIP.html" xlink:title="goListWIP, list&#45;wip (safe)" target="_parent">
<path fill="none" stroke="black" d="M1420.7,-152.65C1409.26,-155.83 1396.73,-158.92 1385,-161 1288.4,-178.14 1255.74,-141.71 1165,-179 1104.89,-203.7 1080.46,-214.1 1053,-273 1034.69,-312.28 1058.83,-360.33 1079.24,-390.57"/>
<polygon fill="black" stroke="black" points="1076.53,-392.79 1085.13,-398.97 1082.26,-388.77 1076.53,-392.79"/>
</a>
</g>
<g id="a_edge29&#45;label"><a xlink:href="docs/safe.goListWIP.html" xlink:title="goListWIP, list&#45;wip (safe)" target="_parent">
<text text-anchor="middle" x="1136" y="-276.6" font-family="Times,serif" font-size="13.00">goListWIP, list&#45;wip (safe)</text>
</a>
</g>
</g>
<!-- sharewip&#45;&gt;readwip -->
<g id="edge28" class="edge">
<title>sharewip&#45;&gt;readwip</title>
<g id="a_edge28"><a xlink:href="docs/safe.goReadWIP.html" xlink:title="goReadWIP, read&#45;wip (safe)" target="_parent">
<path fill="none" stroke="black" d="M1448.16,-161.09C1440.75,-171.83 1430.6,-184.4 1419,-193 1403.99,-204.13 1385.39,-212.55 1368.37,-218.67"/>
<polygon fill="black" stroke="black" points="1366.91,-215.47 1358.58,-222.01 1369.17,-222.09 1366.91,-215.47"/>
</a>
</g>
<g id="a_edge28&#45;label"><a xlink:href="docs/safe.goReadWIP.html" xlink:title="goReadWIP, read&#45;wip (safe)" target="_parent">
<text text-anchor="middle" x="1524" y="-182.6" font-family="Times,serif" font-size="13.00">goReadWIP, read&#45;wip (safe)</text>
</a>
</g>
</g>
<!-- statuswip&#45;&gt;home -->
<g id="edge33" class="edge">
<title>statuswip&#45;&gt;home</title>
<g id="a_edge33"><a xlink:href="docs/safe.goHome.html" xlink:title="goHome, self (safe)" target="_parent">
<path fill="none" stroke="black" d="M2060.3,-145.64C2108,-154.66 2179,-177.27 2179,-232 2179,-422 2179,-422 2179,-422 2179,-474.06 1800.46,-502.53 1663.07,-511.15"/>
<polygon fill="black" stroke="black" points="1662.6,-507.68 1652.83,-511.79 1663.03,-514.66 1662.6,-507.68"/>
</a>
</g>
<g id="a_edge33&#45;label"><a xlink:href="docs/safe.goHome.html" xlink:title="goHome, self (safe)" target="_parent">
<text text-anchor="middle" x="2243" y="-323.6" font-family="Times,serif" font-size="13.00">goHome, self (safe)</text>
</a>
</g>
</g>
<!-- statuswip&#45;&gt;listwip -->
<g id="edge32" class="edge">
<title>statuswip&#45;&gt;listwip</title>
<g id="a_edge32"><a xlink:href="docs/safe.goListWIP.html" xlink:title="goListWIP, list&#45;wip (safe)" target="_parent">
<path fill="none" stroke="black" d="M2060.19,-149.49C2086.94,-157.75 2114.37,-171.77 2102,-193 2065.74,-255.26 2001.47,-213.39 1961,-273 1933.78,-313.1 1981.8,-348.34 1946,-381 1938.6,-387.75 1329.55,-411.37 1150.8,-418.16"/>
<polygon fill="black" stroke="black" points="1150.49,-414.67 1140.63,-418.55 1150.76,-421.66 1150.49,-414.67"/>
</a>
</g>
<g id="a_edge32&#45;label"><a xlink:href="docs/safe.goListWIP.html" xlink:title="goListWIP, list&#45;wip (safe)" target="_parent">
<text text-anchor="middle" x="2044" y="-276.6" font-family="Times,serif" font-size="13.00">goListWIP, list&#45;wip (safe)</text>
</a>
</g>
</g>
<!-- statuswip&#45;&gt;readwip -->
<g id="edge31" class="edge">
<title>statuswip&#45;&gt;readwip</title>
<g id="a_edge31"><a xlink:href="docs/safe.goReadWIP.html" xlink:title="goReadWIP, read&#45;wip (safe)" target="_parent">
<path fill="none" stroke="black" d="M1975.84,-155C1958.28,-161.7 1937.86,-170.09 1920,-179 1909.29,-184.34 1908.41,-189.38 1897,-193 1799.12,-224.04 1489.31,-230.38 1368.71,-231.67"/>
<polygon fill="black" stroke="black" points="1368.62,-228.17 1358.66,-231.77 1368.69,-235.17 1368.62,-228.17"/>
</a>
</g>
<g id="a_edge31&#45;label"><a xlink:href="docs/safe.goReadWIP.html" xlink:title="goReadWIP, read&#45;wip (safe)" target="_parent">
<text text-anchor="middle" x="2011" y="-182.6" font-family="Times,serif" font-size="13.00">goReadWIP, read&#45;wip (safe)</text>
</a>
</g>
</g>
</g>
</svg>
