<?xml version="1.0" encoding="UTF-8" standalone="no"?>
<!DOCTYPE svg PUBLIC "-//W3C//DTD SVG 1.1//EN"
 "http://www.w3.org/Graphics/SVG/1.1/DTD/svg11.dtd">
<!-- Generated by graphviz version 2.43.0 (0)
 -->
<!-- Title: application_state_diagram Pages: 1 -->
<svg width="2432pt" height="625pt"
 viewBox="0.00 0.00 2432.00 625.00" xmlns="http://www.w3.org/2000/svg" xmlns:xlink="http://www.w3.org/1999/xlink">
<g id="graph0" class="graph" transform="scale(1 1) rotate(0) translate(4 621)">
<title>application_state_diagram</title>
<g id="a_graph0"><a xlink:href="index.html" xlink:title="Work&#45;In&#45;Progress (WIP) Profile" target="_parent">
<polygon fill="white" stroke="transparent" points="-4,4 -4,-621 2428,-621 2428,4 -4,4"/>
<text text-anchor="middle" x="1212" y="-601.8" font-family="Helvetica,sans-Serif" font-size="14.00">Work&#45;In&#45;Progress (WIP) Profile</text>
</a>
</g>
<!-- cancelwip -->
<g id="node1" class="node">
<title>cancelwip</title>
<g id="a_node1"><a xlink:href="docs/semantic.cancelwip.html" xlink:title="&lt;TABLE&gt;" target="_parent">
<polygon fill="lightgray" stroke="black" stroke-width="2" points="1074.5,-594 991.5,-594 991.5,-552 1074.5,-552 1074.5,-594"/>
<text text-anchor="start" x="998" y="-576.8" font-family="Times,serif" font-size="14.00">cancelwip</text>
<text text-anchor="start" x="1002" y="-561.8" font-family="Times,serif" font-size="14.00">(wiplink)</text>
</a>
</g>
</g>
<!-- home -->
<g id="node4" class="node">
<title>home</title>
<g id="a_node4"><a xlink:href="docs/semantic.home.html" xlink:title="&lt;TABLE&gt;" target="_parent">
<polygon fill="lightgray" stroke="black" stroke-width="2" points="1070.5,-502 995.5,-502 995.5,-460 1070.5,-460 1070.5,-502"/>
<text text-anchor="start" x="1013.5" y="-484.8" font-family="Times,serif" font-size="14.00">home</text>
<text text-anchor="start" x="1002" y="-469.8" font-family="Times,serif" font-size="14.00">(wiplink)</text>
</a>
</g>
</g>
<!-- cancelwip&#45;&gt;home -->
<g id="edge1" class="edge">
<title>cancelwip&#45;&gt;home</title>
<g id="a_edge1"><a xlink:href="docs/safe.goHome.html" xlink:title="goHome, self (safe)" target="_parent">
<path fill="none" stroke="black" d="M1033,-551.58C1033,-539.99 1033,-525.26 1033,-512.35"/>
<polygon fill="black" stroke="black" points="1036.5,-512.03 1033,-502.03 1029.5,-512.03 1036.5,-512.03"/>
</a>
</g>
<g id="a_edge1&#45;label"><a xlink:href="docs/safe.goHome.html" xlink:title="goHome, self (safe)" target="_parent">
<text text-anchor="middle" x="1097" y="-523.6" font-family="Times,serif" font-size="13.00">goHome, self (safe)</text>
</a>
</g>
</g>
<!-- listwip -->
<g id="node5" class="node">
<title>listwip</title>
<g id="a_node5"><a xlink:href="docs/semantic.listwip.html" xlink:title="&lt;TABLE&gt;" target="_parent">
<polygon fill="lightgray" stroke="black" stroke-width="2" points="881.5,-410 806.5,-410 806.5,-368 881.5,-368 881.5,-410"/>
<text text-anchor="start" x="820" y="-392.8" font-family="Times,serif" font-size="14.00">listwip</text>
<text text-anchor="start" x="813" y="-377.8" font-family="Times,serif" font-size="14.00">(wiplink)</text>
</a>
</g>
</g>
<!-- cancelwip&#45;&gt;listwip -->
<g id="edge2" class="edge">
<title>cancelwip&#45;&gt;listwip</title>
<g id="a_edge2"><a xlink:href="docs/safe.goListWIP.html" xlink:title="goListWIP, list&#45;wip (safe)" target="_parent">
<path fill="none" stroke="black" d="M991.25,-571.74C941.38,-568.9 859.83,-555.71 821,-502 803.55,-477.86 814.46,-443.53 826.48,-419.26"/>
<polygon fill="black" stroke="black" points="829.7,-420.65 831.26,-410.17 823.51,-417.39 829.7,-420.65"/>
</a>
</g>
<g id="a_edge2&#45;label"><a xlink:href="docs/safe.goListWIP.html" xlink:title="goListWIP, list&#45;wip (safe)" target="_parent">
<text text-anchor="middle" x="904" y="-477.6" font-family="Times,serif" font-size="13.00">goListWIP, list&#45;wip (safe)</text>
</a>
</g>
</g>
<!-- createwip -->
<g id="node2" class="node">
<title>createwip</title>
<g id="a_node2"><a xlink:href="docs/semantic.createwip.html" xlink:title="&lt;TABLE&gt;" target="_parent">
<polygon fill="lightgray" stroke="black" stroke-width="2" points="278.5,-318 195.5,-318 195.5,-276 278.5,-276 278.5,-318"/>
<text text-anchor="start" x="202" y="-300.8" font-family="Times,serif" font-size="14.00">createwip</text>
<text text-anchor="start" x="206" y="-285.8" font-family="Times,serif" font-size="14.00">(wiplink)</text>
</a>
</g>
</g>
<!-- createwip&#45;&gt;home -->
<g id="edge3" class="edge">
<title>createwip&#45;&gt;home</title>
<g id="a_edge3"><a xlink:href="docs/safe.goHome.html" xlink:title="goHome, self (safe)" target="_parent">
<path fill="none" stroke="black" d="M212.09,-318.02C202.63,-328.01 195.89,-340.06 204,-350 333.08,-508.14 451.52,-416.04 654,-442 799.43,-460.65 843.65,-424.73 985.32,-458.75"/>
<polygon fill="black" stroke="black" points="984.7,-462.2 995.25,-461.21 986.38,-455.41 984.7,-462.2"/>
</a>
</g>
<g id="a_edge3&#45;label"><a xlink:href="docs/safe.goHome.html" xlink:title="goHome, self (safe)" target="_parent">
<text text-anchor="middle" x="333" y="-385.6" font-family="Times,serif" font-size="13.00">goHome, self (safe)</text>
</a>
</g>
</g>
<!-- createwip&#45;&gt;listwip -->
<g id="edge4" class="edge">
<title>createwip&#45;&gt;listwip</title>
<g id="a_edge4"><a xlink:href="docs/safe.goListWIP.html" xlink:title="goListWIP, list&#45;wip (safe)" target="_parent">
<path fill="none" stroke="black" d="M217.12,-318.01C209.08,-328.47 203.48,-340.96 212,-350 231.96,-371.2 652.07,-383.34 796.07,-386.89"/>
<polygon fill="black" stroke="black" points="796.27,-390.4 806.35,-387.15 796.44,-383.4 796.27,-390.4"/>
</a>
</g>
<g id="a_edge4&#45;label"><a xlink:href="docs/safe.goListWIP.html" xlink:title="goListWIP, list&#45;wip (safe)" target="_parent">
<text text-anchor="middle" x="295" y="-339.6" font-family="Times,serif" font-size="13.00">goListWIP, list&#45;wip (safe)</text>
</a>
</g>
</g>
<!-- updatewip -->
<g id="node10" class="node">
<title>updatewip</title>
<g id="a_node10"><a xlink:href="docs/semantic.updatewip.html" xlink:title="&lt;TABLE&gt;" target="_parent">
<polygon fill="lightgray" stroke="black" stroke-width="2" points="556,-134 468,-134 468,-92 556,-92 556,-134"/>
<text text-anchor="start" x="474" y="-116.8" font-family="Times,serif" font-size="14.00">updatewip</text>
<text text-anchor="start" x="480.5" y="-101.8" font-family="Times,serif" font-size="14.00">(wiplink)</text>
</a>
</g>
</g>
<!-- createwip&#45;&gt;updatewip -->
<g id="edge5" class="edge">
<title>createwip&#45;&gt;updatewip</title>
<g id="a_edge5"><a xlink:href="docs/idempotent.doUpdateWIP.html" xlink:title="doUpdateWIP, update&#45;wip (idempotent)" target="_parent">
<path fill="none" stroke="black" d="M235.69,-275.77C235.24,-250.88 238.42,-208.87 262,-184 312.65,-130.57 400.43,-116.83 457.35,-113.87"/>
<polygon fill="black" stroke="black" points="457.76,-117.36 467.61,-113.44 457.47,-110.37 457.76,-117.36"/>
</a>
</g>
<g id="a_edge5&#45;label"><a xlink:href="docs/idempotent.doUpdateWIP.html" xlink:title="doUpdateWIP, update&#45;wip (idempotent)" target="_parent">
<text text-anchor="middle" x="392.5" y="-201.6" font-family="Times,serif" font-size="13.00">doUpdateWIP, update&#45;wip (idempotent)</text>
</a>
</g>
</g>
<!-- filterwip -->
<g id="node3" class="node">
<title>filterwip</title>
<g id="a_node3"><a xlink:href="docs/semantic.filterwip.html" xlink:title="&lt;TABLE&gt;" target="_parent">
<polygon fill="lightgray" stroke="black" stroke-width="2" points="1461.5,-318 1386.5,-318 1386.5,-276 1461.5,-276 1461.5,-318"/>
<text text-anchor="start" x="1394" y="-300.8" font-family="Times,serif" font-size="14.00">filterwip</text>
<text text-anchor="start" x="1393" y="-285.8" font-family="Times,serif" font-size="14.00">(wiplink)</text>
</a>
</g>
</g>
<!-- filterwip&#45;&gt;filterwip -->
<g id="edge6" class="edge">
<title>filterwip&#45;&gt;filterwip</title>
<g id="a_edge6"><a xlink:href="docs/safe.goFilterWIP.html" xlink:title="goFilterWIP, filter&#45;wip (safe)" target="_parent">
<path fill="none" stroke="black" d="M1461.61,-305.56C1471.77,-305.11 1479.5,-302.26 1479.5,-297 1479.5,-293.72 1476.48,-291.37 1471.74,-289.96"/>
<polygon fill="black" stroke="black" points="1472.02,-286.46 1461.61,-288.44 1470.98,-293.39 1472.02,-286.46"/>
</a>
</g>
<g id="a_edge6&#45;label"><a xlink:href="docs/safe.goFilterWIP.html" xlink:title="goFilterWIP, filter&#45;wip (safe)" target="_parent">
<text text-anchor="middle" x="1574" y="-293.6" font-family="Times,serif" font-size="13.00">goFilterWIP, filter&#45;wip (safe)</text>
</a>
</g>
</g>
<!-- filterwip&#45;&gt;home -->
<g id="edge7" class="edge">
<title>filterwip&#45;&gt;home</title>
<g id="a_edge7"><a xlink:href="docs/safe.goHome.html" xlink:title="goHome, self (safe)" target="_parent">
<path fill="none" stroke="black" d="M1461.78,-303.18C1498.85,-309.87 1547.12,-323.9 1527,-350 1472.07,-421.26 1193.85,-461.23 1080.83,-474.74"/>
<polygon fill="black" stroke="black" points="1080.26,-471.28 1070.74,-475.93 1081.08,-478.24 1080.26,-471.28"/>
</a>
</g>
<g id="a_edge7&#45;label"><a xlink:href="docs/safe.goHome.html" xlink:title="goHome, self (safe)" target="_parent">
<text text-anchor="middle" x="1568" y="-385.6" font-family="Times,serif" font-size="13.00">goHome, self (safe)</text>
</a>
</g>
</g>
<!-- filterwip&#45;&gt;listwip -->
<g id="edge8" class="edge">
<title>filterwip&#45;&gt;listwip</title>
<g id="a_edge8"><a xlink:href="docs/safe.goListWIP.html" xlink:title="goListWIP, list&#45;wip (safe)" target="_parent">
<path fill="none" stroke="black" d="M1386.34,-313.92C1381.57,-315.51 1376.72,-316.93 1372,-318 1275.05,-340.07 1243.58,-305.32 1149,-336 1137.62,-339.69 1137.28,-346.01 1126,-350 1047.09,-377.95 949.09,-385.54 891.84,-387.49"/>
<polygon fill="black" stroke="black" points="891.53,-384 881.64,-387.79 891.74,-390.99 891.53,-384"/>
</a>
</g>
<g id="a_edge8&#45;label"><a xlink:href="docs/safe.goListWIP.html" xlink:title="goListWIP, list&#45;wip (safe)" target="_parent">
<text text-anchor="middle" x="1232" y="-339.6" font-family="Times,serif" font-size="13.00">goListWIP, list&#45;wip (safe)</text>
</a>
</g>
</g>
<!-- readwip -->
<g id="node6" class="node">
<title>readwip</title>
<g id="a_node6"><a xlink:href="docs/semantic.readwip.html" xlink:title="&lt;TABLE&gt;" target="_parent">
<polygon fill="lightgray" stroke="black" stroke-width="2" points="1419.5,-226 1344.5,-226 1344.5,-184 1419.5,-184 1419.5,-226"/>
<text text-anchor="start" x="1353.5" y="-208.8" font-family="Times,serif" font-size="14.00">readwip</text>
<text text-anchor="start" x="1351" y="-193.8" font-family="Times,serif" font-size="14.00">(wiplink)</text>
</a>
</g>
</g>
<!-- filterwip&#45;&gt;readwip -->
<g id="edge9" class="edge">
<title>filterwip&#45;&gt;readwip</title>
<g id="a_edge9"><a xlink:href="docs/safe.goReadWIP.html" xlink:title="goReadWIP, read&#45;wip (safe)" target="_parent">
<path fill="none" stroke="black" d="M1414.47,-275.58C1408.9,-263.64 1401.78,-248.38 1395.62,-235.19"/>
<polygon fill="black" stroke="black" points="1398.75,-233.61 1391.35,-226.03 1392.41,-236.57 1398.75,-233.61"/>
</a>
</g>
<g id="a_edge9&#45;label"><a xlink:href="docs/safe.goReadWIP.html" xlink:title="goReadWIP, read&#45;wip (safe)" target="_parent">
<text text-anchor="middle" x="1496" y="-247.6" font-family="Times,serif" font-size="13.00">goReadWIP, read&#45;wip (safe)</text>
</a>
</g>
</g>
<!-- home&#45;&gt;home -->
<g id="edge10" class="edge">
<title>home&#45;&gt;home</title>
<g id="a_edge10"><a xlink:href="docs/safe.goHome.html" xlink:title="goHome, self (safe)" target="_parent">
<path fill="none" stroke="black" d="M1070.61,-489.56C1080.77,-489.11 1088.5,-486.26 1088.5,-481 1088.5,-477.72 1085.48,-475.37 1080.74,-473.96"/>
<polygon fill="black" stroke="black" points="1081.02,-470.46 1070.61,-472.44 1079.98,-477.39 1081.02,-470.46"/>
</a>
</g>
<g id="a_edge10&#45;label"><a xlink:href="docs/safe.goHome.html" xlink:title="goHome, self (safe)" target="_parent">
<text text-anchor="middle" x="1152.5" y="-477.6" font-family="Times,serif" font-size="13.00">goHome, self (safe)</text>
</a>
</g>
</g>
<!-- home&#45;&gt;listwip -->
<g id="edge11" class="edge">
<title>home&#45;&gt;listwip</title>
<g id="a_edge11"><a xlink:href="docs/safe.goListWIP.html" xlink:title="goListWIP, list&#45;wip (safe)" target="_parent">
<path fill="none" stroke="black" d="M995.32,-477.81C946.06,-474.08 863.83,-464.56 845,-442 839.97,-435.97 838.24,-428.05 838.15,-420.2"/>
<polygon fill="black" stroke="black" points="841.65,-420.32 838.84,-410.11 834.67,-419.85 841.65,-420.32"/>
</a>
</g>
<g id="a_edge11&#45;label"><a xlink:href="docs/safe.goListWIP.html" xlink:title="goListWIP, list&#45;wip (safe)" target="_parent">
<text text-anchor="middle" x="928" y="-431.6" font-family="Times,serif" font-size="13.00">goListWIP, list&#45;wip (safe)</text>
</a>
</g>
</g>
<!-- listwip&#45;&gt;createwip -->
<g id="edge12" class="edge">
<title>listwip&#45;&gt;createwip</title>
<g id="a_edge12"><a xlink:href="docs/idempotent.doCreateWIP.html" xlink:title="doCreateWIP, create&#45;wip (idempotent)" target="_parent">
<path fill="none" stroke="black" d="M806.48,-387.01C732.89,-384.55 564.72,-376.28 426,-350 404.17,-345.86 399.4,-342 378,-336 348.45,-327.71 315.33,-318.77 288.61,-311.64"/>
<polygon fill="black" stroke="black" points="289.27,-308.19 278.71,-309 287.47,-314.96 289.27,-308.19"/>
</a>
</g>
<g id="a_edge12&#45;label"><a xlink:href="docs/idempotent.doCreateWIP.html" xlink:title="doCreateWIP, create&#45;wip (idempotent)" target="_parent">
<text text-anchor="middle" x="552.5" y="-339.6" font-family="Times,serif" font-size="13.00">doCreateWIP, create&#45;wip (idempotent)</text>
</a>
</g>
</g>
<!-- listwip&#45;&gt;filterwip -->
<g id="edge13" class="edge">
<title>listwip&#45;&gt;filterwip</title>
<g id="a_edge13"><a xlink:href="docs/safe.goFilterWIP.html" xlink:title="goFilterWIP, filter&#45;wip (safe)" target="_parent">
<path fill="none" stroke="black" d="M881.68,-387.2C978.62,-384.79 1234.62,-376.07 1315,-350 1326.38,-346.31 1327.39,-341.54 1338,-336 1350.34,-329.56 1363.99,-323.19 1376.73,-317.56"/>
<polygon fill="black" stroke="black" points="1378.48,-320.62 1386.25,-313.41 1375.68,-314.2 1378.48,-320.62"/>
</a>
</g>
<g id="a_edge13&#45;label"><a xlink:href="docs/safe.goFilterWIP.html" xlink:title="goFilterWIP, filter&#45;wip (safe)" target="_parent">
<text text-anchor="middle" x="1432.5" y="-339.6" font-family="Times,serif" font-size="13.00">goFilterWIP, filter&#45;wip (safe)</text>
</a>
</g>
</g>
<!-- listwip&#45;&gt;home -->
<g id="edge14" class="edge">
<title>listwip&#45;&gt;home</title>
<g id="a_edge14"><a xlink:href="docs/safe.goHome.html" xlink:title="goHome, self (safe)" target="_parent">
<path fill="none" stroke="black" d="M881.7,-394.54C924.73,-400.41 991.68,-411.82 1011,-428 1017.86,-433.74 1022.63,-442 1025.92,-450.25"/>
<polygon fill="black" stroke="black" points="1022.62,-451.43 1029.14,-459.78 1029.25,-449.19 1022.62,-451.43"/>
</a>
</g>
<g id="a_edge14&#45;label"><a xlink:href="docs/safe.goHome.html" xlink:title="goHome, self (safe)" target="_parent">
<text text-anchor="middle" x="1085" y="-431.6" font-family="Times,serif" font-size="13.00">goHome, self (safe)</text>
</a>
</g>
</g>
<!-- listwip&#45;&gt;readwip -->
<g id="edge15" class="edge">
<title>listwip&#45;&gt;readwip</title>
<g id="a_edge15"><a xlink:href="docs/safe.goReadWIP.html" xlink:title="goReadWIP, read&#45;wip (safe)" target="_parent">
<path fill="none" stroke="black" d="M881.58,-381.33C903.89,-375.87 931.7,-366.3 952,-350 982.2,-325.76 965.62,-297.24 998,-276 1043.83,-245.94 1066.03,-267.53 1120,-258 1150.39,-252.63 1157.75,-250.08 1188,-244 1237.99,-233.96 1295.3,-222.77 1334.59,-215.15"/>
<polygon fill="black" stroke="black" points="1335.27,-218.59 1344.43,-213.25 1333.94,-211.71 1335.27,-218.59"/>
</a>
</g>
<g id="a_edge15&#45;label"><a xlink:href="docs/safe.goReadWIP.html" xlink:title="goReadWIP, read&#45;wip (safe)" target="_parent">
<text text-anchor="middle" x="1089" y="-293.6" font-family="Times,serif" font-size="13.00">goReadWIP, read&#45;wip (safe)</text>
</a>
</g>
</g>
<!-- readwip&#45;&gt;cancelwip -->
<g id="edge16" class="edge">
<title>readwip&#45;&gt;cancelwip</title>
<g id="a_edge16"><a xlink:href="docs/idempotent.doCancelWIP.html" xlink:title="doCancelWIP, cancel&#45;wip (idempotent)" target="_parent">
<path fill="none" stroke="black" d="M1419.73,-206.63C1570.77,-209.32 2125.14,-220.73 2154,-244 2172.63,-259.02 2168,-272.07 2168,-296 2168,-482 2168,-482 2168,-482 2168,-537.09 1307.06,-564.49 1084.83,-570.64"/>
<polygon fill="black" stroke="black" points="1084.64,-567.15 1074.74,-570.92 1084.83,-574.14 1084.64,-567.15"/>
</a>
</g>
<g id="a_edge16&#45;label"><a xlink:href="docs/idempotent.doCancelWIP.html" xlink:title="doCancelWIP, cancel&#45;wip (idempotent)" target="_parent">
<text text-anchor="middle" x="2296" y="-385.6" font-family="Times,serif" font-size="13.00">doCancelWIP, cancel&#45;wip (idempotent)</text>
</a>
</g>
</g>
<!-- readwip&#45;&gt;home -->
<g id="edge17" class="edge">
<title>readwip&#45;&gt;home</title>
<g id="a_edge17"><a xlink:href="docs/safe.goHome.html" xlink:title="goHome, self (safe)" target="_parent">
<path fill="none" stroke="black" d="M1419.67,-208.86C1492.62,-215.31 1648.58,-233.83 1678,-276 1713.71,-327.19 1686.47,-373.28 1636,-410 1547.73,-474.23 1207.4,-480.35 1080.8,-480.34"/>
<polygon fill="black" stroke="black" points="1080.65,-476.84 1070.64,-480.33 1080.64,-483.84 1080.65,-476.84"/>
</a>
</g>
<g id="a_edge17&#45;label"><a xlink:href="docs/safe.goHome.html" xlink:title="goHome, self (safe)" target="_parent">
<text text-anchor="middle" x="1756" y="-339.6" font-family="Times,serif" font-size="13.00">goHome, self (safe)</text>
</a>
</g>
</g>
<!-- readwip&#45;&gt;listwip -->
<g id="edge18" class="edge">
<title>readwip&#45;&gt;listwip</title>
<g id="a_edge18"><a xlink:href="docs/safe.goListWIP.html" xlink:title="goListWIP, list&#45;wip (safe)" target="_parent">
<path fill="none" stroke="black" d="M1344.26,-215.31C1307.72,-225.69 1252.12,-245.18 1212,-276 1193.39,-290.3 1199.85,-305.48 1180,-318 1155.76,-333.28 978.2,-365.13 891.44,-380.01"/>
<polygon fill="black" stroke="black" points="890.85,-376.56 881.58,-381.7 892.03,-383.46 890.85,-376.56"/>
</a>
</g>
<g id="a_edge18&#45;label"><a xlink:href="docs/safe.goListWIP.html" xlink:title="goListWIP, list&#45;wip (safe)" target="_parent">
<text text-anchor="middle" x="1295" y="-293.6" font-family="Times,serif" font-size="13.00">goListWIP, list&#45;wip (safe)</text>
</a>
</g>
</g>
<!-- sharewip -->
<g id="node7" class="node">
<title>sharewip</title>
<g id="a_node7"><a xlink:href="docs/semantic.sharewip.html" xlink:title="&lt;TABLE&gt;" target="_parent">
<polygon fill="lightgray" stroke="black" stroke-width="2" points="1523,-134 1445,-134 1445,-92 1523,-92 1523,-134"/>
<text text-anchor="start" x="1451" y="-116.8" font-family="Times,serif" font-size="14.00">sharewip</text>
<text text-anchor="start" x="1452.5" y="-101.8" font-family="Times,serif" font-size="14.00">(wiplink)</text>
</a>
</g>
</g>
<!-- readwip&#45;&gt;sharewip -->
<g id="edge19" class="edge">
<title>readwip&#45;&gt;sharewip</title>
<g id="a_edge19"><a xlink:href="docs/idempotent.doShareWIP.html" xlink:title="doShareWIP, share&#45;wip (idempotent)" target="_parent">
<path fill="none" stroke="black" d="M1419.57,-201.64C1467.69,-197.75 1547.03,-188.09 1565,-166 1578.83,-149.01 1557.25,-135.78 1532.9,-126.92"/>
<polygon fill="black" stroke="black" points="1533.73,-123.51 1523.14,-123.62 1531.49,-130.14 1533.73,-123.51"/>
</a>
</g>
<g id="a_edge19&#45;label"><a xlink:href="docs/idempotent.doShareWIP.html" xlink:title="doShareWIP, share&#45;wip (idempotent)" target="_parent">
<text text-anchor="middle" x="1690" y="-155.6" font-family="Times,serif" font-size="13.00">doShareWIP, share&#45;wip (idempotent)</text>
</a>
</g>
</g>
<!-- statuswip -->
<g id="node8" class="node">
<title>statuswip</title>
<g id="a_node8"><a xlink:href="docs/semantic.statuswip.html" xlink:title="&lt;TABLE&gt;" target="_parent">
<polygon fill="lightgray" stroke="black" stroke-width="2" points="788,-134 706,-134 706,-92 788,-92 788,-134"/>
<text text-anchor="start" x="712" y="-116.8" font-family="Times,serif" font-size="14.00">statuswip</text>
<text text-anchor="start" x="715.5" y="-101.8" font-family="Times,serif" font-size="14.00">(wiplink)</text>
</a>
</g>
</g>
<!-- readwip&#45;&gt;statuswip -->
<g id="edge20" class="edge">
<title>readwip&#45;&gt;statuswip</title>
<g id="a_edge20"><a xlink:href="docs/idempotent.doStatusWIP.html" xlink:title="doStatusWIP, status&#45;wip (idempotent)" target="_parent">
<path fill="none" stroke="black" d="M1344.48,-199.82C1293.42,-193.84 1199.33,-181.8 1120,-166 1095.26,-161.07 1089.8,-156.62 1065,-152 971.67,-134.62 861.37,-123.52 798.26,-118.05"/>
<polygon fill="black" stroke="black" points="798.43,-114.56 788.17,-117.19 797.84,-121.53 798.43,-114.56"/>
</a>
</g>
<g id="a_edge20&#45;label"><a xlink:href="docs/idempotent.doStatusWIP.html" xlink:title="doStatusWIP, status&#45;wip (idempotent)" target="_parent">
<text text-anchor="middle" x="1245" y="-155.6" font-family="Times,serif" font-size="13.00">doStatusWIP, status&#45;wip (idempotent)</text>
</a>
</g>
</g>
<!-- submitwip -->
<g id="node9" class="node">
<title>submitwip</title>
<g id="a_node9"><a xlink:href="docs/semantic.submitwip.html" xlink:title="&lt;TABLE&gt;" target="_parent">
<polygon fill="lightgray" stroke="black" stroke-width="2" points="1474,-42 1386,-42 1386,0 1474,0 1474,-42"/>
<text text-anchor="start" x="1392" y="-24.8" font-family="Times,serif" font-size="14.00">submitwip</text>
<text text-anchor="start" x="1398.5" y="-9.8" font-family="Times,serif" font-size="14.00">(wiplink)</text>
</a>
</g>
</g>
<!-- readwip&#45;&gt;submitwip -->
<g id="edge21" class="edge">
<title>readwip&#45;&gt;submitwip</title>
<g id="a_edge21"><a xlink:href="docs/idempotent.doSubmitWIP.html" xlink:title="doSubmitWIP, submit&#45;wip (idempotent)" target="_parent">
<path fill="none" stroke="black" d="M1419.53,-203.54C1519.86,-201.92 1788.53,-194.9 1815,-166 1849.74,-128.08 1824.66,-157.18 1751,-134 1656.08,-104.12 1546.96,-65.02 1483.51,-41.8"/>
<polygon fill="black" stroke="black" points="1484.7,-38.51 1474.11,-38.36 1482.29,-45.09 1484.7,-38.51"/>
</a>
</g>
<g id="a_edge21&#45;label"><a xlink:href="docs/idempotent.doSubmitWIP.html" xlink:title="doSubmitWIP, submit&#45;wip (idempotent)" target="_parent">
<text text-anchor="middle" x="1881" y="-109.6" font-family="Times,serif" font-size="13.00">doSubmitWIP, submit&#45;wip (idempotent)</text>
</a>
</g>
</g>
<!-- readwip&#45;&gt;updatewip -->
<g id="edge22" class="edge">
<title>readwip&#45;&gt;updatewip</title>
<g id="a_edge22"><a xlink:href="docs/idempotent.doUpdateWIP.html" xlink:title="doUpdateWIP, update&#45;wip (idempotent)" target="_parent">
<path fill="none" stroke="black" d="M1344.29,-203.34C1196.86,-200.61 663.95,-189.22 592,-166 574.77,-160.44 557.67,-150.14 543.72,-140.17"/>
<polygon fill="black" stroke="black" points="545.59,-137.2 535.48,-134.05 541.42,-142.83 545.59,-137.2"/>
</a>
</g>
<g id="a_edge22&#45;label"><a xlink:href="docs/idempotent.doUpdateWIP.html" xlink:title="doUpdateWIP, update&#45;wip (idempotent)" target="_parent">
<text text-anchor="middle" x="722.5" y="-155.6" font-family="Times,serif" font-size="13.00">doUpdateWIP, update&#45;wip (idempotent)</text>
</a>
</g>
</g>
<!-- sharewip&#45;&gt;home -->
<g id="edge23" class="edge">
<title>sharewip&#45;&gt;home</title>
<g id="a_edge23"><a xlink:href="docs/safe.goHome.html" xlink:title="goHome, self (safe)" target="_parent">
<path fill="none" stroke="black" d="M1523.18,-120.16C1550.99,-124.41 1589.23,-129.99 1623,-134 1665.55,-139.05 1776.05,-134.14 1815,-152 1845.29,-165.89 1869,-170.68 1869,-204 1869,-390 1869,-390 1869,-390 1869,-469.88 1257.81,-478.96 1080.61,-479.91"/>
<polygon fill="black" stroke="black" points="1080.53,-476.41 1070.55,-479.96 1080.56,-483.41 1080.53,-476.41"/>
</a>
</g>
<g id="a_edge23&#45;label"><a xlink:href="docs/safe.goHome.html" xlink:title="goHome, self (safe)" target="_parent">
<text text-anchor="middle" x="1933" y="-293.6" font-family="Times,serif" font-size="13.00">goHome, self (safe)</text>
</a>
</g>
</g>
<!-- sharewip&#45;&gt;listwip -->
<g id="edge24" class="edge">
<title>sharewip&#45;&gt;listwip</title>
<g id="a_edge24"><a xlink:href="docs/safe.goListWIP.html" xlink:title="goListWIP, list&#45;wip (safe)" target="_parent">
<path fill="none" stroke="black" d="M1444.99,-115.38C1358.83,-118.82 1154.81,-129.16 1090,-152 1072.44,-158.19 963.51,-231.19 950,-244 913.1,-278.99 880.01,-328.17 860.98,-359.05"/>
<polygon fill="black" stroke="black" points="857.97,-357.26 855.76,-367.63 863.95,-360.9 857.97,-357.26"/>
</a>
</g>
<g id="a_edge24&#45;label"><a xlink:href="docs/safe.goListWIP.html" xlink:title="goListWIP, list&#45;wip (safe)" target="_parent">
<text text-anchor="middle" x="1033" y="-247.6" font-family="Times,serif" font-size="13.00">goListWIP, list&#45;wip (safe)</text>
</a>
</g>
</g>
<!-- sharewip&#45;&gt;readwip -->
<g id="edge25" class="edge">
<title>sharewip&#45;&gt;readwip</title>
<g id="a_edge25"><a xlink:href="docs/safe.goReadWIP.html" xlink:title="goReadWIP, read&#45;wip (safe)" target="_parent">
<path fill="none" stroke="black" d="M1444.83,-117.27C1421.57,-121.46 1393.81,-130.89 1379,-152 1374.61,-158.26 1373.45,-166.06 1373.86,-173.7"/>
<polygon fill="black" stroke="black" points="1370.42,-174.41 1375.24,-183.85 1377.36,-173.47 1370.42,-174.41"/>
</a>
</g>
<g id="a_edge25&#45;label"><a xlink:href="docs/safe.goReadWIP.html" xlink:title="goReadWIP, read&#45;wip (safe)" target="_parent">
<text text-anchor="middle" x="1470" y="-155.6" font-family="Times,serif" font-size="13.00">goReadWIP, read&#45;wip (safe)</text>
</a>
</g>
</g>
<!-- statuswip&#45;&gt;home -->
<g id="edge26" class="edge">
<title>statuswip&#45;&gt;home</title>
<g id="a_edge26"><a xlink:href="docs/safe.goHome.html" xlink:title="goHome, self (safe)" target="_parent">
<path fill="none" stroke="black" d="M705.98,-117.78C659.67,-122.88 588.28,-133.52 569,-152 519.23,-199.71 505.16,-280.88 537,-318 554.13,-337.97 629.22,-327.17 654,-336 741.45,-367.17 745.97,-412.52 834,-442 897.48,-463.26 921.24,-442.76 985.44,-458.7"/>
<polygon fill="black" stroke="black" points="984.65,-462.11 995.22,-461.32 986.47,-455.35 984.65,-462.11"/>
</a>
</g>
<g id="a_edge26&#45;label"><a xlink:href="docs/safe.goHome.html" xlink:title="goHome, self (safe)" target="_parent">
<text text-anchor="middle" x="601" y="-293.6" font-family="Times,serif" font-size="13.00">goHome, self (safe)</text>
</a>
</g>
</g>
<!-- statuswip&#45;&gt;listwip -->
<g id="edge27" class="edge">
<title>statuswip&#45;&gt;listwip</title>
<g id="a_edge27"><a xlink:href="docs/safe.goListWIP.html" xlink:title="goListWIP, list&#45;wip (safe)" target="_parent">
<path fill="none" stroke="black" d="M705.94,-117.32C660.63,-121.94 591.98,-132.07 576,-152 572.11,-156.85 572.66,-160.75 576,-166 619.7,-234.81 679.49,-191.68 742,-244 780.75,-276.43 811.91,-326.85 829.17,-358.61"/>
<polygon fill="black" stroke="black" points="826.29,-360.65 834.08,-367.83 832.47,-357.36 826.29,-360.65"/>
</a>
</g>
<g id="a_edge27&#45;label"><a xlink:href="docs/safe.goListWIP.html" xlink:title="goListWIP, list&#45;wip (safe)" target="_parent">
<text text-anchor="middle" x="839" y="-247.6" font-family="Times,serif" font-size="13.00">goListWIP, list&#45;wip (safe)</text>
</a>
</g>
</g>
<!-- statuswip&#45;&gt;readwip -->
<g id="edge28" class="edge">
<title>statuswip&#45;&gt;readwip</title>
<g id="a_edge28"><a xlink:href="docs/safe.goReadWIP.html" xlink:title="goReadWIP, read&#45;wip (safe)" target="_parent">
<path fill="none" stroke="black" d="M788.14,-125.69C809.2,-132.3 834.98,-141.37 857,-152 867.44,-157.04 868,-162.34 879,-166 962.62,-193.81 1225.64,-201.38 1334.31,-203.35"/>
<polygon fill="black" stroke="black" points="1334.27,-206.85 1344.33,-203.52 1334.39,-199.85 1334.27,-206.85"/>
</a>
</g>
<g id="a_edge28&#45;label"><a xlink:href="docs/safe.goReadWIP.html" xlink:title="goReadWIP, read&#45;wip (safe)" target="_parent">
<text text-anchor="middle" x="970" y="-155.6" font-family="Times,serif" font-size="13.00">goReadWIP, read&#45;wip (safe)</text>
</a>
</g>
</g>
<!-- submitwip&#45;&gt;home -->
<g id="edge29" class="edge">
<title>submitwip&#45;&gt;home</title>
<g id="a_edge29"><a xlink:href="docs/safe.goHome.html" xlink:title="goHome, self (safe)" target="_parent">
<path fill="none" stroke="black" d="M1474.06,-22.73C1593.46,-25.42 1920.37,-37.68 2011,-92 2020.31,-97.58 2025,-101.15 2025,-112 2025,-390 2025,-390 2025,-390 2025,-498.71 1893.76,-427.66 1786,-442 1521.51,-477.21 1200.79,-480.44 1081.09,-480.29"/>
<polygon fill="black" stroke="black" points="1080.81,-476.79 1070.81,-480.27 1080.8,-483.79 1080.81,-476.79"/>
</a>
</g>
<g id="a_edge29&#45;label"><a xlink:href="docs/safe.goHome.html" xlink:title="goHome, self (safe)" target="_parent">
<text text-anchor="middle" x="2089" y="-247.6" font-family="Times,serif" font-size="13.00">goHome, self (safe)</text>
</a>
</g>
</g>
<!-- submitwip&#45;&gt;listwip -->
<g id="edge30" class="edge">
<title>submitwip&#45;&gt;listwip</title>
<g id="a_edge30"><a xlink:href="docs/safe.goListWIP.html" xlink:title="goListWIP, list&#45;wip (safe)" target="_parent">
<path fill="none" stroke="black" d="M1386,-23.65C1162,-32.52 155.68,-78.1 72,-184 60.43,-198.65 64.08,-209.1 72,-226 86.72,-257.44 106.53,-252.42 132,-276 165.67,-307.18 162.27,-330.9 204,-350 230.81,-362.27 651.91,-380.27 796.05,-386.1"/>
<polygon fill="black" stroke="black" points="796.2,-389.61 806.34,-386.52 796.49,-382.62 796.2,-389.61"/>
</a>
</g>
<g id="a_edge30&#45;label"><a xlink:href="docs/safe.goListWIP.html" xlink:title="goListWIP, list&#45;wip (safe)" target="_parent">
<text text-anchor="middle" x="155" y="-201.6" font-family="Times,serif" font-size="13.00">goListWIP, list&#45;wip (safe)</text>
</a>
</g>
</g>
<!-- updatewip&#45;&gt;home -->
<g id="edge31" class="edge">
<title>updatewip&#45;&gt;home</title>
<g id="a_edge31"><a xlink:href="docs/safe.goHome.html" xlink:title="goHome, self (safe)" target="_parent">
<path fill="none" stroke="black" d="M467.9,-117.12C343.71,-126.48 0,-156.67 0,-204 0,-390 0,-390 0,-390 0,-457.44 231.89,-435.33 299,-442 448.94,-456.91 825.54,-425.49 985.5,-458.97"/>
<polygon fill="black" stroke="black" points="984.74,-462.39 995.26,-461.16 986.27,-455.56 984.74,-462.39"/>
</a>
</g>
<g id="a_edge31&#45;label"><a xlink:href="docs/safe.goHome.html" xlink:title="goHome, self (safe)" target="_parent">
<text text-anchor="middle" x="64" y="-293.6" font-family="Times,serif" font-size="13.00">goHome, self (safe)</text>
</a>
</g>
</g>
<!-- updatewip&#45;&gt;listwip -->
<g id="edge32" class="edge">
<title>updatewip&#45;&gt;listwip</title>
<g id="a_edge32"><a xlink:href="docs/safe.goListWIP.html" xlink:title="goListWIP, list&#45;wip (safe)" target="_parent">
<path fill="none" stroke="black" d="M517.83,-134.27C528.51,-169.96 551.94,-241.78 572,-258 606.1,-285.56 628.22,-259.88 669,-276 722.81,-297.27 777.89,-335.86 811.53,-361.71"/>
<polygon fill="black" stroke="black" points="809.56,-364.61 819.6,-367.99 813.86,-359.09 809.56,-364.61"/>
</a>
</g>
<g id="a_edge32&#45;label"><a xlink:href="docs/safe.goListWIP.html" xlink:title="goListWIP, list&#45;wip (safe)" target="_parent">
<text text-anchor="middle" x="655" y="-247.6" font-family="Times,serif" font-size="13.00">goListWIP, list&#45;wip (safe)</text>
</a>
</g>
</g>
<!-- updatewip&#45;&gt;submitwip -->
<g id="edge33" class="edge">
<title>updatewip&#45;&gt;submitwip</title>
<g id="a_edge33"><a xlink:href="docs/idempotent.doSubmitWIP.html" xlink:title="doSubmitWIP, submit&#45;wip (idempotent)" target="_parent">
<path fill="none" stroke="black" d="M556.09,-107.08C593.56,-102.93 648.79,-96.91 697,-92 950.64,-66.18 1253.96,-38.11 1375.61,-26.96"/>
<polygon fill="black" stroke="black" points="1376.14,-30.43 1385.78,-26.03 1375.5,-23.46 1376.14,-30.43"/>
</a>
</g>
<g id="a_edge33&#45;label"><a xlink:href="docs/idempotent.doSubmitWIP.html" xlink:title="doSubmitWIP, submit&#45;wip (idempotent)" target="_parent">
<text text-anchor="middle" x="1148" y="-63.6" font-family="Times,serif" font-size="13.00">doSubmitWIP, submit&#45;wip (idempotent)</text>
</a>
</g>
</g>
</g>
</svg>
