<?xml version="1.0" encoding="UTF-8" standalone="no"?>
<!DOCTYPE svg PUBLIC "-//W3C//DTD SVG 1.1//EN"
 "http://www.w3.org/Graphics/SVG/1.1/DTD/svg11.dtd">
<!-- Generated by graphviz version 2.43.0 (0)
 -->
<!-- Title: application_state_diagram Pages: 1 -->
<svg width="564pt" height="339pt"
 viewBox="0.00 0.00 563.67 339.00" xmlns="http://www.w3.org/2000/svg" xmlns:xlink="http://www.w3.org/1999/xlink">
<g id="graph0" class="graph" transform="scale(1 1) rotate(0) translate(4 335)">
<title>application_state_diagram</title>
<g id="a_graph0"><a xlink:href="index.html" xlink:title="Work&#45;In&#45;Progress (WIP) Profile" target="_parent">
<polygon fill="white" stroke="transparent" points="-4,4 -4,-335 559.67,-335 559.67,4 -4,4"/>
<text text-anchor="middle" x="277.83" y="-315.8" font-family="Helvetica,sans-Serif" font-size="14.00">Work&#45;In&#45;Progress (WIP) Profile</text>
</a>
</g>
<!-- wipitem -->
<g id="node1" class="node">
<title>wipitem</title>
<g id="a_node1"><a xlink:href="docs/semantic.wipitem.html" xlink:title="&lt;TABLE&gt;" target="_parent">
<polygon fill="lightgray" stroke="black" stroke-width="2" points="258.17,-278 183.17,-278 183.17,-236 258.17,-236 258.17,-278"/>
<text text-anchor="start" x="192.17" y="-260.8" font-family="Times,serif" font-size="14.00">wipitem</text>
<text text-anchor="start" x="189.67" y="-245.8" font-family="Times,serif" font-size="14.00">(wiplink)</text>
</a>
</g>
</g>
<!-- wipitem&#45;&gt;wipitem -->
<g id="edge4" class="edge">
<title>wipitem&#45;&gt;wipitem</title>
<path fill="none" stroke="black" d="M258.28,-273.75C268.44,-272.87 276.17,-267.28 276.17,-257 276.17,-250.41 272.99,-245.75 268.04,-243.02"/>
<polygon fill="black" stroke="black" points="268.85,-239.62 258.28,-240.25 266.94,-246.35 268.85,-239.62"/>
<g id="a_edge4_0"><a xlink:href="docs/idempotent.doShareWIP.html" xlink:title="&lt;TABLE&gt;">
<text text-anchor="start" x="280.67" y="-293.6" font-family="Times,serif" font-size="13.00">doShareWIP (idempotent)</text>
</a>
</g>
<g id="a_edge4_1"><a xlink:href="docs/idempotent.doStatusWIP.html" xlink:title="&lt;TABLE&gt;">
<text text-anchor="start" x="280.67" y="-273.6" font-family="Times,serif" font-size="13.00">doStatusWIP (idempotent)</text>
</a>
</g>
<g id="a_edge4_2"><a xlink:href="docs/idempotent.doSubmitWIP.html" xlink:title="&lt;TABLE&gt;">
<text text-anchor="start" x="280.67" y="-253.6" font-family="Times,serif" font-size="13.00">doSubmitWIP (idempotent)</text>
</a>
</g>
<g id="a_edge4_3"><a xlink:href="docs/idempotent.doUpdateWIP.html" xlink:title="&lt;TABLE&gt;">
<text text-anchor="start" x="280.67" y="-233.6" font-family="Times,serif" font-size="13.00">doUpdateWIP (idempotent)</text>
</a>
</g>
<g id="a_edge4_4"><a xlink:href="docs/safe.goReadWIP.html" xlink:title="&lt;TABLE&gt;">
<text text-anchor="start" x="280.67" y="-213.6" font-family="Times,serif" font-size="13.00">goReadWIP (safe)</text>
</a>
</g>
</g>
<!-- wiplist -->
<g id="node2" class="node">
<title>wiplist</title>
<g id="a_node2"><a xlink:href="docs/semantic.wiplist.html" xlink:title="&lt;TABLE&gt;" target="_parent">
<polygon fill="lightgray" stroke="black" stroke-width="2" points="128.17,-128 53.17,-128 53.17,-86 128.17,-86 128.17,-128"/>
<text text-anchor="start" x="66.67" y="-110.8" font-family="Times,serif" font-size="14.00">wiplist</text>
<text text-anchor="start" x="59.67" y="-95.8" font-family="Times,serif" font-size="14.00">(wiplink)</text>
</a>
</g>
</g>
<!-- wipitem&#45;&gt;wiplist -->
<g id="edge5" class="edge">
<title>wipitem&#45;&gt;wiplist</title>
<path fill="none" stroke="black" d="M183.1,-256.05C134.56,-253.84 51.7,-241.82 12.67,-188 1.71,-172.89 2.77,-161.83 12.67,-146 19.79,-134.6 31.43,-126.53 43.57,-120.85"/>
<polygon fill="black" stroke="black" points="45,-124.05 52.88,-116.97 42.3,-117.59 45,-124.05"/>
<g id="a_edge5_5"><a xlink:href="docs/idempotent.doCancelWIP.html" xlink:title="&lt;TABLE&gt;">
<text text-anchor="start" x="16.67" y="-173.6" font-family="Times,serif" font-size="13.00">doCancelWIP (idempotent)</text>
</a>
</g>
<g id="a_edge5_6"><a xlink:href="docs/safe.goListWIP.html" xlink:title="&lt;TABLE&gt;">
<text text-anchor="start" x="16.67" y="-153.6" font-family="Times,serif" font-size="13.00">goListWIP (safe)</text>
</a>
</g>
</g>
<!-- home -->
<g id="node3" class="node">
<title>home</title>
<g id="a_node3"><a xlink:href="docs/semantic.home.html" xlink:title="home" target="_parent">
<polygon fill="lightgray" stroke="black" stroke-width="2" points="198.67,-36 142.67,-36 142.67,0 198.67,0 198.67,-36"/>
<text text-anchor="middle" x="170.67" y="-14.3" font-family="Times,serif" font-size="14.00">home</text>
</a>
</g>
</g>
<!-- wipitem&#45;&gt;home -->
<g id="edge3" class="edge">
<title>wipitem&#45;&gt;home</title>
<g id="a_edge3"><a xlink:href="docs/safe.goHome.html" xlink:title="goHome, home (safe)" target="_parent">
<path fill="none" stroke="black" d="M258.2,-254.35C302.14,-250.17 373.17,-235.9 406.67,-188 422.95,-164.71 417.19,-75.48 396.67,-54 371.55,-27.72 266.75,-21.13 209.1,-19.51"/>
<polygon fill="black" stroke="black" points="208.99,-16 198.91,-19.26 208.82,-23 208.99,-16"/>
</a>
</g>
<g id="a_edge3&#45;label"><a xlink:href="docs/safe.goHome.html" xlink:title="goHome, home (safe)" target="_parent">
<text text-anchor="middle" x="485.67" y="-103.6" font-family="Times,serif" font-size="13.00">goHome, home (safe)</text>
</a>
</g>
</g>
<!-- wiplist&#45;&gt;wipitem -->
<g id="edge7" class="edge">
<title>wiplist&#45;&gt;wipitem</title>
<path fill="none" stroke="black" d="M128.19,-111.81C151.79,-116.21 181.01,-125.66 198.67,-146 217.68,-167.91 222.02,-201.56 222.32,-225.88"/>
<polygon fill="black" stroke="black" points="218.82,-225.96 222.22,-235.99 225.82,-226.02 218.82,-225.96"/>
<g id="a_edge7_7"><a xlink:href="docs/idempotent.doCreateWIP.html" xlink:title="&lt;TABLE&gt;">
<text text-anchor="start" x="223.17" y="-173.6" font-family="Times,serif" font-size="13.00">doCreateWIP (idempotent)</text>
</a>
</g>
<g id="a_edge7_8"><a xlink:href="docs/safe.goReadWIP.html" xlink:title="&lt;TABLE&gt;">
<text text-anchor="start" x="223.17" y="-153.6" font-family="Times,serif" font-size="13.00">goReadWIP (safe)</text>
</a>
</g>
</g>
<!-- wiplist&#45;&gt;wiplist -->
<g id="edge8" class="edge">
<title>wiplist&#45;&gt;wiplist</title>
<path fill="none" stroke="black" d="M128.28,-115.56C138.44,-115.11 146.17,-112.26 146.17,-107 146.17,-103.72 143.15,-101.37 138.4,-99.96"/>
<polygon fill="black" stroke="black" points="138.69,-96.46 128.28,-98.44 137.65,-103.39 138.69,-96.46"/>
<g id="a_edge8_9"><a xlink:href="docs/safe.goFilterWIP.html" xlink:title="&lt;TABLE&gt;">
<text text-anchor="start" x="150.17" y="-113.6" font-family="Times,serif" font-size="13.00">goFilterWIP (safe)</text>
</a>
</g>
<g id="a_edge8_10"><a xlink:href="docs/safe.goListWIP.html" xlink:title="&lt;TABLE&gt;">
<text text-anchor="start" x="150.17" y="-93.6" font-family="Times,serif" font-size="13.00">goListWIP (safe)</text>
</a>
</g>
</g>
<!-- wiplist&#45;&gt;home -->
<g id="edge6" class="edge">
<title>wiplist&#45;&gt;home</title>
<g id="a_edge6"><a xlink:href="docs/safe.goHome.html" xlink:title="goHome, home (safe)" target="_parent">
<path fill="none" stroke="black" d="M53.11,-97.91C22.75,-89.64 -12.37,-75 4.67,-54 20.43,-34.57 88.37,-25.52 132.3,-21.62"/>
<polygon fill="black" stroke="black" points="132.69,-25.1 142.36,-20.78 132.1,-18.13 132.69,-25.1"/>
</a>
</g>
<g id="a_edge6&#45;label"><a xlink:href="docs/safe.goHome.html" xlink:title="goHome, home (safe)" target="_parent">
<text text-anchor="middle" x="74.67" y="-57.6" font-family="Times,serif" font-size="13.00">goHome, home (safe)</text>
</a>
</g>
</g>
<!-- home&#45;&gt;wiplist -->
<g id="edge2" class="edge">
<title>home&#45;&gt;wiplist</title>
<g id="a_edge2"><a xlink:href="docs/safe.goListWIP.html" xlink:title="goListWIP, list collection wip (safe)" target="_parent">
<path fill="none" stroke="black" d="M165.64,-36.22C162.08,-46.29 156.53,-58.78 148.67,-68 145.05,-72.24 140.85,-76.18 136.39,-79.8"/>
<polygon fill="black" stroke="black" points="134.07,-77.17 128.16,-85.97 138.26,-82.77 134.07,-77.17"/>
</a>
</g>
<g id="a_edge2&#45;label"><a xlink:href="docs/safe.goListWIP.html" xlink:title="goListWIP, list collection wip (safe)" target="_parent">
<text text-anchor="middle" x="275.17" y="-57.6" font-family="Times,serif" font-size="13.00">goListWIP, list collection wip (safe)</text>
</a>
</g>
</g>
<!-- home&#45;&gt;home -->
<g id="edge1" class="edge">
<title>home&#45;&gt;home</title>
<g id="a_edge1"><a xlink:href="docs/safe.goHome.html" xlink:title="goHome, home (safe)" target="_parent">
<path fill="none" stroke="black" d="M198.97,-25.87C208.76,-25.96 216.67,-23.33 216.67,-18 216.67,-14.75 213.73,-12.51 209.22,-11.27"/>
<polygon fill="black" stroke="black" points="209.29,-7.76 198.97,-10.13 208.52,-14.71 209.29,-7.76"/>
</a>
</g>
<g id="a_edge1&#45;label"><a xlink:href="docs/safe.goHome.html" xlink:title="goHome, home (safe)" target="_parent">
<text text-anchor="middle" x="286.67" y="-14.6" font-family="Times,serif" font-size="13.00">goHome, home (safe)</text>
</a>
</g>
</g>
</g>
</svg>
