<?xml version="1.0" encoding="UTF-8" standalone="no"?>
<!DOCTYPE svg PUBLIC "-//W3C//DTD SVG 1.1//EN"
 "http://www.w3.org/Graphics/SVG/1.1/DTD/svg11.dtd">
<!-- Generated by graphviz version 2.43.0 (0)
 -->
<!-- Title: application_state_diagram Pages: 1 -->
<svg width="267pt" height="169pt"
 viewBox="0.00 0.00 267.21 169.00" xmlns="http://www.w3.org/2000/svg" xmlns:xlink="http://www.w3.org/1999/xlink">
<g id="graph0" class="graph" transform="scale(1 1) rotate(0) translate(4 165)">
<title>application_state_diagram</title>
<g id="a_graph0"><a xlink:href="index.html" xlink:title="Most Recently Used (MRU) Profile" target="_parent">
<polygon fill="white" stroke="transparent" points="-4,4 -4,-165 263.21,-165 263.21,4 -4,4"/>
<text text-anchor="middle" x="129.6" y="-7.8" font-family="Helvetica,sans-Serif" font-size="14.00">Most Recently Used (MRU) Profile</text>
</a>
</g>
<!-- home -->
<g id="node1" class="node">
<title>home</title>
<g id="a_node1"><a xlink:href="docs/semantic.home.html" xlink:title="&lt;TABLE&gt;" target="_parent">
<polygon fill="none" stroke="black" points="116.71,-161 35.71,-161 35.71,-117 116.71,-117 116.71,-161"/>
<polygon fill="#dddddd" stroke="transparent" points="37.21,-118 37.21,-160 116.21,-160 116.21,-118 37.21,-118"/>
<polygon fill="none" stroke="black" points="37.21,-118 37.21,-160 116.21,-160 116.21,-118 37.21,-118"/>
<text text-anchor="start" x="56.71" y="-142.8" font-family="Times,serif" font-size="14.00">home</text>
<text text-anchor="start" x="43.21" y="-127.8" font-family="Times,serif" font-size="14.00">(mrulink)</text>
</a>
</g>
</g>
<!-- mru -->
<g id="node2" class="node">
<title>mru</title>
<g id="a_node2"><a xlink:href="docs/semantic.mru.html" xlink:title="&lt;TABLE&gt;" target="_parent">
<polygon fill="none" stroke="black" points="116.71,-67 35.71,-67 35.71,-23 116.71,-23 116.71,-67"/>
<polygon fill="#dddddd" stroke="transparent" points="37.21,-24 37.21,-66 116.21,-66 116.21,-24 37.21,-24"/>
<polygon fill="none" stroke="black" points="37.21,-24 37.21,-66 116.21,-66 116.21,-24 37.21,-24"/>
<text text-anchor="start" x="61.71" y="-48.8" font-family="Times,serif" font-size="14.00">mru</text>
<text text-anchor="start" x="43.21" y="-33.8" font-family="Times,serif" font-size="14.00">(mrulink)</text>
</a>
</g>
</g>
<!-- home&#45;&gt;mru -->
<g id="edge1" class="edge">
<title>home&#45;&gt;mru</title>
<g id="a_edge1"><a xlink:href="docs/safe.goMRU.html" xlink:title="goMRU, mru (safe)" target="_parent">
<path fill="none" stroke="black" d="M35.38,-125.57C22.84,-119.62 10.45,-111.08 3.21,-99 -6.14,-83.42 7.98,-71.07 26.21,-62.23"/>
<polygon fill="black" stroke="black" points="27.67,-65.41 35.41,-58.17 24.85,-59.01 27.67,-65.41"/>
</a>
</g>
<g id="a_edge1&#45;label"><a xlink:href="docs/safe.goMRU.html" xlink:title="goMRU, mru (safe)" target="_parent">
<text text-anchor="middle" x="66.21" y="-88.6" font-family="Times,serif" font-size="13.00">goMRU, mru (safe)</text>
</a>
</g>
</g>
<!-- mru&#45;&gt;home -->
<g id="edge2" class="edge">
<title>mru&#45;&gt;home</title>
<g id="a_edge2"><a xlink:href="docs/safe.goHome.html" xlink:title="goHome, self (safe)" target="_parent">
<path fill="none" stroke="black" d="M116.53,-67.09C127.71,-75.91 135.31,-86.92 129.21,-99 127.26,-102.84 124.74,-106.4 121.86,-109.67"/>
<polygon fill="black" stroke="black" points="119.28,-107.3 114.57,-116.78 124.17,-112.31 119.28,-107.3"/>
</a>
</g>
<g id="a_edge2&#45;label"><a xlink:href="docs/safe.goHome.html" xlink:title="goHome, self (safe)" target="_parent">
<text text-anchor="middle" x="195.21" y="-88.6" font-family="Times,serif" font-size="13.00">goHome, self (safe)</text>
</a>
</g>
</g>
</g>
</svg>
