<?xml version="1.0" encoding="UTF-8" standalone="no"?>
<!DOCTYPE svg PUBLIC "-//W3C//DTD SVG 1.1//EN"
 "http://www.w3.org/Graphics/SVG/1.1/DTD/svg11.dtd">
<!-- Generated by graphviz version 2.43.0 (0)
 -->
<!-- Title: application_state_diagram Pages: 1 -->
<svg width="267pt" height="165pt"
 viewBox="0.00 0.00 267.24 165.00" xmlns="http://www.w3.org/2000/svg" xmlns:xlink="http://www.w3.org/1999/xlink">
<g id="graph0" class="graph" transform="scale(1 1) rotate(0) translate(4 161)">
<title>application_state_diagram</title>
<g id="a_graph0"><a xlink:href="index.html" xlink:title="Most Recently Used (MRU) Profile" target="_parent">
<polygon fill="white" stroke="transparent" points="-4,4 -4,-161 263.24,-161 263.24,4 -4,4"/>
<text text-anchor="middle" x="129.62" y="-141.8" font-family="Helvetica,sans-Serif" font-size="14.00">Most Recently Used (MRU) Profile</text>
</a>
</g>
<!-- home -->
<g id="node1" class="node">
<title>home</title>
<g id="a_node1"><a xlink:href="docs/semantic.home.html" xlink:title="&lt;TABLE&gt;" target="_parent">
<polygon fill="lightgray" stroke="black" stroke-width="2" points="115.74,-134 36.74,-134 36.74,-92 115.74,-92 115.74,-134"/>
<text text-anchor="start" x="56.74" y="-116.8" font-family="Times,serif" font-size="14.00">home</text>
<text text-anchor="start" x="43.24" y="-101.8" font-family="Times,serif" font-size="14.00">(mrulink)</text>
</a>
</g>
</g>
<!-- mru -->
<g id="node2" class="node">
<title>mru</title>
<g id="a_node2"><a xlink:href="docs/semantic.mru.html" xlink:title="&lt;TABLE&gt;" target="_parent">
<polygon fill="lightgray" stroke="black" stroke-width="2" points="115.74,-42 36.74,-42 36.74,0 115.74,0 115.74,-42"/>
<text text-anchor="start" x="61.74" y="-24.8" font-family="Times,serif" font-size="14.00">mru</text>
<text text-anchor="start" x="43.24" y="-9.8" font-family="Times,serif" font-size="14.00">(mrulink)</text>
</a>
</g>
</g>
<!-- home&#45;&gt;mru -->
<g id="edge1" class="edge">
<title>home&#45;&gt;mru</title>
<g id="a_edge1"><a xlink:href="docs/safe.goMRU.html" xlink:title="goMRU, mru (safe)" target="_parent">
<path fill="none" stroke="black" d="M36.6,-100.65C23.67,-94.85 10.73,-86.34 3.24,-74 -6.26,-58.34 8.41,-46.08 27.04,-37.42"/>
<polygon fill="black" stroke="black" points="28.57,-40.57 36.41,-33.45 25.84,-34.12 28.57,-40.57"/>
</a>
</g>
<g id="a_edge1&#45;label"><a xlink:href="docs/safe.goMRU.html" xlink:title="goMRU, mru (safe)" target="_parent">
<text text-anchor="middle" x="66.24" y="-63.6" font-family="Times,serif" font-size="13.00">goMRU, mru (safe)</text>
</a>
</g>
</g>
<!-- mru&#45;&gt;home -->
<g id="edge2" class="edge">
<title>mru&#45;&gt;home</title>
<g id="a_edge2"><a xlink:href="docs/safe.goHome.html" xlink:title="goHome, self (safe)" target="_parent">
<path fill="none" stroke="black" d="M115.93,-42.12C127.47,-50.84 135.48,-61.84 129.24,-74 127.18,-78.02 124.47,-81.71 121.37,-85.07"/>
<polygon fill="black" stroke="black" points="118.96,-82.53 114.05,-91.92 123.75,-87.64 118.96,-82.53"/>
</a>
</g>
<g id="a_edge2&#45;label"><a xlink:href="docs/safe.goHome.html" xlink:title="goHome, self (safe)" target="_parent">
<text text-anchor="middle" x="195.24" y="-63.6" font-family="Times,serif" font-size="13.00">goHome, self (safe)</text>
</a>
</g>
</g>
</g>
</svg>
