<?xml version="1.0" encoding="UTF-8" standalone="no"?>
<!DOCTYPE svg PUBLIC "-//W3C//DTD SVG 1.1//EN"
 "http://www.w3.org/Graphics/SVG/1.1/DTD/svg11.dtd">
<!-- Generated by graphviz version 2.43.0 (0)
 -->
<!-- Title: application_state_diagram Pages: 1 -->
<svg width="998pt" height="603pt"
 viewBox="0.00 0.00 998.18 603.00" xmlns="http://www.w3.org/2000/svg" xmlns:xlink="http://www.w3.org/1999/xlink">
<g id="graph0" class="graph" transform="scale(1 1) rotate(0) translate(4 599)">
<title>application_state_diagram</title>
<g id="a_graph0"><a xlink:href="index.html" xlink:title="RESTful Job Control" target="_parent">
<polygon fill="white" stroke="transparent" points="-4,4 -4,-599 994.18,-599 994.18,4 -4,4"/>
<text text-anchor="middle" x="495.09" y="-579.8" font-family="Helvetica,sans-Serif" font-size="14.00">RESTful Job Control</text>
</a>
</g>
<!-- jobCancelled -->
<g id="node1" class="node">
<title>jobCancelled</title>
<g id="a_node1"><a xlink:href="docs/semantic.jobCancelled.html" xlink:title="&lt;TABLE&gt;" target="_parent">
<polygon fill="lightgray" stroke="black" stroke-width="2" points="589.18,-572 485.18,-572 485.18,-530 589.18,-530 589.18,-572"/>
<text text-anchor="start" x="491.18" y="-554.8" font-family="Times,serif" font-size="14.00">jobCancelled</text>
<text text-anchor="start" x="495.68" y="-539.8" font-family="Times,serif" font-size="14.00">(jobRecord)</text>
</a>
</g>
</g>
<!-- home -->
<g id="node6" class="node">
<title>home</title>
<g id="a_node6"><a xlink:href="docs/semantic.home.html" xlink:title="home" target="_parent">
<polygon fill="lightgray" stroke="black" stroke-width="2" points="403.18,-480 347.18,-480 347.18,-444 403.18,-444 403.18,-480"/>
<text text-anchor="middle" x="375.18" y="-458.3" font-family="Times,serif" font-size="14.00">home</text>
</a>
</g>
</g>
<!-- jobCancelled&#45;&gt;home -->
<g id="edge2" class="edge">
<title>jobCancelled&#45;&gt;home</title>
<g id="a_edge2"><a xlink:href="docs/safe.goHome.html" xlink:title="goHome, home (safe)" target="_parent">
<path fill="none" stroke="black" d="M499.6,-529.82C473.26,-515.68 438.23,-496.86 412.05,-482.8"/>
<polygon fill="black" stroke="black" points="413.65,-479.69 403.19,-478.04 410.34,-485.86 413.65,-479.69"/>
</a>
</g>
<g id="a_edge2&#45;label"><a xlink:href="docs/safe.goHome.html" xlink:title="goHome, home (safe)" target="_parent">
<text text-anchor="start" x="465.18" y="-501.6" font-family="Times,serif" font-size="13.00">goHome, home (safe)</text>
</a>
</g>
</g>
<!-- jobFailed -->
<g id="node2" class="node">
<title>jobFailed</title>
<g id="a_node2"><a xlink:href="docs/semantic.jobFailed.html" xlink:title="&lt;TABLE&gt;" target="_parent">
<polygon fill="lightgray" stroke="black" stroke-width="2" points="538.68,-42 443.68,-42 443.68,0 538.68,0 538.68,-42"/>
<text text-anchor="start" x="458.68" y="-24.8" font-family="Times,serif" font-size="14.00">jobFailed</text>
<text text-anchor="start" x="450.18" y="-9.8" font-family="Times,serif" font-size="14.00">(jobRecord)</text>
</a>
</g>
</g>
<!-- jobFailed&#45;&gt;home -->
<g id="edge3" class="edge">
<title>jobFailed&#45;&gt;home</title>
<g id="a_edge3"><a xlink:href="docs/safe.goHome.html" xlink:title="goHome, home (safe)" target="_parent">
<path fill="none" stroke="black" d="M538.71,-24.77C563.39,-28.91 591.57,-38.46 607.18,-60 694.57,-180.59 678.17,-281.85 580.18,-394 537.8,-442.5 459.83,-456.07 413.23,-459.76"/>
<polygon fill="black" stroke="black" points="412.96,-456.27 403.22,-460.43 413.43,-463.25 412.96,-456.27"/>
</a>
</g>
<g id="a_edge3&#45;label"><a xlink:href="docs/safe.goHome.html" xlink:title="goHome, home (safe)" target="_parent">
<text text-anchor="start" x="646.18" y="-309.6" font-family="Times,serif" font-size="13.00">goHome, home (safe)</text>
</a>
</g>
</g>
<!-- jobItem -->
<g id="node3" class="node">
<title>jobItem</title>
<g id="a_node3"><a xlink:href="docs/semantic.jobItem.html" xlink:title="&lt;TABLE&gt;" target="_parent">
<polygon fill="lightgray" stroke="black" stroke-width="2" points="373.68,-204 278.68,-204 278.68,-162 373.68,-162 373.68,-204"/>
<text text-anchor="start" x="299.18" y="-186.8" font-family="Times,serif" font-size="14.00">jobItem</text>
<text text-anchor="start" x="285.18" y="-171.8" font-family="Times,serif" font-size="14.00">(jobRecord)</text>
</a>
</g>
</g>
<!-- jobItem&#45;&gt;jobCancelled -->
<g id="edge5" class="edge">
<title>jobItem&#45;&gt;jobCancelled</title>
<g id="a_edge5"><a xlink:href="docs/idempotent.doJobCancel.html" xlink:title="doJobCancel, job cancel (idempotent)" target="_parent">
<path fill="none" stroke="black" d="M373.9,-188.55C476.83,-199.45 714.3,-230.82 762.18,-292 831.79,-380.96 673.99,-480.05 588.11,-525.18"/>
<polygon fill="black" stroke="black" points="586.28,-522.19 579.02,-529.9 589.51,-528.4 586.28,-522.19"/>
</a>
</g>
<g id="a_edge5&#45;label"><a xlink:href="docs/idempotent.doJobCancel.html" xlink:title="doJobCancel, job cancel (idempotent)" target="_parent">
<text text-anchor="start" x="743.18" y="-415.6" font-family="Times,serif" font-size="13.00">doJobCancel, job cancel (idempotent)</text>
</a>
</g>
</g>
<!-- jobItem&#45;&gt;jobFailed -->
<g id="edge6" class="edge">
<title>jobItem&#45;&gt;jobFailed</title>
<g id="a_edge6"><a xlink:href="docs/idempotent.doJobFailed.html" xlink:title="doJobFailed, jobs failed (idempotent)" target="_parent">
<path fill="none" stroke="black" d="M326.66,-161.75C328.42,-134.83 335.55,-87.46 363.18,-60 381.81,-41.47 409.05,-31.9 433.61,-26.99"/>
<polygon fill="black" stroke="black" points="434.35,-30.41 443.58,-25.21 433.12,-23.52 434.35,-30.41"/>
</a>
</g>
<g id="a_edge6&#45;label"><a xlink:href="docs/idempotent.doJobFailed.html" xlink:title="doJobFailed, jobs failed (idempotent)" target="_parent">
<text text-anchor="start" x="363.18" y="-63.6" font-family="Times,serif" font-size="13.00">doJobFailed, jobs failed (idempotent)</text>
</a>
</g>
</g>
<!-- jobItem&#45;&gt;jobItem -->
<g id="edge7" class="edge">
<title>jobItem&#45;&gt;jobItem</title>
<path fill="none" stroke="black" d="M359.54,-204.05C376.48,-207.12 391.68,-200.11 391.68,-183 391.68,-169.37 382.03,-162.15 369.54,-161.33"/>
<polygon fill="black" stroke="black" points="369.3,-157.84 359.54,-161.95 369.74,-164.82 369.3,-157.84"/>
<g id="a_edge7_0"><a xlink:href="docs/idempotent.doJobContinue.html" xlink:title="&lt;TABLE&gt;">
<text text-anchor="start" x="396.18" y="-259.6" font-family="Times,serif" font-size="13.00">doJobContinue (idempotent)</text>
</a>
</g>
<g id="a_edge7_1"><a xlink:href="docs/idempotent.doJobRemove.html" xlink:title="&lt;TABLE&gt;">
<text text-anchor="start" x="396.18" y="-239.6" font-family="Times,serif" font-size="13.00">doJobRemove (idempotent)</text>
</a>
</g>
<g id="a_edge7_2"><a xlink:href="docs/idempotent.doJobRestart.html" xlink:title="&lt;TABLE&gt;">
<text text-anchor="start" x="396.18" y="-219.6" font-family="Times,serif" font-size="13.00">doJobRestart (idempotent)</text>
</a>
</g>
<g id="a_edge7_3"><a xlink:href="docs/idempotent.doJobUpdate.html" xlink:title="&lt;TABLE&gt;">
<text text-anchor="start" x="396.18" y="-199.6" font-family="Times,serif" font-size="13.00">doJobUpdate (idempotent)</text>
</a>
</g>
<g id="a_edge7_4"><a xlink:href="docs/idempotent.doTaskCancel.html" xlink:title="&lt;TABLE&gt;">
<text text-anchor="start" x="396.18" y="-179.6" font-family="Times,serif" font-size="13.00">doTaskCancel (idempotent)</text>
</a>
</g>
<g id="a_edge7_5"><a xlink:href="docs/idempotent.doTaskRerun.html" xlink:title="&lt;TABLE&gt;">
<text text-anchor="start" x="396.18" y="-159.6" font-family="Times,serif" font-size="13.00">doTaskRerun (idempotent)</text>
</a>
</g>
<g id="a_edge7_6"><a xlink:href="docs/idempotent.doTaskRollback.html" xlink:title="&lt;TABLE&gt;">
<text text-anchor="start" x="396.18" y="-139.6" font-family="Times,serif" font-size="13.00">doTaskRollback (idempotent)</text>
</a>
</g>
<g id="a_edge7_7"><a xlink:href="docs/idempotent.doTaskStart.html" xlink:title="&lt;TABLE&gt;">
<text text-anchor="start" x="396.18" y="-119.6" font-family="Times,serif" font-size="13.00">doTaskStart (idempotent)</text>
</a>
</g>
<g id="a_edge7_8"><a xlink:href="docs/idempotent.doTaskUpdate.html" xlink:title="&lt;TABLE&gt;">
<text text-anchor="start" x="396.18" y="-99.6" font-family="Times,serif" font-size="13.00">doTaskUpdate (idempotent)</text>
</a>
</g>
</g>
<!-- jobSuccess -->
<g id="node5" class="node">
<title>jobSuccess</title>
<g id="a_node5"><a xlink:href="docs/semantic.jobSuccess.html" xlink:title="&lt;TABLE&gt;" target="_parent">
<polygon fill="lightgray" stroke="black" stroke-width="2" points="98.68,-42 3.68,-42 3.68,0 98.68,0 98.68,-42"/>
<text text-anchor="start" x="12.18" y="-24.8" font-family="Times,serif" font-size="14.00">jobSuccess</text>
<text text-anchor="start" x="10.18" y="-9.8" font-family="Times,serif" font-size="14.00">(jobRecord)</text>
</a>
</g>
</g>
<!-- jobItem&#45;&gt;jobSuccess -->
<g id="edge8" class="edge">
<title>jobItem&#45;&gt;jobSuccess</title>
<g id="a_edge8"><a xlink:href="docs/idempotent.doJobSuccess.html" xlink:title="doJobSuccess, jobs success (idempotent)" target="_parent">
<path fill="none" stroke="black" d="M278.51,-171.78C223.93,-157.93 134.65,-128.43 77.18,-74 70.59,-67.76 65.43,-59.5 61.5,-51.4"/>
<polygon fill="black" stroke="black" points="64.64,-49.86 57.44,-42.1 58.23,-52.66 64.64,-49.86"/>
</a>
</g>
<g id="a_edge8&#45;label"><a xlink:href="docs/idempotent.doJobSuccess.html" xlink:title="doJobSuccess, jobs success (idempotent)" target="_parent">
<text text-anchor="start" x="77.18" y="-63.6" font-family="Times,serif" font-size="13.00">doJobSuccess, jobs success (idempotent)</text>
</a>
</g>
</g>
<!-- jobItem&#45;&gt;home -->
<g id="edge4" class="edge">
<title>jobItem&#45;&gt;home</title>
<g id="a_edge4"><a xlink:href="docs/safe.goHome.html" xlink:title="goHome, home (safe)" target="_parent">
<path fill="none" stroke="black" d="M344.22,-204.2C362,-224.97 388.95,-258.88 406.18,-292 431.7,-341.07 433.29,-357 439.18,-412 439.84,-418.19 442.35,-420.65 439.18,-426 433.13,-436.19 422.95,-443.61 412.47,-448.92"/>
<polygon fill="black" stroke="black" points="410.96,-445.76 403.28,-453.06 413.83,-452.15 410.96,-445.76"/>
</a>
</g>
<g id="a_edge4&#45;label"><a xlink:href="docs/safe.goHome.html" xlink:title="goHome, home (safe)" target="_parent">
<text text-anchor="start" x="436.18" y="-369.6" font-family="Times,serif" font-size="13.00">goHome, home (safe)</text>
</a>
</g>
</g>
<!-- jobList -->
<g id="node4" class="node">
<title>jobList</title>
<g id="a_node4"><a xlink:href="docs/semantic.jobList.html" xlink:title="&lt;TABLE&gt;" target="_parent">
<polygon fill="lightgray" stroke="black" stroke-width="2" points="201.68,-394 106.68,-394 106.68,-352 201.68,-352 201.68,-394"/>
<text text-anchor="start" x="130.18" y="-376.8" font-family="Times,serif" font-size="14.00">jobList</text>
<text text-anchor="start" x="113.18" y="-361.8" font-family="Times,serif" font-size="14.00">(jobRecord)</text>
</a>
</g>
</g>
<!-- jobList&#45;&gt;jobItem -->
<g id="edge10" class="edge">
<title>jobList&#45;&gt;jobItem</title>
<path fill="none" stroke="black" d="M172.58,-351.88C203.41,-318.19 265.53,-250.28 300.59,-211.96"/>
<polygon fill="black" stroke="black" points="303.47,-214 307.64,-204.26 298.31,-209.27 303.47,-214"/>
<g id="a_edge10_9"><a xlink:href="docs/idempotent.doJobCreate.html" xlink:title="&lt;TABLE&gt;">
<text text-anchor="start" x="228.18" y="-319.6" font-family="Times,serif" font-size="13.00">doJobCreate (idempotent)</text>
</a>
</g>
<g id="a_edge10_10"><a xlink:href="docs/safe.goJobItem.html" xlink:title="&lt;TABLE&gt;">
<text text-anchor="start" x="228.18" y="-299.6" font-family="Times,serif" font-size="13.00">goJobItem (safe)</text>
</a>
</g>
</g>
<!-- jobList&#45;&gt;jobList -->
<g id="edge11" class="edge">
<title>jobList&#45;&gt;jobList</title>
<g id="a_edge11"><a xlink:href="docs/safe.goJobFilter.html" xlink:title="goJobFilter, jobs search (safe)" target="_parent">
<path fill="none" stroke="black" d="M201.87,-381.37C212.19,-380.55 219.68,-377.76 219.68,-373 219.68,-370.02 216.75,-367.82 212.04,-366.38"/>
<polygon fill="black" stroke="black" points="212.32,-362.88 201.87,-364.63 211.13,-369.78 212.32,-362.88"/>
</a>
</g>
<g id="a_edge11&#45;label"><a xlink:href="docs/safe.goJobFilter.html" xlink:title="goJobFilter, jobs search (safe)" target="_parent">
<text text-anchor="start" x="219.68" y="-369.6" font-family="Times,serif" font-size="13.00">goJobFilter, jobs search (safe)</text>
</a>
</g>
</g>
<!-- jobList&#45;&gt;home -->
<g id="edge9" class="edge">
<title>jobList&#45;&gt;home</title>
<g id="a_edge9"><a xlink:href="docs/safe.goHome.html" xlink:title="goHome, home (safe)" target="_parent">
<path fill="none" stroke="black" d="M201.81,-385.91C224.77,-392.38 252.42,-401.27 276.18,-412 287.08,-416.93 288.61,-420.38 299.18,-426 311.54,-432.58 325.37,-439.17 337.81,-444.83"/>
<polygon fill="black" stroke="black" points="336.45,-448.05 347.01,-448.96 339.32,-441.67 336.45,-448.05"/>
</a>
</g>
<g id="a_edge9&#45;label"><a xlink:href="docs/safe.goHome.html" xlink:title="goHome, home (safe)" target="_parent">
<text text-anchor="start" x="299.18" y="-415.6" font-family="Times,serif" font-size="13.00">goHome, home (safe)</text>
</a>
</g>
</g>
<!-- jobSuccess&#45;&gt;home -->
<g id="edge12" class="edge">
<title>jobSuccess&#45;&gt;home</title>
<g id="a_edge12"><a xlink:href="docs/safe.goHome.html" xlink:title="goHome, home (safe)" target="_parent">
<path fill="none" stroke="black" d="M43.3,-42.14C18.85,-108.38 -47.8,-321.18 60.18,-426 79.71,-444.96 257.23,-455.52 336.84,-459.34"/>
<polygon fill="black" stroke="black" points="336.8,-462.84 346.95,-459.81 337.13,-455.85 336.8,-462.84"/>
</a>
</g>
<g id="a_edge12&#45;label"><a xlink:href="docs/safe.goHome.html" xlink:title="goHome, home (safe)" target="_parent">
<text text-anchor="start" x="9.18" y="-309.6" font-family="Times,serif" font-size="13.00">goHome, home (safe)</text>
</a>
</g>
</g>
<!-- home&#45;&gt;jobList -->
<g id="edge1" class="edge">
<title>home&#45;&gt;jobList</title>
<g id="a_edge1"><a xlink:href="docs/safe.goJobList.html" xlink:title="goJobList, jobs collection (safe)" target="_parent">
<path fill="none" stroke="black" d="M346.99,-459.89C274.61,-456.74 86.59,-446.64 68.18,-426 53.92,-410.03 73.09,-397.42 96.92,-388.62"/>
<polygon fill="black" stroke="black" points="98.25,-391.86 106.59,-385.32 95.99,-385.24 98.25,-391.86"/>
</a>
</g>
<g id="a_edge1&#45;label"><a xlink:href="docs/safe.goJobList.html" xlink:title="goJobList, jobs collection (safe)" target="_parent">
<text text-anchor="start" x="68.18" y="-415.6" font-family="Times,serif" font-size="13.00">goJobList, jobs collection (safe)</text>
</a>
</g>
</g>
</g>
</svg>
