<?xml version="1.0" encoding="UTF-8" standalone="no"?>
<!DOCTYPE svg PUBLIC "-//W3C//DTD SVG 1.1//EN"
 "http://www.w3.org/Graphics/SVG/1.1/DTD/svg11.dtd">
<!-- Generated by graphviz version 2.43.0 (0)
 -->
<!-- Title: application_state_diagram Pages: 1 -->
<svg width="989pt" height="563pt"
 viewBox="0.00 0.00 988.50 563.00" xmlns="http://www.w3.org/2000/svg" xmlns:xlink="http://www.w3.org/1999/xlink">
<g id="graph0" class="graph" transform="scale(1 1) rotate(0) translate(4 559)">
<title>application_state_diagram</title>
<g id="a_graph0"><a xlink:href="index.html" xlink:title="RESTful Job Control" target="_parent">
<polygon fill="white" stroke="transparent" points="-4,4 -4,-559 984.5,-559 984.5,4 -4,4"/>
<text text-anchor="middle" x="490.25" y="-539.8" font-family="Helvetica,sans-Serif" font-size="14.00">RESTful Job Control</text>
</a>
</g>
<!-- jobCancelled -->
<g id="node1" class="node">
<title>jobCancelled</title>
<g id="a_node1"><a xlink:href="docs/semantic.jobCancelled.html" xlink:title="&lt;TABLE&gt;" target="_parent">
<polygon fill="lightgray" stroke="black" stroke-width="2" points="585.5,-532 481.5,-532 481.5,-490 585.5,-490 585.5,-532"/>
<text text-anchor="start" x="487.5" y="-514.8" font-family="Times,serif" font-size="14.00">jobCancelled</text>
<text text-anchor="start" x="492" y="-499.8" font-family="Times,serif" font-size="14.00">(jobRecord)</text>
</a>
</g>
</g>
<!-- home -->
<g id="node6" class="node">
<title>home</title>
<g id="a_node6"><a xlink:href="docs/semantic.home.html" xlink:title="home" target="_parent">
<polygon fill="lightgray" stroke="black" stroke-width="2" points="399.5,-440 343.5,-440 343.5,-404 399.5,-404 399.5,-440"/>
<text text-anchor="middle" x="371.5" y="-418.3" font-family="Times,serif" font-size="14.00">home</text>
</a>
</g>
</g>
<!-- jobCancelled&#45;&gt;home -->
<g id="edge2" class="edge">
<title>jobCancelled&#45;&gt;home</title>
<g id="a_edge2"><a xlink:href="docs/safe.goHome.html" xlink:title="goHome, home (safe)" target="_parent">
<path fill="none" stroke="black" d="M495.93,-489.82C469.59,-475.68 434.55,-456.86 408.37,-442.8"/>
<polygon fill="black" stroke="black" points="409.98,-439.69 399.51,-438.04 406.66,-445.86 409.98,-439.69"/>
</a>
</g>
<g id="a_edge2&#45;label"><a xlink:href="docs/safe.goHome.html" xlink:title="goHome, home (safe)" target="_parent">
<text text-anchor="start" x="461.5" y="-461.6" font-family="Times,serif" font-size="13.00">goHome, home (safe)</text>
</a>
</g>
</g>
<!-- jobFailed -->
<g id="node2" class="node">
<title>jobFailed</title>
<g id="a_node2"><a xlink:href="docs/semantic.jobFailed.html" xlink:title="&lt;TABLE&gt;" target="_parent">
<polygon fill="lightgray" stroke="black" stroke-width="2" points="535,-42 440,-42 440,0 535,0 535,-42"/>
<text text-anchor="start" x="455" y="-24.8" font-family="Times,serif" font-size="14.00">jobFailed</text>
<text text-anchor="start" x="446.5" y="-9.8" font-family="Times,serif" font-size="14.00">(jobRecord)</text>
</a>
</g>
</g>
<!-- jobFailed&#45;&gt;home -->
<g id="edge3" class="edge">
<title>jobFailed&#45;&gt;home</title>
<g id="a_edge3"><a xlink:href="docs/safe.goHome.html" xlink:title="goHome, home (safe)" target="_parent">
<path fill="none" stroke="black" d="M535.03,-24.77C559.71,-28.91 587.89,-38.46 603.5,-60 607.97,-66.17 613.22,-327.47 592.5,-354 549.06,-409.6 460.91,-420.42 410.05,-421.75"/>
<polygon fill="black" stroke="black" points="409.73,-418.25 399.79,-421.9 409.84,-425.25 409.73,-418.25"/>
</a>
</g>
<g id="a_edge3&#45;label"><a xlink:href="docs/safe.goHome.html" xlink:title="goHome, home (safe)" target="_parent">
<text text-anchor="start" x="605.5" y="-269.6" font-family="Times,serif" font-size="13.00">goHome, home (safe)</text>
</a>
</g>
</g>
<!-- jobItem -->
<g id="node3" class="node">
<title>jobItem</title>
<g id="a_node3"><a xlink:href="docs/semantic.jobItem.html" xlink:title="&lt;TABLE&gt;" target="_parent">
<polygon fill="lightgray" stroke="black" stroke-width="2" points="370,-184 275,-184 275,-142 370,-142 370,-184"/>
<text text-anchor="start" x="295.5" y="-166.8" font-family="Times,serif" font-size="14.00">jobItem</text>
<text text-anchor="start" x="281.5" y="-151.8" font-family="Times,serif" font-size="14.00">(jobRecord)</text>
</a>
</g>
</g>
<!-- jobItem&#45;&gt;jobCancelled -->
<g id="edge5" class="edge">
<title>jobItem&#45;&gt;jobCancelled</title>
<g id="a_edge5"><a xlink:href="docs/idempotent.doJobCancel.html" xlink:title="doJobCancel, job cancel (idempotent)" target="_parent">
<path fill="none" stroke="black" d="M370.27,-166.51C471.46,-172.93 702.04,-193.77 749.5,-252 823.32,-342.59 695.77,-397.78 605.5,-472 599.87,-476.63 593.59,-480.93 587.14,-484.86"/>
<polygon fill="black" stroke="black" points="585.21,-481.94 578.3,-489.97 588.71,-488 585.21,-481.94"/>
</a>
</g>
<g id="a_edge5&#45;label"><a xlink:href="docs/idempotent.doJobCancel.html" xlink:title="doJobCancel, job cancel (idempotent)" target="_parent">
<text text-anchor="start" x="733.5" y="-375.6" font-family="Times,serif" font-size="13.00">doJobCancel, job cancel (idempotent)</text>
</a>
</g>
</g>
<!-- jobItem&#45;&gt;jobFailed -->
<g id="edge6" class="edge">
<title>jobItem&#45;&gt;jobFailed</title>
<g id="a_edge6"><a xlink:href="docs/idempotent.doJobFailed.html" xlink:title="doJobFailed, jobs failed (idempotent)" target="_parent">
<path fill="none" stroke="black" d="M324.45,-141.82C327.73,-118.85 336.47,-81.7 359.5,-60 378.48,-42.12 405.5,-32.61 429.82,-27.58"/>
<polygon fill="black" stroke="black" points="430.51,-31.01 439.7,-25.74 429.22,-24.13 430.51,-31.01"/>
</a>
</g>
<g id="a_edge6&#45;label"><a xlink:href="docs/idempotent.doJobFailed.html" xlink:title="doJobFailed, jobs failed (idempotent)" target="_parent">
<text text-anchor="start" x="359.5" y="-63.6" font-family="Times,serif" font-size="13.00">doJobFailed, jobs failed (idempotent)</text>
</a>
</g>
</g>
<!-- jobItem&#45;&gt;jobItem -->
<g id="edge7" class="edge">
<title>jobItem&#45;&gt;jobItem</title>
<path fill="none" stroke="black" d="M370.19,-180.47C380.51,-178.76 388,-172.94 388,-163 388,-156.63 384.93,-151.96 380.01,-148.97"/>
<polygon fill="black" stroke="black" points="380.79,-145.53 370.19,-145.53 378.47,-152.14 380.79,-145.53"/>
<g id="a_edge7_0"><a xlink:href="docs/idempotent.doJobRemove.html" xlink:title="&lt;TABLE&gt;">
<text text-anchor="start" x="392.5" y="-219.6" font-family="Times,serif" font-size="13.00">doJobRemove (idempotent)</text>
</a>
</g>
<g id="a_edge7_1"><a xlink:href="docs/idempotent.doJobUpdate.html" xlink:title="&lt;TABLE&gt;">
<text text-anchor="start" x="392.5" y="-199.6" font-family="Times,serif" font-size="13.00">doJobUpdate (idempotent)</text>
</a>
</g>
<g id="a_edge7_2"><a xlink:href="docs/idempotent.doTaskCancel.html" xlink:title="&lt;TABLE&gt;">
<text text-anchor="start" x="392.5" y="-179.6" font-family="Times,serif" font-size="13.00">doTaskCancel (idempotent)</text>
</a>
</g>
<g id="a_edge7_3"><a xlink:href="docs/idempotent.doTaskRerun.html" xlink:title="&lt;TABLE&gt;">
<text text-anchor="start" x="392.5" y="-159.6" font-family="Times,serif" font-size="13.00">doTaskRerun (idempotent)</text>
</a>
</g>
<g id="a_edge7_4"><a xlink:href="docs/idempotent.doTaskRollback.html" xlink:title="&lt;TABLE&gt;">
<text text-anchor="start" x="392.5" y="-139.6" font-family="Times,serif" font-size="13.00">doTaskRollback (idempotent)</text>
</a>
</g>
<g id="a_edge7_5"><a xlink:href="docs/idempotent.doTaskStart.html" xlink:title="&lt;TABLE&gt;">
<text text-anchor="start" x="392.5" y="-119.6" font-family="Times,serif" font-size="13.00">doTaskStart (idempotent)</text>
</a>
</g>
<g id="a_edge7_6"><a xlink:href="docs/idempotent.doTaskUpdate.html" xlink:title="&lt;TABLE&gt;">
<text text-anchor="start" x="392.5" y="-99.6" font-family="Times,serif" font-size="13.00">doTaskUpdate (idempotent)</text>
</a>
</g>
</g>
<!-- jobSuccess -->
<g id="node5" class="node">
<title>jobSuccess</title>
<g id="a_node5"><a xlink:href="docs/semantic.jobSuccess.html" xlink:title="&lt;TABLE&gt;" target="_parent">
<polygon fill="lightgray" stroke="black" stroke-width="2" points="95,-42 0,-42 0,0 95,0 95,-42"/>
<text text-anchor="start" x="8.5" y="-24.8" font-family="Times,serif" font-size="14.00">jobSuccess</text>
<text text-anchor="start" x="6.5" y="-9.8" font-family="Times,serif" font-size="14.00">(jobRecord)</text>
</a>
</g>
</g>
<!-- jobItem&#45;&gt;jobSuccess -->
<g id="edge8" class="edge">
<title>jobItem&#45;&gt;jobSuccess</title>
<g id="a_edge8"><a xlink:href="docs/idempotent.doJobSuccess.html" xlink:title="doJobSuccess, jobs success (idempotent)" target="_parent">
<path fill="none" stroke="black" d="M274.6,-156.24C219.75,-147.36 130.08,-125.58 72.5,-74 65.74,-67.95 60.64,-59.67 56.86,-51.5"/>
<polygon fill="black" stroke="black" points="60.04,-50.03 53.02,-42.09 53.56,-52.67 60.04,-50.03"/>
</a>
</g>
<g id="a_edge8&#45;label"><a xlink:href="docs/idempotent.doJobSuccess.html" xlink:title="doJobSuccess, jobs success (idempotent)" target="_parent">
<text text-anchor="start" x="72.5" y="-63.6" font-family="Times,serif" font-size="13.00">doJobSuccess, jobs success (idempotent)</text>
</a>
</g>
</g>
<!-- jobItem&#45;&gt;home -->
<g id="edge4" class="edge">
<title>jobItem&#45;&gt;home</title>
<g id="a_edge4"><a xlink:href="docs/safe.goHome.html" xlink:title="goHome, home (safe)" target="_parent">
<path fill="none" stroke="black" d="M350.98,-184.21C371.36,-200.24 397.71,-224.47 412.5,-252 471.27,-361.39 444.06,-371.57 435.5,-386 429.46,-396.19 419.28,-403.61 408.8,-408.92"/>
<polygon fill="black" stroke="black" points="407.28,-405.76 399.6,-413.06 410.16,-412.15 407.28,-405.76"/>
</a>
</g>
<g id="a_edge4&#45;label"><a xlink:href="docs/safe.goHome.html" xlink:title="goHome, home (safe)" target="_parent">
<text text-anchor="start" x="448.5" y="-329.6" font-family="Times,serif" font-size="13.00">goHome, home (safe)</text>
</a>
</g>
</g>
<!-- jobList -->
<g id="node4" class="node">
<title>jobList</title>
<g id="a_node4"><a xlink:href="docs/semantic.jobList.html" xlink:title="&lt;TABLE&gt;" target="_parent">
<polygon fill="lightgray" stroke="black" stroke-width="2" points="198,-354 103,-354 103,-312 198,-312 198,-354"/>
<text text-anchor="start" x="126.5" y="-336.8" font-family="Times,serif" font-size="14.00">jobList</text>
<text text-anchor="start" x="109.5" y="-321.8" font-family="Times,serif" font-size="14.00">(jobRecord)</text>
</a>
</g>
</g>
<!-- jobList&#45;&gt;jobItem -->
<g id="edge10" class="edge">
<title>jobList&#45;&gt;jobItem</title>
<path fill="none" stroke="black" d="M171.25,-311.74C202.06,-281.63 260,-225.04 294.54,-191.31"/>
<polygon fill="black" stroke="black" points="297.24,-193.57 301.95,-184.08 292.35,-188.56 297.24,-193.57"/>
<g id="a_edge10_7"><a xlink:href="docs/idempotent.doJobCreate.html" xlink:title="&lt;TABLE&gt;">
<text text-anchor="start" x="234.5" y="-279.6" font-family="Times,serif" font-size="13.00">doJobCreate (idempotent)</text>
</a>
</g>
<g id="a_edge10_8"><a xlink:href="docs/safe.goJobItem.html" xlink:title="&lt;TABLE&gt;">
<text text-anchor="start" x="234.5" y="-259.6" font-family="Times,serif" font-size="13.00">goJobItem (safe)</text>
</a>
</g>
</g>
<!-- jobList&#45;&gt;jobList -->
<g id="edge11" class="edge">
<title>jobList&#45;&gt;jobList</title>
<g id="a_edge11"><a xlink:href="docs/safe.goJobFilter.html" xlink:title="goJobFilter, jobs search (safe)" target="_parent">
<path fill="none" stroke="black" d="M198.19,-341.37C208.51,-340.55 216,-337.76 216,-333 216,-330.02 213.08,-327.82 208.36,-326.38"/>
<polygon fill="black" stroke="black" points="208.64,-322.88 198.19,-324.63 207.45,-329.78 208.64,-322.88"/>
</a>
</g>
<g id="a_edge11&#45;label"><a xlink:href="docs/safe.goJobFilter.html" xlink:title="goJobFilter, jobs search (safe)" target="_parent">
<text text-anchor="start" x="216" y="-329.6" font-family="Times,serif" font-size="13.00">goJobFilter, jobs search (safe)</text>
</a>
</g>
</g>
<!-- jobList&#45;&gt;home -->
<g id="edge9" class="edge">
<title>jobList&#45;&gt;home</title>
<g id="a_edge9"><a xlink:href="docs/safe.goHome.html" xlink:title="goHome, home (safe)" target="_parent">
<path fill="none" stroke="black" d="M198.13,-345.91C221.1,-352.38 248.75,-361.27 272.5,-372 283.41,-376.93 284.94,-380.38 295.5,-386 307.86,-392.58 321.7,-399.17 334.14,-404.83"/>
<polygon fill="black" stroke="black" points="332.77,-408.05 343.33,-408.96 335.64,-401.67 332.77,-408.05"/>
</a>
</g>
<g id="a_edge9&#45;label"><a xlink:href="docs/safe.goHome.html" xlink:title="goHome, home (safe)" target="_parent">
<text text-anchor="start" x="295.5" y="-375.6" font-family="Times,serif" font-size="13.00">goHome, home (safe)</text>
</a>
</g>
</g>
<!-- jobSuccess&#45;&gt;home -->
<g id="edge12" class="edge">
<title>jobSuccess&#45;&gt;home</title>
<g id="a_edge12"><a xlink:href="docs/safe.goHome.html" xlink:title="goHome, home (safe)" target="_parent">
<path fill="none" stroke="black" d="M39.86,-42.11C17.97,-103.58 -37.64,-290.62 56.5,-386 75.64,-405.4 253.79,-415.73 333.39,-419.42"/>
<polygon fill="black" stroke="black" points="333.35,-422.92 343.49,-419.87 333.66,-415.92 333.35,-422.92"/>
</a>
</g>
<g id="a_edge12&#45;label"><a xlink:href="docs/safe.goHome.html" xlink:title="goHome, home (safe)" target="_parent">
<text text-anchor="start" x="9.5" y="-269.6" font-family="Times,serif" font-size="13.00">goHome, home (safe)</text>
</a>
</g>
</g>
<!-- home&#45;&gt;jobList -->
<g id="edge1" class="edge">
<title>home&#45;&gt;jobList</title>
<g id="a_edge1"><a xlink:href="docs/safe.goJobList.html" xlink:title="goJobList, jobs collection (safe)" target="_parent">
<path fill="none" stroke="black" d="M343.31,-419.89C270.93,-416.74 82.92,-406.64 64.5,-386 50.24,-370.03 69.41,-357.42 93.24,-348.62"/>
<polygon fill="black" stroke="black" points="94.58,-351.86 102.91,-345.32 92.32,-345.24 94.58,-351.86"/>
</a>
</g>
<g id="a_edge1&#45;label"><a xlink:href="docs/safe.goJobList.html" xlink:title="goJobList, jobs collection (safe)" target="_parent">
<text text-anchor="start" x="64.5" y="-375.6" font-family="Times,serif" font-size="13.00">goJobList, jobs collection (safe)</text>
</a>
</g>
</g>
</g>
</svg>
