<?xml version="1.0" encoding="UTF-8" standalone="no"?>
<!DOCTYPE svg PUBLIC "-//W3C//DTD SVG 1.1//EN"
 "http://www.w3.org/Graphics/SVG/1.1/DTD/svg11.dtd">
<!-- Generated by graphviz version 2.43.0 (0)
 -->
<!-- Title: application_state_diagram Pages: 1 -->
<svg width="943pt" height="245pt"
 viewBox="0.00 0.00 942.91 245.00" xmlns="http://www.w3.org/2000/svg" xmlns:xlink="http://www.w3.org/1999/xlink">
<g id="graph0" class="graph" transform="scale(1 1) rotate(0) translate(4 241)">
<title>application_state_diagram</title>
<g id="a_graph0"><a xlink:href="index.html" xlink:title="Delayed Response for Completing HTTP Requests" target="_parent">
<polygon fill="white" stroke="transparent" points="-4,4 -4,-241 938.91,-241 938.91,4 -4,4"/>
<text text-anchor="middle" x="467.46" y="-221.8" font-family="Helvetica,sans-Serif" font-size="14.00">Delayed Response for Completing HTTP Requests</text>
</a>
</g>
<!-- accepted -->
<g id="node1" class="node">
<title>accepted</title>
<g id="a_node1"><a xlink:href="docs/semantic.accepted.html" xlink:title="&lt;TABLE&gt;" target="_parent">
<polygon fill="lightgray" stroke="black" stroke-width="2" points="492.41,-214 355.41,-214 355.41,-172 492.41,-172 492.41,-214"/>
<text text-anchor="start" x="392.41" y="-196.8" font-family="Times,serif" font-size="14.00">accepted</text>
<text text-anchor="start" x="361.91" y="-181.8" font-family="Times,serif" font-size="14.00">(acceptedRecord)</text>
</a>
</g>
</g>
<!-- cancel -->
<g id="node2" class="node">
<title>cancel</title>
<g id="a_node2"><a xlink:href="docs/semantic.cancel.html" xlink:title="cancel" target="_parent">
<polygon fill="lightgray" stroke="black" stroke-width="2" points="64.91,-122 2.91,-122 2.91,-86 64.91,-86 64.91,-122"/>
<text text-anchor="middle" x="33.91" y="-100.3" font-family="Times,serif" font-size="14.00">cancel</text>
</a>
</g>
</g>
<!-- accepted&#45;&gt;cancel -->
<g id="edge1" class="edge">
<title>accepted&#45;&gt;cancel</title>
<g id="a_edge1"><a xlink:href="docs/idempotent.doCancel.html" xlink:title="doCancel, cancel (idempotent)" target="_parent">
<path fill="none" stroke="black" d="M355.21,-190.75C242.18,-187.97 27.09,-179.37 3.91,-154 -2.55,-146.93 0.06,-138.27 5.83,-130.21"/>
<polygon fill="black" stroke="black" points="8.64,-132.32 12.45,-122.43 3.31,-127.78 8.64,-132.32"/>
</a>
</g>
<g id="a_edge1&#45;label"><a xlink:href="docs/idempotent.doCancel.html" xlink:title="doCancel, cancel (idempotent)" target="_parent">
<text text-anchor="start" x="3.91" y="-143.6" font-family="Times,serif" font-size="13.00">doCancel, cancel (idempotent)</text>
</a>
</g>
</g>
<!-- completed -->
<g id="node3" class="node">
<title>completed</title>
<g id="a_node3"><a xlink:href="docs/semantic.completed.html" xlink:title="completed" target="_parent">
<polygon fill="lightgray" stroke="black" stroke-width="2" points="265.41,-122 174.41,-122 174.41,-86 265.41,-86 265.41,-122"/>
<text text-anchor="middle" x="219.91" y="-100.3" font-family="Times,serif" font-size="14.00">completed</text>
</a>
</g>
</g>
<!-- accepted&#45;&gt;completed -->
<g id="edge2" class="edge">
<title>accepted&#45;&gt;completed</title>
<g id="a_edge2"><a xlink:href="docs/safe.goCompleted.html" xlink:title="goCompleted, completed (safe)" target="_parent">
<path fill="none" stroke="black" d="M355.2,-188.77C301.34,-184.63 232.63,-175.24 214.91,-154 209.88,-147.97 209.1,-139.97 210.17,-132.18"/>
<polygon fill="black" stroke="black" points="213.62,-132.78 212.44,-122.25 206.8,-131.22 213.62,-132.78"/>
</a>
</g>
<g id="a_edge2&#45;label"><a xlink:href="docs/safe.goCompleted.html" xlink:title="goCompleted, completed (safe)" target="_parent">
<text text-anchor="start" x="214.91" y="-143.6" font-family="Times,serif" font-size="13.00">goCompleted, completed (safe)</text>
</a>
</g>
</g>
<!-- failed -->
<g id="node4" class="node">
<title>failed</title>
<g id="a_node4"><a xlink:href="docs/semantic.failed.html" xlink:title="failed" target="_parent">
<polygon fill="lightgray" stroke="black" stroke-width="2" points="451.91,-122 395.91,-122 395.91,-86 451.91,-86 451.91,-122"/>
<text text-anchor="middle" x="423.91" y="-100.3" font-family="Times,serif" font-size="14.00">failed</text>
</a>
</g>
</g>
<!-- accepted&#45;&gt;failed -->
<g id="edge3" class="edge">
<title>accepted&#45;&gt;failed</title>
<g id="a_edge3"><a xlink:href="docs/safe.goFailed.html" xlink:title="goFailed, failed (safe)" target="_parent">
<path fill="none" stroke="black" d="M423.91,-171.82C423.91,-160.06 423.91,-145.06 423.91,-132.26"/>
<polygon fill="black" stroke="black" points="427.41,-132.14 423.91,-122.14 420.41,-132.14 427.41,-132.14"/>
</a>
</g>
<g id="a_edge3&#45;label"><a xlink:href="docs/safe.goFailed.html" xlink:title="goFailed, failed (safe)" target="_parent">
<text text-anchor="start" x="423.91" y="-143.6" font-family="Times,serif" font-size="13.00">goFailed, failed (safe)</text>
</a>
</g>
</g>
<!-- home -->
<g id="node5" class="node">
<title>home</title>
<g id="a_node5"><a xlink:href="docs/semantic.home.html" xlink:title="home" target="_parent">
<polygon fill="lightgray" stroke="black" stroke-width="2" points="451.91,-36 395.91,-36 395.91,0 451.91,0 451.91,-36"/>
<text text-anchor="middle" x="423.91" y="-14.3" font-family="Times,serif" font-size="14.00">home</text>
</a>
</g>
</g>
<!-- accepted&#45;&gt;home -->
<g id="edge4" class="edge">
<title>accepted&#45;&gt;home</title>
<g id="a_edge4"><a xlink:href="docs/safe.goHome.html" xlink:title="goHome, home (safe)" target="_parent">
<path fill="none" stroke="black" d="M492.74,-182.15C525.28,-175.94 559.13,-166.67 568.91,-154 576.25,-144.48 612.33,-109.84 567.91,-54 554.92,-37.67 500.55,-27.98 462.48,-23.07"/>
<polygon fill="black" stroke="black" points="462.57,-19.56 452.22,-21.81 461.72,-26.51 462.57,-19.56"/>
</a>
</g>
<g id="a_edge4&#45;label"><a xlink:href="docs/safe.goHome.html" xlink:title="goHome, home (safe)" target="_parent">
<text text-anchor="start" x="589.91" y="-100.6" font-family="Times,serif" font-size="13.00">goHome, home (safe)</text>
</a>
</g>
</g>
<!-- cancel&#45;&gt;home -->
<g id="edge5" class="edge">
<title>cancel&#45;&gt;home</title>
<g id="a_edge5"><a xlink:href="docs/safe.goHome.html" xlink:title="goHome, home (safe)" target="_parent">
<path fill="none" stroke="black" d="M56.33,-85.79C71.9,-74.79 93.6,-61.26 114.91,-54 208.44,-22.13 326.16,-17.94 385.69,-18.14"/>
<polygon fill="black" stroke="black" points="385.73,-21.64 395.76,-18.22 385.79,-14.64 385.73,-21.64"/>
</a>
</g>
<g id="a_edge5&#45;label"><a xlink:href="docs/safe.goHome.html" xlink:title="goHome, home (safe)" target="_parent">
<text text-anchor="start" x="114.91" y="-57.6" font-family="Times,serif" font-size="13.00">goHome, home (safe)</text>
</a>
</g>
</g>
<!-- completed&#45;&gt;home -->
<g id="edge6" class="edge">
<title>completed&#45;&gt;home</title>
<g id="a_edge6"><a xlink:href="docs/safe.goHome.html" xlink:title="goHome, home (safe)" target="_parent">
<path fill="none" stroke="black" d="M236.56,-85.93C247.86,-75.27 263.65,-62.09 279.91,-54 313.6,-37.24 355.8,-28.21 385.78,-23.54"/>
<polygon fill="black" stroke="black" points="386.46,-26.98 395.85,-22.07 385.44,-20.05 386.46,-26.98"/>
</a>
</g>
<g id="a_edge6&#45;label"><a xlink:href="docs/safe.goHome.html" xlink:title="goHome, home (safe)" target="_parent">
<text text-anchor="start" x="279.91" y="-57.6" font-family="Times,serif" font-size="13.00">goHome, home (safe)</text>
</a>
</g>
</g>
<!-- failed&#45;&gt;home -->
<g id="edge7" class="edge">
<title>failed&#45;&gt;home</title>
<g id="a_edge7"><a xlink:href="docs/safe.goHome.html" xlink:title="goHome, home (safe)" target="_parent">
<path fill="none" stroke="black" d="M423.91,-85.6C423.91,-74.26 423.91,-59.23 423.91,-46.32"/>
<polygon fill="black" stroke="black" points="427.41,-46.1 423.91,-36.1 420.41,-46.1 427.41,-46.1"/>
</a>
</g>
<g id="a_edge7&#45;label"><a xlink:href="docs/safe.goHome.html" xlink:title="goHome, home (safe)" target="_parent">
<text text-anchor="start" x="423.91" y="-57.6" font-family="Times,serif" font-size="13.00">goHome, home (safe)</text>
</a>
</g>
</g>
<!-- home&#45;&gt;accepted -->
<g id="edge8" class="edge">
<title>home&#45;&gt;accepted</title>
<g id="a_edge8"><a xlink:href="docs/safe.goAccepted.html" xlink:title="goAccepted, accepted (safe)" target="_parent">
<path fill="none" stroke="black" d="M451.96,-20.7C521.45,-25.57 698.54,-42.11 733.91,-86 798.88,-166.64 614.64,-186.19 502.8,-190.76"/>
<polygon fill="black" stroke="black" points="502.41,-187.27 492.55,-191.15 502.67,-194.27 502.41,-187.27"/>
</a>
</g>
<g id="a_edge8&#45;label"><a xlink:href="docs/safe.goAccepted.html" xlink:title="goAccepted, accepted (safe)" target="_parent">
<text text-anchor="start" x="747.91" y="-100.6" font-family="Times,serif" font-size="13.00">goAccepted, accepted (safe)</text>
</a>
</g>
</g>
</g>
</svg>
