<?xml version="1.0" encoding="UTF-8" standalone="no"?>
<!DOCTYPE svg PUBLIC "-//W3C//DTD SVG 1.1//EN"
 "http://www.w3.org/Graphics/SVG/1.1/DTD/svg11.dtd">
<!-- Generated by graphviz version 2.43.0 (0)
 -->
<!-- Title: application_state_diagram Pages: 1 -->
<svg width="647pt" height="339pt"
 viewBox="0.00 0.00 647.47 339.00" xmlns="http://www.w3.org/2000/svg" xmlns:xlink="http://www.w3.org/1999/xlink">
<g id="graph0" class="graph" transform="scale(1 1) rotate(0) translate(4 335)">
<title>application_state_diagram</title>
<g id="a_graph0"><a xlink:href="index.html" xlink:title="Person Service API" target="_parent">
<polygon fill="white" stroke="transparent" points="-4,4 -4,-335 643.47,-335 643.47,4 -4,4"/>
<text text-anchor="middle" x="319.73" y="-315.8" font-family="Helvetica,sans-Serif" font-size="14.00">Person Service API</text>
</a>
</g>
<!-- collection -->
<g id="node1" class="node">
<title>collection</title>
<g id="a_node1"><a xlink:href="docs/semantic.collection.html" xlink:title="&lt;TABLE&gt;" target="_parent">
<polygon fill="lightgray" stroke="black" stroke-width="2" points="324.97,-298 243.97,-298 243.97,-256 324.97,-256 324.97,-298"/>
<text text-anchor="start" x="250.47" y="-280.8" font-family="Times,serif" font-size="14.00">collection</text>
<text text-anchor="start" x="254.97" y="-265.8" font-family="Times,serif" font-size="14.00">(person)</text>
</a>
</g>
</g>
<!-- collection&#45;&gt;collection -->
<g id="edge1" class="edge">
<title>collection&#45;&gt;collection</title>
<path fill="none" stroke="black" d="M325.2,-291.79C335.37,-290.76 342.97,-285.83 342.97,-277 342.97,-271.34 339.85,-267.29 334.93,-264.83"/>
<polygon fill="black" stroke="black" points="335.77,-261.43 325.2,-262.21 333.94,-268.19 335.77,-261.43"/>
<g id="a_edge1_0"><a xlink:href="docs/unsafe.doCreate.html" xlink:title="&lt;TABLE&gt;">
<text text-anchor="start" x="346.97" y="-293.6" font-family="Times,serif" font-size="13.00">doCreate (unsafe)</text>
</a>
</g>
<g id="a_edge1_1"><a xlink:href="docs/safe.goFilter.html" xlink:title="&lt;TABLE&gt;">
<text text-anchor="start" x="346.97" y="-273.6" font-family="Times,serif" font-size="13.00">goFilter (safe)</text>
</a>
</g>
<g id="a_edge1_2"><a xlink:href="docs/safe.goList.html" xlink:title="&lt;TABLE&gt;">
<text text-anchor="start" x="346.97" y="-253.6" font-family="Times,serif" font-size="13.00">goList (safe)</text>
</a>
</g>
</g>
<!-- item -->
<g id="node2" class="node">
<title>item</title>
<g id="a_node2"><a xlink:href="docs/semantic.item.html" xlink:title="&lt;TABLE&gt;" target="_parent">
<polygon fill="lightgray" stroke="black" stroke-width="2" points="158.47,-138 86.47,-138 86.47,-96 158.47,-96 158.47,-138"/>
<text text-anchor="start" x="105.97" y="-120.8" font-family="Times,serif" font-size="14.00">item</text>
<text text-anchor="start" x="92.47" y="-105.8" font-family="Times,serif" font-size="14.00">(person)</text>
</a>
</g>
</g>
<!-- collection&#45;&gt;item -->
<g id="edge3" class="edge">
<title>collection&#45;&gt;item</title>
<g id="a_edge3"><a xlink:href="docs/safe.goItem.html" xlink:title="goItem, item read (safe)" target="_parent">
<path fill="none" stroke="black" d="M243.77,-274.97C175.26,-272.28 41.51,-262.62 12.47,-228 -5.25,-206.89 -2.63,-189.05 12.47,-166 26.7,-144.26 53.16,-132.31 76.56,-125.77"/>
<polygon fill="black" stroke="black" points="77.53,-129.14 86.36,-123.29 75.81,-122.36 77.53,-129.14"/>
</a>
</g>
<g id="a_edge3&#45;label"><a xlink:href="docs/safe.goItem.html" xlink:title="goItem, item read (safe)" target="_parent">
<text text-anchor="start" x="12.47" y="-193.6" font-family="Times,serif" font-size="13.00">goItem, item read (safe)</text>
</a>
</g>
</g>
<!-- home -->
<g id="node3" class="node">
<title>home</title>
<g id="a_node3"><a xlink:href="docs/semantic.home.html" xlink:title="home" target="_parent">
<polygon fill="lightgray" stroke="black" stroke-width="2" points="402.47,-36 346.47,-36 346.47,0 402.47,0 402.47,-36"/>
<text text-anchor="middle" x="374.47" y="-14.3" font-family="Times,serif" font-size="14.00">home</text>
</a>
</g>
</g>
<!-- collection&#45;&gt;home -->
<g id="edge2" class="edge">
<title>collection&#45;&gt;home</title>
<g id="a_edge2"><a xlink:href="docs/safe.goHome.html" xlink:title="goHome, self (safe)" target="_parent">
<path fill="none" stroke="black" d="M325.04,-259.64C338.6,-252.07 352.32,-241.68 360.47,-228 394.53,-170.8 387.04,-88.53 380,-46.3"/>
<polygon fill="black" stroke="black" points="383.4,-45.45 378.2,-36.22 376.51,-46.68 383.4,-45.45"/>
</a>
</g>
<g id="a_edge2&#45;label"><a xlink:href="docs/safe.goHome.html" xlink:title="goHome, self (safe)" target="_parent">
<text text-anchor="start" x="385.47" y="-113.6" font-family="Times,serif" font-size="13.00">goHome, self (safe)</text>
</a>
</g>
</g>
<!-- item&#45;&gt;collection -->
<g id="edge6" class="edge">
<title>item&#45;&gt;collection</title>
<path fill="none" stroke="black" d="M147.67,-138.07C156.43,-146.03 165.73,-155.74 172.47,-166 188.58,-190.58 176.18,-205.82 195.47,-228 206.05,-240.17 220.5,-249.79 234.68,-257.12"/>
<polygon fill="black" stroke="black" points="233.39,-260.38 243.91,-261.61 236.45,-254.09 233.39,-260.38"/>
<g id="a_edge6_3"><a xlink:href="docs/idempotent.doRemove.html" xlink:title="&lt;TABLE&gt;">
<text text-anchor="start" x="199.97" y="-213.6" font-family="Times,serif" font-size="13.00">doRemove (idempotent)</text>
</a>
</g>
<g id="a_edge6_4"><a xlink:href="docs/safe.goFilter.html" xlink:title="&lt;TABLE&gt;">
<text text-anchor="start" x="199.97" y="-193.6" font-family="Times,serif" font-size="13.00">goFilter (safe)</text>
</a>
</g>
<g id="a_edge6_5"><a xlink:href="docs/safe.goList.html" xlink:title="&lt;TABLE&gt;">
<text text-anchor="start" x="199.97" y="-173.6" font-family="Times,serif" font-size="13.00">goList (safe)</text>
</a>
</g>
</g>
<!-- item&#45;&gt;item -->
<g id="edge8" class="edge">
<title>item&#45;&gt;item</title>
<path fill="none" stroke="black" d="M158.55,-127.45C168.69,-126.99 176.47,-123.51 176.47,-117 176.47,-112.93 173.43,-110.05 168.67,-108.34"/>
<polygon fill="black" stroke="black" points="169.01,-104.85 158.55,-106.55 167.79,-111.74 169.01,-104.85"/>
<g id="a_edge8_6"><a xlink:href="docs/idempotent.doStatus.html" xlink:title="&lt;TABLE&gt;">
<text text-anchor="start" x="180.47" y="-133.6" font-family="Times,serif" font-size="13.00">doStatus (idempotent)</text>
</a>
</g>
<g id="a_edge8_7"><a xlink:href="docs/idempotent.doUpdate.html" xlink:title="&lt;TABLE&gt;">
<text text-anchor="start" x="180.47" y="-113.6" font-family="Times,serif" font-size="13.00">doUpdate (idempotent)</text>
</a>
</g>
<g id="a_edge8_8"><a xlink:href="docs/safe.goItem.html" xlink:title="&lt;TABLE&gt;">
<text text-anchor="start" x="180.47" y="-93.6" font-family="Times,serif" font-size="13.00">goItem (safe)</text>
</a>
</g>
</g>
<!-- item&#45;&gt;home -->
<g id="edge7" class="edge">
<title>item&#45;&gt;home</title>
<g id="a_edge7"><a xlink:href="docs/safe.goHome.html" xlink:title="goHome, self (safe)" target="_parent">
<path fill="none" stroke="black" d="M153.11,-95.73C174.58,-82.3 204.34,-65.15 232.47,-54 266.42,-40.54 307.04,-31.16 336.13,-25.52"/>
<polygon fill="black" stroke="black" points="337.1,-28.9 346.28,-23.61 335.81,-22.02 337.1,-28.9"/>
</a>
</g>
<g id="a_edge7&#45;label"><a xlink:href="docs/safe.goHome.html" xlink:title="goHome, self (safe)" target="_parent">
<text text-anchor="start" x="232.47" y="-57.6" font-family="Times,serif" font-size="13.00">goHome, self (safe)</text>
</a>
</g>
</g>
<!-- home&#45;&gt;collection -->
<g id="edge4" class="edge">
<title>home&#45;&gt;collection</title>
<g id="a_edge4"><a xlink:href="docs/safe.goList.html" xlink:title="goList, list (safe)" target="_parent">
<path fill="none" stroke="black" d="M402.48,-23.17C436.21,-29.86 491.44,-46.52 516.47,-86 531.22,-109.27 529.99,-123.99 516.47,-148 478.66,-215.11 391.06,-249.19 334.97,-264.74"/>
<polygon fill="black" stroke="black" points="333.98,-261.38 325.23,-267.34 335.79,-268.14 333.98,-261.38"/>
</a>
</g>
<g id="a_edge4&#45;label"><a xlink:href="docs/safe.goList.html" xlink:title="goList, list (safe)" target="_parent">
<text text-anchor="start" x="526.47" y="-113.6" font-family="Times,serif" font-size="13.00">goList, list (safe)</text>
</a>
</g>
</g>
<!-- home&#45;&gt;home -->
<g id="edge5" class="edge">
<title>home&#45;&gt;home</title>
<g id="a_edge5"><a xlink:href="docs/safe.goHome.html" xlink:title="goHome, self (safe)" target="_parent">
<path fill="none" stroke="black" d="M402.76,-25.87C412.56,-25.96 420.47,-23.33 420.47,-18 420.47,-14.75 417.53,-12.51 413.02,-11.27"/>
<polygon fill="black" stroke="black" points="413.09,-7.76 402.76,-10.13 412.32,-14.71 413.09,-7.76"/>
</a>
</g>
<g id="a_edge5&#45;label"><a xlink:href="docs/safe.goHome.html" xlink:title="goHome, self (safe)" target="_parent">
<text text-anchor="start" x="420.47" y="-14.6" font-family="Times,serif" font-size="13.00">goHome, self (safe)</text>
</a>
</g>
</g>
</g>
</svg>
