<?xml version="1.0" encoding="UTF-8" standalone="no"?>
<!DOCTYPE svg PUBLIC "-//W3C//DTD SVG 1.1//EN"
 "http://www.w3.org/Graphics/SVG/1.1/DTD/svg11.dtd">
<!-- Generated by graphviz version 2.43.0 (0)
 -->
<!-- Title: application_state_diagram Pages: 1 -->
<svg width="295pt" height="169pt"
 viewBox="0.00 0.00 294.59 169.00" xmlns="http://www.w3.org/2000/svg" xmlns:xlink="http://www.w3.org/1999/xlink">
<g id="graph0" class="graph" transform="scale(1 1) rotate(0) translate(4 165)">
<title>application_state_diagram</title>
<g id="a_graph0"><a xlink:href="index.html" xlink:title="Related Actions Profile" target="_parent">
<polygon fill="white" stroke="transparent" points="-4,4 -4,-165 290.59,-165 290.59,4 -4,4"/>
<text text-anchor="middle" x="143.29" y="-7.8" font-family="Helvetica,sans-Serif" font-size="14.00">Related Actions Profile</text>
</a>
</g>
<!-- home -->
<g id="node1" class="node">
<title>home</title>
<g id="a_node1"><a xlink:href="docs/semantic.home.html" xlink:title="&lt;TABLE&gt;" target="_parent">
<polygon fill="none" stroke="black" points="138.59,-161 36.59,-161 36.59,-117 138.59,-117 138.59,-161"/>
<polygon fill="#dddddd" stroke="transparent" points="37.59,-118 37.59,-160 137.59,-160 137.59,-118 37.59,-118"/>
<polygon fill="none" stroke="black" points="37.59,-118 37.59,-160 137.59,-160 137.59,-118 37.59,-118"/>
<text text-anchor="start" x="67.59" y="-142.8" font-family="Times,serif" font-size="14.00">home</text>
<text text-anchor="start" x="43.59" y="-127.8" font-family="Times,serif" font-size="14.00">(relatedlink)</text>
</a>
</g>
</g>
<!-- related -->
<g id="node2" class="node">
<title>related</title>
<g id="a_node2"><a xlink:href="docs/semantic.related.html" xlink:title="&lt;TABLE&gt;" target="_parent">
<polygon fill="none" stroke="black" points="138.59,-67 36.59,-67 36.59,-23 138.59,-23 138.59,-67"/>
<polygon fill="#dddddd" stroke="transparent" points="37.59,-24 37.59,-66 137.59,-66 137.59,-24 37.59,-24"/>
<polygon fill="none" stroke="black" points="37.59,-24 37.59,-66 137.59,-66 137.59,-24 37.59,-24"/>
<text text-anchor="start" x="61.59" y="-48.8" font-family="Times,serif" font-size="14.00">related</text>
<text text-anchor="start" x="43.59" y="-33.8" font-family="Times,serif" font-size="14.00">(relatedlink)</text>
</a>
</g>
</g>
<!-- home&#45;&gt;related -->
<g id="edge1" class="edge">
<title>home&#45;&gt;related</title>
<g id="a_edge1"><a xlink:href="docs/safe.getRelated.html" xlink:title="getRelated, mru (safe)" target="_parent">
<path fill="none" stroke="black" d="M36.37,-125.07C23.5,-119.26 11.2,-110.93 3.59,-99 -6.62,-83 7.47,-70.96 26.86,-62.44"/>
<polygon fill="black" stroke="black" points="28.4,-65.59 36.4,-58.65 25.81,-59.09 28.4,-65.59"/>
</a>
</g>
<g id="a_edge1&#45;label"><a xlink:href="docs/safe.getRelated.html" xlink:title="getRelated, mru (safe)" target="_parent">
<text text-anchor="middle" x="77.59" y="-88.6" font-family="Times,serif" font-size="13.00">getRelated, mru (safe)</text>
</a>
</g>
</g>
<!-- related&#45;&gt;home -->
<g id="edge2" class="edge">
<title>related&#45;&gt;home</title>
<g id="a_edge2"><a xlink:href="docs/safe.getHome.html" xlink:title="getHome, self (safe)" target="_parent">
<path fill="none" stroke="black" d="M137.79,-67.04C150.43,-75.58 158.65,-86.42 151.59,-99 149.3,-103.07 146.4,-106.76 143.11,-110.1"/>
<polygon fill="black" stroke="black" points="140.58,-107.66 135.34,-116.87 145.18,-112.94 140.58,-107.66"/>
</a>
</g>
<g id="a_edge2&#45;label"><a xlink:href="docs/safe.getHome.html" xlink:title="getHome, self (safe)" target="_parent">
<text text-anchor="middle" x="220.09" y="-88.6" font-family="Times,serif" font-size="13.00">getHome, self (safe)</text>
</a>
</g>
</g>
</g>
</svg>
