<?xml version="1.0" encoding="UTF-8" standalone="no"?>
<!DOCTYPE svg PUBLIC "-//W3C//DTD SVG 1.1//EN"
 "http://www.w3.org/Graphics/SVG/1.1/DTD/svg11.dtd">
<!-- Generated by graphviz version 2.43.0 (0)
 -->
<!-- Title: application_state_diagram Pages: 1 -->
<svg width="284pt" height="169pt"
 viewBox="0.00 0.00 284.46 169.00" xmlns="http://www.w3.org/2000/svg" xmlns:xlink="http://www.w3.org/1999/xlink">
<g id="graph0" class="graph" transform="scale(1 1) rotate(0) translate(4 165)">
<title>application_state_diagram</title>
<g id="a_graph0"><a xlink:href="index.html" xlink:title="Related Actions Profile" target="_parent">
<polygon fill="white" stroke="transparent" points="-4,4 -4,-165 280.46,-165 280.46,4 -4,4"/>
<text text-anchor="middle" x="138.23" y="-7.8" font-family="Helvetica,sans-Serif" font-size="14.00">Related Actions Profile</text>
</a>
</g>
<!-- home -->
<g id="node1" class="node">
<title>home</title>
<g id="a_node1"><a xlink:href="docs/semantic.home.html" xlink:title="&lt;TABLE&gt;" target="_parent">
<polygon fill="none" stroke="black" points="136.46,-161 34.46,-161 34.46,-117 136.46,-117 136.46,-161"/>
<polygon fill="#dddddd" stroke="transparent" points="35.46,-118 35.46,-160 135.46,-160 135.46,-118 35.46,-118"/>
<polygon fill="none" stroke="black" points="35.46,-118 35.46,-160 135.46,-160 135.46,-118 35.46,-118"/>
<text text-anchor="start" x="65.46" y="-142.8" font-family="Times,serif" font-size="14.00">home</text>
<text text-anchor="start" x="41.46" y="-127.8" font-family="Times,serif" font-size="14.00">(relatedlink)</text>
</a>
</g>
</g>
<!-- related -->
<g id="node2" class="node">
<title>related</title>
<g id="a_node2"><a xlink:href="docs/semantic.related.html" xlink:title="&lt;TABLE&gt;" target="_parent">
<polygon fill="none" stroke="black" points="136.46,-67 34.46,-67 34.46,-23 136.46,-23 136.46,-67"/>
<polygon fill="#dddddd" stroke="transparent" points="35.46,-24 35.46,-66 135.46,-66 135.46,-24 35.46,-24"/>
<polygon fill="none" stroke="black" points="35.46,-24 35.46,-66 135.46,-66 135.46,-24 35.46,-24"/>
<text text-anchor="start" x="59.46" y="-48.8" font-family="Times,serif" font-size="14.00">related</text>
<text text-anchor="start" x="41.46" y="-33.8" font-family="Times,serif" font-size="14.00">(relatedlink)</text>
</a>
</g>
</g>
<!-- home&#45;&gt;related -->
<g id="edge1" class="edge">
<title>home&#45;&gt;related</title>
<g id="a_edge1"><a xlink:href="docs/safe.goRelated.html" xlink:title="goRelated, mru (safe)" target="_parent">
<path fill="none" stroke="black" d="M34.15,-124.21C22.06,-118.43 10.61,-110.33 3.46,-99 -6.31,-83.54 6.71,-71.7 25.05,-63.18"/>
<polygon fill="black" stroke="black" points="26.53,-66.35 34.4,-59.26 23.82,-59.89 26.53,-66.35"/>
</a>
</g>
<g id="a_edge1&#45;label"><a xlink:href="docs/safe.goRelated.html" xlink:title="goRelated, mru (safe)" target="_parent">
<text text-anchor="middle" x="74.96" y="-88.6" font-family="Times,serif" font-size="13.00">goRelated, mru (safe)</text>
</a>
</g>
</g>
<!-- related&#45;&gt;home -->
<g id="edge2" class="edge">
<title>related&#45;&gt;home</title>
<g id="a_edge2"><a xlink:href="docs/safe.goHome.html" xlink:title="goHome, self (safe)" target="_parent">
<path fill="none" stroke="black" d="M132.95,-67.09C145.2,-75.7 153.26,-86.57 146.46,-99 144.26,-103.02 141.45,-106.68 138.25,-110.01"/>
<polygon fill="black" stroke="black" points="135.82,-107.49 130.71,-116.77 140.49,-112.7 135.82,-107.49"/>
</a>
</g>
<g id="a_edge2&#45;label"><a xlink:href="docs/safe.goHome.html" xlink:title="goHome, self (safe)" target="_parent">
<text text-anchor="middle" x="212.46" y="-88.6" font-family="Times,serif" font-size="13.00">goHome, self (safe)</text>
</a>
</g>
</g>
</g>
</svg>
