<?xml version="1.0" encoding="UTF-8" standalone="no"?>
<!DOCTYPE svg PUBLIC "-//W3C//DTD SVG 1.1//EN"
 "http://www.w3.org/Graphics/SVG/1.1/DTD/svg11.dtd">
<!-- Generated by graphviz version 2.43.0 (0)
 -->
<!-- Title: application_state_diagram Pages: 1 -->
<svg width="284pt" height="165pt"
 viewBox="0.00 0.00 284.49 165.00" xmlns="http://www.w3.org/2000/svg" xmlns:xlink="http://www.w3.org/1999/xlink">
<g id="graph0" class="graph" transform="scale(1 1) rotate(0) translate(4 161)">
<title>application_state_diagram</title>
<g id="a_graph0"><a xlink:href="index.html" xlink:title="Related Actions Profile" target="_parent">
<polygon fill="white" stroke="transparent" points="-4,4 -4,-161 280.49,-161 280.49,4 -4,4"/>
<text text-anchor="middle" x="138.25" y="-141.8" font-family="Helvetica,sans-Serif" font-size="14.00">Related Actions Profile</text>
</a>
</g>
<!-- home -->
<g id="node1" class="node">
<title>home</title>
<g id="a_node1"><a xlink:href="docs/semantic.home.html" xlink:title="&lt;TABLE&gt;" target="_parent">
<polygon fill="lightgray" stroke="black" stroke-width="2" points="135.49,-134 35.49,-134 35.49,-92 135.49,-92 135.49,-134"/>
<text text-anchor="start" x="65.49" y="-116.8" font-family="Times,serif" font-size="14.00">home</text>
<text text-anchor="start" x="41.49" y="-101.8" font-family="Times,serif" font-size="14.00">(relatedlink)</text>
</a>
</g>
</g>
<!-- related -->
<g id="node2" class="node">
<title>related</title>
<g id="a_node2"><a xlink:href="docs/semantic.related.html" xlink:title="&lt;TABLE&gt;" target="_parent">
<polygon fill="lightgray" stroke="black" stroke-width="2" points="135.49,-42 35.49,-42 35.49,0 135.49,0 135.49,-42"/>
<text text-anchor="start" x="59.49" y="-24.8" font-family="Times,serif" font-size="14.00">related</text>
<text text-anchor="start" x="41.49" y="-9.8" font-family="Times,serif" font-size="14.00">(relatedlink)</text>
</a>
</g>
</g>
<!-- home&#45;&gt;related -->
<g id="edge1" class="edge">
<title>home&#45;&gt;related</title>
<g id="a_edge1"><a xlink:href="docs/safe.goRelated.html" xlink:title="goRelated, mru (safe)" target="_parent">
<path fill="none" stroke="black" d="M35.07,-99.22C22.66,-93.58 10.84,-85.5 3.49,-74 -6.41,-58.49 7.03,-46.76 25.72,-38.4"/>
<polygon fill="black" stroke="black" points="27.27,-41.55 35.23,-34.56 24.65,-35.05 27.27,-41.55"/>
</a>
</g>
<g id="a_edge1&#45;label"><a xlink:href="docs/safe.goRelated.html" xlink:title="goRelated, mru (safe)" target="_parent">
<text text-anchor="middle" x="74.99" y="-63.6" font-family="Times,serif" font-size="13.00">goRelated, mru (safe)</text>
</a>
</g>
</g>
<!-- related&#45;&gt;home -->
<g id="edge2" class="edge">
<title>related&#45;&gt;home</title>
<g id="a_edge2"><a xlink:href="docs/safe.goHome.html" xlink:title="goHome, self (safe)" target="_parent">
<path fill="none" stroke="black" d="M132.27,-42.09C144.93,-50.6 153.45,-61.47 146.49,-74 144.22,-78.1 141.29,-81.81 137.96,-85.17"/>
<polygon fill="black" stroke="black" points="135.4,-82.76 130.12,-91.95 139.97,-88.06 135.4,-82.76"/>
</a>
</g>
<g id="a_edge2&#45;label"><a xlink:href="docs/safe.goHome.html" xlink:title="goHome, self (safe)" target="_parent">
<text text-anchor="middle" x="212.49" y="-63.6" font-family="Times,serif" font-size="13.00">goHome, self (safe)</text>
</a>
</g>
</g>
</g>
</svg>
