<?xml version="1.0" encoding="UTF-8" standalone="no"?>
<!DOCTYPE svg PUBLIC "-//W3C//DTD SVG 1.1//EN"
 "http://www.w3.org/Graphics/SVG/1.1/DTD/svg11.dtd">
<!-- Generated by graphviz version 2.43.0 (0)
 -->
<!-- Title: application_state_diagram Pages: 1 -->
<svg width="256pt" height="161pt"
 viewBox="0.00 0.00 256.00 161.00" xmlns="http://www.w3.org/2000/svg" xmlns:xlink="http://www.w3.org/1999/xlink">
<g id="graph0" class="graph" transform="scale(1 1) rotate(0) translate(4 157)">
<title>application_state_diagram</title>
<g id="a_graph0"><a xlink:href="index.html" xlink:title="Most Recently Used (MRU) Profile" target="_parent">
<polygon fill="white" stroke="transparent" points="-4,4 -4,-157 252,-157 252,4 -4,4"/>
<text text-anchor="middle" x="124" y="-7.8" font-family="Helvetica,sans-Serif" font-size="14.00">Most Recently Used (MRU) Profile</text>
</a>
</g>
<!-- mru -->
<g id="node1" class="node">
<title>mru</title>
<g id="a_node1"><a xlink:href="docs/semantic.mru.html" xlink:title="&lt;TABLE&gt;" target="_parent">
<polygon fill="none" stroke="black" points="110.52,-153 56.52,-153 56.52,-109 110.52,-109 110.52,-153"/>
<polygon fill="#dddddd" stroke="transparent" points="59.52,-110 59.52,-152 108.52,-152 108.52,-110 59.52,-110"/>
<polygon fill="none" stroke="black" points="59.52,-110 59.52,-152 108.52,-152 108.52,-110 59.52,-110"/>
<text text-anchor="start" x="69.02" y="-134.8" font-family="Times,serif" font-size="14.00">mru</text>
<text text-anchor="start" x="65.52" y="-119.8" font-family="Times,serif" font-size="14.00">(link)</text>
</a>
</g>
</g>
<!-- mru&#45;&gt;mru -->
<g id="edge3" class="edge">
<title>mru&#45;&gt;mru</title>
<g id="a_edge3"><a xlink:href="docs/safe.getMRU.html" xlink:title="getMRU (safe)" target="_parent">
<path fill="none" stroke="black" d="M110.76,-139.62C120.54,-139.8 128.52,-136.93 128.52,-131 128.52,-127.39 125.56,-124.91 121.03,-123.57"/>
<polygon fill="black" stroke="black" points="121.1,-120.05 110.76,-122.38 120.3,-127 121.1,-120.05"/>
</a>
</g>
<g id="a_edge3&#45;label"><a xlink:href="docs/safe.getMRU.html" xlink:title="getMRU (safe)" target="_parent">
<text text-anchor="middle" x="177.02" y="-127.6" font-family="Times,serif" font-size="13.00">getMRU (safe)</text>
</a>
</g>
</g>
<!-- self -->
<g id="node2" class="node">
<title>self</title>
<g id="a_node2"><a xlink:href="docs/semantic.self.html" xlink:title="self" target="_parent">
<polygon fill="lightgrey" stroke="black" stroke-width="2" points="110.52,-59 56.52,-59 56.52,-23 110.52,-23 110.52,-59"/>
<text text-anchor="middle" x="83.52" y="-37.3" font-family="Times,serif" font-size="14.00">self</text>
</a>
</g>
</g>
<!-- mru&#45;&gt;self -->
<g id="edge4" class="edge">
<title>mru&#45;&gt;self</title>
<g id="a_edge4"><a xlink:href="docs/safe.getSelf.html" xlink:title="getSelf (safe)" target="_parent">
<path fill="none" stroke="black" d="M56.36,-119.24C36.82,-109.75 15.53,-94.7 25.52,-77 30.5,-68.18 38.69,-61.34 47.37,-56.14"/>
<polygon fill="black" stroke="black" points="49.28,-59.08 56.47,-51.29 46,-52.9 49.28,-59.08"/>
</a>
</g>
<g id="a_edge4&#45;label"><a xlink:href="docs/safe.getSelf.html" xlink:title="getSelf (safe)" target="_parent">
<text text-anchor="middle" x="69.52" y="-80.6" font-family="Times,serif" font-size="13.00">getSelf (safe)</text>
</a>
</g>
</g>
<!-- self&#45;&gt;mru -->
<g id="edge2" class="edge">
<title>self&#45;&gt;mru</title>
<g id="a_edge2"><a xlink:href="docs/safe.getMRU.html" xlink:title="getMRU (safe)" target="_parent">
<path fill="none" stroke="black" d="M106.25,-59.39C114.92,-68.25 121.81,-79.56 117.52,-91 116.29,-94.3 114.63,-97.5 112.72,-100.55"/>
<polygon fill="black" stroke="black" points="109.81,-98.61 106.76,-108.75 115.47,-102.72 109.81,-98.61"/>
</a>
</g>
<g id="a_edge2&#45;label"><a xlink:href="docs/safe.getMRU.html" xlink:title="getMRU (safe)" target="_parent">
<text text-anchor="middle" x="167.02" y="-80.6" font-family="Times,serif" font-size="13.00">getMRU (safe)</text>
</a>
</g>
</g>
<!-- self&#45;&gt;self -->
<g id="edge1" class="edge">
<title>self&#45;&gt;self</title>
<g id="a_edge1"><a xlink:href="docs/safe.getSelf.html" xlink:title="getSelf (safe)" target="_parent">
<path fill="none" stroke="black" d="M110.76,-48.87C120.54,-49.04 128.52,-46.41 128.52,-41 128.52,-37.7 125.56,-35.44 121.03,-34.21"/>
<polygon fill="black" stroke="black" points="121.07,-30.7 110.76,-33.13 120.34,-37.66 121.07,-30.7"/>
</a>
</g>
<g id="a_edge1&#45;label"><a xlink:href="docs/safe.getSelf.html" xlink:title="getSelf (safe)" target="_parent">
<text text-anchor="middle" x="172.52" y="-37.6" font-family="Times,serif" font-size="13.00">getSelf (safe)</text>
</a>
</g>
</g>
</g>
</svg>
