<?xml version="1.0" encoding="UTF-8" standalone="no"?>
<!DOCTYPE svg PUBLIC "-//W3C//DTD SVG 1.1//EN"
 "http://www.w3.org/Graphics/SVG/1.1/DTD/svg11.dtd">
<!-- Generated by graphviz version 2.43.0 (0)
 -->
<!-- Title: application_state_diagram Pages: 1 -->
<svg width="742pt" height="299pt"
 viewBox="0.00 0.00 742.20 299.00" xmlns="http://www.w3.org/2000/svg" xmlns:xlink="http://www.w3.org/1999/xlink">
<g id="graph0" class="graph" transform="scale(1 1) rotate(0) translate(4 295)">
<title>application_state_diagram</title>
<g id="a_graph0"><a xlink:href="index.html" xlink:title="Store and Replay Complex Queries" target="_parent">
<polygon fill="white" stroke="transparent" points="-4,4 -4,-295 738.2,-295 738.2,4 -4,4"/>
<text text-anchor="middle" x="367.1" y="-275.8" font-family="Helvetica,sans-Serif" font-size="14.00">Store and Replay Complex Queries</text>
</a>
</g>
<!-- replayItem -->
<g id="node1" class="node">
<title>replayItem</title>
<g id="a_node1"><a xlink:href="docs/semantic.replayItem.html" xlink:title="&lt;TABLE&gt;" target="_parent">
<polygon fill="lightgray" stroke="black" stroke-width="2" points="275.2,-268 157.2,-268 157.2,-226 275.2,-226 275.2,-268"/>
<text text-anchor="start" x="176.7" y="-250.8" font-family="Times,serif" font-size="14.00">replayItem</text>
<text text-anchor="start" x="163.2" y="-235.8" font-family="Times,serif" font-size="14.00">(replayRecord)</text>
</a>
</g>
</g>
<!-- replayItem&#45;&gt;replayItem -->
<g id="edge3" class="edge">
<title>replayItem&#45;&gt;replayItem</title>
<path fill="none" stroke="black" d="M275.28,-259.36C285.83,-257.75 293.2,-253.63 293.2,-247 293.2,-242.75 290.18,-239.54 285.23,-237.35"/>
<polygon fill="black" stroke="black" points="285.85,-233.89 275.28,-234.64 284.01,-240.65 285.85,-233.89"/>
<g id="a_edge3_0"><a xlink:href="docs/idempotent.doUpdate.html" xlink:title="&lt;TABLE&gt;">
<text text-anchor="start" x="297.2" y="-253.6" font-family="Times,serif" font-size="13.00">doUpdate (idempotent)</text>
</a>
</g>
<g id="a_edge3_1"><a xlink:href="docs/safe.goItem.html" xlink:title="&lt;TABLE&gt;">
<text text-anchor="start" x="297.2" y="-233.6" font-family="Times,serif" font-size="13.00">goItem (safe)</text>
</a>
</g>
</g>
<!-- replayList -->
<g id="node2" class="node">
<title>replayList</title>
<g id="a_node2"><a xlink:href="docs/semantic.replayList.html" xlink:title="&lt;TABLE&gt;" target="_parent">
<polygon fill="lightgray" stroke="black" stroke-width="2" points="273.2,-128 155.2,-128 155.2,-86 273.2,-86 273.2,-128"/>
<text text-anchor="start" x="177.7" y="-110.8" font-family="Times,serif" font-size="14.00">replayList</text>
<text text-anchor="start" x="161.2" y="-95.8" font-family="Times,serif" font-size="14.00">(replayRecord)</text>
</a>
</g>
</g>
<!-- replayItem&#45;&gt;replayList -->
<g id="edge4" class="edge">
<title>replayItem&#45;&gt;replayList</title>
<path fill="none" stroke="black" d="M156.77,-233.65C143.58,-228.04 131.17,-219.87 123.2,-208 107.84,-185.13 107.92,-168.93 123.2,-146 128.9,-137.45 136.92,-130.82 145.87,-125.68"/>
<polygon fill="black" stroke="black" points="147.73,-128.66 155.07,-121.02 144.57,-122.42 147.73,-128.66"/>
<g id="a_edge4_2"><a xlink:href="docs/idempotent.doRemove.html" xlink:title="&lt;TABLE&gt;">
<text text-anchor="start" x="127.7" y="-193.6" font-family="Times,serif" font-size="13.00">doRemove (idempotent)</text>
</a>
</g>
<g id="a_edge4_3"><a xlink:href="docs/safe.goFilter.html" xlink:title="&lt;TABLE&gt;">
<text text-anchor="start" x="127.7" y="-173.6" font-family="Times,serif" font-size="13.00">goFilter (safe)</text>
</a>
</g>
<g id="a_edge4_4"><a xlink:href="docs/safe.goList.html" xlink:title="&lt;TABLE&gt;">
<text text-anchor="start" x="127.7" y="-153.6" font-family="Times,serif" font-size="13.00">goList (safe)</text>
</a>
</g>
</g>
<!-- home -->
<g id="node3" class="node">
<title>home</title>
<g id="a_node3"><a xlink:href="docs/semantic.home.html" xlink:title="home" target="_parent">
<polygon fill="lightgray" stroke="black" stroke-width="2" points="58.2,-36 2.2,-36 2.2,0 58.2,0 58.2,-36"/>
<text text-anchor="middle" x="30.2" y="-14.3" font-family="Times,serif" font-size="14.00">home</text>
</a>
</g>
</g>
<!-- replayItem&#45;&gt;home -->
<g id="edge2" class="edge">
<title>replayItem&#45;&gt;home</title>
<g id="a_edge2"><a xlink:href="docs/safe.goHome.html" xlink:title="goHome, home (safe)" target="_parent">
<path fill="none" stroke="black" d="M157.17,-232.61C105.56,-217.25 34.56,-186.29 6.2,-128 -6.71,-101.47 4.23,-67.94 15.21,-45.13"/>
<polygon fill="black" stroke="black" points="18.41,-46.55 19.85,-36.05 12.18,-43.36 18.41,-46.55"/>
</a>
</g>
<g id="a_edge2&#45;label"><a xlink:href="docs/safe.goHome.html" xlink:title="goHome, home (safe)" target="_parent">
<text text-anchor="start" x="6.2" y="-103.6" font-family="Times,serif" font-size="13.00">goHome, home (safe)</text>
</a>
</g>
</g>
<!-- replayResults -->
<g id="node4" class="node">
<title>replayResults</title>
<g id="a_node4"><a xlink:href="docs/semantic.replayResults.html" xlink:title="replayResults" target="_parent">
<polygon fill="lightgray" stroke="black" stroke-width="2" points="583.7,-36 468.7,-36 468.7,0 583.7,0 583.7,-36"/>
<text text-anchor="middle" x="526.2" y="-14.3" font-family="Times,serif" font-size="14.00">replayResults</text>
</a>
</g>
</g>
<!-- replayItem&#45;&gt;replayResults -->
<g id="edge5" class="edge">
<title>replayItem&#45;&gt;replayResults</title>
<g id="a_edge5"><a xlink:href="docs/safe.goQuery.html" xlink:title="goQuery, results (safe)" target="_parent">
<path fill="none" stroke="black" d="M275.45,-241.16C337.1,-235.35 428.94,-224.31 460.2,-208 536.56,-168.16 562.11,-147.93 594.2,-68 598.44,-57.45 593.75,-48.78 585.2,-41.82"/>
<polygon fill="black" stroke="black" points="587.06,-38.85 576.82,-36.14 583.14,-44.64 587.06,-38.85"/>
</a>
</g>
<g id="a_edge5&#45;label"><a xlink:href="docs/safe.goQuery.html" xlink:title="goQuery, results (safe)" target="_parent">
<text text-anchor="start" x="585.2" y="-103.6" font-family="Times,serif" font-size="13.00">goQuery, results (safe)</text>
</a>
</g>
</g>
<!-- replayList&#45;&gt;replayItem -->
<g id="edge7" class="edge">
<title>replayList&#45;&gt;replayItem</title>
<path fill="none" stroke="black" d="M270.69,-128.2C277.65,-132.99 283.84,-138.85 288.2,-146 302.56,-169.52 302.43,-184.4 288.2,-208 285.64,-212.24 282.44,-216.03 278.81,-219.42"/>
<polygon fill="black" stroke="black" points="276.45,-216.82 270.84,-225.81 280.83,-222.28 276.45,-216.82"/>
<g id="a_edge7_5"><a xlink:href="docs/idempotent.doCreate.html" xlink:title="&lt;TABLE&gt;">
<text text-anchor="start" x="303.7" y="-183.6" font-family="Times,serif" font-size="13.00">doCreate (idempotent)</text>
</a>
</g>
<g id="a_edge7_6"><a xlink:href="docs/safe.goItem.html" xlink:title="&lt;TABLE&gt;">
<text text-anchor="start" x="303.7" y="-163.6" font-family="Times,serif" font-size="13.00">goItem (safe)</text>
</a>
</g>
</g>
<!-- replayList&#45;&gt;replayList -->
<g id="edge8" class="edge">
<title>replayList&#45;&gt;replayList</title>
<path fill="none" stroke="black" d="M273.28,-115.12C283.83,-114.06 291.2,-111.36 291.2,-107 291.2,-104.21 288.18,-102.09 283.23,-100.66"/>
<polygon fill="black" stroke="black" points="283.74,-97.19 273.28,-98.88 282.51,-104.09 283.74,-97.19"/>
<g id="a_edge8_7"><a xlink:href="docs/safe.goFilter.html" xlink:title="&lt;TABLE&gt;">
<text text-anchor="start" x="295.2" y="-113.6" font-family="Times,serif" font-size="13.00">goFilter (safe)</text>
</a>
</g>
<g id="a_edge8_8"><a xlink:href="docs/safe.goList.html" xlink:title="&lt;TABLE&gt;">
<text text-anchor="start" x="295.2" y="-93.6" font-family="Times,serif" font-size="13.00">goList (safe)</text>
</a>
</g>
</g>
<!-- replayList&#45;&gt;home -->
<g id="edge6" class="edge">
<title>replayList&#45;&gt;home</title>
<g id="a_edge6"><a xlink:href="docs/safe.goHome.html" xlink:title="goHome, home (safe)" target="_parent">
<path fill="none" stroke="black" d="M154.97,-89.18C150.33,-88.04 145.7,-86.97 141.2,-86 116.13,-80.6 43.86,-87.5 27.2,-68 22.12,-62.05 21.07,-54.07 21.81,-46.28"/>
<polygon fill="black" stroke="black" points="25.27,-46.8 23.63,-36.33 18.38,-45.54 25.27,-46.8"/>
</a>
</g>
<g id="a_edge6&#45;label"><a xlink:href="docs/safe.goHome.html" xlink:title="goHome, home (safe)" target="_parent">
<text text-anchor="start" x="27.2" y="-57.6" font-family="Times,serif" font-size="13.00">goHome, home (safe)</text>
</a>
</g>
</g>
<!-- replayList&#45;&gt;replayResults -->
<g id="edge9" class="edge">
<title>replayList&#45;&gt;replayResults</title>
<g id="a_edge9"><a xlink:href="docs/safe.goQuery.html" xlink:title="goQuery, results (safe)" target="_parent">
<path fill="none" stroke="black" d="M273.33,-99.97C314.98,-94.55 371.57,-84.77 419.2,-68 431.58,-63.64 433.39,-59.72 445.2,-54 454.81,-49.35 465.2,-44.63 475.22,-40.23"/>
<polygon fill="black" stroke="black" points="476.9,-43.32 484.68,-36.13 474.12,-36.9 476.9,-43.32"/>
</a>
</g>
<g id="a_edge9&#45;label"><a xlink:href="docs/safe.goQuery.html" xlink:title="goQuery, results (safe)" target="_parent">
<text text-anchor="start" x="445.2" y="-57.6" font-family="Times,serif" font-size="13.00">goQuery, results (safe)</text>
</a>
</g>
</g>
<!-- home&#45;&gt;replayList -->
<g id="edge1" class="edge">
<title>home&#45;&gt;replayList</title>
<g id="a_edge1"><a xlink:href="docs/safe.goList.html" xlink:title="goList, replayList collection (safe)" target="_parent">
<path fill="none" stroke="black" d="M58.45,-20.81C88.46,-23.85 136.3,-32.04 171.2,-54 180.82,-60.05 189.32,-68.98 196.17,-77.74"/>
<polygon fill="black" stroke="black" points="193.48,-79.99 202.22,-85.99 199.13,-75.85 193.48,-79.99"/>
</a>
</g>
<g id="a_edge1&#45;label"><a xlink:href="docs/safe.goList.html" xlink:title="goList, replayList collection (safe)" target="_parent">
<text text-anchor="start" x="187.2" y="-57.6" font-family="Times,serif" font-size="13.00">goList, replayList collection (safe)</text>
</a>
</g>
</g>
</g>
</svg>
