<?xml version="1.0" encoding="UTF-8" standalone="no"?>
<!DOCTYPE svg PUBLIC "-//W3C//DTD SVG 1.1//EN"
 "http://www.w3.org/Graphics/SVG/1.1/DTD/svg11.dtd">
<!-- Generated by graphviz version 2.43.0 (0)
 -->
<!-- Title: application_state_diagram Pages: 1 -->
<svg width="877pt" height="299pt"
 viewBox="0.00 0.00 877.20 299.00" xmlns="http://www.w3.org/2000/svg" xmlns:xlink="http://www.w3.org/1999/xlink">
<g id="graph0" class="graph" transform="scale(1 1) rotate(0) translate(4 295)">
<title>application_state_diagram</title>
<g id="a_graph0"><a xlink:href="index.html" xlink:title="Store and Replay Complex Queries" target="_parent">
<polygon fill="white" stroke="transparent" points="-4,4 -4,-295 873.2,-295 873.2,4 -4,4"/>
<text text-anchor="middle" x="434.6" y="-275.8" font-family="Helvetica,sans-Serif" font-size="14.00">Store and Replay Complex Queries</text>
</a>
</g>
<!-- replayItem -->
<g id="node1" class="node">
<title>replayItem</title>
<g id="a_node1"><a xlink:href="docs/semantic.replayItem.html" xlink:title="&lt;TABLE&gt;" target="_parent">
<polygon fill="lightgray" stroke="black" stroke-width="2" points="297.2,-268 179.2,-268 179.2,-226 297.2,-226 297.2,-268"/>
<text text-anchor="start" x="198.7" y="-250.8" font-family="Times,serif" font-size="14.00">replayItem</text>
<text text-anchor="start" x="185.2" y="-235.8" font-family="Times,serif" font-size="14.00">(replayRecord)</text>
</a>
</g>
</g>
<!-- replayItem&#45;&gt;replayItem -->
<g id="edge3" class="edge">
<title>replayItem&#45;&gt;replayItem</title>
<path fill="none" stroke="black" d="M297.28,-259.36C307.83,-257.75 315.2,-253.63 315.2,-247 315.2,-242.75 312.18,-239.54 307.23,-237.35"/>
<polygon fill="black" stroke="black" points="307.85,-233.89 297.28,-234.64 306.01,-240.65 307.85,-233.89"/>
<g id="a_edge3_0"><a xlink:href="docs/idempotent.doReplayUpdate.html" xlink:title="&lt;TABLE&gt;">
<text text-anchor="start" x="319.7" y="-253.6" font-family="Times,serif" font-size="13.00">doReplayUpdate (idempotent)</text>
</a>
</g>
<g id="a_edge3_1"><a xlink:href="docs/safe.goReplayItem.html" xlink:title="&lt;TABLE&gt;">
<text text-anchor="start" x="319.7" y="-233.6" font-family="Times,serif" font-size="13.00">goReplayItem (safe)</text>
</a>
</g>
</g>
<!-- replayList -->
<g id="node2" class="node">
<title>replayList</title>
<g id="a_node2"><a xlink:href="docs/semantic.replayList.html" xlink:title="&lt;TABLE&gt;" target="_parent">
<polygon fill="lightgray" stroke="black" stroke-width="2" points="273.2,-128 155.2,-128 155.2,-86 273.2,-86 273.2,-128"/>
<text text-anchor="start" x="177.7" y="-110.8" font-family="Times,serif" font-size="14.00">replayList</text>
<text text-anchor="start" x="161.2" y="-95.8" font-family="Times,serif" font-size="14.00">(replayRecord)</text>
</a>
</g>
</g>
<!-- replayItem&#45;&gt;replayList -->
<g id="edge4" class="edge">
<title>replayItem&#45;&gt;replayList</title>
<path fill="none" stroke="black" d="M179.17,-240.68C158.01,-235.59 136.2,-225.98 123.2,-208 107.06,-185.67 107.92,-168.93 123.2,-146 128.9,-137.45 136.92,-130.82 145.87,-125.68"/>
<polygon fill="black" stroke="black" points="147.73,-128.66 155.07,-121.02 144.57,-122.42 147.73,-128.66"/>
<g id="a_edge4_2"><a xlink:href="docs/idempotent.doReplayRemove.html" xlink:title="&lt;TABLE&gt;">
<text text-anchor="start" x="127.2" y="-193.6" font-family="Times,serif" font-size="13.00">doReplayRemove (idempotent)</text>
</a>
</g>
<g id="a_edge4_3"><a xlink:href="docs/safe.goReplayFilter.html" xlink:title="&lt;TABLE&gt;">
<text text-anchor="start" x="127.2" y="-173.6" font-family="Times,serif" font-size="13.00">goReplayFilter (safe)</text>
</a>
</g>
<g id="a_edge4_4"><a xlink:href="docs/safe.goReplayList.html" xlink:title="&lt;TABLE&gt;">
<text text-anchor="start" x="127.2" y="-153.6" font-family="Times,serif" font-size="13.00">goReplayList (safe)</text>
</a>
</g>
</g>
<!-- home -->
<g id="node3" class="node">
<title>home</title>
<g id="a_node3"><a xlink:href="docs/semantic.home.html" xlink:title="home" target="_parent">
<polygon fill="lightgray" stroke="black" stroke-width="2" points="58.2,-36 2.2,-36 2.2,0 58.2,0 58.2,-36"/>
<text text-anchor="middle" x="30.2" y="-14.3" font-family="Times,serif" font-size="14.00">home</text>
</a>
</g>
</g>
<!-- replayItem&#45;&gt;home -->
<g id="edge2" class="edge">
<title>replayItem&#45;&gt;home</title>
<g id="a_edge2"><a xlink:href="docs/safe.goHome.html" xlink:title="goHome, home (safe)" target="_parent">
<path fill="none" stroke="black" d="M178.95,-236.28C121.33,-223.13 37.98,-193.32 6.2,-128 -6.71,-101.47 4.23,-67.94 15.21,-45.13"/>
<polygon fill="black" stroke="black" points="18.41,-46.55 19.85,-36.05 12.18,-43.36 18.41,-46.55"/>
</a>
</g>
<g id="a_edge2&#45;label"><a xlink:href="docs/safe.goHome.html" xlink:title="goHome, home (safe)" target="_parent">
<text text-anchor="start" x="6.2" y="-103.6" font-family="Times,serif" font-size="13.00">goHome, home (safe)</text>
</a>
</g>
</g>
<!-- replayResults -->
<g id="node4" class="node">
<title>replayResults</title>
<g id="a_node4"><a xlink:href="docs/semantic.replayResults.html" xlink:title="replayResults" target="_parent">
<polygon fill="lightgray" stroke="black" stroke-width="2" points="650.7,-36 535.7,-36 535.7,0 650.7,0 650.7,-36"/>
<text text-anchor="middle" x="593.2" y="-14.3" font-family="Times,serif" font-size="14.00">replayResults</text>
</a>
</g>
</g>
<!-- replayItem&#45;&gt;replayResults -->
<g id="edge5" class="edge">
<title>replayItem&#45;&gt;replayResults</title>
<g id="a_edge5"><a xlink:href="docs/safe.goReplayQuery.html" xlink:title="goReplayQuery, results (safe)" target="_parent">
<path fill="none" stroke="black" d="M297.52,-243.56C375.61,-239.54 508.04,-229.7 551.2,-208 627.88,-169.44 652.38,-147.71 684.2,-68 690.89,-51.26 678.3,-40.11 660.55,-32.74"/>
<polygon fill="black" stroke="black" points="661.46,-29.35 650.87,-29.22 659.07,-35.93 661.46,-29.35"/>
</a>
</g>
<g id="a_edge5&#45;label"><a xlink:href="docs/safe.goReplayQuery.html" xlink:title="goReplayQuery, results (safe)" target="_parent">
<text text-anchor="start" x="675.2" y="-103.6" font-family="Times,serif" font-size="13.00">goReplayQuery, results (safe)</text>
</a>
</g>
</g>
<!-- replayList&#45;&gt;replayItem -->
<g id="edge7" class="edge">
<title>replayList&#45;&gt;replayItem</title>
<path fill="none" stroke="black" d="M273.37,-112.38C295.83,-117.28 319.32,-127 333.2,-146 349.45,-168.25 348.65,-185.18 333.2,-208 326.65,-217.67 317.2,-224.88 306.77,-230.25"/>
<polygon fill="black" stroke="black" points="305.06,-227.19 297.41,-234.52 307.96,-233.56 305.06,-227.19"/>
<g id="a_edge7_5"><a xlink:href="docs/idempotent.doReplayCreate.html" xlink:title="&lt;TABLE&gt;">
<text text-anchor="start" x="349.2" y="-183.6" font-family="Times,serif" font-size="13.00">doReplayCreate (idempotent)</text>
</a>
</g>
<g id="a_edge7_6"><a xlink:href="docs/safe.goReplayItem.html" xlink:title="&lt;TABLE&gt;">
<text text-anchor="start" x="349.2" y="-163.6" font-family="Times,serif" font-size="13.00">goReplayItem (safe)</text>
</a>
</g>
</g>
<!-- replayList&#45;&gt;replayList -->
<g id="edge8" class="edge">
<title>replayList&#45;&gt;replayList</title>
<path fill="none" stroke="black" d="M273.28,-115.12C283.83,-114.06 291.2,-111.36 291.2,-107 291.2,-104.21 288.18,-102.09 283.23,-100.66"/>
<polygon fill="black" stroke="black" points="283.74,-97.19 273.28,-98.88 282.51,-104.09 283.74,-97.19"/>
<g id="a_edge8_7"><a xlink:href="docs/safe.goReplayFilter.html" xlink:title="&lt;TABLE&gt;">
<text text-anchor="start" x="295.7" y="-113.6" font-family="Times,serif" font-size="13.00">goReplayFilter (safe)</text>
</a>
</g>
<g id="a_edge8_8"><a xlink:href="docs/safe.goReplayList.html" xlink:title="&lt;TABLE&gt;">
<text text-anchor="start" x="295.7" y="-93.6" font-family="Times,serif" font-size="13.00">goReplayList (safe)</text>
</a>
</g>
</g>
<!-- replayList&#45;&gt;home -->
<g id="edge6" class="edge">
<title>replayList&#45;&gt;home</title>
<g id="a_edge6"><a xlink:href="docs/safe.goHome.html" xlink:title="goHome, home (safe)" target="_parent">
<path fill="none" stroke="black" d="M154.97,-89.18C150.33,-88.04 145.7,-86.97 141.2,-86 116.13,-80.6 43.86,-87.5 27.2,-68 22.12,-62.05 21.07,-54.07 21.81,-46.28"/>
<polygon fill="black" stroke="black" points="25.27,-46.8 23.63,-36.33 18.38,-45.54 25.27,-46.8"/>
</a>
</g>
<g id="a_edge6&#45;label"><a xlink:href="docs/safe.goHome.html" xlink:title="goHome, home (safe)" target="_parent">
<text text-anchor="start" x="27.2" y="-57.6" font-family="Times,serif" font-size="13.00">goHome, home (safe)</text>
</a>
</g>
</g>
<!-- replayList&#45;&gt;replayResults -->
<g id="edge9" class="edge">
<title>replayList&#45;&gt;replayResults</title>
<g id="a_edge9"><a xlink:href="docs/safe.goReplayQuery.html" xlink:title="goReplayQuery, results (safe)" target="_parent">
<path fill="none" stroke="black" d="M273.37,-102.73C324.89,-98.54 401.01,-89.11 464.2,-68 476.65,-63.84 478.17,-59.24 490.2,-54 502.2,-48.77 515.26,-43.81 527.92,-39.35"/>
<polygon fill="black" stroke="black" points="529.19,-42.61 537.5,-36.04 526.9,-36 529.19,-42.61"/>
</a>
</g>
<g id="a_edge9&#45;label"><a xlink:href="docs/safe.goReplayQuery.html" xlink:title="goReplayQuery, results (safe)" target="_parent">
<text text-anchor="start" x="490.2" y="-57.6" font-family="Times,serif" font-size="13.00">goReplayQuery, results (safe)</text>
</a>
</g>
</g>
<!-- home&#45;&gt;replayList -->
<g id="edge1" class="edge">
<title>home&#45;&gt;replayList</title>
<g id="a_edge1"><a xlink:href="docs/safe.goReplayList.html" xlink:title="goReplayList, replayList collection (safe)" target="_parent">
<path fill="none" stroke="black" d="M58.45,-20.81C88.46,-23.85 136.3,-32.04 171.2,-54 180.82,-60.05 189.32,-68.98 196.17,-77.74"/>
<polygon fill="black" stroke="black" points="193.48,-79.99 202.22,-85.99 199.13,-75.85 193.48,-79.99"/>
</a>
</g>
<g id="a_edge1&#45;label"><a xlink:href="docs/safe.goReplayList.html" xlink:title="goReplayList, replayList collection (safe)" target="_parent">
<text text-anchor="start" x="187.2" y="-57.6" font-family="Times,serif" font-size="13.00">goReplayList, replayList collection (safe)</text>
</a>
</g>
</g>
</g>
</svg>
