<?xml version="1.0" encoding="UTF-8" standalone="no"?>
<!DOCTYPE svg PUBLIC "-//W3C//DTD SVG 1.1//EN"
 "http://www.w3.org/Graphics/SVG/1.1/DTD/svg11.dtd">
<!-- Generated by graphviz version 2.43.0 (0)
 -->
<!-- Title: application_state_diagram Pages: 1 -->
<svg width="364pt" height="159pt"
 viewBox="0.00 0.00 364.00 159.00" xmlns="http://www.w3.org/2000/svg" xmlns:xlink="http://www.w3.org/1999/xlink">
<g id="graph0" class="graph" transform="scale(1 1) rotate(0) translate(4 155)">
<title>application_state_diagram</title>
<g id="a_graph0"><a xlink:href="index.html" xlink:title="About &#45; Client Preferences for Service Responses" target="_parent">
<polygon fill="white" stroke="transparent" points="-4,4 -4,-155 360,-155 360,4 -4,4"/>
<text text-anchor="middle" x="178" y="-135.8" font-family="Helvetica,sans-Serif" font-size="14.00">About &#45; Client Preferences for Service Responses</text>
</a>
</g>
<!-- about -->
<g id="node1" class="node">
<title>about</title>
<g id="a_node1"><a xlink:href="docs/semantic.about.html" xlink:title="&lt;TABLE&gt;" target="_parent">
<polygon fill="lightgray" stroke="black" stroke-width="2" points="192.12,-128 43.12,-128 43.12,-86 192.12,-86 192.12,-128"/>
<text text-anchor="start" x="97.62" y="-110.8" font-family="Times,serif" font-size="14.00">about</text>
<text text-anchor="start" x="49.62" y="-95.8" font-family="Times,serif" font-size="14.00">(aboutPreferences)</text>
</a>
</g>
</g>
<!-- home -->
<g id="node2" class="node">
<title>home</title>
<g id="a_node2"><a xlink:href="docs/semantic.home.html" xlink:title="home" target="_parent">
<polygon fill="lightgray" stroke="black" stroke-width="2" points="145.62,-36 89.62,-36 89.62,0 145.62,0 145.62,-36"/>
<text text-anchor="middle" x="117.62" y="-14.3" font-family="Times,serif" font-size="14.00">home</text>
</a>
</g>
</g>
<!-- about&#45;&gt;home -->
<g id="edge1" class="edge">
<title>about&#45;&gt;home</title>
<g id="a_edge1"><a xlink:href="docs/safe.goHome.html" xlink:title="goHome, self (safe)" target="_parent">
<path fill="none" stroke="black" d="M58.45,-85.88C44.31,-77.67 35.39,-67 43.62,-54 51.7,-41.25 65.81,-33.05 79.56,-27.83"/>
<polygon fill="black" stroke="black" points="81.05,-31.02 89.42,-24.52 78.83,-24.38 81.05,-31.02"/>
</a>
</g>
<g id="a_edge1&#45;label"><a xlink:href="docs/safe.goHome.html" xlink:title="goHome, self (safe)" target="_parent">
<text text-anchor="start" x="43.62" y="-57.6" font-family="Times,serif" font-size="13.00">goHome, self (safe)</text>
</a>
</g>
</g>
<!-- home&#45;&gt;about -->
<g id="edge2" class="edge">
<title>home&#45;&gt;about</title>
<g id="a_edge2"><a xlink:href="docs/safe.goAbout.html" xlink:title="goAbout, about (safe)" target="_parent">
<path fill="none" stroke="black" d="M145.69,-30.25C155.74,-35.81 165.97,-43.6 171.62,-54 176.56,-63.09 173.23,-71.55 166.28,-78.89"/>
<polygon fill="black" stroke="black" points="163.54,-76.64 158.3,-85.85 168.14,-81.92 163.54,-76.64"/>
</a>
</g>
<g id="a_edge2&#45;label"><a xlink:href="docs/safe.goAbout.html" xlink:title="goAbout, about (safe)" target="_parent">
<text text-anchor="start" x="173.62" y="-57.6" font-family="Times,serif" font-size="13.00">goAbout, about (safe)</text>
</a>
</g>
</g>
</g>
</svg>
