<?xml version="1.0" encoding="UTF-8" standalone="no"?>
<!DOCTYPE svg PUBLIC "-//W3C//DTD SVG 1.1//EN"
 "http://www.w3.org/Graphics/SVG/1.1/DTD/svg11.dtd">
<!-- Generated by graphviz version 2.43.0 (0)
 -->
<!-- Title: application_state_diagram Pages: 1 -->
<svg width="757pt" height="305pt"
 viewBox="0.00 0.00 756.52 305.00" xmlns="http://www.w3.org/2000/svg" xmlns:xlink="http://www.w3.org/1999/xlink">
<g id="graph0" class="graph" transform="scale(1 1) rotate(0) translate(4 301)">
<title>application_state_diagram</title>
<g id="a_graph0"><a xlink:href="index.html" xlink:title="Navigation Profile" target="_parent">
<polygon fill="white" stroke="transparent" points="-4,4 -4,-301 752.52,-301 752.52,4 -4,4"/>
<text text-anchor="middle" x="374.26" y="-7.8" font-family="Helvetica,sans-Serif" font-size="14.00">Navigation Profile</text>
</a>
</g>
<!-- list -->
<g id="node1" class="node">
<title>list</title>
<g id="a_node1"><a xlink:href="docs/semantic.list.html" xlink:title="&lt;TABLE&gt;" target="_parent">
<polygon fill="none" stroke="black" points="223.02,-268 146.02,-268 146.02,-224 223.02,-224 223.02,-268"/>
<polygon fill="#dddddd" stroke="transparent" points="147.52,-225 147.52,-267 222.52,-267 222.52,-225 147.52,-225"/>
<polygon fill="none" stroke="black" points="147.52,-225 147.52,-267 222.52,-267 222.52,-225 147.52,-225"/>
<text text-anchor="start" x="173.52" y="-249.8" font-family="Times,serif" font-size="14.00">list</text>
<text text-anchor="start" x="153.52" y="-234.8" font-family="Times,serif" font-size="14.00">(navlink)</text>
</a>
</g>
</g>
<!-- list&#45;&gt;list -->
<g id="edge4" class="edge">
<title>list&#45;&gt;list</title>
<path fill="none" stroke="black" d="M223.07,-260.12C233.28,-259.32 241.02,-254.61 241.02,-246 241.02,-240.48 237.84,-236.57 232.88,-234.26"/>
<polygon fill="black" stroke="black" points="233.61,-230.83 223.07,-231.88 231.96,-237.64 233.61,-230.83"/>
<g id="a_edge4_0"><a xlink:href="docs/safe.goList.html" xlink:title="&lt;TABLE&gt;">
<text text-anchor="start" x="245.52" y="-282.6" font-family="Times,serif" font-size="13.00">goList (safe)</text>
</a>
</g>
<g id="a_edge4_1"><a xlink:href="docs/safe.goFirst.html" xlink:title="&lt;TABLE&gt;">
<text text-anchor="start" x="245.52" y="-262.6" font-family="Times,serif" font-size="13.00">goFirst (safe)</text>
</a>
</g>
<g id="a_edge4_2"><a xlink:href="docs/safe.goPrevious.html" xlink:title="&lt;TABLE&gt;">
<text text-anchor="start" x="245.52" y="-242.6" font-family="Times,serif" font-size="13.00">goPrevious (safe)</text>
</a>
</g>
<g id="a_edge4_3"><a xlink:href="docs/safe.goNext.html" xlink:title="&lt;TABLE&gt;">
<text text-anchor="start" x="245.52" y="-222.6" font-family="Times,serif" font-size="13.00">goNext (safe)</text>
</a>
</g>
<g id="a_edge4_4"><a xlink:href="docs/safe.goLast.html" xlink:title="&lt;TABLE&gt;">
<text text-anchor="start" x="245.52" y="-202.6" font-family="Times,serif" font-size="13.00">goLast (safe)</text>
</a>
</g>
</g>
<!-- home -->
<g id="node2" class="node">
<title>home</title>
<g id="a_node2"><a xlink:href="docs/semantic.home.html" xlink:title="home" target="_parent">
<polygon fill="lightgrey" stroke="black" stroke-width="2" points="300.52,-59 244.52,-59 244.52,-23 300.52,-23 300.52,-59"/>
<text text-anchor="middle" x="272.52" y="-37.3" font-family="Times,serif" font-size="14.00">home</text>
</a>
</g>
</g>
<!-- list&#45;&gt;home -->
<g id="edge7" class="edge">
<title>list&#45;&gt;home</title>
<g id="a_edge7"><a xlink:href="docs/safe.goHome.html" xlink:title="goHome, self (safe)" target="_parent">
<path fill="none" stroke="black" d="M145.87,-233.69C82.09,-213.09 -33.93,-166.24 10.52,-109 37.78,-73.89 168.07,-54.06 234.05,-46.12"/>
<polygon fill="black" stroke="black" points="234.54,-49.58 244.06,-44.94 233.72,-42.63 234.54,-49.58"/>
</a>
</g>
<g id="a_edge7&#45;label"><a xlink:href="docs/safe.goHome.html" xlink:title="goHome, self (safe)" target="_parent">
<text text-anchor="middle" x="74.52" y="-123.6" font-family="Times,serif" font-size="13.00">goHome, self (safe)</text>
</a>
</g>
</g>
<!-- singleRecord -->
<g id="node3" class="node">
<title>singleRecord</title>
<g id="a_node3"><a xlink:href="docs/semantic.singleRecord.html" xlink:title="singleRecord" target="_parent">
<polygon fill="lightgrey" stroke="black" stroke-width="2" points="257.52,-145 147.52,-145 147.52,-109 257.52,-109 257.52,-145"/>
<text text-anchor="middle" x="202.52" y="-123.3" font-family="Times,serif" font-size="14.00">singleRecord</text>
</a>
</g>
</g>
<!-- list&#45;&gt;singleRecord -->
<g id="edge5" class="edge">
<title>list&#45;&gt;singleRecord</title>
<g id="a_edge5"><a xlink:href="docs/safe.goSelect.html" xlink:title="goSelect, collection nav select (safe)" target="_parent">
<path fill="none" stroke="black" d="M145.61,-236.93C96.76,-225.05 22.72,-200.14 52.52,-163 75.59,-134.23 97.61,-153.41 133.52,-145 134.77,-144.71 136.03,-144.41 137.3,-144.11"/>
<polygon fill="black" stroke="black" points="138.27,-147.48 147.18,-141.75 136.64,-140.67 138.27,-147.48"/>
</a>
</g>
<g id="a_edge5&#45;label"><a xlink:href="docs/safe.goSelect.html" xlink:title="goSelect, collection nav select (safe)" target="_parent">
<text text-anchor="middle" x="174.52" y="-166.6" font-family="Times,serif" font-size="13.00">goSelect, collection nav select (safe)</text>
</a>
</g>
</g>
<!-- exitNavigation -->
<g id="node4" class="node">
<title>exitNavigation</title>
<g id="a_node4"><a xlink:href="docs/semantic.exitNavigation.html" xlink:title="exitNavigation" target="_parent">
<polygon fill="lightgrey" stroke="black" stroke-width="2" points="401.52,-145 279.52,-145 279.52,-109 401.52,-109 401.52,-145"/>
<text text-anchor="middle" x="340.52" y="-123.3" font-family="Times,serif" font-size="14.00">exitNavigation</text>
</a>
</g>
</g>
<!-- list&#45;&gt;exitNavigation -->
<g id="edge6" class="edge">
<title>list&#45;&gt;exitNavigation</title>
<g id="a_edge6"><a xlink:href="docs/safe.goExit.html" xlink:title="goExit, collection nav exit (safe)" target="_parent">
<path fill="none" stroke="black" d="M223.18,-225.23C245.67,-212.85 273.93,-195.73 296.52,-177 305.1,-169.88 313.52,-161.08 320.67,-152.91"/>
<polygon fill="black" stroke="black" points="323.55,-154.92 327.35,-145.03 318.21,-150.4 323.55,-154.92"/>
</a>
</g>
<g id="a_edge6&#45;label"><a xlink:href="docs/safe.goExit.html" xlink:title="goExit, collection nav exit (safe)" target="_parent">
<text text-anchor="middle" x="418.02" y="-166.6" font-family="Times,serif" font-size="13.00">goExit, collection nav exit (safe)</text>
</a>
</g>
</g>
<!-- home&#45;&gt;list -->
<g id="edge1" class="edge">
<title>home&#45;&gt;list</title>
<g id="a_edge1"><a xlink:href="docs/safe.goList.html" xlink:title="goList, collection nav (safe)" target="_parent">
<path fill="none" stroke="black" d="M300.75,-44.56C347.46,-49.22 438.39,-60.17 465.52,-77 617.85,-171.49 561.04,-138.66 529.52,-177 492.54,-221.98 319.13,-237.68 233.13,-242.76"/>
<polygon fill="black" stroke="black" points="232.87,-239.27 223.09,-243.33 233.27,-246.26 232.87,-239.27"/>
</a>
</g>
<g id="a_edge1&#45;label"><a xlink:href="docs/safe.goList.html" xlink:title="goList, collection nav (safe)" target="_parent">
<text text-anchor="middle" x="656.52" y="-123.6" font-family="Times,serif" font-size="13.00">goList, collection nav (safe)</text>
</a>
</g>
</g>
<!-- singleRecord&#45;&gt;home -->
<g id="edge2" class="edge">
<title>singleRecord&#45;&gt;home</title>
<g id="a_edge2"><a xlink:href="docs/safe.goHome.html" xlink:title="goHome, self (safe)" target="_parent">
<path fill="none" stroke="black" d="M194.18,-108.91C190.58,-98.9 188.43,-86.41 194.52,-77 203.51,-63.1 219.48,-54.67 234.64,-49.58"/>
<polygon fill="black" stroke="black" points="235.8,-52.88 244.4,-46.69 233.82,-46.17 235.8,-52.88"/>
</a>
</g>
<g id="a_edge2&#45;label"><a xlink:href="docs/safe.goHome.html" xlink:title="goHome, self (safe)" target="_parent">
<text text-anchor="middle" x="258.52" y="-80.6" font-family="Times,serif" font-size="13.00">goHome, self (safe)</text>
</a>
</g>
</g>
<!-- exitNavigation&#45;&gt;home -->
<g id="edge3" class="edge">
<title>exitNavigation&#45;&gt;home</title>
<g id="a_edge3"><a xlink:href="docs/safe.goHome.html" xlink:title="goHome, self (safe)" target="_parent">
<path fill="none" stroke="black" d="M338.65,-108.79C336.86,-98.74 333.36,-86.25 326.52,-77 321.8,-70.62 315.54,-65.09 308.96,-60.42"/>
<polygon fill="black" stroke="black" points="310.85,-57.47 300.55,-54.98 307.04,-63.35 310.85,-57.47"/>
</a>
</g>
<g id="a_edge3&#45;label"><a xlink:href="docs/safe.goHome.html" xlink:title="goHome, self (safe)" target="_parent">
<text text-anchor="middle" x="397.52" y="-80.6" font-family="Times,serif" font-size="13.00">goHome, self (safe)</text>
</a>
</g>
</g>
</g>
</svg>
