<?xml version="1.0" encoding="UTF-8" standalone="no"?>
<!DOCTYPE svg PUBLIC "-//W3C//DTD SVG 1.1//EN"
 "http://www.w3.org/Graphics/SVG/1.1/DTD/svg11.dtd">
<!-- Generated by graphviz version 2.43.0 (0)
 -->
<!-- Title: application_state_diagram Pages: 1 -->
<svg width="548pt" height="159pt"
 viewBox="0.00 0.00 547.74 159.00" xmlns="http://www.w3.org/2000/svg" xmlns:xlink="http://www.w3.org/1999/xlink">
<g id="graph0" class="graph" transform="scale(1 1) rotate(0) translate(4 155)">
<title>application_state_diagram</title>
<g id="a_graph0"><a xlink:href="index.html" xlink:title="Workflow Progress Profile" target="_parent">
<polygon fill="white" stroke="transparent" points="-4,4 -4,-155 543.74,-155 543.74,4 -4,4"/>
<text text-anchor="middle" x="269.87" y="-135.8" font-family="Helvetica,sans-Serif" font-size="14.00">Workflow Progress Profile</text>
</a>
</g>
<!-- wfProgress -->
<g id="node1" class="node">
<title>wfProgress</title>
<g id="a_node1"><a xlink:href="docs/semantic.wfProgress.html" xlink:title="&lt;TABLE&gt;" target="_parent">
<polygon fill="lightgray" stroke="black" stroke-width="2" points="164.74,-128 10.74,-128 10.74,-86 164.74,-86 164.74,-128"/>
<text text-anchor="start" x="46.74" y="-110.8" font-family="Times,serif" font-size="14.00">wfProgress</text>
<text text-anchor="start" x="16.74" y="-95.8" font-family="Times,serif" font-size="14.00">(wfProgressRecord)</text>
</a>
</g>
</g>
<!-- wfProgress&#45;&gt;wfProgress -->
<g id="edge3" class="edge">
<title>wfProgress&#45;&gt;wfProgress</title>
<g id="a_edge3"><a xlink:href="docs/idempotent.doWFProgressUpdate.html" xlink:title="doWFProgressUpdate, wfprogress upate (idempotent)" target="_parent">
<path fill="none" stroke="black" d="M164.9,-114.7C175.59,-113.43 182.74,-110.86 182.74,-107 182.74,-104.53 179.8,-102.58 174.88,-101.17"/>
<polygon fill="black" stroke="black" points="175.37,-97.7 164.9,-99.3 174.08,-104.58 175.37,-97.7"/>
</a>
</g>
<g id="a_edge3&#45;label"><a xlink:href="docs/idempotent.doWFProgressUpdate.html" xlink:title="doWFProgressUpdate, wfprogress upate (idempotent)" target="_parent">
<text text-anchor="start" x="182.74" y="-103.6" font-family="Times,serif" font-size="13.00">doWFProgressUpdate, wfprogress upate (idempotent)</text>
</a>
</g>
</g>
<!-- home -->
<g id="node2" class="node">
<title>home</title>
<g id="a_node2"><a xlink:href="docs/semantic.home.html" xlink:title="home" target="_parent">
<polygon fill="lightgray" stroke="black" stroke-width="2" points="115.74,-36 59.74,-36 59.74,0 115.74,0 115.74,-36"/>
<text text-anchor="middle" x="87.74" y="-14.3" font-family="Times,serif" font-size="14.00">home</text>
</a>
</g>
</g>
<!-- wfProgress&#45;&gt;home -->
<g id="edge2" class="edge">
<title>wfProgress&#45;&gt;home</title>
<g id="a_edge2"><a xlink:href="docs/safe.goHome.html" xlink:title="goHome, home (safe)" target="_parent">
<path fill="none" stroke="black" d="M18.18,-85.74C3.55,-77.76 -5.11,-67.27 3.74,-54 14.07,-38.51 32.69,-29.86 49.78,-25.04"/>
<polygon fill="black" stroke="black" points="50.72,-28.41 59.59,-22.62 49.05,-21.62 50.72,-28.41"/>
</a>
</g>
<g id="a_edge2&#45;label"><a xlink:href="docs/safe.goHome.html" xlink:title="goHome, home (safe)" target="_parent">
<text text-anchor="start" x="3.74" y="-57.6" font-family="Times,serif" font-size="13.00">goHome, home (safe)</text>
</a>
</g>
</g>
<!-- home&#45;&gt;wfProgress -->
<g id="edge1" class="edge">
<title>home&#45;&gt;wfProgress</title>
<g id="a_edge1"><a xlink:href="docs/safe.goWFProgress.html" xlink:title="goWFProgress, wfprogress collection (safe)" target="_parent">
<path fill="none" stroke="black" d="M116,-28.21C128.02,-33.69 140.83,-41.97 147.74,-54 153.2,-63.52 149.46,-72.15 141.72,-79.52"/>
<polygon fill="black" stroke="black" points="139.29,-76.97 133.63,-85.92 143.64,-82.46 139.29,-76.97"/>
</a>
</g>
<g id="a_edge1&#45;label"><a xlink:href="docs/safe.goWFProgress.html" xlink:title="goWFProgress, wfprogress collection (safe)" target="_parent">
<text text-anchor="start" x="149.74" y="-57.6" font-family="Times,serif" font-size="13.00">goWFProgress, wfprogress collection (safe)</text>
</a>
</g>
</g>
</g>
</svg>
