<?xml version="1.0" encoding="UTF-8" standalone="no"?>
<!DOCTYPE svg PUBLIC "-//W3C//DTD SVG 1.1//EN"
 "http://www.w3.org/Graphics/SVG/1.1/DTD/svg11.dtd">
<!-- Generated by graphviz version 2.43.0 (0)
 -->
<!-- Title: application_state_diagram Pages: 1 -->
<svg width="2092pt" height="648pt"
 viewBox="0.00 0.00 2092.49 648.00" xmlns="http://www.w3.org/2000/svg" xmlns:xlink="http://www.w3.org/1999/xlink">
<g id="graph0" class="graph" transform="scale(1 1) rotate(0) translate(4 644)">
<title>application_state_diagram</title>
<g id="a_graph0"><a xlink:href="index.html" xlink:title="ALPS document describing DISCO services" target="_parent">
<polygon fill="white" stroke="transparent" points="-4,4 -4,-644 2088.49,-644 2088.49,4 -4,4"/>
<text text-anchor="middle" x="1042.24" y="-624.8" font-family="Helvetica,sans-Serif" font-size="14.00">ALPS document describing DISCO services</text>
</a>
</g>
<!-- bindForm -->
<g id="node1" class="node">
<title>bindForm</title>
<g id="a_node1"><a xlink:href="docs/semantic.bindForm.html" xlink:title="&lt;TABLE&gt;" target="_parent">
<polygon fill="lightgray" stroke="black" stroke-width="2" points="1274.49,-617 1162.49,-617 1162.49,-560 1274.49,-560 1274.49,-617"/>
<text text-anchor="start" x="1183.49" y="-599.3" font-family="Times,serif" font-size="14.00">bindForm</text>
<text text-anchor="start" x="1168.49" y="-584.3" font-family="Times,serif" font-size="14.00">(registryURL)</text>
<text text-anchor="start" x="1175.99" y="-569.3" font-family="Times,serif" font-size="14.00">(registryID)</text>
</a>
</g>
</g>
<!-- dashboard -->
<g id="node2" class="node">
<title>dashboard</title>
<g id="a_node2"><a xlink:href="docs/semantic.dashboard.html" xlink:title="&lt;TABLE&gt;" target="_parent">
<polygon fill="lightgray" stroke="black" stroke-width="2" points="1126.99,-470 1007.99,-470 1007.99,-428 1126.99,-428 1126.99,-470"/>
<text text-anchor="start" x="1029.99" y="-452.8" font-family="Times,serif" font-size="14.00">dashboard</text>
<text text-anchor="start" x="1014.49" y="-437.8" font-family="Times,serif" font-size="14.00">(registryBlock)</text>
</a>
</g>
</g>
<!-- bindForm&#45;&gt;dashboard -->
<g id="edge1" class="edge">
<title>bindForm&#45;&gt;dashboard</title>
<g id="a_edge1"><a xlink:href="docs/safe.goDashboard.html" xlink:title="goDashboard (safe)" target="_parent">
<path fill="none" stroke="black" d="M1162.17,-586.04C1129.25,-581.93 1090.04,-570.74 1068.49,-542 1055.41,-524.56 1055.99,-499.57 1059.38,-480.03"/>
<polygon fill="black" stroke="black" points="1062.84,-480.61 1061.42,-470.11 1055.98,-479.2 1062.84,-480.61"/>
</a>
</g>
<g id="a_edge1&#45;label"><a xlink:href="docs/safe.goDashboard.html" xlink:title="goDashboard (safe)" target="_parent">
<text text-anchor="start" x="1068.49" y="-531.6" font-family="Times,serif" font-size="13.00">goDashboard (safe)</text>
</a>
</g>
</g>
<!-- home -->
<g id="node9" class="node">
<title>home</title>
<g id="a_node9"><a xlink:href="docs/semantic.home.html" xlink:title="home" target="_parent">
<polygon fill="lightgray" stroke="black" stroke-width="2" points="1484.49,-36 1428.49,-36 1428.49,0 1484.49,0 1484.49,-36"/>
<text text-anchor="middle" x="1456.49" y="-14.3" font-family="Times,serif" font-size="14.00">home</text>
</a>
</g>
</g>
<!-- bindForm&#45;&gt;home -->
<g id="edge2" class="edge">
<title>bindForm&#45;&gt;home</title>
<g id="a_edge2"><a xlink:href="docs/safe.goHome.html" xlink:title="goHome (safe)" target="_parent">
<path fill="none" stroke="black" d="M1274.75,-578.42C1440,-550.48 1917.92,-460.27 2007.49,-338 2073.68,-247.65 2079.54,-171.75 2007.49,-86 1974.46,-46.7 1614.72,-26.41 1494.99,-20.71"/>
<polygon fill="black" stroke="black" points="1494.97,-17.2 1484.82,-20.23 1494.65,-24.19 1494.97,-17.2"/>
</a>
</g>
<g id="a_edge2&#45;label"><a xlink:href="docs/safe.goHome.html" xlink:title="goHome (safe)" target="_parent">
<text text-anchor="start" x="1988.49" y="-359.6" font-family="Times,serif" font-size="13.00">goHome (safe)</text>
</a>
</g>
</g>
<!-- dashboard&#45;&gt;bindForm -->
<g id="edge3" class="edge">
<title>dashboard&#45;&gt;bindForm</title>
<g id="a_edge3"><a xlink:href="docs/safe.goBindLink.html" xlink:title="goBindLink (safe)" target="_parent">
<path fill="none" stroke="black" d="M1116.93,-470.09C1143.65,-483.13 1175.4,-502.48 1196.49,-528 1201.82,-534.46 1205.93,-542.33 1209.07,-550.21"/>
<polygon fill="black" stroke="black" points="1205.8,-551.46 1212.43,-559.73 1212.4,-549.13 1205.8,-551.46"/>
</a>
</g>
<g id="a_edge3&#45;label"><a xlink:href="docs/safe.goBindLink.html" xlink:title="goBindLink (safe)" target="_parent">
<text text-anchor="start" x="1205.49" y="-531.6" font-family="Times,serif" font-size="13.00">goBindLink (safe)</text>
</a>
</g>
</g>
<!-- dashboard&#45;&gt;dashboard -->
<g id="edge4" class="edge">
<title>dashboard&#45;&gt;dashboard</title>
<path fill="none" stroke="black" d="M1127.28,-464.12C1137.72,-462.1 1144.99,-457.06 1144.99,-449 1144.99,-443.83 1142,-439.91 1137.12,-437.23"/>
<polygon fill="black" stroke="black" points="1137.87,-433.79 1127.28,-433.88 1135.62,-440.42 1137.87,-433.79"/>
<g id="a_edge4_0"><a xlink:href="docs/idempotent.doBindForm.html" xlink:title="&lt;TABLE&gt;">
<text text-anchor="start" x="1149.49" y="-495.6" font-family="Times,serif" font-size="13.00">doBindForm (idempotent)</text>
</a>
</g>
<g id="a_edge4_1"><a xlink:href="docs/unsafe.doRegisterForm.html" xlink:title="&lt;TABLE&gt;">
<text text-anchor="start" x="1149.49" y="-475.6" font-family="Times,serif" font-size="13.00">doRegisterForm (unsafe)</text>
</a>
</g>
<g id="a_edge4_2"><a xlink:href="docs/unsafe.doRenewForm.html" xlink:title="&lt;TABLE&gt;">
<text text-anchor="start" x="1149.49" y="-455.6" font-family="Times,serif" font-size="13.00">doRenewForm (unsafe)</text>
</a>
</g>
<g id="a_edge4_3"><a xlink:href="docs/idempotent.doUnregisterForm.html" xlink:title="&lt;TABLE&gt;">
<text text-anchor="start" x="1149.49" y="-435.6" font-family="Times,serif" font-size="13.00">doUnregisterForm (idempotent)</text>
</a>
</g>
<g id="a_edge4_4"><a xlink:href="docs/safe.goFindForm.html" xlink:title="&lt;TABLE&gt;">
<text text-anchor="start" x="1149.49" y="-415.6" font-family="Times,serif" font-size="13.00">goFindForm (safe)</text>
</a>
</g>
<g id="a_edge4_5"><a xlink:href="docs/safe.goHealthForm.html" xlink:title="&lt;TABLE&gt;">
<text text-anchor="start" x="1149.49" y="-395.6" font-family="Times,serif" font-size="13.00">goHealthForm (safe)</text>
</a>
</g>
</g>
<!-- findForm -->
<g id="node3" class="node">
<title>findForm</title>
<g id="a_node3"><a xlink:href="docs/semantic.findForm.html" xlink:title="&lt;TABLE&gt;" target="_parent">
<polygon fill="lightgray" stroke="black" stroke-width="2" points="219.49,-338 85.49,-338 85.49,-86 219.49,-86 219.49,-338"/>
<text text-anchor="start" x="119.99" y="-320.8" font-family="Times,serif" font-size="14.00">findForm</text>
<text text-anchor="start" x="102.49" y="-305.8" font-family="Times,serif" font-size="14.00">(registryURL)</text>
<text text-anchor="start" x="109.99" y="-290.8" font-family="Times,serif" font-size="14.00">(registryID)</text>
<text text-anchor="start" x="100.49" y="-275.8" font-family="Times,serif" font-size="14.00">(regDateTime)</text>
<text text-anchor="start" x="105.49" y="-260.8" font-family="Times,serif" font-size="14.00">(serviceURL)</text>
<text text-anchor="start" x="100.49" y="-245.8" font-family="Times,serif" font-size="14.00">(serviceName)</text>
<text text-anchor="start" x="124.99" y="-230.8" font-family="Times,serif" font-size="14.00">(status)</text>
<text text-anchor="start" x="91.49" y="-215.8" font-family="Times,serif" font-size="14.00">(semanticProfile)</text>
<text text-anchor="start" x="107.99" y="-200.8" font-family="Times,serif" font-size="14.00">(mediaType)</text>
<text text-anchor="start" x="108.49" y="-185.8" font-family="Times,serif" font-size="14.00">(healthURL)</text>
<text text-anchor="start" x="110.49" y="-170.8" font-family="Times,serif" font-size="14.00">(healthTTL)</text>
<text text-anchor="start" x="92.99" y="-155.8" font-family="Times,serif" font-size="14.00">(healthLastPing)</text>
<text text-anchor="start" x="108.99" y="-140.8" font-family="Times,serif" font-size="14.00">(renewURL)</text>
<text text-anchor="start" x="110.99" y="-125.8" font-family="Times,serif" font-size="14.00">(renewTTL)</text>
<text text-anchor="start" x="93.49" y="-110.8" font-family="Times,serif" font-size="14.00">(renewLastPing)</text>
<text text-anchor="start" x="109.99" y="-95.8" font-family="Times,serif" font-size="14.00">(bindCount)</text>
</a>
</g>
</g>
<!-- dashboard&#45;&gt;findForm -->
<g id="edge5" class="edge">
<title>dashboard&#45;&gt;findForm</title>
<g id="a_edge5"><a xlink:href="docs/safe.goFindLink.html" xlink:title="goFindLink (safe)" target="_parent">
<path fill="none" stroke="black" d="M1007.69,-448.2C794.47,-448.31 80.45,-443.17 12.49,-370 -23.69,-331.05 26.55,-285.62 76.62,-253.69"/>
<polygon fill="black" stroke="black" points="78.66,-256.54 85.29,-248.29 74.96,-250.6 78.66,-256.54"/>
</a>
</g>
<g id="a_edge5&#45;label"><a xlink:href="docs/safe.goFindLink.html" xlink:title="goFindLink (safe)" target="_parent">
<text text-anchor="start" x="12.49" y="-359.6" font-family="Times,serif" font-size="13.00">goFindLink (safe)</text>
</a>
</g>
</g>
<!-- healthForm -->
<g id="node4" class="node">
<title>healthForm</title>
<g id="a_node4"><a xlink:href="docs/semantic.healthForm.html" xlink:title="&lt;TABLE&gt;" target="_parent">
<polygon fill="lightgray" stroke="black" stroke-width="2" points="508.49,-233 408.49,-233 408.49,-191 508.49,-191 508.49,-233"/>
<text text-anchor="start" x="416.99" y="-215.8" font-family="Times,serif" font-size="14.00">healthForm</text>
<text text-anchor="start" x="414.49" y="-200.8" font-family="Times,serif" font-size="14.00">(healthURL)</text>
</a>
</g>
</g>
<!-- dashboard&#45;&gt;healthForm -->
<g id="edge6" class="edge">
<title>dashboard&#45;&gt;healthForm</title>
<g id="a_edge6"><a xlink:href="docs/safe.goHealthLink.html" xlink:title="goHealthLink (safe)" target="_parent">
<path fill="none" stroke="black" d="M1007.89,-446.4C836.48,-441.2 351.42,-421.98 304.49,-370 260.8,-321.62 343.88,-267.94 404.08,-237.55"/>
<polygon fill="black" stroke="black" points="405.74,-240.63 413.15,-233.05 402.63,-234.36 405.74,-240.63"/>
</a>
</g>
<g id="a_edge6&#45;label"><a xlink:href="docs/safe.goHealthLink.html" xlink:title="goHealthLink (safe)" target="_parent">
<text text-anchor="start" x="304.49" y="-359.6" font-family="Times,serif" font-size="13.00">goHealthLink (safe)</text>
</a>
</g>
</g>
<!-- itemForm -->
<g id="node5" class="node">
<title>itemForm</title>
<g id="a_node5"><a xlink:href="docs/semantic.itemForm.html" xlink:title="&lt;TABLE&gt;" target="_parent">
<polygon fill="lightgray" stroke="black" stroke-width="2" points="798.99,-233 701.99,-233 701.99,-191 798.99,-191 798.99,-233"/>
<text text-anchor="start" x="715.99" y="-215.8" font-family="Times,serif" font-size="14.00">itemForm</text>
<text text-anchor="start" x="708.49" y="-200.8" font-family="Times,serif" font-size="14.00">(registryID)</text>
</a>
</g>
</g>
<!-- dashboard&#45;&gt;itemForm -->
<g id="edge8" class="edge">
<title>dashboard&#45;&gt;itemForm</title>
<g id="a_edge8"><a xlink:href="docs/safe.goItemLink.html" xlink:title="goItemLink (safe)" target="_parent">
<path fill="none" stroke="black" d="M1007.61,-446.95C895.49,-443.59 660.64,-429.44 610.49,-370 570.33,-322.41 645.77,-268.57 700.64,-237.91"/>
<polygon fill="black" stroke="black" points="702.5,-240.88 709.59,-233.01 699.14,-234.74 702.5,-240.88"/>
</a>
</g>
<g id="a_edge8&#45;label"><a xlink:href="docs/safe.goItemLink.html" xlink:title="goItemLink (safe)" target="_parent">
<text text-anchor="start" x="610.49" y="-359.6" font-family="Times,serif" font-size="13.00">goItemLink (safe)</text>
</a>
</g>
</g>
<!-- registerForm -->
<g id="node6" class="node">
<title>registerForm</title>
<g id="a_node6"><a xlink:href="docs/semantic.registerForm.html" xlink:title="&lt;TABLE&gt;" target="_parent">
<polygon fill="lightgray" stroke="black" stroke-width="2" points="1051.49,-270.5 917.49,-270.5 917.49,-153.5 1051.49,-153.5 1051.49,-270.5"/>
<text text-anchor="start" x="936.99" y="-252.8" font-family="Times,serif" font-size="14.00">registerForm</text>
<text text-anchor="start" x="934.49" y="-237.8" font-family="Times,serif" font-size="14.00">(registryURL)</text>
<text text-anchor="start" x="937.49" y="-222.8" font-family="Times,serif" font-size="14.00">(serviceURL)</text>
<text text-anchor="start" x="932.49" y="-207.8" font-family="Times,serif" font-size="14.00">(serviceName)</text>
<text text-anchor="start" x="923.49" y="-192.8" font-family="Times,serif" font-size="14.00">(semanticProfile)</text>
<text text-anchor="start" x="939.99" y="-177.8" font-family="Times,serif" font-size="14.00">(mediaType)</text>
<text text-anchor="start" x="942.49" y="-162.8" font-family="Times,serif" font-size="14.00">(healthTTL)</text>
</a>
</g>
</g>
<!-- dashboard&#45;&gt;registerForm -->
<g id="edge9" class="edge">
<title>dashboard&#45;&gt;registerForm</title>
<g id="a_edge9"><a xlink:href="docs/safe.goRegisterLink.html" xlink:title="goRegisterLink (safe)" target="_parent">
<path fill="none" stroke="black" d="M1007.91,-436.65C970.67,-426.14 925.54,-406.4 902.49,-370 884.06,-340.91 897.44,-307.23 918.33,-278.54"/>
<polygon fill="black" stroke="black" points="921.12,-280.67 924.4,-270.59 915.55,-276.42 921.12,-280.67"/>
</a>
</g>
<g id="a_edge9&#45;label"><a xlink:href="docs/safe.goRegisterLink.html" xlink:title="goRegisterLink (safe)" target="_parent">
<text text-anchor="start" x="902.49" y="-359.6" font-family="Times,serif" font-size="13.00">goRegisterLink (safe)</text>
</a>
</g>
</g>
<!-- renewForm -->
<g id="node7" class="node">
<title>renewForm</title>
<g id="a_node7"><a xlink:href="docs/semantic.renewForm.html" xlink:title="&lt;TABLE&gt;" target="_parent">
<polygon fill="lightgray" stroke="black" stroke-width="2" points="1429.49,-240.5 1317.49,-240.5 1317.49,-183.5 1429.49,-183.5 1429.49,-240.5"/>
<text text-anchor="start" x="1332.49" y="-222.8" font-family="Times,serif" font-size="14.00">renewForm</text>
<text text-anchor="start" x="1323.49" y="-207.8" font-family="Times,serif" font-size="14.00">(registryURL)</text>
<text text-anchor="start" x="1330.99" y="-192.8" font-family="Times,serif" font-size="14.00">(registryID)</text>
</a>
</g>
</g>
<!-- dashboard&#45;&gt;renewForm -->
<g id="edge10" class="edge">
<title>dashboard&#45;&gt;renewForm</title>
<g id="a_edge10"><a xlink:href="docs/safe.goRenewLink.html" xlink:title="goRenewLink (safe)" target="_parent">
<path fill="none" stroke="black" d="M1098.47,-427.84C1121.68,-412.48 1154.04,-390.56 1181.49,-370 1235.55,-329.52 1295.43,-279.71 1333.72,-247.2"/>
<polygon fill="black" stroke="black" points="1336.2,-249.68 1341.55,-240.53 1331.66,-244.35 1336.2,-249.68"/>
</a>
</g>
<g id="a_edge10&#45;label"><a xlink:href="docs/safe.goRenewLink.html" xlink:title="goRenewLink (safe)" target="_parent">
<text text-anchor="start" x="1198.49" y="-359.6" font-family="Times,serif" font-size="13.00">goRenewLink (safe)</text>
</a>
</g>
</g>
<!-- unregisterForm -->
<g id="node8" class="node">
<title>unregisterForm</title>
<g id="a_node8"><a xlink:href="docs/semantic.unregisterForm.html" xlink:title="&lt;TABLE&gt;" target="_parent">
<polygon fill="lightgray" stroke="black" stroke-width="2" points="1586.99,-240.5 1461.99,-240.5 1461.99,-183.5 1586.99,-183.5 1586.99,-240.5"/>
<text text-anchor="start" x="1468.49" y="-222.8" font-family="Times,serif" font-size="14.00">unregisterForm</text>
<text text-anchor="start" x="1474.99" y="-207.8" font-family="Times,serif" font-size="14.00">(registryURL)</text>
<text text-anchor="start" x="1482.49" y="-192.8" font-family="Times,serif" font-size="14.00">(registryID)</text>
</a>
</g>
</g>
<!-- dashboard&#45;&gt;unregisterForm -->
<g id="edge11" class="edge">
<title>dashboard&#45;&gt;unregisterForm</title>
<g id="a_edge11"><a xlink:href="docs/safe.goUnregisterLink.html" xlink:title="goUnregisterLink (safe)" target="_parent">
<path fill="none" stroke="black" d="M1126.99,-444.16C1227.93,-436.47 1426.71,-415.8 1477.49,-370 1510.94,-339.82 1520.99,-286.9 1523.79,-250.92"/>
<polygon fill="black" stroke="black" points="1527.29,-251 1524.42,-240.8 1520.31,-250.56 1527.29,-251"/>
</a>
</g>
<g id="a_edge11&#45;label"><a xlink:href="docs/safe.goUnregisterLink.html" xlink:title="goUnregisterLink (safe)" target="_parent">
<text text-anchor="start" x="1488.49" y="-359.6" font-family="Times,serif" font-size="13.00">goUnregisterLink (safe)</text>
</a>
</g>
</g>
<!-- dashboard&#45;&gt;home -->
<g id="edge7" class="edge">
<title>dashboard&#45;&gt;home</title>
<g id="a_edge7"><a xlink:href="docs/safe.goHome.html" xlink:title="goHome (safe)" target="_parent">
<path fill="none" stroke="black" d="M1127.27,-446.05C1292.72,-440.03 1747.35,-419.15 1791.49,-370 1812.95,-346.1 1764.62,-345.62 1756.49,-338 1649.17,-237.38 1703.85,-142.7 1586.49,-54 1559.87,-33.88 1522.51,-25.32 1494.67,-21.68"/>
<polygon fill="black" stroke="black" points="1494.84,-18.17 1484.5,-20.51 1494.04,-25.13 1494.84,-18.17"/>
</a>
</g>
<g id="a_edge7&#45;label"><a xlink:href="docs/safe.goHome.html" xlink:title="goHome (safe)" target="_parent">
<text text-anchor="start" x="1756.49" y="-208.6" font-family="Times,serif" font-size="13.00">goHome (safe)</text>
</a>
</g>
</g>
<!-- findForm&#45;&gt;dashboard -->
<g id="edge12" class="edge">
<title>findForm&#45;&gt;dashboard</title>
<g id="a_edge12"><a xlink:href="docs/safe.goDashboard.html" xlink:title="goDashboard (safe)" target="_parent">
<path fill="none" stroke="black" d="M145.47,-338.19C149.45,-350.04 155.54,-360.97 164.49,-370 222.74,-428.83 795.55,-443.65 997.47,-447.06"/>
<polygon fill="black" stroke="black" points="997.61,-450.56 1007.66,-447.23 997.72,-443.56 997.61,-450.56"/>
</a>
</g>
<g id="a_edge12&#45;label"><a xlink:href="docs/safe.goDashboard.html" xlink:title="goDashboard (safe)" target="_parent">
<text text-anchor="start" x="164.49" y="-359.6" font-family="Times,serif" font-size="13.00">goDashboard (safe)</text>
</a>
</g>
</g>
<!-- findForm&#45;&gt;home -->
<g id="edge13" class="edge">
<title>findForm&#45;&gt;home</title>
<g id="a_edge13"><a xlink:href="docs/safe.goHome.html" xlink:title="goHome (safe)" target="_parent">
<path fill="none" stroke="black" d="M219.51,-168.95C267.73,-140.77 335.31,-105.39 399.49,-86 595.62,-26.73 1251.3,-19.88 1417.79,-19.1"/>
<polygon fill="black" stroke="black" points="1418.05,-22.6 1428.04,-19.05 1418.02,-15.6 1418.05,-22.6"/>
</a>
</g>
<g id="a_edge13&#45;label"><a xlink:href="docs/safe.goHome.html" xlink:title="goHome (safe)" target="_parent">
<text text-anchor="start" x="572.49" y="-57.6" font-family="Times,serif" font-size="13.00">goHome (safe)</text>
</a>
</g>
</g>
<!-- healthForm&#45;&gt;dashboard -->
<g id="edge14" class="edge">
<title>healthForm&#45;&gt;dashboard</title>
<g id="a_edge14"><a xlink:href="docs/safe.goDashboard.html" xlink:title="goDashboard (safe)" target="_parent">
<path fill="none" stroke="black" d="M452.91,-233.25C445.08,-266.58 435.42,-333 470.49,-370 506.31,-407.8 848.18,-434.02 997.86,-443.78"/>
<polygon fill="black" stroke="black" points="997.67,-447.27 1007.87,-444.42 998.12,-440.29 997.67,-447.27"/>
</a>
</g>
<g id="a_edge14&#45;label"><a xlink:href="docs/safe.goDashboard.html" xlink:title="goDashboard (safe)" target="_parent">
<text text-anchor="start" x="470.49" y="-359.6" font-family="Times,serif" font-size="13.00">goDashboard (safe)</text>
</a>
</g>
</g>
<!-- healthForm&#45;&gt;home -->
<g id="edge15" class="edge">
<title>healthForm&#45;&gt;home</title>
<g id="a_edge15"><a xlink:href="docs/safe.goHome.html" xlink:title="goHome (safe)" target="_parent">
<path fill="none" stroke="black" d="M488.48,-190.95C531.67,-163.03 614.78,-112.86 692.49,-86 828.95,-38.83 1282.52,-23.5 1417.97,-19.91"/>
<polygon fill="black" stroke="black" points="1418.36,-23.4 1428.26,-19.65 1418.18,-16.4 1418.36,-23.4"/>
</a>
</g>
<g id="a_edge15&#45;label"><a xlink:href="docs/safe.goHome.html" xlink:title="goHome (safe)" target="_parent">
<text text-anchor="start" x="852.49" y="-57.6" font-family="Times,serif" font-size="13.00">goHome (safe)</text>
</a>
</g>
</g>
<!-- itemForm&#45;&gt;dashboard -->
<g id="edge17" class="edge">
<title>itemForm&#45;&gt;dashboard</title>
<g id="a_edge17"><a xlink:href="docs/safe.goDashboard.html" xlink:title="goDashboard (safe)" target="_parent">
<path fill="none" stroke="black" d="M745.82,-233.11C739.48,-265.94 732.42,-331.27 765.49,-370 795.33,-404.95 918.36,-427.85 997.89,-439.31"/>
<polygon fill="black" stroke="black" points="997.46,-442.78 1007.85,-440.71 998.44,-435.85 997.46,-442.78"/>
</a>
</g>
<g id="a_edge17&#45;label"><a xlink:href="docs/safe.goDashboard.html" xlink:title="goDashboard (safe)" target="_parent">
<text text-anchor="start" x="765.49" y="-359.6" font-family="Times,serif" font-size="13.00">goDashboard (safe)</text>
</a>
</g>
</g>
<!-- itemForm&#45;&gt;home -->
<g id="edge18" class="edge">
<title>itemForm&#45;&gt;home</title>
<g id="a_edge18"><a xlink:href="docs/safe.goHome.html" xlink:title="goHome (safe)" target="_parent">
<path fill="none" stroke="black" d="M768.63,-190.9C795.88,-162.2 850.39,-110.26 908.49,-86 1001.15,-47.32 1309.21,-27.07 1418.02,-21"/>
<polygon fill="black" stroke="black" points="1418.42,-24.48 1428.21,-20.44 1418.03,-17.49 1418.42,-24.48"/>
</a>
</g>
<g id="a_edge18&#45;label"><a xlink:href="docs/safe.goHome.html" xlink:title="goHome (safe)" target="_parent">
<text text-anchor="start" x="1049.49" y="-57.6" font-family="Times,serif" font-size="13.00">goHome (safe)</text>
</a>
</g>
</g>
<!-- registerForm&#45;&gt;dashboard -->
<g id="edge19" class="edge">
<title>registerForm&#45;&gt;dashboard</title>
<g id="a_edge19"><a xlink:href="docs/safe.goDashboard.html" xlink:title="goDashboard (safe)" target="_parent">
<path fill="none" stroke="black" d="M1011.68,-270.59C1023.15,-296.34 1036.01,-327.3 1045.49,-356 1052.2,-376.34 1057.78,-399.83 1061.65,-417.98"/>
<polygon fill="black" stroke="black" points="1058.26,-418.91 1063.72,-427.99 1065.12,-417.49 1058.26,-418.91"/>
</a>
</g>
<g id="a_edge19&#45;label"><a xlink:href="docs/safe.goDashboard.html" xlink:title="goDashboard (safe)" target="_parent">
<text text-anchor="start" x="1049.49" y="-359.6" font-family="Times,serif" font-size="13.00">goDashboard (safe)</text>
</a>
</g>
</g>
<!-- renewForm&#45;&gt;dashboard -->
<g id="edge20" class="edge">
<title>renewForm&#45;&gt;dashboard</title>
<g id="a_edge20"><a xlink:href="docs/safe.goDashboard.html" xlink:title="goDashboard (safe)" target="_parent">
<path fill="none" stroke="black" d="M1374.46,-240.76C1374.12,-275.57 1368.14,-334.95 1334.49,-370 1283.27,-423.35 1197.78,-440.78 1137.36,-446.18"/>
<polygon fill="black" stroke="black" points="1136.82,-442.71 1127.13,-447 1137.38,-449.69 1136.82,-442.71"/>
</a>
</g>
<g id="a_edge20&#45;label"><a xlink:href="docs/safe.goDashboard.html" xlink:title="goDashboard (safe)" target="_parent">
<text text-anchor="start" x="1345.49" y="-359.6" font-family="Times,serif" font-size="13.00">goDashboard (safe)</text>
</a>
</g>
</g>
<!-- renewForm&#45;&gt;home -->
<g id="edge21" class="edge">
<title>renewForm&#45;&gt;home</title>
<g id="a_edge21"><a xlink:href="docs/safe.goHome.html" xlink:title="goHome (safe)" target="_parent">
<path fill="none" stroke="black" d="M1366.93,-183.37C1360.61,-149.76 1355.42,-92.71 1381.49,-54 1390.09,-41.22 1404.65,-33 1418.67,-27.77"/>
<polygon fill="black" stroke="black" points="1419.81,-31.08 1428.2,-24.61 1417.61,-24.43 1419.81,-31.08"/>
</a>
</g>
<g id="a_edge21&#45;label"><a xlink:href="docs/safe.goHome.html" xlink:title="goHome (safe)" target="_parent">
<text text-anchor="start" x="1381.49" y="-57.6" font-family="Times,serif" font-size="13.00">goHome (safe)</text>
</a>
</g>
</g>
<!-- unregisterForm&#45;&gt;dashboard -->
<g id="edge22" class="edge">
<title>unregisterForm&#45;&gt;dashboard</title>
<g id="a_edge22"><a xlink:href="docs/safe.goDashboard.html" xlink:title="goDashboard (safe)" target="_parent">
<path fill="none" stroke="black" d="M1573.85,-240.76C1624.25,-272.56 1690.05,-325.95 1651.49,-370 1618.04,-408.22 1284.99,-434.08 1137.34,-443.76"/>
<polygon fill="black" stroke="black" points="1136.79,-440.29 1127.03,-444.43 1137.24,-447.27 1136.79,-440.29"/>
</a>
</g>
<g id="a_edge22&#45;label"><a xlink:href="docs/safe.goDashboard.html" xlink:title="goDashboard (safe)" target="_parent">
<text text-anchor="start" x="1659.49" y="-359.6" font-family="Times,serif" font-size="13.00">goDashboard (safe)</text>
</a>
</g>
</g>
<!-- unregisterForm&#45;&gt;home -->
<g id="edge23" class="edge">
<title>unregisterForm&#45;&gt;home</title>
<g id="a_edge23"><a xlink:href="docs/safe.goHome.html" xlink:title="goHome (safe)" target="_parent">
<path fill="none" stroke="black" d="M1519.96,-183.3C1514.02,-151.09 1501.87,-96.88 1481.49,-54 1479.97,-50.8 1478.15,-47.59 1476.2,-44.47"/>
<polygon fill="black" stroke="black" points="1479,-42.36 1470.49,-36.05 1473.21,-46.29 1479,-42.36"/>
</a>
</g>
<g id="a_edge23&#45;label"><a xlink:href="docs/safe.goHome.html" xlink:title="goHome (safe)" target="_parent">
<text text-anchor="start" x="1486.49" y="-57.6" font-family="Times,serif" font-size="13.00">goHome (safe)</text>
</a>
</g>
</g>
<!-- home&#45;&gt;dashboard -->
<g id="edge16" class="edge">
<title>home&#45;&gt;dashboard</title>
<g id="a_edge16"><a xlink:href="docs/safe.goDashboard.html" xlink:title="goDashboard (safe)" target="_parent">
<path fill="none" stroke="black" d="M1484.49,-19.27C1566.78,-20.73 1805.01,-29.81 1852.49,-86 1888.63,-128.77 1878.16,-288.23 1852.49,-338 1841.23,-359.81 1830.44,-361.32 1807.49,-370 1685.78,-416.03 1297.38,-437.92 1137.38,-445.15"/>
<polygon fill="black" stroke="black" points="1137.02,-441.67 1127.18,-445.61 1137.33,-448.66 1137.02,-441.67"/>
</a>
</g>
<g id="a_edge16&#45;label"><a xlink:href="docs/safe.goDashboard.html" xlink:title="goDashboard (safe)" target="_parent">
<text text-anchor="start" x="1875.49" y="-208.6" font-family="Times,serif" font-size="13.00">goDashboard (safe)</text>
</a>
</g>
</g>
</g>
</svg>
