<?xml version="1.0" encoding="UTF-8" standalone="no"?>
<!DOCTYPE svg PUBLIC "-//W3C//DTD SVG 1.1//EN"
 "http://www.w3.org/Graphics/SVG/1.1/DTD/svg11.dtd">
<!-- Generated by graphviz version 2.43.0 (0)
 -->
<!-- Title: application_state_diagram Pages: 1 -->
<svg width="651pt" height="319pt"
 viewBox="0.00 0.00 650.56 319.00" xmlns="http://www.w3.org/2000/svg" xmlns:xlink="http://www.w3.org/1999/xlink">
<g id="graph0" class="graph" transform="scale(1 1) rotate(0) translate(4 315)">
<title>application_state_diagram</title>
<g id="a_graph0"><a xlink:href="index.html" xlink:title="Workflow Progress" target="_parent">
<polygon fill="white" stroke="transparent" points="-4,4 -4,-315 646.56,-315 646.56,4 -4,4"/>
<text text-anchor="middle" x="321.28" y="-295.8" font-family="Helvetica,sans-Serif" font-size="14.00">Workflow Progress</text>
</a>
</g>
<!-- progressCollection -->
<g id="node1" class="node">
<title>progressCollection</title>
<g id="a_node1"><a xlink:href="docs/semantic.progressCollection.html" xlink:title="&lt;TABLE&gt;" target="_parent">
<polygon fill="lightgray" stroke="black" stroke-width="2" points="311.06,-288 164.06,-288 164.06,-246 311.06,-246 311.06,-288"/>
<text text-anchor="start" x="170.56" y="-270.8" font-family="Times,serif" font-size="14.00">progressCollection</text>
<text text-anchor="start" x="176.06" y="-255.8" font-family="Times,serif" font-size="14.00">(progressRecord)</text>
</a>
</g>
</g>
<!-- progressItem -->
<g id="node2" class="node">
<title>progressItem</title>
<g id="a_node2"><a xlink:href="docs/semantic.progressItem.html" xlink:title="&lt;TABLE&gt;" target="_parent">
<polygon fill="lightgray" stroke="black" stroke-width="2" points="223.56,-148 87.56,-148 87.56,-106 223.56,-106 223.56,-148"/>
<text text-anchor="start" x="107.06" y="-130.8" font-family="Times,serif" font-size="14.00">progressItem</text>
<text text-anchor="start" x="93.56" y="-115.8" font-family="Times,serif" font-size="14.00">(progressRecord)</text>
</a>
</g>
</g>
<!-- progressCollection&#45;&gt;progressItem -->
<g id="edge2" class="edge">
<title>progressCollection&#45;&gt;progressItem</title>
<path fill="none" stroke="black" d="M163.82,-263.8C104.63,-260.29 28.27,-251.25 8.56,-228 -3.51,-213.76 -1.94,-201.43 8.56,-186 24.44,-162.67 51.29,-148.72 77.74,-140.39"/>
<polygon fill="black" stroke="black" points="78.82,-143.72 87.44,-137.56 76.86,-137 78.82,-143.72"/>
<g id="a_edge2_0"><a xlink:href="docs/idempotent.doProgressWrite.html" xlink:title="&lt;TABLE&gt;">
<text text-anchor="start" x="13.06" y="-213.6" font-family="Times,serif" font-size="13.00">doProgressWrite (idempotent)</text>
</a>
</g>
<g id="a_edge2_1"><a xlink:href="docs/safe.goProgressItem.html" xlink:title="&lt;TABLE&gt;">
<text text-anchor="start" x="13.06" y="-193.6" font-family="Times,serif" font-size="13.00">goProgressItem (safe)</text>
</a>
</g>
</g>
<!-- home -->
<g id="node3" class="node">
<title>home</title>
<g id="a_node3"><a xlink:href="docs/semantic.home.html" xlink:title="home" target="_parent">
<polygon fill="lightgray" stroke="black" stroke-width="2" points="359.56,-36 303.56,-36 303.56,0 359.56,0 359.56,-36"/>
<text text-anchor="middle" x="331.56" y="-14.3" font-family="Times,serif" font-size="14.00">home</text>
</a>
</g>
</g>
<!-- progressCollection&#45;&gt;home -->
<g id="edge1" class="edge">
<title>progressCollection&#45;&gt;home</title>
<g id="a_edge1"><a xlink:href="docs/safe.goHome.html" xlink:title="goHome, home (safe)" target="_parent">
<path fill="none" stroke="black" d="M311.28,-265.21C377.52,-262.75 467.78,-254.46 490.56,-228 508.03,-207.72 509.64,-126.14 481.56,-86 455.82,-49.2 405,-32.32 369.69,-24.78"/>
<polygon fill="black" stroke="black" points="370.21,-21.32 359.72,-22.81 368.85,-28.18 370.21,-21.32"/>
</a>
</g>
<g id="a_edge1&#45;label"><a xlink:href="docs/safe.goHome.html" xlink:title="goHome, home (safe)" target="_parent">
<text text-anchor="start" x="502.56" y="-123.6" font-family="Times,serif" font-size="13.00">goHome, home (safe)</text>
</a>
</g>
</g>
<!-- progressItem&#45;&gt;progressCollection -->
<g id="edge4" class="edge">
<title>progressItem&#45;&gt;progressCollection</title>
<g id="a_edge4"><a xlink:href="docs/safe.goProgressCollection.html" xlink:title="goProgressCollection, collection (safe)" target="_parent">
<path fill="none" stroke="black" d="M182.08,-148.1C193.87,-158.28 206.99,-171.55 215.56,-186 224.52,-201.1 229.93,-219.95 233.15,-235.57"/>
<polygon fill="black" stroke="black" points="229.78,-236.57 235.04,-245.77 236.66,-235.3 229.78,-236.57"/>
</a>
</g>
<g id="a_edge4&#45;label"><a xlink:href="docs/safe.goProgressCollection.html" xlink:title="goProgressCollection, collection (safe)" target="_parent">
<text text-anchor="start" x="230.56" y="-203.6" font-family="Times,serif" font-size="13.00">goProgressCollection, collection (safe)</text>
</a>
</g>
</g>
<!-- progressItem&#45;&gt;progressItem -->
<g id="edge5" class="edge">
<title>progressItem&#45;&gt;progressItem</title>
<path fill="none" stroke="black" d="M223.69,-138.34C234.32,-136.65 241.56,-132.87 241.56,-127 241.56,-123.24 238.59,-120.34 233.66,-118.29"/>
<polygon fill="black" stroke="black" points="234.25,-114.83 223.69,-115.66 232.46,-121.6 234.25,-114.83"/>
<g id="a_edge5_2"><a xlink:href="docs/idempotent.doProgressCancel.html" xlink:title="&lt;TABLE&gt;">
<text text-anchor="start" x="246.06" y="-153.6" font-family="Times,serif" font-size="13.00">doProgressCancel (idempotent)</text>
</a>
</g>
<g id="a_edge5_3"><a xlink:href="docs/idempotent.doProgressContinue.html" xlink:title="&lt;TABLE&gt;">
<text text-anchor="start" x="246.06" y="-133.6" font-family="Times,serif" font-size="13.00">doProgressContinue (idempotent)</text>
</a>
</g>
<g id="a_edge5_4"><a xlink:href="docs/idempotent.doProgressRestart.html" xlink:title="&lt;TABLE&gt;">
<text text-anchor="start" x="246.06" y="-113.6" font-family="Times,serif" font-size="13.00">doProgressRestart (idempotent)</text>
</a>
</g>
<g id="a_edge5_5"><a xlink:href="docs/idempotent.doProgressStart.html" xlink:title="&lt;TABLE&gt;">
<text text-anchor="start" x="246.06" y="-93.6" font-family="Times,serif" font-size="13.00">doProgressStart (idempotent)</text>
</a>
</g>
</g>
<!-- progressItem&#45;&gt;home -->
<g id="edge3" class="edge">
<title>progressItem&#45;&gt;home</title>
<g id="a_edge3"><a xlink:href="docs/safe.goHome.html" xlink:title="goHome, home (safe)" target="_parent">
<path fill="none" stroke="black" d="M188.67,-105.87C218.85,-87.53 263.37,-60.46 294.68,-41.42"/>
<polygon fill="black" stroke="black" points="296.81,-44.22 303.54,-36.04 293.17,-38.24 296.81,-44.22"/>
</a>
</g>
<g id="a_edge3&#45;label"><a xlink:href="docs/safe.goHome.html" xlink:title="goHome, home (safe)" target="_parent">
<text text-anchor="start" x="269.56" y="-57.6" font-family="Times,serif" font-size="13.00">goHome, home (safe)</text>
</a>
</g>
</g>
</g>
</svg>
